  0
SECTION
  2
HEADER
  9
$ACADVER
  1
AC1024
  9
$ACADMAINTVER
 70
6
  9
$DWGCODEPAGE
  3
ANSI_1252
  9
$LASTSAVEDBY
  1
ezdxf
  9
$INSBASE
 10
0.0
 20
0.0
 30
0.0
  9
$EXTMIN
 10
1e+20
 20
1e+20
 30
1e+20
  9
$EXTMAX
 10
-1e+20
 20
-1e+20
 30
-1e+20
  9
$LIMMIN
 10
0.0
 20
0.0
  9
$LIMMAX
 10
420.0
 20
297.0
  9
$ORTHOMODE
 70
0
  9
$REGENMODE
 70
1
  9
$FILLMODE
 70
1
  9
$QTEXTMODE
 70
0
  9
$MIRRTEXT
 70
1
  9
$LTSCALE
 40
8.0
  9
$ATTMODE
 70
1
  9
$TEXTSIZE
 40
2.5
  9
$TRACEWID
 40
1.0
  9
$TEXTSTYLE
  7
OpenSans
  9
$CLAYER
  8
0
  9
$CELTYPE
  6
ByLayer
  9
$CECOLOR
 62
256
  9
$CELTSCALE
 40
1.0
  9
$DISPSILH
 70
0
  9
$DIMSCALE
 40
1.0
  9
$DIMASZ
 40
0.175
  9
$DIMEXO
 40
0.125
  9
$DIMDLI
 40
3.75
  9
$DIMRND
 40
0.0
  9
$DIMDLE
 40
0.0
  9
$DIMEXE
 40
0.375
  9
$DIMTP
 40
0.0
  9
$DIMTM
 40
0.0
  9
$DIMTXT
 40
0.25
  9
$DIMCEN
 40
2.5
  9
$DIMTSZ
 40
0.0
  9
$DIMTOL
 70
0
  9
$DIMLIM
 70
0
  9
$DIMTIH
 70
0
  9
$DIMTOH
 70
0
  9
$DIMSE1
 70
0
  9
$DIMSE2
 70
0
  9
$DIMTAD
 70
1
  9
$DIMZIN
 70
12
  9
$DIMBLK
  1
ARCHTICK
  9
$DIMASO
 70
1
  9
$DIMSHO
 70
1
  9
$DIMPOST
  1

  9
$DIMAPOST
  1

  9
$DIMALT
 70
0
  9
$DIMALTD
 70
3
  9
$DIMALTF
 40
0.03937007874
  9
$DIMLFAC
 40
100.0
  9
$DIMTOFL
 70
1
  9
$DIMTVP
 40
0.0
  9
$DIMTIX
 70
0
  9
$DIMSOXD
 70
0
  9
$DIMSAH
 70
0
  9
$DIMBLK1
  1

  9
$DIMBLK2
  1

  9
$DIMSTYLE
  2
EZDXF
  9
$DIMCLRD
 70
0
  9
$DIMCLRE
 70
0
  9
$DIMCLRT
 70
0
  9
$DIMTFAC
 40
0.5
  9
$DIMGAP
 40
0.1
  9
$DIMJUST
 70
0
  9
$DIMSD1
 70
0
  9
$DIMSD2
 70
0
  9
$DIMTOLJ
 70
0
  9
$DIMTZIN
 70
8
  9
$DIMALTZ
 70
0
  9
$DIMALTTZ
 70
0
  9
$DIMUPT
 70
1
  9
$DIMDEC
 70
2
  9
$DIMTDEC
 70
2
  9
$DIMALTU
 70
2
  9
$DIMALTTD
 70
3
  9
$DIMTXSTY
  7
OpenSansCondensed-Light
  9
$DIMAUNIT
 70
0
  9
$DIMADEC
 70
2
  9
$DIMALTRND
 40
0.0
  9
$DIMAZIN
 70
3
  9
$DIMDSEP
 70
46
  9
$DIMATFIT
 70
3
  9
$DIMFRAC
 70
0
  9
$DIMLDRBLK
  1

  9
$DIMLUNIT
 70
2
  9
$DIMLWD
 70
-2
  9
$DIMLWE
 70
-2
  9
$DIMTMOVE
 70
2
  9
$DIMFXL
 40
1.0
  9
$DIMFXLON
 70
0
  9
$DIMJOGANG
 40
0.785398163397
  9
$DIMTFILL
 70
0
  9
$DIMTFILLCLR
 70
0
  9
$DIMARCSYM
 70
0
  9
$DIMLTYPE
  6

  9
$DIMLTEX1
  6

  9
$DIMLTEX2
  6

  9
$DIMTXTDIRECTION
 70
0
  9
$LUNITS
 70
2
  9
$LUPREC
 70
4
  9
$SKETCHINC
 40
1.0
  9
$FILLETRAD
 40
10.0
  9
$AUNITS
 70
0
  9
$AUPREC
 70
2
  9
$MENU
  1
.
  9
$ELEVATION
 40
0.0
  9
$PELEVATION
 40
0.0
  9
$THICKNESS
 40
0.0
  9
$LIMCHECK
 70
0
  9
$CHAMFERA
 40
0.0
  9
$CHAMFERB
 40
0.0
  9
$CHAMFERC
 40
0.0
  9
$CHAMFERD
 40
0.0
  9
$SKPOLY
 70
0
  9
$TDCREATE
 40
2461321.058923611
  9
$TDUCREATE
 40
2458532.153996898
  9
$TDUPDATE
 40
2461321.058923611
  9
$TDUUPDATE
 40
2458532.1544311
  9
$TDINDWG
 40
0.0
  9
$TDUSRTIMER
 40
0.0
  9
$USRTIMER
 70
1
  9
$ANGBASE
 50
0.0
  9
$ANGDIR
 70
0
  9
$PDMODE
 70
0
  9
$PDSIZE
 40
0.0
  9
$PLINEWID
 40
0.0
  9
$SPLFRAME
 70
0
  9
$SPLINETYPE
 70
6
  9
$SPLINESEGS
 70
8
  9
$HANDSEED
  5
50A
  9
$SURFTAB1
 70
6
  9
$SURFTAB2
 70
6
  9
$SURFTYPE
 70
6
  9
$SURFU
 70
6
  9
$SURFV
 70
6
  9
$UCSBASE
  2

  9
$UCSNAME
  2

  9
$UCSORG
 10
0.0
 20
0.0
 30
0.0
  9
$UCSXDIR
 10
1.0
 20
0.0
 30
0.0
  9
$UCSYDIR
 10
0.0
 20
1.0
 30
0.0
  9
$UCSORTHOREF
  2

  9
$UCSORTHOVIEW
 70
0
  9
$UCSORGTOP
 10
0.0
 20
0.0
 30
0.0
  9
$UCSORGBOTTOM
 10
0.0
 20
0.0
 30
0.0
  9
$UCSORGLEFT
 10
0.0
 20
0.0
 30
0.0
  9
$UCSORGRIGHT
 10
0.0
 20
0.0
 30
0.0
  9
$UCSORGFRONT
 10
0.0
 20
0.0
 30
0.0
  9
$UCSORGBACK
 10
0.0
 20
0.0
 30
0.0
  9
$PUCSBASE
  2

  9
$PUCSNAME
  2

  9
$PUCSORG
 10
0.0
 20
0.0
 30
0.0
  9
$PUCSXDIR
 10
1.0
 20
0.0
 30
0.0
  9
$PUCSYDIR
 10
0.0
 20
1.0
 30
0.0
  9
$PUCSORTHOREF
  2

  9
$PUCSORTHOVIEW
 70
0
  9
$PUCSORGTOP
 10
0.0
 20
0.0
 30
0.0
  9
$PUCSORGBOTTOM
 10
0.0
 20
0.0
 30
0.0
  9
$PUCSORGLEFT
 10
0.0
 20
0.0
 30
0.0
  9
$PUCSORGRIGHT
 10
0.0
 20
0.0
 30
0.0
  9
$PUCSORGFRONT
 10
0.0
 20
0.0
 30
0.0
  9
$PUCSORGBACK
 10
0.0
 20
0.0
 30
0.0
  9
$USERI1
 70
0
  9
$USERI2
 70
0
  9
$USERI3
 70
0
  9
$USERI4
 70
0
  9
$USERI5
 70
0
  9
$USERR1
 40
0.0
  9
$USERR2
 40
0.0
  9
$USERR3
 40
0.0
  9
$USERR4
 40
0.0
  9
$USERR5
 40
0.0
  9
$WORLDVIEW
 70
1
  9
$SHADEDGE
 70
3
  9
$SHADEDIF
 70
70
  9
$TILEMODE
 70
1
  9
$MAXACTVP
 70
64
  9
$PINSBASE
 10
0.0
 20
0.0
 30
0.0
  9
$PLIMCHECK
 70
0
  9
$PEXTMIN
 10
1e+20
 20
1e+20
 30
1e+20
  9
$PEXTMAX
 10
-1e+20
 20
-1e+20
 30
-1e+20
  9
$PLIMMIN
 10
0.0
 20
0.0
  9
$PLIMMAX
 10
420.0
 20
297.0
  9
$UNITMODE
 70
0
  9
$VISRETAIN
 70
1
  9
$PLINEGEN
 70
0
  9
$PSLTSCALE
 70
1
  9
$TREEDEPTH
 70
3020
  9
$CMLSTYLE
  2
Standard
  9
$CMLJUST
 70
0
  9
$CMLSCALE
 40
20.0
  9
$PROXYGRAPHICS
 70
1
  9
$MEASUREMENT
 70
1
  9
$CELWEIGHT
370
-1
  9
$ENDCAPS
280
0
  9
$JOINSTYLE
280
0
  9
$LWDISPLAY
290
0
  9
$INSUNITS
 70
4
  9
$HYPERLINKBASE
  1

  9
$STYLESHEET
  1

  9
$XEDIT
290
1
  9
$CEPSNTYPE
380
0
  9
$PSTYLEMODE
290
1
  9
$FINGERPRINTGUID
  2
{B1327825-9BE1-4C8E-8ACD-72D4CA3D8067}
  9
$VERSIONGUID
  2
{FE87C80E-24C6-429F-90ED-AAB895DF9ED3}
  9
$EXTNAMES
290
1
  9
$PSVPSCALE
 40
0.0
  9
$OLESTARTUP
290
0
  9
$SORTENTS
280
127
  9
$INDEXCTL
280
0
  9
$HIDETEXT
280
1
  9
$XCLIPFRAME
280
1
  9
$HALOGAP
280
0
  9
$OBSCOLOR
 70
257
  9
$OBSLTYPE
280
0
  9
$INTERSECTIONDISPLAY
280
0
  9
$INTERSECTIONCOLOR
 70
257
  9
$DIMASSOC
280
2
  9
$PROJECTNAME
  1

  9
$CAMERADISPLAY
290
0
  9
$LENSLENGTH
 40
50.0
  9
$CAMERAHEIGHT
 40
0.0
  9
$STEPSPERSEC
 40
24.0
  9
$STEPSIZE
 40
100.0
  9
$3DDWFPREC
 40
2.0
  9
$PSOLWIDTH
 40
0.005
  9
$PSOLHEIGHT
 40
0.08
  9
$LOFTANG1
 40
1.570796326795
  9
$LOFTANG2
 40
1.570796326795
  9
$LOFTMAG1
 40
0.0
  9
$LOFTMAG2
 40
0.0
  9
$LOFTPARAM
 70
7
  9
$LOFTNORMALS
280
1
  9
$LATITUDE
 40
37.795
  9
$LONGITUDE
 40
-122.394
  9
$NORTHDIRECTION
 40
0.0
  9
$TIMEZONE
 70
-8000
  9
$LIGHTGLYPHDISPLAY
280
1
  9
$TILEMODELIGHTSYNCH
280
1
  9
$CMATERIAL
347
20
  9
$SOLIDHIST
280
0
  9
$SHOWHIST
280
1
  9
$DWFFRAME
280
2
  9
$DGNFRAME
280
2
  9
$REALWORLDSCALE
290
1
  9
$INTERFERECOLOR
 62
256
  9
$CSHADOW
280
0
  9
$SHADOWPLANELOCATION
 40
0.0
  0
ENDSEC
  0
SECTION
  2
CLASSES
  0
CLASS
  1
ACDBDICTIONARYWDFLT
  2
AcDbDictionaryWithDefault
  3
ObjectDBX Classes
 90
0
 91
0
280
0
281
0
  0
CLASS
  1
SUN
  2
AcDbSun
  3
SCENEOE
 90
1153
 91
0
280
0
281
0
  0
CLASS
  1
VISUALSTYLE
  2
AcDbVisualStyle
  3
ObjectDBX Classes
 90
4095
 91
0
280
0
281
0
  0
CLASS
  1
MATERIAL
  2
AcDbMaterial
  3
ObjectDBX Classes
 90
1153
 91
0
280
0
281
0
  0
CLASS
  1
SCALE
  2
AcDbScale
  3
ObjectDBX Classes
 90
1153
 91
0
280
0
281
0
  0
CLASS
  1
TABLESTYLE
  2
AcDbTableStyle
  3
ObjectDBX Classes
 90
4095
 91
0
280
0
281
0
  0
CLASS
  1
MLEADERSTYLE
  2
AcDbMLeaderStyle
  3
ACDB_MLEADERSTYLE_CLASS
 90
4095
 91
0
280
0
281
0
  0
CLASS
  1
DICTIONARYVAR
  2
AcDbDictionaryVar
  3
ObjectDBX Classes
 90
0
 91
0
280
0
281
0
  0
CLASS
  1
CELLSTYLEMAP
  2
AcDbCellStyleMap
  3
ObjectDBX Classes
 90
1152
 91
0
280
0
281
0
  0
CLASS
  1
MENTALRAYRENDERSETTINGS
  2
AcDbMentalRayRenderSettings
  3
SCENEOE
 90
1024
 91
0
280
0
281
0
  0
CLASS
  1
ACDBDETAILVIEWSTYLE
  2
AcDbDetailViewStyle
  3
ObjectDBX Classes
 90
1025
 91
0
280
0
281
0
  0
CLASS
  1
ACDBSECTIONVIEWSTYLE
  2
AcDbSectionViewStyle
  3
ObjectDBX Classes
 90
1025
 91
0
280
0
281
0
  0
CLASS
  1
RASTERVARIABLES
  2
AcDbRasterVariables
  3
ISM
 90
0
 91
0
280
0
281
0
  0
CLASS
  1
LAYOUT
  2
AcDbLayout
  3
ObjectDBX Classes
 90
0
 91
0
280
0
281
0
  0
CLASS
  1
ACDBPLACEHOLDER
  2
AcDbPlaceHolder
  3
ObjectDBX Classes
 90
0
 91
0
280
0
281
0
  0
ENDSEC
  0
SECTION
  2
TABLES
  0
TABLE
  2
VPORT
  5
8
330
0
100
AcDbSymbolTable
 70
1
  0
VPORT
  5
23
330
8
100
AcDbSymbolTableRecord
100
AcDbViewportTableRecord
  2
*Active
 70
0
 10
0.0
 20
0.0
 11
1.0
 21
1.0
 12
0.0
 22
0.0
 13
0.0
 23
0.0
 14
0.5
 24
0.5
 15
0.5
 25
0.5
 16
0.0
 26
0.0
 36
1.0
 17
0.0
 27
0.0
 37
0.0
 40
1000.0
 41
1.34
 42
50.0
 43
0.0
 44
0.0
 50
0.0
 51
0.0
 71
0
 72
1000
 73
1
 74
3
 75
0
 76
0
 77
0
 78
0
281
0
 65
0
146
0.0
  0
ENDTAB
  0
TABLE
  2
LTYPE
  5
2
330
0
100
AcDbSymbolTable
 70
21
  0
LTYPE
  5
24
330
2
100
AcDbSymbolTableRecord
100
AcDbLinetypeTableRecord
  2
ByBlock
 70
0
  3

 72
65
 73
0
 40
0.0
  0
LTYPE
  5
25
330
2
100
AcDbSymbolTableRecord
100
AcDbLinetypeTableRecord
  2
ByLayer
 70
0
  3

 72
65
 73
0
 40
0.0
  0
LTYPE
  5
26
330
2
100
AcDbSymbolTableRecord
100
AcDbLinetypeTableRecord
  2
Continuous
 70
0
  3

 72
65
 73
0
 40
0.0
  0
LTYPE
  5
2F
330
2
100
AcDbSymbolTableRecord
100
AcDbLinetypeTableRecord
  2
CENTER
 70
0
  3
Center ____ _ ____ _ ____ _ ____ _ ____ _ ____
 72
65
 73
4
 40
5.08
 49
3.175
 74
0
 49
-0.635
 74
0
 49
0.635
 74
0
 49
-0.635
 74
0
  0
LTYPE
  5
30
330
2
100
AcDbSymbolTableRecord
100
AcDbLinetypeTableRecord
  2
CENTERX2
 70
0
  3
Center (2x) ________  __  ________  __  ________
 72
65
 73
4
 40
8.89
 49
6.35
 74
0
 49
-0.635
 74
0
 49
1.27
 74
0
 49
-0.635
 74
0
  0
LTYPE
  5
31
330
2
100
AcDbSymbolTableRecord
100
AcDbLinetypeTableRecord
  2
CENTER2
 70
0
  3
Center (.5x) ____ _ ____ _ ____ _ ____ _ ____
 72
65
 73
4
 40
2.54
 49
1.587
 74
0
 49
-0.318
 74
0
 49
0.318
 74
0
 49
-0.318
 74
0
  0
LTYPE
  5
32
330
2
100
AcDbSymbolTableRecord
100
AcDbLinetypeTableRecord
  2
DASHED
 70
0
  3
Dashed __ __ __ __ __ __ __ __ __ __ __ __ __ _
 72
65
 73
2
 40
1.524
 49
1.27
 74
0
 49
-0.254
 74
0
  0
LTYPE
  5
33
330
2
100
AcDbSymbolTableRecord
100
AcDbLinetypeTableRecord
  2
DASHEDX2
 70
0
  3
Dashed (2x) ____  ____  ____  ____  ____  ____
 72
65
 73
2
 40
3.048
 49
2.54
 74
0
 49
-0.508
 74
0
  0
LTYPE
  5
34
330
2
100
AcDbSymbolTableRecord
100
AcDbLinetypeTableRecord
  2
DASHED2
 70
0
  3
Dashed (.5x) _ _ _ _ _ _ _ _ _ _ _ _ _ _
 72
65
 73
2
 40
0.762
 49
0.635
 74
0
 49
-0.127
 74
0
  0
LTYPE
  5
35
330
2
100
AcDbSymbolTableRecord
100
AcDbLinetypeTableRecord
  2
PHANTOM
 70
0
  3
Phantom ______  __  __  ______  __  __  ______
 72
65
 73
6
 40
6.35
 49
3.175
 74
0
 49
-0.635
 74
0
 49
0.635
 74
0
 49
-0.635
 74
0
 49
0.635
 74
0
 49
-0.635
 74
0
  0
LTYPE
  5
36
330
2
100
AcDbSymbolTableRecord
100
AcDbLinetypeTableRecord
  2
PHANTOMX2
 70
0
  3
Phantom (2x)____________    ____    ____    ____________
 72
65
 73
6
 40
10.795
 49
6.35
 74
0
 49
-0.635
 74
0
 49
1.27
 74
0
 49
-0.635
 74
0
 49
1.27
 74
0
 49
-0.635
 74
0
  0
LTYPE
  5
37
330
2
100
AcDbSymbolTableRecord
100
AcDbLinetypeTableRecord
  2
PHANTOM2
 70
0
  3
Phantom (.5x) ___ _ _ ___ _ _ ___ _ _ ___ _ _ ___
 72
65
 73
6
 40
3.175
 49
1.587
 74
0
 49
-0.318
 74
0
 49
0.318
 74
0
 49
-0.318
 74
0
 49
0.318
 74
0
 49
-0.318
 74
0
  0
LTYPE
  5
38
330
2
100
AcDbSymbolTableRecord
100
AcDbLinetypeTableRecord
  2
DASHDOT
 70
0
  3
Dash dot __ . __ . __ . __ . __ . __ . __ . __
 72
65
 73
4
 40
3.556
 49
2.54
 74
0
 49
-0.508
 74
0
 49
0.0
 74
0
 49
-0.508
 74
0
  0
LTYPE
  5
39
330
2
100
AcDbSymbolTableRecord
100
AcDbLinetypeTableRecord
  2
DASHDOTX2
 70
0
  3
Dash dot (2x) ____  .  ____  .  ____  .  ____
 72
65
 73
4
 40
6.096
 49
5.08
 74
0
 49
-0.508
 74
0
 49
0.0
 74
0
 49
-0.508
 74
0
  0
LTYPE
  5
3A
330
2
100
AcDbSymbolTableRecord
100
AcDbLinetypeTableRecord
  2
DASHDOT2
 70
0
  3
Dash dot (.5x) _ . _ . _ . _ . _ . _ . _ . _
 72
65
 73
4
 40
1.778
 49
1.27
 74
0
 49
-0.254
 74
0
 49
0.0
 74
0
 49
-0.254
 74
0
  0
LTYPE
  5
3B
330
2
100
AcDbSymbolTableRecord
100
AcDbLinetypeTableRecord
  2
DOT
 70
0
  3
Dot .  .  .  .  .  .  .  .  .  .  .  .  .  .  .  .
 72
65
 73
2
 40
0.508
 49
0.0
 74
0
 49
-0.508
 74
0
  0
LTYPE
  5
3C
330
2
100
AcDbSymbolTableRecord
100
AcDbLinetypeTableRecord
  2
DOTX2
 70
0
  3
Dot (2x) .    .    .    .    .    .    .    . 
 72
65
 73
2
 40
1.016
 49
0.0
 74
0
 49
-1.016
 74
0
  0
LTYPE
  5
3D
330
2
100
AcDbSymbolTableRecord
100
AcDbLinetypeTableRecord
  2
DOT2
 70
0
  3
Dot (.5) . . . . . . . . . . . . . . . . . . . 
 72
65
 73
2
 40
0.254
 49
0.0
 74
0
 49
-0.254
 74
0
  0
LTYPE
  5
3E
330
2
100
AcDbSymbolTableRecord
100
AcDbLinetypeTableRecord
  2
DIVIDE
 70
0
  3
Divide __ . . __ . . __ . . __ . . __ . . __
 72
65
 73
6
 40
4.064
 49
2.54
 74
0
 49
-0.508
 74
0
 49
0.0
 74
0
 49
-0.508
 74
0
 49
0.0
 74
0
 49
-0.508
 74
0
  0
LTYPE
  5
3F
330
2
100
AcDbSymbolTableRecord
100
AcDbLinetypeTableRecord
  2
DIVIDEX2
 70
0
  3
Divide (2x) ____  . .  ____  . .  ____  . .  ____
 72
65
 73
6
 40
6.604
 49
5.08
 74
0
 49
-0.508
 74
0
 49
0.0
 74
0
 49
-0.508
 74
0
 49
0.0
 74
0
 49
-0.508
 74
0
  0
LTYPE
  5
40
330
2
100
AcDbSymbolTableRecord
100
AcDbLinetypeTableRecord
  2
DIVIDE2
 70
0
  3
Divide(.5x) _ . _ . _ . _ . _ . _ . _ . _
 72
65
 73
6
 40
2.032
 49
1.27
 74
0
 49
-0.254
 74
0
 49
0.0
 74
0
 49
-0.254
 74
0
 49
0.0
 74
0
 49
-0.254
 74
0
  0
ENDTAB
  0
TABLE
  2
LAYER
  5
1
330
0
100
AcDbSymbolTable
 70
19
  0
LAYER
  5
27
330
1
100
AcDbSymbolTableRecord
100
AcDbLayerTableRecord
  2
0
 70
0
 62
7
  6
Continuous
370
-3
390
13
347
21
  0
LAYER
  5
28
330
1
100
AcDbSymbolTableRecord
100
AcDbLayerTableRecord
  2
Defpoints
 70
0
 62
7
  6
Continuous
290
0
370
-3
390
13
347
21
  0
LAYER
  5
8C
330
1
100
AcDbSymbolTableRecord
100
AcDbLayerTableRecord
  2
LAMINA
 70
0
 62
7
  6
Continuous
370
50
390
13
347
21
  0
LAYER
  5
8D
330
1
100
AcDbSymbolTableRecord
100
AcDbLayerTableRecord
  2
MEMBRETE
 70
0
 62
7
  6
Continuous
370
25
390
13
347
21
  0
LAYER
  5
8E
330
1
100
AcDbSymbolTableRecord
100
AcDbLayerTableRecord
  2
CONCRETO
 70
0
 62
8
  6
Continuous
370
50
390
13
347
21
  0
LAYER
  5
8F
330
1
100
AcDbSymbolTableRecord
100
AcDbLayerTableRecord
  2
CONCRETO_ACHURADO
 70
0
 62
253
  6
Continuous
370
13
390
13
347
21
  0
LAYER
  5
90
330
1
100
AcDbSymbolTableRecord
100
AcDbLayerTableRecord
  2
ANGULOS
 70
0
 62
5
  6
Continuous
370
50
390
13
347
21
  0
LAYER
  5
91
330
1
100
AcDbSymbolTableRecord
100
AcDbLayerTableRecord
  2
ACERO
 70
0
 62
1
  6
Continuous
370
40
390
13
347
21
  0
LAYER
  5
92
330
1
100
AcDbSymbolTableRecord
100
AcDbLayerTableRecord
  2
ACERO_LISO
 70
0
 62
30
  6
Continuous
370
40
390
13
347
21
  0
LAYER
  5
93
330
1
100
AcDbSymbolTableRecord
100
AcDbLayerTableRecord
  2
OCULTO
 70
0
 62
8
  6
DASHED
370
25
390
13
347
21
  0
LAYER
  5
94
330
1
100
AcDbSymbolTableRecord
100
AcDbLayerTableRecord
  2
ANGULOS_OCULTO
 70
0
 62
5
  6
DASHED
370
25
390
13
347
21
  0
LAYER
  5
95
330
1
100
AcDbSymbolTableRecord
100
AcDbLayerTableRecord
  2
ACERO_OCULTO
 70
0
 62
1
  6
DASHED
370
25
390
13
347
21
  0
LAYER
  5
96
330
1
100
AcDbSymbolTableRecord
100
AcDbLayerTableRecord
  2
EJES
 70
0
 62
1
  6
CENTER
370
18
390
13
347
21
  0
LAYER
  5
97
330
1
100
AcDbSymbolTableRecord
100
AcDbLayerTableRecord
  2
COTAS
 70
0
 62
94
  6
Continuous
370
18
390
13
347
21
  0
LAYER
  5
98
330
1
100
AcDbSymbolTableRecord
100
AcDbLayerTableRecord
  2
TEXTO
 70
0
 62
7
  6
Continuous
370
25
390
13
347
21
  0
LAYER
  5
99
330
1
100
AcDbSymbolTableRecord
100
AcDbLayerTableRecord
  2
TITULOS
 70
0
 62
160
  6
Continuous
370
50
390
13
347
21
  0
LAYER
  5
9A
330
1
100
AcDbSymbolTableRecord
100
AcDbLayerTableRecord
  2
NOTAS_LLAMADA
 70
0
 62
30
  6
Continuous
370
25
390
13
347
21
  0
LAYER
  5
9B
330
1
100
AcDbSymbolTableRecord
100
AcDbLayerTableRecord
  2
CORTE
 70
0
 62
1
  6
Continuous
370
35
390
13
347
21
  0
LAYER
  5
9C
330
1
100
AcDbSymbolTableRecord
100
AcDbLayerTableRecord
  2
SELLO
 70
0
 62
250
  6
Continuous
370
25
390
13
347
21
  0
ENDTAB
  0
TABLE
  2
STYLE
  5
5
330
0
100
AcDbSymbolTable
 70
28
  0
STYLE
  5
29
330
5
100
AcDbSymbolTableRecord
100
AcDbTextStyleTableRecord
  2
Standard
 70
0
 40
0.0
 41
1.0
 50
0.0
 71
0
 42
2.5
  3
txt
  4

  0
STYLE
  5
41
330
5
100
AcDbSymbolTableRecord
100
AcDbTextStyleTableRecord
  2
OpenSans-Light
 70
0
 40
0.0
 41
1.0
 50
0.0
 71
0
 42
2.5
  3
OpenSans-Light.ttf
  4

  0
STYLE
  5
42
330
5
100
AcDbSymbolTableRecord
100
AcDbTextStyleTableRecord
  2
OpenSans-Light-Italic
 70
0
 40
0.0
 41
1.0
 50
0.0
 71
0
 42
2.5
  3
OpenSans-LightItalic.ttf
  4

  0
STYLE
  5
43
330
5
100
AcDbSymbolTableRecord
100
AcDbTextStyleTableRecord
  2
OpenSans
 70
0
 40
0.0
 41
1.0
 50
0.0
 71
0
 42
2.5
  3
OpenSans-Regular.ttf
  4

  0
STYLE
  5
44
330
5
100
AcDbSymbolTableRecord
100
AcDbTextStyleTableRecord
  2
OpenSans-Italic
 70
0
 40
0.0
 41
1.0
 50
0.0
 71
0
 42
2.5
  3
OpenSans-Italic.ttf
  4

  0
STYLE
  5
45
330
5
100
AcDbSymbolTableRecord
100
AcDbTextStyleTableRecord
  2
OpenSans-SemiBold
 70
0
 40
0.0
 41
1.0
 50
0.0
 71
0
 42
2.5
  3
OpenSans-SemiBold.ttf
  4

  0
STYLE
  5
46
330
5
100
AcDbSymbolTableRecord
100
AcDbTextStyleTableRecord
  2
OpenSans-SemiBoldItalic
 70
0
 40
0.0
 41
1.0
 50
0.0
 71
0
 42
2.5
  3
OpenSans-SemiBoldItalic.ttf
  4

  0
STYLE
  5
47
330
5
100
AcDbSymbolTableRecord
100
AcDbTextStyleTableRecord
  2
OpenSans-Bold
 70
0
 40
0.0
 41
1.0
 50
0.0
 71
0
 42
2.5
  3
OpenSans-Bold.ttf
  4

  0
STYLE
  5
48
330
5
100
AcDbSymbolTableRecord
100
AcDbTextStyleTableRecord
  2
OpenSans-BoldItalic
 70
0
 40
0.0
 41
1.0
 50
0.0
 71
0
 42
2.5
  3
OpenSans-BoldItalic.ttf
  4

  0
STYLE
  5
49
330
5
100
AcDbSymbolTableRecord
100
AcDbTextStyleTableRecord
  2
OpenSans-ExtraBold
 70
0
 40
0.0
 41
1.0
 50
0.0
 71
0
 42
2.5
  3
OpenSans-ExtraBold.ttf
  4

  0
STYLE
  5
4A
330
5
100
AcDbSymbolTableRecord
100
AcDbTextStyleTableRecord
  2
OpenSans-ExtraBoldItalic
 70
0
 40
0.0
 41
1.0
 50
0.0
 71
0
 42
2.5
  3
OpenSans-ExtraBoldItalic.ttf
  4

  0
STYLE
  5
4B
330
5
100
AcDbSymbolTableRecord
100
AcDbTextStyleTableRecord
  2
OpenSansCondensed-Bold
 70
0
 40
0.0
 41
1.0
 50
0.0
 71
0
 42
2.5
  3
OpenSansCondensed-Bold.ttf
  4

  0
STYLE
  5
4C
330
5
100
AcDbSymbolTableRecord
100
AcDbTextStyleTableRecord
  2
OpenSansCondensed-Light
 70
0
 40
0.0
 41
1.0
 50
0.0
 71
0
 42
2.5
  3
OpenSansCondensed-Light.ttf
  4

  0
STYLE
  5
4D
330
5
100
AcDbSymbolTableRecord
100
AcDbTextStyleTableRecord
  2
OpenSansCondensed-Italic
 70
0
 40
0.0
 41
1.0
 50
0.0
 71
0
 42
2.5
  3
OpenSansCondensed-LightItalic.ttf
  4

  0
STYLE
  5
4E
330
5
100
AcDbSymbolTableRecord
100
AcDbTextStyleTableRecord
  2
LiberationSans
 70
0
 40
0.0
 41
1.0
 50
0.0
 71
0
 42
2.5
  3
LiberationSans-Regular.ttf
  4

  0
STYLE
  5
4F
330
5
100
AcDbSymbolTableRecord
100
AcDbTextStyleTableRecord
  2
LiberationSans-Bold
 70
0
 40
0.0
 41
1.0
 50
0.0
 71
0
 42
2.5
  3
LiberationSans-Bold.ttf
  4

  0
STYLE
  5
50
330
5
100
AcDbSymbolTableRecord
100
AcDbTextStyleTableRecord
  2
LiberationSans-BoldItalic
 70
0
 40
0.0
 41
1.0
 50
0.0
 71
0
 42
2.5
  3
LiberationSans-BoldItalic.ttf
  4

  0
STYLE
  5
51
330
5
100
AcDbSymbolTableRecord
100
AcDbTextStyleTableRecord
  2
LiberationSans-Italic
 70
0
 40
0.0
 41
1.0
 50
0.0
 71
0
 42
2.5
  3
LiberationSans-Italic.ttf
  4

  0
STYLE
  5
52
330
5
100
AcDbSymbolTableRecord
100
AcDbTextStyleTableRecord
  2
LiberationSerif
 70
0
 40
0.0
 41
1.0
 50
0.0
 71
0
 42
2.5
  3
LiberationSerif-Regular.ttf
  4

  0
STYLE
  5
53
330
5
100
AcDbSymbolTableRecord
100
AcDbTextStyleTableRecord
  2
LiberationSerif-Bold
 70
0
 40
0.0
 41
1.0
 50
0.0
 71
0
 42
2.5
  3
LiberationSerif-Bold.ttf
  4

  0
STYLE
  5
54
330
5
100
AcDbSymbolTableRecord
100
AcDbTextStyleTableRecord
  2
LiberationSerif-BoldItalic
 70
0
 40
0.0
 41
1.0
 50
0.0
 71
0
 42
2.5
  3
LiberationSerif-BoldItalic.ttf
  4

  0
STYLE
  5
55
330
5
100
AcDbSymbolTableRecord
100
AcDbTextStyleTableRecord
  2
LiberationSerif-Italic
 70
0
 40
0.0
 41
1.0
 50
0.0
 71
0
 42
2.5
  3
LiberationSerif-Italic.ttf
  4

  0
STYLE
  5
56
330
5
100
AcDbSymbolTableRecord
100
AcDbTextStyleTableRecord
  2
LiberationMono
 70
0
 40
0.0
 41
1.0
 50
0.0
 71
0
 42
2.5
  3
LiberationMono-Regular.ttf
  4

  0
STYLE
  5
57
330
5
100
AcDbSymbolTableRecord
100
AcDbTextStyleTableRecord
  2
LiberationMono-Bold
 70
0
 40
0.0
 41
1.0
 50
0.0
 71
0
 42
2.5
  3
LiberationMono-Bold.ttf
  4

  0
STYLE
  5
58
330
5
100
AcDbSymbolTableRecord
100
AcDbTextStyleTableRecord
  2
LiberationMono-BoldItalic
 70
0
 40
0.0
 41
1.0
 50
0.0
 71
0
 42
2.5
  3
LiberationMono-BoldItalic.ttf
  4

  0
STYLE
  5
59
330
5
100
AcDbSymbolTableRecord
100
AcDbTextStyleTableRecord
  2
LiberationMono-Italic
 70
0
 40
0.0
 41
1.0
 50
0.0
 71
0
 42
2.5
  3
LiberationMono-Italic.ttf
  4

  0
STYLE
  5
8A
330
5
100
AcDbSymbolTableRecord
100
AcDbTextStyleTableRecord
  2
ARIAL
 70
0
 40
0.0
 41
1.0
 50
0.0
 71
0
 42
2.5
  3
arial.ttf
  4

  0
STYLE
  5
8B
330
5
100
AcDbSymbolTableRecord
100
AcDbTextStyleTableRecord
  2
ARIALB
 70
0
 40
0.0
 41
1.0
 50
0.0
 71
0
 42
2.5
  3
arialbd.ttf
  4

  0
ENDTAB
  0
TABLE
  2
VIEW
  5
7
330
0
100
AcDbSymbolTable
 70
0
  0
ENDTAB
  0
TABLE
  2
UCS
  5
6
330
0
100
AcDbSymbolTable
 70
0
  0
ENDTAB
  0
TABLE
  2
APPID
  5
3
330
0
100
AcDbSymbolTable
 70
3
  0
APPID
  5
2A
330
3
100
AcDbSymbolTableRecord
100
AcDbRegAppTableRecord
  2
ACAD
 70
0
  0
APPID
  5
507
330
3
100
AcDbSymbolTableRecord
100
AcDbRegAppTableRecord
  2
HATCHBACKGROUNDCOLOR
 70
0
  0
APPID
  5
508
330
3
100
AcDbSymbolTableRecord
100
AcDbRegAppTableRecord
  2
EZDXF
 70
0
  0
ENDTAB
  0
TABLE
  2
DIMSTYLE
  5
4
330
0
100
AcDbSymbolTable
 70
16
100
AcDbDimStyleTable
  0
DIMSTYLE
105
2B
330
4
100
AcDbSymbolTableRecord
100
AcDbDimStyleTableRecord
  2
Standard
 70
0
 40
1.0
 41
2.5
 42
0.625
 43
3.75
 44
1.25
 45
0.0
 46
0.0
 47
0.0
 48
0.0
 49
2.5
140
2.5
141
2.5
142
0.0
143
0.03937007874
144
1.0
145
0.0
146
1.0
147
0.625
148
0.0
 69
0
 70
0
 71
0
 72
0
 73
0
 74
0
 75
0
 76
0
 77
1
 78
8
 79
3
170
0
171
3
172
1
173
0
174
0
175
0
176
0
177
0
178
0
179
2
271
2
272
2
273
2
274
3
275
0
276
0
277
2
278
44
279
0
280
0
281
0
282
0
283
0
284
8
285
0
286
0
288
0
289
3
290
0
371
-2
372
-2
  0
DIMSTYLE
105
73
330
4
100
AcDbSymbolTableRecord
100
AcDbDimStyleTableRecord
  2
EZDXF
 70
0
 40
1.0
 41
0.175
 42
0.125
 43
3.75
 44
0.375
 45
0.0
 46
0.0
 47
0.0
 48
0.0
 49
2.5
140
0.25
141
2.5
142
0.0
143
0.03937007874
144
100.0
145
0.0
146
0.5
147
0.1
148
0.0
 69
0
 70
0
 71
0
 72
0
 73
0
 74
0
 75
0
 76
0
 77
1
 78
12
 79
3
170
0
171
3
172
1
173
0
174
0
175
0
176
0
177
0
178
0
179
2
271
2
272
2
273
2
274
3
275
0
276
0
277
2
278
46
279
2
280
0
281
0
282
0
283
0
284
8
285
0
286
0
288
1
289
3
290
0
340
4C
342
74
371
-2
372
-2
  0
DIMSTYLE
105
7C
330
4
100
AcDbSymbolTableRecord
100
AcDbDimStyleTableRecord
  2
EZ_M_100_H25_CM
 70
0
 40
1.0
 41
0.25
 42
0.125
 43
3.75
 44
0.375
 45
0.0
 46
0.0
 47
0.0
 48
0.0
 49
2.5
140
0.25
141
2.5
142
0.125
143
0.03937007874
144
100.0
145
0.0
146
0.5
147
0.1
148
0.0
 69
0
 70
0
 71
0
 72
0
 73
0
 74
0
 75
0
 76
0
 77
1
 78
12
 79
3
170
0
171
3
172
1
173
0
174
0
175
0
176
0
177
0
178
0
179
2
271
2
272
2
273
2
274
3
275
0
276
0
277
2
278
46
279
2
280
0
281
0
282
0
283
0
284
8
285
0
286
0
288
1
289
3
290
0
340
4C
371
-2
372
-2
  0
DIMSTYLE
105
7D
330
4
100
AcDbSymbolTableRecord
100
AcDbDimStyleTableRecord
  2
EZ_M_50_H25_CM
 70
0
 40
1.0
 41
0.125
 42
0.0625
 43
3.75
 44
0.1875
 45
0.0
 46
0.0
 47
0.0
 48
0.0
 49
2.5
140
0.125
141
2.5
142
0.0625
143
0.03937007874
144
100.0
145
0.0
146
0.5
147
0.05
148
0.0
 69
0
 70
0
 71
0
 72
0
 73
0
 74
0
 75
0
 76
0
 77
1
 78
12
 79
3
170
0
171
3
172
1
173
0
174
0
175
0
176
0
177
0
178
0
179
2
271
2
272
2
273
2
274
3
275
0
276
0
277
2
278
46
279
2
280
0
281
0
282
0
283
0
284
8
285
0
286
0
288
1
289
3
290
0
340
4C
371
-2
372
-2
  0
DIMSTYLE
105
7E
330
4
100
AcDbSymbolTableRecord
100
AcDbDimStyleTableRecord
  2
EZ_M_25_H25_CM
 70
0
 40
1.0
 41
0.0625
 42
0.03125
 43
3.75
 44
0.09375
 45
0.0
 46
0.0
 47
0.0
 48
0.0
 49
2.5
140
0.0625
141
2.5
142
0.03125
143
0.03937007874
144
100.0
145
0.0
146
0.5
147
0.025
148
0.0
 69
0
 70
0
 71
0
 72
0
 73
0
 74
0
 75
0
 76
0
 77
1
 78
12
 79
3
170
0
171
3
172
1
173
0
174
0
175
0
176
0
177
0
178
0
179
2
271
2
272
2
273
2
274
3
275
0
276
0
277
2
278
46
279
2
280
0
281
0
282
0
283
0
284
8
285
0
286
0
288
1
289
3
290
0
340
4C
371
-2
372
-2
  0
DIMSTYLE
105
7F
330
4
100
AcDbSymbolTableRecord
100
AcDbDimStyleTableRecord
  2
EZ_M_20_H25_CM
 70
0
 40
1.0
 41
0.05
 42
0.025
 43
3.75
 44
0.07500000000000001
 45
0.0
 46
0.0
 47
0.0
 48
0.0
 49
2.5
140
0.05
141
2.5
142
0.025
143
0.03937007874
144
100.0
145
0.0
146
0.5
147
0.020000000000000004
148
0.0
 69
0
 70
0
 71
0
 72
0
 73
0
 74
0
 75
0
 76
0
 77
1
 78
12
 79
3
170
0
171
3
172
1
173
0
174
0
175
0
176
0
177
0
178
0
179
2
271
2
272
2
273
2
274
3
275
0
276
0
277
2
278
46
279
2
280
0
281
0
282
0
283
0
284
8
285
0
286
0
288
1
289
3
290
0
340
4C
371
-2
372
-2
  0
DIMSTYLE
105
80
330
4
100
AcDbSymbolTableRecord
100
AcDbDimStyleTableRecord
  2
EZ_M_10_H25_CM
 70
0
 40
1.0
 41
0.025
 42
0.0125
 43
3.75
 44
0.037500000000000006
 45
0.0
 46
0.0
 47
0.0
 48
0.0
 49
2.5
140
0.025
141
2.5
142
0.0125
143
0.03937007874
144
100.0
145
0.0
146
0.5
147
0.010000000000000002
148
0.0
 69
0
 70
0
 71
0
 72
0
 73
0
 74
0
 75
0
 76
0
 77
1
 78
12
 79
3
170
0
171
3
172
1
173
0
174
0
175
0
176
0
177
0
178
0
179
2
271
2
272
2
273
2
274
3
275
0
276
0
277
2
278
46
279
2
280
0
281
0
282
0
283
0
284
8
285
0
286
0
288
1
289
3
290
0
340
4C
371
-2
372
-2
  0
DIMSTYLE
105
81
330
4
100
AcDbSymbolTableRecord
100
AcDbDimStyleTableRecord
  2
EZ_M_5_H25_CM
 70
0
 40
1.0
 41
0.0125
 42
0.00625
 43
3.75
 44
0.018750000000000003
 45
0.0
 46
0.0
 47
0.0
 48
0.0
 49
2.5
140
0.0125
141
2.5
142
0.00625
143
0.03937007874
144
100.0
145
0.0
146
0.5
147
0.005000000000000001
148
0.0
 69
0
 70
0
 71
0
 72
0
 73
0
 74
0
 75
0
 76
0
 77
1
 78
12
 79
3
170
0
171
3
172
1
173
0
174
0
175
0
176
0
177
0
178
0
179
2
271
2
272
2
273
2
274
3
275
0
276
0
277
2
278
46
279
2
280
0
281
0
282
0
283
0
284
8
285
0
286
0
288
1
289
3
290
0
340
4C
371
-2
372
-2
  0
DIMSTYLE
105
82
330
4
100
AcDbSymbolTableRecord
100
AcDbDimStyleTableRecord
  2
EZ_M_1_H25_CM
 70
0
 40
1.0
 41
0.0025
 42
0.00125
 43
3.75
 44
0.00375
 45
0.0
 46
0.0
 47
0.0
 48
0.0
 49
2.5
140
0.0025
141
2.5
142
0.00125
143
0.03937007874
144
100.0
145
0.0
146
0.5
147
0.001
148
0.0
 69
0
 70
0
 71
0
 72
0
 73
0
 74
0
 75
0
 76
0
 77
1
 78
12
 79
3
170
0
171
3
172
1
173
0
174
0
175
0
176
0
177
0
178
0
179
2
271
2
272
2
273
2
274
3
275
0
276
0
277
2
278
46
279
2
280
0
281
0
282
0
283
0
284
8
285
0
286
0
288
1
289
3
290
0
340
4C
371
-2
372
-2
  0
DIMSTYLE
105
83
330
4
100
AcDbSymbolTableRecord
100
AcDbDimStyleTableRecord
  2
EZ_RADIUS
 70
0
 40
1.0
 41
0.25
 42
0.125
 43
3.75
 44
0.375
 45
0.0
 46
0.0
 47
0.0
 48
0.0
 49
2.5
140
0.25
141
0.0
142
0.0
143
0.03937007874
144
100.0
145
0.0
146
0.5
147
0.1
148
0.0
 69
0
 70
0
 71
0
 72
0
 73
0
 74
0
 75
0
 76
0
 77
1
 78
12
 79
3
170
0
171
3
172
0
173
0
174
0
175
0
176
0
177
0
178
0
179
2
271
2
272
2
273
2
274
3
275
0
276
0
277
2
278
46
279
1
280
0
281
0
282
0
283
0
284
8
285
0
286
0
288
1
289
3
290
0
340
4C
342
84
371
-2
372
-2
  0
DIMSTYLE
105
88
330
4
100
AcDbSymbolTableRecord
100
AcDbDimStyleTableRecord
  2
EZ_RADIUS_INSIDE
 70
0
 40
1.0
 41
0.25
 42
0.125
 43
3.75
 44
0.375
 45
0.0
 46
0.0
 47
0.0
 48
0.0
 49
2.5
140
0.25
141
0.0
142
0.0
143
0.03937007874
144
100.0
145
0.0
146
0.5
147
0.1
148
0.0
 69
0
 70
0
 71
0
 72
0
 73
0
 74
0
 75
0
 76
0
 77
0
 78
12
 79
3
170
0
171
3
172
0
173
0
174
1
175
0
176
0
177
0
178
0
179
2
271
2
272
2
273
2
274
3
275
0
276
0
277
2
278
46
279
0
280
0
281
0
282
0
283
0
284
8
285
0
286
0
288
1
289
0
290
0
340
4C
342
84
371
-2
372
-2
  0
DIMSTYLE
105
89
330
4
100
AcDbSymbolTableRecord
100
AcDbDimStyleTableRecord
  2
EZ_CURVED
 70
0
 40
1.0
 41
0.25
 42
0.125
 43
3.75
 44
0.375
 45
0.0
 46
0.0
 47
0.0
 48
0.0
 49
2.5
140
0.25
141
2.5
142
0.0
143
0.03937007874
144
100.0
145
0.0
146
0.5
147
0.1
148
0.0
 69
0
 70
0
 71
0
 72
0
 73
0
 74
0
 75
0
 76
0
 77
1
 78
12
 79
2
 90
2
170
0
171
3
172
1
173
0
174
0
175
0
176
0
177
0
178
0
179
2
271
2
272
2
273
2
274
3
275
0
276
0
277
2
278
46
279
2
280
0
281
0
282
0
283
0
284
8
285
0
286
0
288
1
289
3
290
0
340
4C
371
-2
372
-2
  0
DIMSTYLE
105
9D
330
4
100
AcDbSymbolTableRecord
100
AcDbDimStyleTableRecord
  2
M_1_10
 70
0
 40
1.0
 41
2.2
 42
1.5
 43
3.75
 44
1.6
 45
0.0
 46
0.0
 47
0.0
 48
0.0
 49
2.5
140
2.8
141
2.5
142
1.6
143
0.03937007874
144
0.01
145
0.0
146
1.0
147
1.0
148
0.0
 69
0
 70
0
 71
0
 72
0
 73
0
 74
0
 75
0
 76
0
 77
1
 78
0
 79
3
170
0
171
3
172
1
173
0
174
0
175
0
176
94
177
94
178
7
179
2
271
2
272
2
273
2
274
3
275
0
276
0
277
2
278
46
279
1
280
0
281
0
282
0
283
0
284
8
285
0
286
0
288
0
289
3
290
0
340
8A
371
-2
372
-2
  0
DIMSTYLE
105
9E
330
4
100
AcDbSymbolTableRecord
100
AcDbDimStyleTableRecord
  2
M_1_5
 70
0
 40
1.0
 41
2.2
 42
1.5
 43
3.75
 44
1.6
 45
0.0
 46
0.0
 47
0.0
 48
0.0
 49
2.5
140
2.8
141
2.5
142
1.6
143
0.03937007874
144
0.005
145
0.0
146
1.0
147
1.0
148
0.0
 69
0
 70
0
 71
0
 72
0
 73
0
 74
0
 75
0
 76
0
 77
1
 78
0
 79
3
170
0
171
3
172
1
173
0
174
0
175
0
176
94
177
94
178
7
179
2
271
2
272
2
273
2
274
3
275
0
276
0
277
2
278
46
279
1
280
0
281
0
282
0
283
0
284
8
285
0
286
0
288
0
289
3
290
0
340
8A
371
-2
372
-2
  0
DIMSTYLE
105
9F
330
4
100
AcDbSymbolTableRecord
100
AcDbDimStyleTableRecord
  2
M_1_2
 70
0
 40
1.0
 41
2.2
 42
1.5
 43
3.75
 44
1.6
 45
0.0
 46
0.0
 47
0.0
 48
0.0
 49
2.5
140
2.8
141
2.5
142
1.6
143
0.03937007874
144
0.002
145
0.0
146
1.0
147
1.0
148
0.0
 69
0
 70
0
 71
0
 72
0
 73
0
 74
0
 75
0
 76
0
 77
1
 78
0
 79
3
170
0
171
3
172
1
173
0
174
0
175
0
176
94
177
94
178
7
179
2
271
3
272
2
273
2
274
3
275
0
276
0
277
2
278
46
279
1
280
0
281
0
282
0
283
0
284
8
285
0
286
0
288
0
289
3
290
0
340
8A
371
-2
372
-2
  0
DIMSTYLE
105
A0
330
4
100
AcDbSymbolTableRecord
100
AcDbDimStyleTableRecord
  2
MM_1_1
 70
0
 40
1.0
 41
2.2
 42
1.5
 43
3.75
 44
1.6
 45
0.0
 46
0.0
 47
0.0
 48
0.0
 49
2.5
140
2.8
141
2.5
142
1.6
143
0.03937007874
144
1.0
145
0.0
146
1.0
147
1.0
148
0.0
 69
0
 70
0
 71
0
 72
0
 73
0
 74
0
 75
0
 76
0
 77
1
 78
0
 79
3
170
0
171
3
172
1
173
0
174
0
175
0
176
94
177
94
178
7
179
2
271
1
272
2
273
2
274
3
275
0
276
0
277
2
278
46
279
1
280
0
281
0
282
0
283
0
284
8
285
0
286
0
288
0
289
3
290
0
340
8A
371
-2
372
-2
  0
ENDTAB
  0
TABLE
  2
BLOCK_RECORD
  5
9
330
0
100
AcDbSymbolTable
 70
48
  0
BLOCK_RECORD
  5
17
330
9
100
AcDbSymbolTableRecord
100
AcDbBlockTableRecord
  2
*Model_Space
340
1A
 70
0
280
1
281
0
  0
BLOCK_RECORD
  5
1B
330
9
100
AcDbSymbolTableRecord
100
AcDbBlockTableRecord
  2
*Paper_Space
340
1E
 70
0
280
1
281
0
  0
BLOCK_RECORD
  5
74
330
9
100
AcDbSymbolTableRecord
100
AcDbBlockTableRecord
  2
_ARCHTICK
340
0
 70
0
280
1
281
0
  0
BLOCK_RECORD
  5
78
330
9
100
AcDbSymbolTableRecord
100
AcDbBlockTableRecord
  2
_CLOSEDFILLED
340
0
 70
0
280
1
281
0
  0
BLOCK_RECORD
  5
84
330
9
100
AcDbSymbolTableRecord
100
AcDbBlockTableRecord
  2
_CLOSEDBLANK
340
0
 70
0
280
1
281
0
  0
BLOCK_RECORD
  5
CF
330
9
100
AcDbSymbolTableRecord
100
AcDbBlockTableRecord
  2
*D1
340
0
 70
0
280
1
281
0
  0
BLOCK_RECORD
  5
D4
330
9
100
AcDbSymbolTableRecord
100
AcDbBlockTableRecord
  2
_OBLIQUE
340
0
 70
0
280
1
281
0
  0
BLOCK_RECORD
  5
E2
330
9
100
AcDbSymbolTableRecord
100
AcDbBlockTableRecord
  2
*D2
340
0
 70
0
280
1
281
0
  0
BLOCK_RECORD
  5
F1
330
9
100
AcDbSymbolTableRecord
100
AcDbBlockTableRecord
  2
*D3
340
0
 70
0
280
1
281
0
  0
BLOCK_RECORD
  5
100
330
9
100
AcDbSymbolTableRecord
100
AcDbBlockTableRecord
  2
*D4
340
0
 70
0
280
1
281
0
  0
BLOCK_RECORD
  5
10F
330
9
100
AcDbSymbolTableRecord
100
AcDbBlockTableRecord
  2
*D5
340
0
 70
0
280
1
281
0
  0
BLOCK_RECORD
  5
11E
330
9
100
AcDbSymbolTableRecord
100
AcDbBlockTableRecord
  2
*D6
340
0
 70
0
280
1
281
0
  0
BLOCK_RECORD
  5
17E
330
9
100
AcDbSymbolTableRecord
100
AcDbBlockTableRecord
  2
*D7
340
0
 70
0
280
1
281
0
  0
BLOCK_RECORD
  5
18D
330
9
100
AcDbSymbolTableRecord
100
AcDbBlockTableRecord
  2
*D8
340
0
 70
0
280
1
281
0
  0
BLOCK_RECORD
  5
19C
330
9
100
AcDbSymbolTableRecord
100
AcDbBlockTableRecord
  2
*D9
340
0
 70
0
280
1
281
0
  0
BLOCK_RECORD
  5
1AB
330
9
100
AcDbSymbolTableRecord
100
AcDbBlockTableRecord
  2
*D10
340
0
 70
0
280
1
281
0
  0
BLOCK_RECORD
  5
1BA
330
9
100
AcDbSymbolTableRecord
100
AcDbBlockTableRecord
  2
*D11
340
0
 70
0
280
1
281
0
  0
BLOCK_RECORD
  5
1C9
330
9
100
AcDbSymbolTableRecord
100
AcDbBlockTableRecord
  2
*D12
340
0
 70
0
280
1
281
0
  0
BLOCK_RECORD
  5
1D8
330
9
100
AcDbSymbolTableRecord
100
AcDbBlockTableRecord
  2
*D13
340
0
 70
0
280
1
281
0
  0
BLOCK_RECORD
  5
1E7
330
9
100
AcDbSymbolTableRecord
100
AcDbBlockTableRecord
  2
*D14
340
0
 70
0
280
1
281
0
  0
BLOCK_RECORD
  5
1F6
330
9
100
AcDbSymbolTableRecord
100
AcDbBlockTableRecord
  2
*D15
340
0
 70
0
280
1
281
0
  0
BLOCK_RECORD
  5
232
330
9
100
AcDbSymbolTableRecord
100
AcDbBlockTableRecord
  2
*D16
340
0
 70
0
280
1
281
0
  0
BLOCK_RECORD
  5
241
330
9
100
AcDbSymbolTableRecord
100
AcDbBlockTableRecord
  2
*D17
340
0
 70
0
280
1
281
0
  0
BLOCK_RECORD
  5
250
330
9
100
AcDbSymbolTableRecord
100
AcDbBlockTableRecord
  2
*D18
340
0
 70
0
280
1
281
0
  0
BLOCK_RECORD
  5
25F
330
9
100
AcDbSymbolTableRecord
100
AcDbBlockTableRecord
  2
*D19
340
0
 70
0
280
1
281
0
  0
BLOCK_RECORD
  5
26E
330
9
100
AcDbSymbolTableRecord
100
AcDbBlockTableRecord
  2
*D20
340
0
 70
0
280
1
281
0
  0
BLOCK_RECORD
  5
27D
330
9
100
AcDbSymbolTableRecord
100
AcDbBlockTableRecord
  2
*D21
340
0
 70
0
280
1
281
0
  0
BLOCK_RECORD
  5
28C
330
9
100
AcDbSymbolTableRecord
100
AcDbBlockTableRecord
  2
*D22
340
0
 70
0
280
1
281
0
  0
BLOCK_RECORD
  5
2E4
330
9
100
AcDbSymbolTableRecord
100
AcDbBlockTableRecord
  2
*D23
340
0
 70
0
280
1
281
0
  0
BLOCK_RECORD
  5
2F3
330
9
100
AcDbSymbolTableRecord
100
AcDbBlockTableRecord
  2
*D24
340
0
 70
0
280
1
281
0
  0
BLOCK_RECORD
  5
302
330
9
100
AcDbSymbolTableRecord
100
AcDbBlockTableRecord
  2
*D25
340
0
 70
0
280
1
281
0
  0
BLOCK_RECORD
  5
311
330
9
100
AcDbSymbolTableRecord
100
AcDbBlockTableRecord
  2
*D26
340
0
 70
0
280
1
281
0
  0
BLOCK_RECORD
  5
320
330
9
100
AcDbSymbolTableRecord
100
AcDbBlockTableRecord
  2
*D27
340
0
 70
0
280
1
281
0
  0
BLOCK_RECORD
  5
32F
330
9
100
AcDbSymbolTableRecord
100
AcDbBlockTableRecord
  2
*D28
340
0
 70
0
280
1
281
0
  0
BLOCK_RECORD
  5
365
330
9
100
AcDbSymbolTableRecord
100
AcDbBlockTableRecord
  2
*D29
340
0
 70
0
280
1
281
0
  0
BLOCK_RECORD
  5
374
330
9
100
AcDbSymbolTableRecord
100
AcDbBlockTableRecord
  2
*D30
340
0
 70
0
280
1
281
0
  0
BLOCK_RECORD
  5
383
330
9
100
AcDbSymbolTableRecord
100
AcDbBlockTableRecord
  2
*D31
340
0
 70
0
280
1
281
0
  0
BLOCK_RECORD
  5
392
330
9
100
AcDbSymbolTableRecord
100
AcDbBlockTableRecord
  2
*D32
340
0
 70
0
280
1
281
0
  0
BLOCK_RECORD
  5
3BB
330
9
100
AcDbSymbolTableRecord
100
AcDbBlockTableRecord
  2
*D33
340
0
 70
0
280
1
281
0
  0
BLOCK_RECORD
  5
3CA
330
9
100
AcDbSymbolTableRecord
100
AcDbBlockTableRecord
  2
*D34
340
0
 70
0
280
1
281
0
  0
BLOCK_RECORD
  5
3D9
330
9
100
AcDbSymbolTableRecord
100
AcDbBlockTableRecord
  2
*D35
340
0
 70
0
280
1
281
0
  0
BLOCK_RECORD
  5
3E8
330
9
100
AcDbSymbolTableRecord
100
AcDbBlockTableRecord
  2
*D36
340
0
 70
0
280
1
281
0
  0
BLOCK_RECORD
  5
404
330
9
100
AcDbSymbolTableRecord
100
AcDbBlockTableRecord
  2
*D37
340
0
 70
0
280
1
281
0
  0
BLOCK_RECORD
  5
413
330
9
100
AcDbSymbolTableRecord
100
AcDbBlockTableRecord
  2
*D38
340
0
 70
0
280
1
281
0
  0
BLOCK_RECORD
  5
422
330
9
100
AcDbSymbolTableRecord
100
AcDbBlockTableRecord
  2
*D39
340
0
 70
0
280
1
281
0
  0
BLOCK_RECORD
  5
434
330
9
100
AcDbSymbolTableRecord
100
AcDbBlockTableRecord
  2
*D40
340
0
 70
0
280
1
281
0
  0
BLOCK_RECORD
  5
443
330
9
100
AcDbSymbolTableRecord
100
AcDbBlockTableRecord
  2
*D41
340
0
 70
0
280
1
281
0
  0
BLOCK_RECORD
  5
452
330
9
100
AcDbSymbolTableRecord
100
AcDbBlockTableRecord
  2
*D42
340
0
 70
0
280
1
281
0
  0
ENDTAB
  0
ENDSEC
  0
SECTION
  2
BLOCKS
  0
BLOCK
  5
18
330
17
100
AcDbEntity
  8
0
100
AcDbBlockBegin
  2
*Model_Space
 70
0
 10
0.0
 20
0.0
 30
0.0
  3
*Model_Space
  1

  0
ENDBLK
  5
19
330
17
100
AcDbEntity
  8
0
100
AcDbBlockEnd
  0
BLOCK
  5
1C
330
1B
100
AcDbEntity
  8
0
100
AcDbBlockBegin
  2
*Paper_Space
 70
0
 10
0.0
 20
0.0
 30
0.0
  3
*Paper_Space
  1

  0
ENDBLK
  5
1D
330
1B
100
AcDbEntity
  8
0
100
AcDbBlockEnd
  0
BLOCK
  5
75
330
74
100
AcDbEntity
  8
0
100
AcDbBlockBegin
  2
_ARCHTICK
 70
0
 10
0.0
 20
0.0
 30
0.0
  3
_ARCHTICK
  1

  0
LWPOLYLINE
  5
77
330
74
100
AcDbEntity
  8
0
  6
BYBLOCK
 62
0
100
AcDbPolyline
 90
2
 70
0
 43
0.15
 10
-0.5
 20
-0.5
 10
0.5
 20
0.5
  0
ENDBLK
  5
76
330
74
100
AcDbEntity
  8
0
100
AcDbBlockEnd
  0
BLOCK
  5
79
330
78
100
AcDbEntity
  8
0
100
AcDbBlockBegin
  2
_CLOSEDFILLED
 70
0
 10
0.0
 20
0.0
 30
0.0
  3
_CLOSEDFILLED
  1

  0
SOLID
  5
7B
330
78
100
AcDbEntity
  8
0
  6
BYBLOCK
 62
0
100
AcDbTrace
 10
-1.0
 20
0.16439898372402537
 30
0.0
 11
0.0
 21
0.0
 31
0.0
 12
-1.0
 22
-0.16439898372402537
 32
0.0
 13
-1.0
 23
-0.16439898372402537
 33
0.0
  0
ENDBLK
  5
7A
330
78
100
AcDbEntity
  8
0
100
AcDbBlockEnd
  0
BLOCK
  5
85
330
84
100
AcDbEntity
  8
0
100
AcDbBlockBegin
  2
_CLOSEDBLANK
 70
0
 10
0.0
 20
0.0
 30
0.0
  3
_CLOSEDBLANK
  1

  0
LWPOLYLINE
  5
87
330
84
100
AcDbEntity
  8
0
  6
BYBLOCK
 62
0
100
AcDbPolyline
 90
3
 70
1
 10
-1.0
 20
0.16439898372402537
 10
0.0
 20
0.0
 10
-1.0
 20
-0.16439898372402537
  0
ENDBLK
  5
86
330
84
100
AcDbEntity
  8
0
100
AcDbBlockEnd
  0
BLOCK
  5
D0
330
CF
100
AcDbEntity
  8
0
100
AcDbBlockBegin
  2
*D1
 70
1
 10
0.0
 20
0.0
 30
0.0
  3
*D1
  1

  0
LINE
  5
D2
330
CF
100
AcDbEntity
  8
0
 62
94
100
AcDbLine
 10
71.0
 20
426.5
 30
0.0
 11
71.0
 21
410.4
 31
0.0
  0
LINE
  5
D3
330
CF
100
AcDbEntity
  8
0
 62
94
100
AcDbLine
 10
139.0
 20
426.5
 30
0.0
 11
139.0
 21
410.4
 31
0.0
  0
INSERT
  5
D8
330
CF
100
AcDbEntity
  8
COTAS
 62
94
100
AcDbBlockReference
  2
_OBLIQUE
 10
71.0
 20
412.0
 30
0.0
 41
3.2
 42
3.2
  0
INSERT
  5
DA
330
CF
100
AcDbEntity
  8
COTAS
 62
94
100
AcDbBlockReference
  2
_OBLIQUE
 10
139.0
 20
412.0
 30
0.0
 41
3.2
 42
3.2
  0
LINE
  5
DC
330
CF
100
AcDbEntity
  8
0
 62
94
100
AcDbLine
 10
71.0
 20
412.0
 30
0.0
 11
139.0
 21
412.0
 31
0.0
  0
MTEXT
  5
DD
330
CF
100
AcDbEntity
  8
COTAS
 62
7
100
AcDbMText
 10
105.0
 20
414.4
 30
0.0
 40
2.8
 71
5
  1
0.68
  7
ARIAL
  0
POINT
  5
DE
330
CF
100
AcDbEntity
  8
Defpoints
100
AcDbPoint
 10
71.0
 20
412.0
 30
0.0
  0
POINT
  5
DF
330
CF
100
AcDbEntity
  8
Defpoints
100
AcDbPoint
 10
71.0
 20
428.0
 30
0.0
  0
POINT
  5
E0
330
CF
100
AcDbEntity
  8
Defpoints
100
AcDbPoint
 10
139.0
 20
428.0
 30
0.0
  0
ENDBLK
  5
D1
330
CF
100
AcDbEntity
  8
0
100
AcDbBlockEnd
  0
BLOCK
  5
D5
330
D4
100
AcDbEntity
  8
0
100
AcDbBlockBegin
  2
_OBLIQUE
 70
0
 10
0.0
 20
0.0
 30
0.0
  3
_OBLIQUE
  1

  0
LINE
  5
D7
330
D4
100
AcDbEntity
  8
0
  6
BYBLOCK
 62
0
100
AcDbLine
 10
-0.5
 20
-0.5
 30
0.0
 11
0.5
 21
0.5
 31
0.0
  0
ENDBLK
  5
D6
330
D4
100
AcDbEntity
  8
0
100
AcDbBlockEnd
  0
BLOCK
  5
E3
330
E2
100
AcDbEntity
  8
0
100
AcDbBlockBegin
  2
*D2
 70
1
 10
0.0
 20
0.0
 30
0.0
  3
*D2
  1

  0
LINE
  5
E5
330
E2
100
AcDbEntity
  8
0
 62
94
100
AcDbLine
 10
70.0
 20
425.5
 30
0.0
 11
70.0
 21
401.4
 31
0.0
  0
LINE
  5
E6
330
E2
100
AcDbEntity
  8
0
 62
94
100
AcDbLine
 10
140.0
 20
425.5
 30
0.0
 11
140.0
 21
401.4
 31
0.0
  0
INSERT
  5
E7
330
E2
100
AcDbEntity
  8
COTAS
 62
94
100
AcDbBlockReference
  2
_OBLIQUE
 10
70.0
 20
403.0
 30
0.0
 41
3.2
 42
3.2
  0
INSERT
  5
E9
330
E2
100
AcDbEntity
  8
COTAS
 62
94
100
AcDbBlockReference
  2
_OBLIQUE
 10
140.0
 20
403.0
 30
0.0
 41
3.2
 42
3.2
  0
LINE
  5
EB
330
E2
100
AcDbEntity
  8
0
 62
94
100
AcDbLine
 10
70.0
 20
403.0
 30
0.0
 11
140.0
 21
403.0
 31
0.0
  0
MTEXT
  5
EC
330
E2
100
AcDbEntity
  8
COTAS
 62
7
100
AcDbMText
 10
105.0
 20
405.4
 30
0.0
 40
2.8
 71
5
  1
0.70
  7
ARIAL
  0
POINT
  5
ED
330
E2
100
AcDbEntity
  8
Defpoints
100
AcDbPoint
 10
70.0
 20
403.0
 30
0.0
  0
POINT
  5
EE
330
E2
100
AcDbEntity
  8
Defpoints
100
AcDbPoint
 10
70.0
 20
427.0
 30
0.0
  0
POINT
  5
EF
330
E2
100
AcDbEntity
  8
Defpoints
100
AcDbPoint
 10
140.0
 20
427.0
 30
0.0
  0
ENDBLK
  5
E4
330
E2
100
AcDbEntity
  8
0
100
AcDbBlockEnd
  0
BLOCK
  5
F2
330
F1
100
AcDbEntity
  8
0
100
AcDbBlockBegin
  2
*D3
 70
1
 10
0.0
 20
0.0
 30
0.0
  3
*D3
  1

  0
LINE
  5
F4
330
F1
100
AcDbEntity
  8
0
 62
94
100
AcDbLine
 10
49.99999999999999
 20
398.5
 30
0.0
 11
49.99999999999999
 21
363.4
 31
0.0
  0
LINE
  5
F5
330
F1
100
AcDbEntity
  8
0
 62
94
100
AcDbLine
 10
160.0
 20
398.5
 30
0.0
 11
160.0
 21
363.4
 31
0.0
  0
INSERT
  5
F6
330
F1
100
AcDbEntity
  8
COTAS
 62
94
100
AcDbBlockReference
  2
_OBLIQUE
 10
49.99999999999999
 20
365.0
 30
0.0
 41
3.2
 42
3.2
  0
INSERT
  5
F8
330
F1
100
AcDbEntity
  8
COTAS
 62
94
100
AcDbBlockReference
  2
_OBLIQUE
 10
160.0
 20
365.0
 30
0.0
 41
3.2
 42
3.2
  0
LINE
  5
FA
330
F1
100
AcDbEntity
  8
0
 62
94
100
AcDbLine
 10
49.99999999999999
 20
365.0
 30
0.0
 11
160.0
 21
365.0
 31
0.0
  0
MTEXT
  5
FB
330
F1
100
AcDbEntity
  8
COTAS
 62
7
100
AcDbMText
 10
105.0
 20
367.4
 30
0.0
 40
2.8
 71
5
  1
1.10
  7
ARIAL
  0
POINT
  5
FC
330
F1
100
AcDbEntity
  8
Defpoints
100
AcDbPoint
 10
49.99999999999999
 20
365.0
 30
0.0
  0
POINT
  5
FD
330
F1
100
AcDbEntity
  8
Defpoints
100
AcDbPoint
 10
49.99999999999999
 20
400.0
 30
0.0
  0
POINT
  5
FE
330
F1
100
AcDbEntity
  8
Defpoints
100
AcDbPoint
 10
160.0
 20
400.0
 30
0.0
  0
ENDBLK
  5
F3
330
F1
100
AcDbEntity
  8
0
100
AcDbBlockEnd
  0
BLOCK
  5
101
330
100
100
AcDbEntity
  8
0
100
AcDbBlockBegin
  2
*D4
 70
1
 10
0.0
 20
0.0
 30
0.0
  3
*D4
  1

  0
LINE
  5
103
330
100
100
AcDbEntity
  8
0
 62
94
100
AcDbLine
 10
75.08
 20
498.5
 30
0.0
 11
75.08
 21
532.6
 31
0.0
  0
LINE
  5
104
330
100
100
AcDbEntity
  8
0
 62
94
100
AcDbLine
 10
134.92
 20
498.5
 30
0.0
 11
134.92
 21
532.6
 31
0.0
  0
INSERT
  5
105
330
100
100
AcDbEntity
  8
COTAS
 62
94
100
AcDbBlockReference
  2
_OBLIQUE
 10
75.08
 20
531.0
 30
0.0
 41
3.2
 42
3.2
  0
INSERT
  5
107
330
100
100
AcDbEntity
  8
COTAS
 62
94
100
AcDbBlockReference
  2
_OBLIQUE
 10
134.92
 20
531.0
 30
0.0
 41
3.2
 42
3.2
  0
LINE
  5
109
330
100
100
AcDbEntity
  8
0
 62
94
100
AcDbLine
 10
75.08
 20
531.0
 30
0.0
 11
134.92
 21
531.0
 31
0.0
  0
MTEXT
  5
10A
330
100
100
AcDbEntity
  8
COTAS
 62
7
100
AcDbMText
 10
105.0
 20
533.4
 30
0.0
 40
2.8
 71
5
  1
0.60
  7
ARIAL
  0
POINT
  5
10B
330
100
100
AcDbEntity
  8
Defpoints
100
AcDbPoint
 10
75.08
 20
531.0
 30
0.0
  0
POINT
  5
10C
330
100
100
AcDbEntity
  8
Defpoints
100
AcDbPoint
 10
75.08
 20
497.0
 30
0.0
  0
POINT
  5
10D
330
100
100
AcDbEntity
  8
Defpoints
100
AcDbPoint
 10
134.92
 20
497.0
 30
0.0
  0
ENDBLK
  5
102
330
100
100
AcDbEntity
  8
0
100
AcDbBlockEnd
  0
BLOCK
  5
110
330
10F
100
AcDbEntity
  8
0
100
AcDbBlockBegin
  2
*D5
 70
1
 10
0.0
 20
0.0
 30
0.0
  3
*D5
  1

  0
LINE
  5
112
330
10F
100
AcDbEntity
  8
0
 62
94
100
AcDbLine
 10
60.0
 20
508.5
 30
0.0
 11
60.0
 21
550.6
 31
0.0
  0
LINE
  5
113
330
10F
100
AcDbEntity
  8
0
 62
94
100
AcDbLine
 10
150.0
 20
508.5
 30
0.0
 11
150.0
 21
550.6
 31
0.0
  0
INSERT
  5
114
330
10F
100
AcDbEntity
  8
COTAS
 62
94
100
AcDbBlockReference
  2
_OBLIQUE
 10
60.0
 20
549.0
 30
0.0
 41
3.2
 42
3.2
  0
INSERT
  5
116
330
10F
100
AcDbEntity
  8
COTAS
 62
94
100
AcDbBlockReference
  2
_OBLIQUE
 10
150.0
 20
549.0
 30
0.0
 41
3.2
 42
3.2
  0
LINE
  5
118
330
10F
100
AcDbEntity
  8
0
 62
94
100
AcDbLine
 10
60.0
 20
549.0
 30
0.0
 11
150.0
 21
549.0
 31
0.0
  0
MTEXT
  5
119
330
10F
100
AcDbEntity
  8
COTAS
 62
7
100
AcDbMText
 10
105.0
 20
551.4
 30
0.0
 40
2.8
 71
5
  1
0.90
  7
ARIAL
  0
POINT
  5
11A
330
10F
100
AcDbEntity
  8
Defpoints
100
AcDbPoint
 10
60.0
 20
549.0
 30
0.0
  0
POINT
  5
11B
330
10F
100
AcDbEntity
  8
Defpoints
100
AcDbPoint
 10
60.0
 20
507.0
 30
0.0
  0
POINT
  5
11C
330
10F
100
AcDbEntity
  8
Defpoints
100
AcDbPoint
 10
150.0
 20
507.0
 30
0.0
  0
ENDBLK
  5
111
330
10F
100
AcDbEntity
  8
0
100
AcDbBlockEnd
  0
BLOCK
  5
11F
330
11E
100
AcDbEntity
  8
0
100
AcDbBlockBegin
  2
*D6
 70
1
 10
0.0
 20
0.0
 30
0.0
  3
*D6
  1

  0
LINE
  5
121
330
11E
100
AcDbEntity
  8
0
 62
94
100
AcDbLine
 10
159.5
 20
449.5
 30
0.0
 11
171.6
 21
449.5
 31
0.0
  0
LINE
  5
122
330
11E
100
AcDbEntity
  8
0
 62
94
100
AcDbLine
 10
159.5
 20
474.5
 30
0.0
 11
171.6
 21
474.5
 31
0.0
  0
INSERT
  5
123
330
11E
100
AcDbEntity
  8
COTAS
 62
94
100
AcDbBlockReference
  2
_OBLIQUE
 10
170.0
 20
449.5
 30
0.0
 41
3.2
 42
3.2
 50
90.0
  0
INSERT
  5
125
330
11E
100
AcDbEntity
  8
COTAS
 62
94
100
AcDbBlockReference
  2
_OBLIQUE
 10
170.0
 20
474.5
 30
0.0
 41
3.2
 42
3.2
 50
90.0
  0
LINE
  5
127
330
11E
100
AcDbEntity
  8
0
 62
94
100
AcDbLine
 10
170.0
 20
449.5
 30
0.0
 11
170.0
 21
474.5
 31
0.0
  0
MTEXT
  5
128
330
11E
100
AcDbEntity
  8
COTAS
 62
7
100
AcDbMText
 10
167.6
 20
462.0
 30
0.0
 40
2.8
 71
5
  1
0.25
  7
ARIAL
 50
90.0
  0
POINT
  5
129
330
11E
100
AcDbEntity
  8
Defpoints
100
AcDbPoint
 10
170.0
 20
449.5
 30
0.0
  0
POINT
  5
12A
330
11E
100
AcDbEntity
  8
Defpoints
100
AcDbPoint
 10
158.0
 20
449.5
 30
0.0
  0
POINT
  5
12B
330
11E
100
AcDbEntity
  8
Defpoints
100
AcDbPoint
 10
158.0
 20
474.5
 30
0.0
  0
ENDBLK
  5
120
330
11E
100
AcDbEntity
  8
0
100
AcDbBlockEnd
  0
BLOCK
  5
17F
330
17E
100
AcDbEntity
  8
0
100
AcDbBlockBegin
  2
*D7
 70
1
 10
0.0
 20
0.0
 30
0.0
  3
*D7
  1

  0
LINE
  5
181
330
17E
100
AcDbEntity
  8
0
 62
94
100
AcDbLine
 10
371.0
 20
481.5
 30
0.0
 11
371.0
 21
503.6
 31
0.0
  0
LINE
  5
182
330
17E
100
AcDbEntity
  8
0
 62
94
100
AcDbLine
 10
439.0
 20
481.5
 30
0.0
 11
439.0
 21
503.6
 31
0.0
  0
INSERT
  5
183
330
17E
100
AcDbEntity
  8
COTAS
 62
94
100
AcDbBlockReference
  2
_OBLIQUE
 10
371.0
 20
502.0
 30
0.0
 41
3.2
 42
3.2
  0
INSERT
  5
185
330
17E
100
AcDbEntity
  8
COTAS
 62
94
100
AcDbBlockReference
  2
_OBLIQUE
 10
439.0
 20
502.0
 30
0.0
 41
3.2
 42
3.2
  0
LINE
  5
187
330
17E
100
AcDbEntity
  8
0
 62
94
100
AcDbLine
 10
371.0
 20
502.0
 30
0.0
 11
439.0
 21
502.0
 31
0.0
  0
MTEXT
  5
188
330
17E
100
AcDbEntity
  8
COTAS
 62
7
100
AcDbMText
 10
405.0
 20
504.4
 30
0.0
 40
2.8
 71
5
  1
0.68
  7
ARIAL
  0
POINT
  5
189
330
17E
100
AcDbEntity
  8
Defpoints
100
AcDbPoint
 10
371.0
 20
502.0
 30
0.0
  0
POINT
  5
18A
330
17E
100
AcDbEntity
  8
Defpoints
100
AcDbPoint
 10
371.0
 20
480.0
 30
0.0
  0
POINT
  5
18B
330
17E
100
AcDbEntity
  8
Defpoints
100
AcDbPoint
 10
439.0
 20
480.0
 30
0.0
  0
ENDBLK
  5
180
330
17E
100
AcDbEntity
  8
0
100
AcDbBlockEnd
  0
BLOCK
  5
18E
330
18D
100
AcDbEntity
  8
0
100
AcDbBlockBegin
  2
*D8
 70
1
 10
0.0
 20
0.0
 30
0.0
  3
*D8
  1

  0
LINE
  5
190
330
18D
100
AcDbEntity
  8
0
 62
94
100
AcDbLine
 10
370.0
 20
481.5
 30
0.0
 11
370.0
 21
511.6
 31
0.0
  0
LINE
  5
191
330
18D
100
AcDbEntity
  8
0
 62
94
100
AcDbLine
 10
440.0
 20
481.5
 30
0.0
 11
440.0
 21
511.6
 31
0.0
  0
INSERT
  5
192
330
18D
100
AcDbEntity
  8
COTAS
 62
94
100
AcDbBlockReference
  2
_OBLIQUE
 10
370.0
 20
510.0
 30
0.0
 41
3.2
 42
3.2
  0
INSERT
  5
194
330
18D
100
AcDbEntity
  8
COTAS
 62
94
100
AcDbBlockReference
  2
_OBLIQUE
 10
440.0
 20
510.0
 30
0.0
 41
3.2
 42
3.2
  0
LINE
  5
196
330
18D
100
AcDbEntity
  8
0
 62
94
100
AcDbLine
 10
370.0
 20
510.0
 30
0.0
 11
440.0
 21
510.0
 31
0.0
  0
MTEXT
  5
197
330
18D
100
AcDbEntity
  8
COTAS
 62
7
100
AcDbMText
 10
405.0
 20
512.4
 30
0.0
 40
2.8
 71
5
  1
0.70
  7
ARIAL
  0
POINT
  5
198
330
18D
100
AcDbEntity
  8
Defpoints
100
AcDbPoint
 10
370.0
 20
510.0
 30
0.0
  0
POINT
  5
199
330
18D
100
AcDbEntity
  8
Defpoints
100
AcDbPoint
 10
370.0
 20
480.0
 30
0.0
  0
POINT
  5
19A
330
18D
100
AcDbEntity
  8
Defpoints
100
AcDbPoint
 10
440.0
 20
480.0
 30
0.0
  0
ENDBLK
  5
18F
330
18D
100
AcDbEntity
  8
0
100
AcDbBlockEnd
  0
BLOCK
  5
19D
330
19C
100
AcDbEntity
  8
0
100
AcDbBlockBegin
  2
*D9
 70
1
 10
0.0
 20
0.0
 30
0.0
  3
*D9
  1

  0
LINE
  5
19F
330
19C
100
AcDbEntity
  8
0
 62
94
100
AcDbLine
 10
375.08
 20
458.5
 30
0.0
 11
375.08
 21
448.4
 31
0.0
  0
LINE
  5
1A0
330
19C
100
AcDbEntity
  8
0
 62
94
100
AcDbLine
 10
434.92
 20
458.5
 30
0.0
 11
434.92
 21
448.4
 31
0.0
  0
INSERT
  5
1A1
330
19C
100
AcDbEntity
  8
COTAS
 62
94
100
AcDbBlockReference
  2
_OBLIQUE
 10
375.08
 20
450.0
 30
0.0
 41
3.2
 42
3.2
  0
INSERT
  5
1A3
330
19C
100
AcDbEntity
  8
COTAS
 62
94
100
AcDbBlockReference
  2
_OBLIQUE
 10
434.92
 20
450.0
 30
0.0
 41
3.2
 42
3.2
  0
LINE
  5
1A5
330
19C
100
AcDbEntity
  8
0
 62
94
100
AcDbLine
 10
375.08
 20
450.0
 30
0.0
 11
434.92
 21
450.0
 31
0.0
  0
MTEXT
  5
1A6
330
19C
100
AcDbEntity
  8
COTAS
 62
7
100
AcDbMText
 10
405.0
 20
452.4
 30
0.0
 40
2.8
 71
5
  1
0.60
  7
ARIAL
  0
POINT
  5
1A7
330
19C
100
AcDbEntity
  8
Defpoints
100
AcDbPoint
 10
375.08
 20
450.0
 30
0.0
  0
POINT
  5
1A8
330
19C
100
AcDbEntity
  8
Defpoints
100
AcDbPoint
 10
375.08
 20
460.0
 30
0.0
  0
POINT
  5
1A9
330
19C
100
AcDbEntity
  8
Defpoints
100
AcDbPoint
 10
434.92
 20
460.0
 30
0.0
  0
ENDBLK
  5
19E
330
19C
100
AcDbEntity
  8
0
100
AcDbBlockEnd
  0
BLOCK
  5
1AC
330
1AB
100
AcDbEntity
  8
0
100
AcDbBlockBegin
  2
*D10
 70
1
 10
0.0
 20
0.0
 30
0.0
  3
*D10
  1

  0
LINE
  5
1AE
330
1AB
100
AcDbEntity
  8
0
 62
94
100
AcDbLine
 10
365.0
 20
433.5
 30
0.0
 11
365.0
 21
425.4
 31
0.0
  0
LINE
  5
1AF
330
1AB
100
AcDbEntity
  8
0
 62
94
100
AcDbLine
 10
445.0
 20
433.5
 30
0.0
 11
445.0
 21
425.4
 31
0.0
  0
INSERT
  5
1B0
330
1AB
100
AcDbEntity
  8
COTAS
 62
94
100
AcDbBlockReference
  2
_OBLIQUE
 10
365.0
 20
427.0
 30
0.0
 41
3.2
 42
3.2
  0
INSERT
  5
1B2
330
1AB
100
AcDbEntity
  8
COTAS
 62
94
100
AcDbBlockReference
  2
_OBLIQUE
 10
445.0
 20
427.0
 30
0.0
 41
3.2
 42
3.2
  0
LINE
  5
1B4
330
1AB
100
AcDbEntity
  8
0
 62
94
100
AcDbLine
 10
365.0
 20
427.0
 30
0.0
 11
445.0
 21
427.0
 31
0.0
  0
MTEXT
  5
1B5
330
1AB
100
AcDbEntity
  8
COTAS
 62
7
100
AcDbMText
 10
405.0
 20
429.4
 30
0.0
 40
2.8
 71
5
  1
0.80
  7
ARIAL
  0
POINT
  5
1B6
330
1AB
100
AcDbEntity
  8
Defpoints
100
AcDbPoint
 10
365.0
 20
427.0
 30
0.0
  0
POINT
  5
1B7
330
1AB
100
AcDbEntity
  8
Defpoints
100
AcDbPoint
 10
365.0
 20
435.0
 30
0.0
  0
POINT
  5
1B8
330
1AB
100
AcDbEntity
  8
Defpoints
100
AcDbPoint
 10
445.0
 20
435.0
 30
0.0
  0
ENDBLK
  5
1AD
330
1AB
100
AcDbEntity
  8
0
100
AcDbBlockEnd
  0
BLOCK
  5
1BB
330
1BA
100
AcDbEntity
  8
0
100
AcDbBlockBegin
  2
*D11
 70
1
 10
0.0
 20
0.0
 30
0.0
  3
*D11
  1

  0
LINE
  5
1BD
330
1BA
100
AcDbEntity
  8
0
 62
94
100
AcDbLine
 10
445.0
 20
433.5
 30
0.0
 11
445.0
 21
425.4
 31
0.0
  0
LINE
  5
1BE
330
1BA
100
AcDbEntity
  8
0
 62
94
100
AcDbLine
 10
460.0
 20
433.5
 30
0.0
 11
460.0
 21
425.4
 31
0.0
  0
INSERT
  5
1BF
330
1BA
100
AcDbEntity
  8
COTAS
 62
94
100
AcDbBlockReference
  2
_OBLIQUE
 10
445.0
 20
427.0
 30
0.0
 41
3.2
 42
3.2
  0
INSERT
  5
1C1
330
1BA
100
AcDbEntity
  8
COTAS
 62
94
100
AcDbBlockReference
  2
_OBLIQUE
 10
460.0
 20
427.0
 30
0.0
 41
3.2
 42
3.2
  0
LINE
  5
1C3
330
1BA
100
AcDbEntity
  8
0
 62
94
100
AcDbLine
 10
445.0
 20
427.0
 30
0.0
 11
460.0
 21
427.0
 31
0.0
  0
MTEXT
  5
1C4
330
1BA
100
AcDbEntity
  8
COTAS
 62
7
100
AcDbMText
 10
452.5
 20
429.4
 30
0.0
 40
2.8
 71
5
  1
0.15
  7
ARIAL
  0
POINT
  5
1C5
330
1BA
100
AcDbEntity
  8
Defpoints
100
AcDbPoint
 10
445.0
 20
427.0
 30
0.0
  0
POINT
  5
1C6
330
1BA
100
AcDbEntity
  8
Defpoints
100
AcDbPoint
 10
445.0
 20
435.0
 30
0.0
  0
POINT
  5
1C7
330
1BA
100
AcDbEntity
  8
Defpoints
100
AcDbPoint
 10
460.0
 20
435.0
 30
0.0
  0
ENDBLK
  5
1BC
330
1BA
100
AcDbEntity
  8
0
100
AcDbBlockEnd
  0
BLOCK
  5
1CA
330
1C9
100
AcDbEntity
  8
0
100
AcDbBlockBegin
  2
*D12
 70
1
 10
0.0
 20
0.0
 30
0.0
  3
*D12
  1

  0
LINE
  5
1CC
330
1C9
100
AcDbEntity
  8
0
 62
94
100
AcDbLine
 10
435.0
 20
458.5
 30
0.0
 11
435.0
 21
440.4
 31
0.0
  0
LINE
  5
1CD
330
1C9
100
AcDbEntity
  8
0
 62
94
100
AcDbLine
 10
450.0
 20
458.5
 30
0.0
 11
450.0
 21
440.4
 31
0.0
  0
INSERT
  5
1CE
330
1C9
100
AcDbEntity
  8
COTAS
 62
94
100
AcDbBlockReference
  2
_OBLIQUE
 10
435.0
 20
442.0
 30
0.0
 41
3.2
 42
3.2
  0
INSERT
  5
1D0
330
1C9
100
AcDbEntity
  8
COTAS
 62
94
100
AcDbBlockReference
  2
_OBLIQUE
 10
450.0
 20
442.0
 30
0.0
 41
3.2
 42
3.2
  0
LINE
  5
1D2
330
1C9
100
AcDbEntity
  8
0
 62
94
100
AcDbLine
 10
435.0
 20
442.0
 30
0.0
 11
450.0
 21
442.0
 31
0.0
  0
MTEXT
  5
1D3
330
1C9
100
AcDbEntity
  8
COTAS
 62
7
100
AcDbMText
 10
442.5
 20
444.4
 30
0.0
 40
2.8
 71
5
  1
0.15
  7
ARIAL
  0
POINT
  5
1D4
330
1C9
100
AcDbEntity
  8
Defpoints
100
AcDbPoint
 10
435.0
 20
442.0
 30
0.0
  0
POINT
  5
1D5
330
1C9
100
AcDbEntity
  8
Defpoints
100
AcDbPoint
 10
435.0
 20
460.0
 30
0.0
  0
POINT
  5
1D6
330
1C9
100
AcDbEntity
  8
Defpoints
100
AcDbPoint
 10
450.0
 20
460.0
 30
0.0
  0
ENDBLK
  5
1CB
330
1C9
100
AcDbEntity
  8
0
100
AcDbBlockEnd
  0
BLOCK
  5
1D9
330
1D8
100
AcDbEntity
  8
0
100
AcDbBlockBegin
  2
*D13
 70
1
 10
0.0
 20
0.0
 30
0.0
  3
*D13
  1

  0
LINE
  5
1DB
330
1D8
100
AcDbEntity
  8
0
 62
94
100
AcDbLine
 10
461.5
 20
480.0
 30
0.0
 11
475.6
 21
480.0
 31
0.0
  0
LINE
  5
1DC
330
1D8
100
AcDbEntity
  8
0
 62
94
100
AcDbLine
 10
461.5
 20
470.0
 30
0.0
 11
475.6
 21
470.0
 31
0.0
  0
INSERT
  5
1DD
330
1D8
100
AcDbEntity
  8
COTAS
 62
94
100
AcDbBlockReference
  2
_OBLIQUE
 10
474.0
 20
480.0
 30
0.0
 41
3.2
 42
3.2
 50
90.0
  0
INSERT
  5
1DF
330
1D8
100
AcDbEntity
  8
COTAS
 62
94
100
AcDbBlockReference
  2
_OBLIQUE
 10
474.0
 20
470.0
 30
0.0
 41
3.2
 42
3.2
 50
90.0
  0
LINE
  5
1E1
330
1D8
100
AcDbEntity
  8
0
 62
94
100
AcDbLine
 10
474.0
 20
480.0
 30
0.0
 11
474.0
 21
470.0
 31
0.0
  0
MTEXT
  5
1E2
330
1D8
100
AcDbEntity
  8
COTAS
 62
7
100
AcDbMText
 10
478.0
 20
475.0
 30
0.0
 40
2.8
 71
5
  1
0.10
  7
ARIAL
 50
90.0
  0
POINT
  5
1E3
330
1D8
100
AcDbEntity
  8
Defpoints
100
AcDbPoint
 10
474.0
 20
480.0
 30
0.0
  0
POINT
  5
1E4
330
1D8
100
AcDbEntity
  8
Defpoints
100
AcDbPoint
 10
460.0
 20
480.0
 30
0.0
  0
POINT
  5
1E5
330
1D8
100
AcDbEntity
  8
Defpoints
100
AcDbPoint
 10
460.0
 20
470.0
 30
0.0
  0
ENDBLK
  5
1DA
330
1D8
100
AcDbEntity
  8
0
100
AcDbBlockEnd
  0
BLOCK
  5
1E8
330
1E7
100
AcDbEntity
  8
0
100
AcDbBlockBegin
  2
*D14
 70
1
 10
0.0
 20
0.0
 30
0.0
  3
*D14
  1

  0
LINE
  5
1EA
330
1E7
100
AcDbEntity
  8
0
 62
94
100
AcDbLine
 10
461.5
 20
470.0
 30
0.0
 11
475.6
 21
470.0
 31
0.0
  0
LINE
  5
1EB
330
1E7
100
AcDbEntity
  8
0
 62
94
100
AcDbLine
 10
461.5
 20
460.0
 30
0.0
 11
475.6
 21
460.0
 31
0.0
  0
INSERT
  5
1EC
330
1E7
100
AcDbEntity
  8
COTAS
 62
94
100
AcDbBlockReference
  2
_OBLIQUE
 10
474.0
 20
470.0
 30
0.0
 41
3.2
 42
3.2
 50
90.0
  0
INSERT
  5
1EE
330
1E7
100
AcDbEntity
  8
COTAS
 62
94
100
AcDbBlockReference
  2
_OBLIQUE
 10
474.0
 20
460.0
 30
0.0
 41
3.2
 42
3.2
 50
90.0
  0
LINE
  5
1F0
330
1E7
100
AcDbEntity
  8
0
 62
94
100
AcDbLine
 10
474.0
 20
470.0
 30
0.0
 11
474.0
 21
460.0
 31
0.0
  0
MTEXT
  5
1F1
330
1E7
100
AcDbEntity
  8
COTAS
 62
7
100
AcDbMText
 10
478.0
 20
465.0
 30
0.0
 40
2.8
 71
5
  1
0.10
  7
ARIAL
 50
90.0
  0
POINT
  5
1F2
330
1E7
100
AcDbEntity
  8
Defpoints
100
AcDbPoint
 10
474.0
 20
470.0
 30
0.0
  0
POINT
  5
1F3
330
1E7
100
AcDbEntity
  8
Defpoints
100
AcDbPoint
 10
460.0
 20
470.0
 30
0.0
  0
POINT
  5
1F4
330
1E7
100
AcDbEntity
  8
Defpoints
100
AcDbPoint
 10
460.0
 20
460.0
 30
0.0
  0
ENDBLK
  5
1E9
330
1E7
100
AcDbEntity
  8
0
100
AcDbBlockEnd
  0
BLOCK
  5
1F7
330
1F6
100
AcDbEntity
  8
0
100
AcDbBlockBegin
  2
*D15
 70
1
 10
0.0
 20
0.0
 30
0.0
  3
*D15
  1

  0
LINE
  5
1F9
330
1F6
100
AcDbEntity
  8
0
 62
94
100
AcDbLine
 10
348.5
 20
480.0
 30
0.0
 11
334.4
 21
480.0
 31
0.0
  0
LINE
  5
1FA
330
1F6
100
AcDbEntity
  8
0
 62
94
100
AcDbLine
 10
348.5
 20
472.0
 30
0.0
 11
334.4
 21
472.0
 31
0.0
  0
INSERT
  5
1FB
330
1F6
100
AcDbEntity
  8
COTAS
 62
94
100
AcDbBlockReference
  2
_OBLIQUE
 10
336.0
 20
480.0
 30
0.0
 41
3.2
 42
3.2
 50
90.0
  0
INSERT
  5
1FD
330
1F6
100
AcDbEntity
  8
COTAS
 62
94
100
AcDbBlockReference
  2
_OBLIQUE
 10
336.0
 20
472.0
 30
0.0
 41
3.2
 42
3.2
 50
90.0
  0
LINE
  5
1FF
330
1F6
100
AcDbEntity
  8
0
 62
94
100
AcDbLine
 10
336.0
 20
480.0
 30
0.0
 11
336.0
 21
472.0
 31
0.0
  0
MTEXT
  5
200
330
1F6
100
AcDbEntity
  8
COTAS
 62
7
100
AcDbMText
 10
340.0
 20
476.0
 30
0.0
 40
2.8
 71
5
  1
0.08
  7
ARIAL
 50
90.0
  0
POINT
  5
201
330
1F6
100
AcDbEntity
  8
Defpoints
100
AcDbPoint
 10
336.0
 20
480.0
 30
0.0
  0
POINT
  5
202
330
1F6
100
AcDbEntity
  8
Defpoints
100
AcDbPoint
 10
350.0
 20
480.0
 30
0.0
  0
POINT
  5
203
330
1F6
100
AcDbEntity
  8
Defpoints
100
AcDbPoint
 10
350.0
 20
472.0
 30
0.0
  0
ENDBLK
  5
1F8
330
1F6
100
AcDbEntity
  8
0
100
AcDbBlockEnd
  0
BLOCK
  5
233
330
232
100
AcDbEntity
  8
0
100
AcDbBlockBegin
  2
*D16
 70
1
 10
0.0
 20
0.0
 30
0.0
  3
*D16
  1

  0
LINE
  5
235
330
232
100
AcDbEntity
  8
0
 62
94
100
AcDbLine
 10
615.0
 20
506.5
 30
0.0
 11
615.0
 21
516.6
 31
0.0
  0
LINE
  5
236
330
232
100
AcDbEntity
  8
0
 62
94
100
AcDbLine
 10
620.0
 20
506.5
 30
0.0
 11
620.0
 21
516.6
 31
0.0
  0
INSERT
  5
237
330
232
100
AcDbEntity
  8
COTAS
 62
94
100
AcDbBlockReference
  2
_OBLIQUE
 10
615.0
 20
515.0
 30
0.0
 41
3.2
 42
3.2
  0
INSERT
  5
239
330
232
100
AcDbEntity
  8
COTAS
 62
94
100
AcDbBlockReference
  2
_OBLIQUE
 10
620.0
 20
515.0
 30
0.0
 41
3.2
 42
3.2
  0
LINE
  5
23B
330
232
100
AcDbEntity
  8
0
 62
94
100
AcDbLine
 10
615.0
 20
515.0
 30
0.0
 11
620.0
 21
515.0
 31
0.0
  0
MTEXT
  5
23C
330
232
100
AcDbEntity
  8
COTAS
 62
7
100
AcDbMText
 10
617.5
 20
519.0
 30
0.0
 40
2.8
 71
5
  1
0.01
  7
ARIAL
  0
POINT
  5
23D
330
232
100
AcDbEntity
  8
Defpoints
100
AcDbPoint
 10
615.0
 20
515.0
 30
0.0
  0
POINT
  5
23E
330
232
100
AcDbEntity
  8
Defpoints
100
AcDbPoint
 10
615.0
 20
505.0
 30
0.0
  0
POINT
  5
23F
330
232
100
AcDbEntity
  8
Defpoints
100
AcDbPoint
 10
620.0
 20
505.0
 30
0.0
  0
ENDBLK
  5
234
330
232
100
AcDbEntity
  8
0
100
AcDbBlockEnd
  0
BLOCK
  5
242
330
241
100
AcDbEntity
  8
0
100
AcDbBlockBegin
  2
*D17
 70
1
 10
0.0
 20
0.0
 30
0.0
  3
*D17
  1

  0
LINE
  5
244
330
241
100
AcDbEntity
  8
0
 62
94
100
AcDbLine
 10
594.6
 20
463.5
 30
0.0
 11
594.6
 21
413.4
 31
0.0
  0
LINE
  5
245
330
241
100
AcDbEntity
  8
0
 62
94
100
AcDbLine
 10
620.0
 20
463.5
 30
0.0
 11
620.0
 21
413.4
 31
0.0
  0
INSERT
  5
246
330
241
100
AcDbEntity
  8
COTAS
 62
94
100
AcDbBlockReference
  2
_OBLIQUE
 10
594.6
 20
415.0
 30
0.0
 41
3.2
 42
3.2
  0
INSERT
  5
248
330
241
100
AcDbEntity
  8
COTAS
 62
94
100
AcDbBlockReference
  2
_OBLIQUE
 10
620.0
 20
415.0
 30
0.0
 41
3.2
 42
3.2
  0
LINE
  5
24A
330
241
100
AcDbEntity
  8
0
 62
94
100
AcDbLine
 10
594.6
 20
415.0
 30
0.0
 11
620.0
 21
415.0
 31
0.0
  0
MTEXT
  5
24B
330
241
100
AcDbEntity
  8
COTAS
 62
7
100
AcDbMText
 10
607.3
 20
419.0
 30
0.0
 40
2.8
 71
5
  1
2" (asiento)
  7
ARIAL
  0
POINT
  5
24C
330
241
100
AcDbEntity
  8
Defpoints
100
AcDbPoint
 10
594.6
 20
415.0
 30
0.0
  0
POINT
  5
24D
330
241
100
AcDbEntity
  8
Defpoints
100
AcDbPoint
 10
594.6
 20
465.0
 30
0.0
  0
POINT
  5
24E
330
241
100
AcDbEntity
  8
Defpoints
100
AcDbPoint
 10
620.0
 20
465.0
 30
0.0
  0
ENDBLK
  5
243
330
241
100
AcDbEntity
  8
0
100
AcDbBlockEnd
  0
BLOCK
  5
251
330
250
100
AcDbEntity
  8
0
100
AcDbBlockBegin
  2
*D18
 70
1
 10
0.0
 20
0.0
 30
0.0
  3
*D18
  1

  0
LINE
  5
253
330
250
100
AcDbEntity
  8
0
 62
94
100
AcDbLine
 10
595.95
 20
506.5
 30
0.0
 11
595.95
 21
524.6
 31
0.0
  0
LINE
  5
254
330
250
100
AcDbEntity
  8
0
 62
94
100
AcDbLine
 10
615.0
 20
506.5
 30
0.0
 11
615.0
 21
524.6
 31
0.0
  0
INSERT
  5
255
330
250
100
AcDbEntity
  8
COTAS
 62
94
100
AcDbBlockReference
  2
_OBLIQUE
 10
595.95
 20
523.0
 30
0.0
 41
3.2
 42
3.2
  0
INSERT
  5
257
330
250
100
AcDbEntity
  8
COTAS
 62
94
100
AcDbBlockReference
  2
_OBLIQUE
 10
615.0
 20
523.0
 30
0.0
 41
3.2
 42
3.2
  0
LINE
  5
259
330
250
100
AcDbEntity
  8
0
 62
94
100
AcDbLine
 10
595.95
 20
523.0
 30
0.0
 11
615.0
 21
523.0
 31
0.0
  0
MTEXT
  5
25A
330
250
100
AcDbEntity
  8
COTAS
 62
7
100
AcDbMText
 10
605.475
 20
525.4
 30
0.0
 40
2.8
 71
5
  1
1 1/2"
  7
ARIAL
  0
POINT
  5
25B
330
250
100
AcDbEntity
  8
Defpoints
100
AcDbPoint
 10
595.95
 20
523.0
 30
0.0
  0
POINT
  5
25C
330
250
100
AcDbEntity
  8
Defpoints
100
AcDbPoint
 10
595.95
 20
505.0
 30
0.0
  0
POINT
  5
25D
330
250
100
AcDbEntity
  8
Defpoints
100
AcDbPoint
 10
615.0
 20
505.0
 30
0.0
  0
ENDBLK
  5
252
330
250
100
AcDbEntity
  8
0
100
AcDbBlockEnd
  0
BLOCK
  5
260
330
25F
100
AcDbEntity
  8
0
100
AcDbBlockBegin
  2
*D19
 70
1
 10
0.0
 20
0.0
 30
0.0
  3
*D19
  1

  0
LINE
  5
262
330
25F
100
AcDbEntity
  8
0
 62
94
100
AcDbLine
 10
711.5
 20
505.0
 30
0.0
 11
723.6
 21
505.0
 31
0.0
  0
LINE
  5
263
330
25F
100
AcDbEntity
  8
0
 62
94
100
AcDbLine
 10
711.5
 20
465.0
 30
0.0
 11
723.6
 21
465.0
 31
0.0
  0
INSERT
  5
264
330
25F
100
AcDbEntity
  8
COTAS
 62
94
100
AcDbBlockReference
  2
_OBLIQUE
 10
722.0
 20
505.0
 30
0.0
 41
3.2
 42
3.2
 50
90.0
  0
INSERT
  5
266
330
25F
100
AcDbEntity
  8
COTAS
 62
94
100
AcDbBlockReference
  2
_OBLIQUE
 10
722.0
 20
465.0
 30
0.0
 41
3.2
 42
3.2
 50
90.0
  0
LINE
  5
268
330
25F
100
AcDbEntity
  8
0
 62
94
100
AcDbLine
 10
722.0
 20
505.0
 30
0.0
 11
722.0
 21
465.0
 31
0.0
  0
MTEXT
  5
269
330
25F
100
AcDbEntity
  8
COTAS
 62
7
100
AcDbMText
 10
724.4
 20
485.0
 30
0.0
 40
2.8
 71
5
  1
0.080
  7
ARIAL
 50
90.0
  0
POINT
  5
26A
330
25F
100
AcDbEntity
  8
Defpoints
100
AcDbPoint
 10
722.0
 20
505.0
 30
0.0
  0
POINT
  5
26B
330
25F
100
AcDbEntity
  8
Defpoints
100
AcDbPoint
 10
710.0
 20
505.0
 30
0.0
  0
POINT
  5
26C
330
25F
100
AcDbEntity
  8
Defpoints
100
AcDbPoint
 10
710.0
 20
465.0
 30
0.0
  0
ENDBLK
  5
261
330
25F
100
AcDbEntity
  8
0
100
AcDbBlockEnd
  0
BLOCK
  5
26F
330
26E
100
AcDbEntity
  8
0
100
AcDbBlockBegin
  2
*D20
 70
1
 10
0.0
 20
0.0
 30
0.0
  3
*D20
  1

  0
LINE
  5
271
330
26E
100
AcDbEntity
  8
0
 62
94
100
AcDbLine
 10
711.5
 20
465.0
 30
0.0
 11
723.6
 21
465.0
 31
0.0
  0
LINE
  5
272
330
26E
100
AcDbEntity
  8
0
 62
94
100
AcDbLine
 10
711.5
 20
439.6
 30
0.0
 11
723.6
 21
439.6
 31
0.0
  0
INSERT
  5
273
330
26E
100
AcDbEntity
  8
COTAS
 62
94
100
AcDbBlockReference
  2
_OBLIQUE
 10
722.0
 20
465.0
 30
0.0
 41
3.2
 42
3.2
 50
90.0
  0
INSERT
  5
275
330
26E
100
AcDbEntity
  8
COTAS
 62
94
100
AcDbBlockReference
  2
_OBLIQUE
 10
722.0
 20
439.6
 30
0.0
 41
3.2
 42
3.2
 50
90.0
  0
LINE
  5
277
330
26E
100
AcDbEntity
  8
0
 62
94
100
AcDbLine
 10
722.0
 20
465.0
 30
0.0
 11
722.0
 21
439.6
 31
0.0
  0
MTEXT
  5
278
330
26E
100
AcDbEntity
  8
COTAS
 62
7
100
AcDbMText
 10
724.4
 20
452.3
 30
0.0
 40
2.8
 71
5
  1
2"
  7
ARIAL
 50
90.0
  0
POINT
  5
279
330
26E
100
AcDbEntity
  8
Defpoints
100
AcDbPoint
 10
722.0
 20
465.0
 30
0.0
  0
POINT
  5
27A
330
26E
100
AcDbEntity
  8
Defpoints
100
AcDbPoint
 10
710.0
 20
465.0
 30
0.0
  0
POINT
  5
27B
330
26E
100
AcDbEntity
  8
Defpoints
100
AcDbPoint
 10
710.0
 20
439.6
 30
0.0
  0
ENDBLK
  5
270
330
26E
100
AcDbEntity
  8
0
100
AcDbBlockEnd
  0
BLOCK
  5
27E
330
27D
100
AcDbEntity
  8
0
100
AcDbBlockBegin
  2
*D21
 70
1
 10
0.0
 20
0.0
 30
0.0
  3
*D21
  1

  0
LINE
  5
280
330
27D
100
AcDbEntity
  8
0
 62
94
100
AcDbLine
 10
711.5
 20
505.0
 30
0.0
 11
737.6
 21
505.0
 31
0.0
  0
LINE
  5
281
330
27D
100
AcDbEntity
  8
0
 62
94
100
AcDbLine
 10
711.5
 20
455.0
 30
0.0
 11
737.6
 21
455.0
 31
0.0
  0
INSERT
  5
282
330
27D
100
AcDbEntity
  8
COTAS
 62
94
100
AcDbBlockReference
  2
_OBLIQUE
 10
736.0
 20
505.0
 30
0.0
 41
3.2
 42
3.2
 50
90.0
  0
INSERT
  5
284
330
27D
100
AcDbEntity
  8
COTAS
 62
94
100
AcDbBlockReference
  2
_OBLIQUE
 10
736.0
 20
455.0
 30
0.0
 41
3.2
 42
3.2
 50
90.0
  0
LINE
  5
286
330
27D
100
AcDbEntity
  8
0
 62
94
100
AcDbLine
 10
736.0
 20
505.0
 30
0.0
 11
736.0
 21
455.0
 31
0.0
  0
MTEXT
  5
287
330
27D
100
AcDbEntity
  8
COTAS
 62
7
100
AcDbMText
 10
738.4
 20
480.0
 30
0.0
 40
2.8
 71
5
  1
0.100
  7
ARIAL
 50
90.0
  0
POINT
  5
288
330
27D
100
AcDbEntity
  8
Defpoints
100
AcDbPoint
 10
736.0
 20
505.0
 30
0.0
  0
POINT
  5
289
330
27D
100
AcDbEntity
  8
Defpoints
100
AcDbPoint
 10
710.0
 20
505.0
 30
0.0
  0
POINT
  5
28A
330
27D
100
AcDbEntity
  8
Defpoints
100
AcDbPoint
 10
710.0
 20
455.0
 30
0.0
  0
ENDBLK
  5
27F
330
27D
100
AcDbEntity
  8
0
100
AcDbBlockEnd
  0
BLOCK
  5
28D
330
28C
100
AcDbEntity
  8
0
100
AcDbBlockBegin
  2
*D22
 70
1
 10
0.0
 20
0.0
 30
0.0
  3
*D22
  1

  0
LINE
  5
28F
330
28C
100
AcDbEntity
  8
0
 62
94
100
AcDbLine
 10
563.5
 20
465.0
 30
0.0
 11
553.4
 21
465.0
 31
0.0
  0
LINE
  5
290
330
28C
100
AcDbEntity
  8
0
 62
94
100
AcDbLine
 10
563.5
 20
477.5
 30
0.0
 11
553.4
 21
477.5
 31
0.0
  0
INSERT
  5
291
330
28C
100
AcDbEntity
  8
COTAS
 62
94
100
AcDbBlockReference
  2
_OBLIQUE
 10
555.0
 20
465.0
 30
0.0
 41
3.2
 42
3.2
 50
90.0
  0
INSERT
  5
293
330
28C
100
AcDbEntity
  8
COTAS
 62
94
100
AcDbBlockReference
  2
_OBLIQUE
 10
555.0
 20
477.5
 30
0.0
 41
3.2
 42
3.2
 50
90.0
  0
LINE
  5
295
330
28C
100
AcDbEntity
  8
0
 62
94
100
AcDbLine
 10
555.0
 20
465.0
 30
0.0
 11
555.0
 21
477.5
 31
0.0
  0
MTEXT
  5
296
330
28C
100
AcDbEntity
  8
COTAS
 62
7
100
AcDbMText
 10
551.0
 20
471.25
 30
0.0
 40
2.8
 71
5
  1
0.025
  7
ARIAL
 50
90.0
  0
POINT
  5
297
330
28C
100
AcDbEntity
  8
Defpoints
100
AcDbPoint
 10
555.0
 20
465.0
 30
0.0
  0
POINT
  5
298
330
28C
100
AcDbEntity
  8
Defpoints
100
AcDbPoint
 10
565.0
 20
465.0
 30
0.0
  0
POINT
  5
299
330
28C
100
AcDbEntity
  8
Defpoints
100
AcDbPoint
 10
565.0
 20
477.5
 30
0.0
  0
ENDBLK
  5
28E
330
28C
100
AcDbEntity
  8
0
100
AcDbBlockEnd
  0
BLOCK
  5
2E5
330
2E4
100
AcDbEntity
  8
0
100
AcDbBlockBegin
  2
*D23
 70
1
 10
0.0
 20
0.0
 30
0.0
  3
*D23
  1

  0
LINE
  5
2E7
330
2E4
100
AcDbEntity
  8
0
 62
94
100
AcDbLine
 10
27.0
 20
311.5
 30
0.0
 11
27.0
 21
323.6
 31
0.0
  0
LINE
  5
2E8
330
2E4
100
AcDbEntity
  8
0
 62
94
100
AcDbLine
 10
163.0
 20
311.5
 30
0.0
 11
163.0
 21
323.6
 31
0.0
  0
INSERT
  5
2E9
330
2E4
100
AcDbEntity
  8
COTAS
 62
94
100
AcDbBlockReference
  2
_OBLIQUE
 10
27.0
 20
322.0
 30
0.0
 41
3.2
 42
3.2
  0
INSERT
  5
2EB
330
2E4
100
AcDbEntity
  8
COTAS
 62
94
100
AcDbBlockReference
  2
_OBLIQUE
 10
163.0
 20
322.0
 30
0.0
 41
3.2
 42
3.2
  0
LINE
  5
2ED
330
2E4
100
AcDbEntity
  8
0
 62
94
100
AcDbLine
 10
27.0
 20
322.0
 30
0.0
 11
163.0
 21
322.0
 31
0.0
  0
MTEXT
  5
2EE
330
2E4
100
AcDbEntity
  8
COTAS
 62
7
100
AcDbMText
 10
95.0
 20
324.4
 30
0.0
 40
2.8
 71
5
  1
0.68
  7
ARIAL
  0
POINT
  5
2EF
330
2E4
100
AcDbEntity
  8
Defpoints
100
AcDbPoint
 10
27.0
 20
322.0
 30
0.0
  0
POINT
  5
2F0
330
2E4
100
AcDbEntity
  8
Defpoints
100
AcDbPoint
 10
27.0
 20
310.0
 30
0.0
  0
POINT
  5
2F1
330
2E4
100
AcDbEntity
  8
Defpoints
100
AcDbPoint
 10
163.0
 20
310.0
 30
0.0
  0
ENDBLK
  5
2E6
330
2E4
100
AcDbEntity
  8
0
100
AcDbBlockEnd
  0
BLOCK
  5
2F4
330
2F3
100
AcDbEntity
  8
0
100
AcDbBlockBegin
  2
*D24
 70
1
 10
0.0
 20
0.0
 30
0.0
  3
*D24
  1

  0
LINE
  5
2F6
330
2F3
100
AcDbEntity
  8
0
 62
94
100
AcDbLine
 10
33.0
 20
172.5
 30
0.0
 11
33.0
 21
160.4
 31
0.0
  0
LINE
  5
2F7
330
2F3
100
AcDbEntity
  8
0
 62
94
100
AcDbLine
 10
157.0
 20
172.5
 30
0.0
 11
157.0
 21
160.4
 31
0.0
  0
INSERT
  5
2F8
330
2F3
100
AcDbEntity
  8
COTAS
 62
94
100
AcDbBlockReference
  2
_OBLIQUE
 10
33.0
 20
162.0
 30
0.0
 41
3.2
 42
3.2
  0
INSERT
  5
2FA
330
2F3
100
AcDbEntity
  8
COTAS
 62
94
100
AcDbBlockReference
  2
_OBLIQUE
 10
157.0
 20
162.0
 30
0.0
 41
3.2
 42
3.2
  0
LINE
  5
2FC
330
2F3
100
AcDbEntity
  8
0
 62
94
100
AcDbLine
 10
33.0
 20
162.0
 30
0.0
 11
157.0
 21
162.0
 31
0.0
  0
MTEXT
  5
2FD
330
2F3
100
AcDbEntity
  8
COTAS
 62
7
100
AcDbMText
 10
95.0
 20
164.4
 30
0.0
 40
2.8
 71
5
  1
0.62
  7
ARIAL
  0
POINT
  5
2FE
330
2F3
100
AcDbEntity
  8
Defpoints
100
AcDbPoint
 10
33.0
 20
162.0
 30
0.0
  0
POINT
  5
2FF
330
2F3
100
AcDbEntity
  8
Defpoints
100
AcDbPoint
 10
33.0
 20
174.0
 30
0.0
  0
POINT
  5
300
330
2F3
100
AcDbEntity
  8
Defpoints
100
AcDbPoint
 10
157.0
 20
174.0
 30
0.0
  0
ENDBLK
  5
2F5
330
2F3
100
AcDbEntity
  8
0
100
AcDbBlockEnd
  0
BLOCK
  5
303
330
302
100
AcDbEntity
  8
0
100
AcDbBlockBegin
  2
*D25
 70
1
 10
0.0
 20
0.0
 30
0.0
  3
*D25
  1

  0
LINE
  5
305
330
302
100
AcDbEntity
  8
0
 62
94
100
AcDbLine
 10
35.0
 20
172.5
 30
0.0
 11
35.0
 21
150.4
 31
0.0
  0
LINE
  5
306
330
302
100
AcDbEntity
  8
0
 62
94
100
AcDbLine
 10
55.0
 20
172.5
 30
0.0
 11
55.0
 21
150.4
 31
0.0
  0
INSERT
  5
307
330
302
100
AcDbEntity
  8
COTAS
 62
94
100
AcDbBlockReference
  2
_OBLIQUE
 10
35.0
 20
152.0
 30
0.0
 41
3.2
 42
3.2
  0
INSERT
  5
309
330
302
100
AcDbEntity
  8
COTAS
 62
94
100
AcDbBlockReference
  2
_OBLIQUE
 10
55.0
 20
152.0
 30
0.0
 41
3.2
 42
3.2
  0
LINE
  5
30B
330
302
100
AcDbEntity
  8
0
 62
94
100
AcDbLine
 10
35.0
 20
152.0
 30
0.0
 11
55.0
 21
152.0
 31
0.0
  0
MTEXT
  5
30C
330
302
100
AcDbEntity
  8
COTAS
 62
7
100
AcDbMText
 10
45.0
 20
154.4
 30
0.0
 40
2.8
 71
5
  1
0.10
  7
ARIAL
  0
POINT
  5
30D
330
302
100
AcDbEntity
  8
Defpoints
100
AcDbPoint
 10
35.0
 20
152.0
 30
0.0
  0
POINT
  5
30E
330
302
100
AcDbEntity
  8
Defpoints
100
AcDbPoint
 10
35.0
 20
174.0
 30
0.0
  0
POINT
  5
30F
330
302
100
AcDbEntity
  8
Defpoints
100
AcDbPoint
 10
55.0
 20
174.0
 30
0.0
  0
ENDBLK
  5
304
330
302
100
AcDbEntity
  8
0
100
AcDbBlockEnd
  0
BLOCK
  5
312
330
311
100
AcDbEntity
  8
0
100
AcDbBlockBegin
  2
*D26
 70
1
 10
0.0
 20
0.0
 30
0.0
  3
*D26
  1

  0
LINE
  5
314
330
311
100
AcDbEntity
  8
0
 62
94
100
AcDbLine
 10
164.5
 20
182.0
 30
0.0
 11
178.6
 21
182.0
 31
0.0
  0
LINE
  5
315
330
311
100
AcDbEntity
  8
0
 62
94
100
AcDbLine
 10
164.5
 20
302.0
 30
0.0
 11
178.6
 21
302.0
 31
0.0
  0
INSERT
  5
316
330
311
100
AcDbEntity
  8
COTAS
 62
94
100
AcDbBlockReference
  2
_OBLIQUE
 10
177.0
 20
182.0
 30
0.0
 41
3.2
 42
3.2
 50
90.0
  0
INSERT
  5
318
330
311
100
AcDbEntity
  8
COTAS
 62
94
100
AcDbBlockReference
  2
_OBLIQUE
 10
177.0
 20
302.0
 30
0.0
 41
3.2
 42
3.2
 50
90.0
  0
LINE
  5
31A
330
311
100
AcDbEntity
  8
0
 62
94
100
AcDbLine
 10
177.0
 20
182.0
 30
0.0
 11
177.0
 21
302.0
 31
0.0
  0
MTEXT
  5
31B
330
311
100
AcDbEntity
  8
COTAS
 62
7
100
AcDbMText
 10
174.6
 20
242.0
 30
0.0
 40
2.8
 71
5
  1
6 @ 0.10 = 0.60
  7
ARIAL
 50
90.0
  0
POINT
  5
31C
330
311
100
AcDbEntity
  8
Defpoints
100
AcDbPoint
 10
177.0
 20
182.0
 30
0.0
  0
POINT
  5
31D
330
311
100
AcDbEntity
  8
Defpoints
100
AcDbPoint
 10
163.0
 20
182.0
 30
0.0
  0
POINT
  5
31E
330
311
100
AcDbEntity
  8
Defpoints
100
AcDbPoint
 10
163.0
 20
302.0
 30
0.0
  0
ENDBLK
  5
313
330
311
100
AcDbEntity
  8
0
100
AcDbBlockEnd
  0
BLOCK
  5
321
330
320
100
AcDbEntity
  8
0
100
AcDbBlockBegin
  2
*D27
 70
1
 10
0.0
 20
0.0
 30
0.0
  3
*D27
  1

  0
LINE
  5
323
330
320
100
AcDbEntity
  8
0
 62
94
100
AcDbLine
 10
79.0
 20
292.5
 30
0.0
 11
79.0
 21
302.6
 31
0.0
  0
LINE
  5
324
330
320
100
AcDbEntity
  8
0
 62
94
100
AcDbLine
 10
111.0
 20
292.5
 30
0.0
 11
111.0
 21
302.6
 31
0.0
  0
INSERT
  5
325
330
320
100
AcDbEntity
  8
COTAS
 62
94
100
AcDbBlockReference
  2
_OBLIQUE
 10
79.0
 20
301.0
 30
0.0
 41
3.2
 42
3.2
  0
INSERT
  5
327
330
320
100
AcDbEntity
  8
COTAS
 62
94
100
AcDbBlockReference
  2
_OBLIQUE
 10
111.0
 20
301.0
 30
0.0
 41
3.2
 42
3.2
  0
LINE
  5
329
330
320
100
AcDbEntity
  8
0
 62
94
100
AcDbLine
 10
79.0
 20
301.0
 30
0.0
 11
111.0
 21
301.0
 31
0.0
  0
MTEXT
  5
32A
330
320
100
AcDbEntity
  8
COTAS
 62
7
100
AcDbMText
 10
95.0
 20
303.4
 30
0.0
 40
2.8
 71
5
  1
0.16
  7
ARIAL
  0
POINT
  5
32B
330
320
100
AcDbEntity
  8
Defpoints
100
AcDbPoint
 10
79.0
 20
301.0
 30
0.0
  0
POINT
  5
32C
330
320
100
AcDbEntity
  8
Defpoints
100
AcDbPoint
 10
79.0
 20
291.0
 30
0.0
  0
POINT
  5
32D
330
320
100
AcDbEntity
  8
Defpoints
100
AcDbPoint
 10
111.0
 20
291.0
 30
0.0
  0
ENDBLK
  5
322
330
320
100
AcDbEntity
  8
0
100
AcDbBlockEnd
  0
BLOCK
  5
330
330
32F
100
AcDbEntity
  8
0
100
AcDbBlockBegin
  2
*D28
 70
1
 10
0.0
 20
0.0
 30
0.0
  3
*D28
  1

  0
LINE
  5
332
330
32F
100
AcDbEntity
  8
0
 62
94
100
AcDbLine
 10
25.5
 20
242.0
 30
0.0
 11
13.4
 21
242.0
 31
0.0
  0
LINE
  5
333
330
32F
100
AcDbEntity
  8
0
 62
94
100
AcDbLine
 10
25.5
 20
286.0
 30
0.0
 11
13.4
 21
286.0
 31
0.0
  0
INSERT
  5
334
330
32F
100
AcDbEntity
  8
COTAS
 62
94
100
AcDbBlockReference
  2
_OBLIQUE
 10
15.0
 20
242.0
 30
0.0
 41
3.2
 42
3.2
 50
90.0
  0
INSERT
  5
336
330
32F
100
AcDbEntity
  8
COTAS
 62
94
100
AcDbBlockReference
  2
_OBLIQUE
 10
15.0
 20
286.0
 30
0.0
 41
3.2
 42
3.2
 50
90.0
  0
LINE
  5
338
330
32F
100
AcDbEntity
  8
0
 62
94
100
AcDbLine
 10
15.0
 20
242.0
 30
0.0
 11
15.0
 21
286.0
 31
0.0
  0
MTEXT
  5
339
330
32F
100
AcDbEntity
  8
COTAS
 62
7
100
AcDbMText
 10
12.6
 20
264.0
 30
0.0
 40
2.8
 71
5
  1
0.22
  7
ARIAL
 50
90.0
  0
POINT
  5
33A
330
32F
100
AcDbEntity
  8
Defpoints
100
AcDbPoint
 10
15.0
 20
242.0
 30
0.0
  0
POINT
  5
33B
330
32F
100
AcDbEntity
  8
Defpoints
100
AcDbPoint
 10
27.0
 20
242.0
 30
0.0
  0
POINT
  5
33C
330
32F
100
AcDbEntity
  8
Defpoints
100
AcDbPoint
 10
27.0
 20
286.0
 30
0.0
  0
ENDBLK
  5
331
330
32F
100
AcDbEntity
  8
0
100
AcDbBlockEnd
  0
BLOCK
  5
366
330
365
100
AcDbEntity
  8
0
100
AcDbBlockBegin
  2
*D29
 70
1
 10
0.0
 20
0.0
 30
0.0
  3
*D29
  1

  0
LINE
  5
368
330
365
100
AcDbEntity
  8
0
 62
94
100
AcDbLine
 10
27.0
 20
113.5
 30
0.0
 11
27.0
 21
127.6
 31
0.0
  0
LINE
  5
369
330
365
100
AcDbEntity
  8
0
 62
94
100
AcDbLine
 10
163.0
 20
113.5
 30
0.0
 11
163.0
 21
127.6
 31
0.0
  0
INSERT
  5
36A
330
365
100
AcDbEntity
  8
COTAS
 62
94
100
AcDbBlockReference
  2
_OBLIQUE
 10
27.0
 20
126.0
 30
0.0
 41
3.2
 42
3.2
  0
INSERT
  5
36C
330
365
100
AcDbEntity
  8
COTAS
 62
94
100
AcDbBlockReference
  2
_OBLIQUE
 10
163.0
 20
126.0
 30
0.0
 41
3.2
 42
3.2
  0
LINE
  5
36E
330
365
100
AcDbEntity
  8
0
 62
94
100
AcDbLine
 10
27.0
 20
126.0
 30
0.0
 11
163.0
 21
126.0
 31
0.0
  0
MTEXT
  5
36F
330
365
100
AcDbEntity
  8
COTAS
 62
7
100
AcDbMText
 10
95.0
 20
128.4
 30
0.0
 40
2.8
 71
5
  1
0.68
  7
ARIAL
  0
POINT
  5
370
330
365
100
AcDbEntity
  8
Defpoints
100
AcDbPoint
 10
27.0
 20
126.0
 30
0.0
  0
POINT
  5
371
330
365
100
AcDbEntity
  8
Defpoints
100
AcDbPoint
 10
27.0
 20
112.0
 30
0.0
  0
POINT
  5
372
330
365
100
AcDbEntity
  8
Defpoints
100
AcDbPoint
 10
163.0
 20
112.0
 30
0.0
  0
ENDBLK
  5
367
330
365
100
AcDbEntity
  8
0
100
AcDbBlockEnd
  0
BLOCK
  5
375
330
374
100
AcDbEntity
  8
0
100
AcDbBlockBegin
  2
*D30
 70
1
 10
0.0
 20
0.0
 30
0.0
  3
*D30
  1

  0
LINE
  5
377
330
374
100
AcDbEntity
  8
0
 62
94
100
AcDbLine
 10
164.5
 20
112.0
 30
0.0
 11
176.6
 21
112.0
 31
0.0
  0
LINE
  5
378
330
374
100
AcDbEntity
  8
0
 62
94
100
AcDbLine
 10
164.5
 20
96.0
 30
0.0
 11
176.6
 21
96.0
 31
0.0
  0
INSERT
  5
379
330
374
100
AcDbEntity
  8
COTAS
 62
94
100
AcDbBlockReference
  2
_OBLIQUE
 10
175.0
 20
112.0
 30
0.0
 41
3.2
 42
3.2
 50
90.0
  0
INSERT
  5
37B
330
374
100
AcDbEntity
  8
COTAS
 62
94
100
AcDbBlockReference
  2
_OBLIQUE
 10
175.0
 20
96.0
 30
0.0
 41
3.2
 42
3.2
 50
90.0
  0
LINE
  5
37D
330
374
100
AcDbEntity
  8
0
 62
94
100
AcDbLine
 10
175.0
 20
112.0
 30
0.0
 11
175.0
 21
96.0
 31
0.0
  0
MTEXT
  5
37E
330
374
100
AcDbEntity
  8
COTAS
 62
7
100
AcDbMText
 10
177.4
 20
104.0
 30
0.0
 40
2.8
 71
5
  1
0.08
  7
ARIAL
 50
90.0
  0
POINT
  5
37F
330
374
100
AcDbEntity
  8
Defpoints
100
AcDbPoint
 10
175.0
 20
112.0
 30
0.0
  0
POINT
  5
380
330
374
100
AcDbEntity
  8
Defpoints
100
AcDbPoint
 10
163.0
 20
112.0
 30
0.0
  0
POINT
  5
381
330
374
100
AcDbEntity
  8
Defpoints
100
AcDbPoint
 10
163.0
 20
96.0
 30
0.0
  0
ENDBLK
  5
376
330
374
100
AcDbEntity
  8
0
100
AcDbBlockEnd
  0
BLOCK
  5
384
330
383
100
AcDbEntity
  8
0
100
AcDbBlockBegin
  2
*D31
 70
1
 10
0.0
 20
0.0
 30
0.0
  3
*D31
  1

  0
LINE
  5
386
330
383
100
AcDbEntity
  8
0
 62
94
100
AcDbLine
 10
25.5
 20
96.0
 30
0.0
 11
15.4
 21
96.0
 31
0.0
  0
LINE
  5
387
330
383
100
AcDbEntity
  8
0
 62
94
100
AcDbLine
 10
25.5
 20
101.0
 30
0.0
 11
15.4
 21
101.0
 31
0.0
  0
INSERT
  5
388
330
383
100
AcDbEntity
  8
COTAS
 62
94
100
AcDbBlockReference
  2
_OBLIQUE
 10
17.0
 20
96.0
 30
0.0
 41
3.2
 42
3.2
 50
90.0
  0
INSERT
  5
38A
330
383
100
AcDbEntity
  8
COTAS
 62
94
100
AcDbBlockReference
  2
_OBLIQUE
 10
17.0
 20
101.0
 30
0.0
 41
3.2
 42
3.2
 50
90.0
  0
LINE
  5
38C
330
383
100
AcDbEntity
  8
0
 62
94
100
AcDbLine
 10
17.0
 20
96.0
 30
0.0
 11
17.0
 21
101.0
 31
0.0
  0
MTEXT
  5
38D
330
383
100
AcDbEntity
  8
COTAS
 62
7
100
AcDbMText
 10
13.0
 20
98.5
 30
0.0
 40
2.8
 71
5
  1
0.025
  7
ARIAL
 50
90.0
  0
POINT
  5
38E
330
383
100
AcDbEntity
  8
Defpoints
100
AcDbPoint
 10
17.0
 20
96.0
 30
0.0
  0
POINT
  5
38F
330
383
100
AcDbEntity
  8
Defpoints
100
AcDbPoint
 10
27.0
 20
96.0
 30
0.0
  0
POINT
  5
390
330
383
100
AcDbEntity
  8
Defpoints
100
AcDbPoint
 10
27.0
 20
101.0
 30
0.0
  0
ENDBLK
  5
385
330
383
100
AcDbEntity
  8
0
100
AcDbBlockEnd
  0
BLOCK
  5
393
330
392
100
AcDbEntity
  8
0
100
AcDbBlockBegin
  2
*D32
 70
1
 10
0.0
 20
0.0
 30
0.0
  3
*D32
  1

  0
LINE
  5
395
330
392
100
AcDbEntity
  8
0
 62
94
100
AcDbLine
 10
79.0
 20
104.5
 30
0.0
 11
79.0
 21
78.4
 31
0.0
  0
LINE
  5
396
330
392
100
AcDbEntity
  8
0
 62
94
100
AcDbLine
 10
111.0
 20
104.5
 30
0.0
 11
111.0
 21
78.4
 31
0.0
  0
INSERT
  5
397
330
392
100
AcDbEntity
  8
COTAS
 62
94
100
AcDbBlockReference
  2
_OBLIQUE
 10
79.0
 20
80.0
 30
0.0
 41
3.2
 42
3.2
  0
INSERT
  5
399
330
392
100
AcDbEntity
  8
COTAS
 62
94
100
AcDbBlockReference
  2
_OBLIQUE
 10
111.0
 20
80.0
 30
0.0
 41
3.2
 42
3.2
  0
LINE
  5
39B
330
392
100
AcDbEntity
  8
0
 62
94
100
AcDbLine
 10
79.0
 20
80.0
 30
0.0
 11
111.0
 21
80.0
 31
0.0
  0
MTEXT
  5
39C
330
392
100
AcDbEntity
  8
COTAS
 62
7
100
AcDbMText
 10
95.0
 20
82.4
 30
0.0
 40
2.8
 71
5
  1
0.16
  7
ARIAL
  0
POINT
  5
39D
330
392
100
AcDbEntity
  8
Defpoints
100
AcDbPoint
 10
79.0
 20
80.0
 30
0.0
  0
POINT
  5
39E
330
392
100
AcDbEntity
  8
Defpoints
100
AcDbPoint
 10
79.0
 20
106.0
 30
0.0
  0
POINT
  5
39F
330
392
100
AcDbEntity
  8
Defpoints
100
AcDbPoint
 10
111.0
 20
106.0
 30
0.0
  0
ENDBLK
  5
394
330
392
100
AcDbEntity
  8
0
100
AcDbBlockEnd
  0
BLOCK
  5
3BC
330
3BB
100
AcDbEntity
  8
0
100
AcDbBlockBegin
  2
*D33
 70
1
 10
0.0
 20
0.0
 30
0.0
  3
*D33
  1

  0
LINE
  5
3BE
330
3BB
100
AcDbEntity
  8
0
 62
94
100
AcDbLine
 10
315.0
 20
200.5
 30
0.0
 11
315.0
 21
190.4
 31
0.0
  0
LINE
  5
3BF
330
3BB
100
AcDbEntity
  8
0
 62
94
100
AcDbLine
 10
385.0
 20
200.5
 30
0.0
 11
385.0
 21
190.4
 31
0.0
  0
INSERT
  5
3C0
330
3BB
100
AcDbEntity
  8
COTAS
 62
94
100
AcDbBlockReference
  2
_OBLIQUE
 10
315.0
 20
192.0
 30
0.0
 41
3.2
 42
3.2
  0
INSERT
  5
3C2
330
3BB
100
AcDbEntity
  8
COTAS
 62
94
100
AcDbBlockReference
  2
_OBLIQUE
 10
385.0
 20
192.0
 30
0.0
 41
3.2
 42
3.2
  0
LINE
  5
3C4
330
3BB
100
AcDbEntity
  8
0
 62
94
100
AcDbLine
 10
315.0
 20
192.0
 30
0.0
 11
385.0
 21
192.0
 31
0.0
  0
MTEXT
  5
3C5
330
3BB
100
AcDbEntity
  8
COTAS
 62
7
100
AcDbMText
 10
350.0
 20
194.4
 30
0.0
 40
2.8
 71
5
  1
0.70
  7
ARIAL
  0
POINT
  5
3C6
330
3BB
100
AcDbEntity
  8
Defpoints
100
AcDbPoint
 10
315.0
 20
192.0
 30
0.0
  0
POINT
  5
3C7
330
3BB
100
AcDbEntity
  8
Defpoints
100
AcDbPoint
 10
315.0
 20
202.0
 30
0.0
  0
POINT
  5
3C8
330
3BB
100
AcDbEntity
  8
Defpoints
100
AcDbPoint
 10
385.0
 20
202.0
 30
0.0
  0
ENDBLK
  5
3BD
330
3BB
100
AcDbEntity
  8
0
100
AcDbBlockEnd
  0
BLOCK
  5
3CB
330
3CA
100
AcDbEntity
  8
0
100
AcDbBlockBegin
  2
*D34
 70
1
 10
0.0
 20
0.0
 30
0.0
  3
*D34
  1

  0
LINE
  5
3CD
330
3CA
100
AcDbEntity
  8
0
 62
94
100
AcDbLine
 10
337.5
 20
200.5
 30
0.0
 11
337.5
 21
182.4
 31
0.0
  0
LINE
  5
3CE
330
3CA
100
AcDbEntity
  8
0
 62
94
100
AcDbLine
 10
362.5
 20
200.5
 30
0.0
 11
362.5
 21
182.4
 31
0.0
  0
INSERT
  5
3CF
330
3CA
100
AcDbEntity
  8
COTAS
 62
94
100
AcDbBlockReference
  2
_OBLIQUE
 10
337.5
 20
184.0
 30
0.0
 41
3.2
 42
3.2
  0
INSERT
  5
3D1
330
3CA
100
AcDbEntity
  8
COTAS
 62
94
100
AcDbBlockReference
  2
_OBLIQUE
 10
362.5
 20
184.0
 30
0.0
 41
3.2
 42
3.2
  0
LINE
  5
3D3
330
3CA
100
AcDbEntity
  8
0
 62
94
100
AcDbLine
 10
337.5
 20
184.0
 30
0.0
 11
362.5
 21
184.0
 31
0.0
  0
MTEXT
  5
3D4
330
3CA
100
AcDbEntity
  8
COTAS
 62
7
100
AcDbMText
 10
350.0
 20
186.4
 30
0.0
 40
2.8
 71
5
  1
0.25
  7
ARIAL
  0
POINT
  5
3D5
330
3CA
100
AcDbEntity
  8
Defpoints
100
AcDbPoint
 10
337.5
 20
184.0
 30
0.0
  0
POINT
  5
3D6
330
3CA
100
AcDbEntity
  8
Defpoints
100
AcDbPoint
 10
337.5
 20
202.0
 30
0.0
  0
POINT
  5
3D7
330
3CA
100
AcDbEntity
  8
Defpoints
100
AcDbPoint
 10
362.5
 20
202.0
 30
0.0
  0
ENDBLK
  5
3CC
330
3CA
100
AcDbEntity
  8
0
100
AcDbBlockEnd
  0
BLOCK
  5
3DA
330
3D9
100
AcDbEntity
  8
0
100
AcDbBlockBegin
  2
*D35
 70
1
 10
0.0
 20
0.0
 30
0.0
  3
*D35
  1

  0
LINE
  5
3DC
330
3D9
100
AcDbEntity
  8
0
 62
94
100
AcDbLine
 10
320.08
 20
306.5
 30
0.0
 11
320.08
 21
312.6
 31
0.0
  0
LINE
  5
3DD
330
3D9
100
AcDbEntity
  8
0
 62
94
100
AcDbLine
 10
379.92
 20
306.5
 30
0.0
 11
379.92
 21
312.6
 31
0.0
  0
INSERT
  5
3DE
330
3D9
100
AcDbEntity
  8
COTAS
 62
94
100
AcDbBlockReference
  2
_OBLIQUE
 10
320.08
 20
311.0
 30
0.0
 41
3.2
 42
3.2
  0
INSERT
  5
3E0
330
3D9
100
AcDbEntity
  8
COTAS
 62
94
100
AcDbBlockReference
  2
_OBLIQUE
 10
379.92
 20
311.0
 30
0.0
 41
3.2
 42
3.2
  0
LINE
  5
3E2
330
3D9
100
AcDbEntity
  8
0
 62
94
100
AcDbLine
 10
320.08
 20
311.0
 30
0.0
 11
379.92
 21
311.0
 31
0.0
  0
MTEXT
  5
3E3
330
3D9
100
AcDbEntity
  8
COTAS
 62
7
100
AcDbMText
 10
350.0
 20
313.4
 30
0.0
 40
2.8
 71
5
  1
0.60
  7
ARIAL
  0
POINT
  5
3E4
330
3D9
100
AcDbEntity
  8
Defpoints
100
AcDbPoint
 10
320.08
 20
311.0
 30
0.0
  0
POINT
  5
3E5
330
3D9
100
AcDbEntity
  8
Defpoints
100
AcDbPoint
 10
320.08
 20
305.0
 30
0.0
  0
POINT
  5
3E6
330
3D9
100
AcDbEntity
  8
Defpoints
100
AcDbPoint
 10
379.92
 20
305.0
 30
0.0
  0
ENDBLK
  5
3DB
330
3D9
100
AcDbEntity
  8
0
100
AcDbBlockEnd
  0
BLOCK
  5
3E9
330
3E8
100
AcDbEntity
  8
0
100
AcDbBlockBegin
  2
*D36
 70
1
 10
0.0
 20
0.0
 30
0.0
  3
*D36
  1

  0
LINE
  5
3EB
330
3E8
100
AcDbEntity
  8
0
 62
94
100
AcDbLine
 10
385.0
 20
266.0
 30
0.0
 11
385.0
 21
288.1
 31
0.0
  0
LINE
  5
3EC
330
3E8
100
AcDbEntity
  8
0
 62
94
100
AcDbLine
 10
403.0
 20
266.0
 30
0.0
 11
403.0
 21
288.1
 31
0.0
  0
INSERT
  5
3ED
330
3E8
100
AcDbEntity
  8
COTAS
 62
94
100
AcDbBlockReference
  2
_OBLIQUE
 10
385.0
 20
286.5
 30
0.0
 41
3.2
 42
3.2
  0
INSERT
  5
3EF
330
3E8
100
AcDbEntity
  8
COTAS
 62
94
100
AcDbBlockReference
  2
_OBLIQUE
 10
403.0
 20
286.5
 30
0.0
 41
3.2
 42
3.2
  0
LINE
  5
3F1
330
3E8
100
AcDbEntity
  8
0
 62
94
100
AcDbLine
 10
385.0
 20
286.5
 30
0.0
 11
403.0
 21
286.5
 31
0.0
  0
MTEXT
  5
3F2
330
3E8
100
AcDbEntity
  8
COTAS
 62
7
100
AcDbMText
 10
394.0
 20
290.5
 30
0.0
 40
2.8
 71
5
  1
0.18 (proy.)
  7
ARIAL
  0
POINT
  5
3F3
330
3E8
100
AcDbEntity
  8
Defpoints
100
AcDbPoint
 10
385.0
 20
286.5
 30
0.0
  0
POINT
  5
3F4
330
3E8
100
AcDbEntity
  8
Defpoints
100
AcDbPoint
 10
385.0
 20
264.5
 30
0.0
  0
POINT
  5
3F5
330
3E8
100
AcDbEntity
  8
Defpoints
100
AcDbPoint
 10
403.0
 20
264.5
 30
0.0
  0
ENDBLK
  5
3EA
330
3E8
100
AcDbEntity
  8
0
100
AcDbBlockEnd
  0
BLOCK
  5
405
330
404
100
AcDbEntity
  8
0
100
AcDbBlockBegin
  2
*D37
 70
1
 10
0.0
 20
0.0
 30
0.0
  3
*D37
  1

  0
LINE
  5
407
330
404
100
AcDbEntity
  8
0
 62
94
100
AcDbLine
 10
462.0
 20
250.5
 30
0.0
 11
462.0
 21
243.4
 31
0.0
  0
LINE
  5
408
330
404
100
AcDbEntity
  8
0
 62
94
100
AcDbLine
 10
512.8
 20
250.5
 30
0.0
 11
512.8
 21
243.4
 31
0.0
  0
INSERT
  5
409
330
404
100
AcDbEntity
  8
COTAS
 62
94
100
AcDbBlockReference
  2
_OBLIQUE
 10
462.0
 20
245.0
 30
0.0
 41
3.2
 42
3.2
  0
INSERT
  5
40B
330
404
100
AcDbEntity
  8
COTAS
 62
94
100
AcDbBlockReference
  2
_OBLIQUE
 10
512.8
 20
245.0
 30
0.0
 41
3.2
 42
3.2
  0
LINE
  5
40D
330
404
100
AcDbEntity
  8
0
 62
94
100
AcDbLine
 10
462.0
 20
245.0
 30
0.0
 11
512.8
 21
245.0
 31
0.0
  0
MTEXT
  5
40E
330
404
100
AcDbEntity
  8
COTAS
 62
7
100
AcDbMText
 10
487.4
 20
247.4
 30
0.0
 40
2.8
 71
5
  1
50.8
  7
ARIAL
  0
POINT
  5
40F
330
404
100
AcDbEntity
  8
Defpoints
100
AcDbPoint
 10
462.0
 20
245.0
 30
0.0
  0
POINT
  5
410
330
404
100
AcDbEntity
  8
Defpoints
100
AcDbPoint
 10
462.0
 20
252.0
 30
0.0
  0
POINT
  5
411
330
404
100
AcDbEntity
  8
Defpoints
100
AcDbPoint
 10
512.8
 20
252.0
 30
0.0
  0
ENDBLK
  5
406
330
404
100
AcDbEntity
  8
0
100
AcDbBlockEnd
  0
BLOCK
  5
414
330
413
100
AcDbEntity
  8
0
100
AcDbBlockBegin
  2
*D38
 70
1
 10
0.0
 20
0.0
 30
0.0
  3
*D38
  1

  0
LINE
  5
416
330
413
100
AcDbEntity
  8
0
 62
94
100
AcDbLine
 10
460.5
 20
252.0
 30
0.0
 11
453.4
 21
252.0
 31
0.0
  0
LINE
  5
417
330
413
100
AcDbEntity
  8
0
 62
94
100
AcDbLine
 10
460.5
 20
302.8
 30
0.0
 11
453.4
 21
302.8
 31
0.0
  0
INSERT
  5
418
330
413
100
AcDbEntity
  8
COTAS
 62
94
100
AcDbBlockReference
  2
_OBLIQUE
 10
455.0
 20
252.0
 30
0.0
 41
3.2
 42
3.2
 50
90.0
  0
INSERT
  5
41A
330
413
100
AcDbEntity
  8
COTAS
 62
94
100
AcDbBlockReference
  2
_OBLIQUE
 10
455.0
 20
302.8
 30
0.0
 41
3.2
 42
3.2
 50
90.0
  0
LINE
  5
41C
330
413
100
AcDbEntity
  8
0
 62
94
100
AcDbLine
 10
455.0
 20
252.0
 30
0.0
 11
455.0
 21
302.8
 31
0.0
  0
MTEXT
  5
41D
330
413
100
AcDbEntity
  8
COTAS
 62
7
100
AcDbMText
 10
452.6
 20
277.4
 30
0.0
 40
2.8
 71
5
  1
50.8
  7
ARIAL
 50
90.0
  0
POINT
  5
41E
330
413
100
AcDbEntity
  8
Defpoints
100
AcDbPoint
 10
455.0
 20
252.0
 30
0.0
  0
POINT
  5
41F
330
413
100
AcDbEntity
  8
Defpoints
100
AcDbPoint
 10
462.0
 20
252.0
 30
0.0
  0
POINT
  5
420
330
413
100
AcDbEntity
  8
Defpoints
100
AcDbPoint
 10
462.0
 20
302.8
 30
0.0
  0
ENDBLK
  5
415
330
413
100
AcDbEntity
  8
0
100
AcDbBlockEnd
  0
BLOCK
  5
423
330
422
100
AcDbEntity
  8
0
100
AcDbBlockBegin
  2
*D39
 70
1
 10
0.0
 20
0.0
 30
0.0
  3
*D39
  1

  0
LINE
  5
425
330
422
100
AcDbEntity
  8
0
 62
94
100
AcDbLine
 10
514.3
 20
252.0
 30
0.0
 11
521.4
 21
252.0
 31
0.0
  0
LINE
  5
426
330
422
100
AcDbEntity
  8
0
 62
94
100
AcDbLine
 10
514.3
 20
256.7625
 30
0.0
 11
521.4
 21
256.7625
 31
0.0
  0
INSERT
  5
427
330
422
100
AcDbEntity
  8
COTAS
 62
94
100
AcDbBlockReference
  2
_OBLIQUE
 10
519.8
 20
252.0
 30
0.0
 41
3.2
 42
3.2
 50
90.0
  0
INSERT
  5
429
330
422
100
AcDbEntity
  8
COTAS
 62
94
100
AcDbBlockReference
  2
_OBLIQUE
 10
519.8
 20
256.7625
 30
0.0
 41
3.2
 42
3.2
 50
90.0
  0
LINE
  5
42B
330
422
100
AcDbEntity
  8
0
 62
94
100
AcDbLine
 10
519.8
 20
252.0
 30
0.0
 11
519.8
 21
256.7625
 31
0.0
  0
MTEXT
  5
42C
330
422
100
AcDbEntity
  8
COTAS
 62
7
100
AcDbMText
 10
515.8
 20
254.38125
 30
0.0
 40
2.8
 71
5
  1
4.8
  7
ARIAL
 50
90.0
  0
POINT
  5
42D
330
422
100
AcDbEntity
  8
Defpoints
100
AcDbPoint
 10
519.8
 20
252.0
 30
0.0
  0
POINT
  5
42E
330
422
100
AcDbEntity
  8
Defpoints
100
AcDbPoint
 10
512.8
 20
252.0
 30
0.0
  0
POINT
  5
42F
330
422
100
AcDbEntity
  8
Defpoints
100
AcDbPoint
 10
512.8
 20
256.7625
 30
0.0
  0
ENDBLK
  5
424
330
422
100
AcDbEntity
  8
0
100
AcDbBlockEnd
  0
BLOCK
  5
435
330
434
100
AcDbEntity
  8
0
100
AcDbBlockBegin
  2
*D40
 70
1
 10
0.0
 20
0.0
 30
0.0
  3
*D40
  1

  0
LINE
  5
437
330
434
100
AcDbEntity
  8
0
 62
94
100
AcDbLine
 10
462.0
 20
170.5
 30
0.0
 11
462.0
 21
163.4
 31
0.0
  0
LINE
  5
438
330
434
100
AcDbEntity
  8
0
 62
94
100
AcDbLine
 10
500.1
 20
170.5
 30
0.0
 11
500.1
 21
163.4
 31
0.0
  0
INSERT
  5
439
330
434
100
AcDbEntity
  8
COTAS
 62
94
100
AcDbBlockReference
  2
_OBLIQUE
 10
462.0
 20
165.0
 30
0.0
 41
3.2
 42
3.2
  0
INSERT
  5
43B
330
434
100
AcDbEntity
  8
COTAS
 62
94
100
AcDbBlockReference
  2
_OBLIQUE
 10
500.1
 20
165.0
 30
0.0
 41
3.2
 42
3.2
  0
LINE
  5
43D
330
434
100
AcDbEntity
  8
0
 62
94
100
AcDbLine
 10
462.0
 20
165.0
 30
0.0
 11
500.1
 21
165.0
 31
0.0
  0
MTEXT
  5
43E
330
434
100
AcDbEntity
  8
COTAS
 62
7
100
AcDbMText
 10
481.05
 20
167.4
 30
0.0
 40
2.8
 71
5
  1
38.1
  7
ARIAL
  0
POINT
  5
43F
330
434
100
AcDbEntity
  8
Defpoints
100
AcDbPoint
 10
462.0
 20
165.0
 30
0.0
  0
POINT
  5
440
330
434
100
AcDbEntity
  8
Defpoints
100
AcDbPoint
 10
462.0
 20
172.0
 30
0.0
  0
POINT
  5
441
330
434
100
AcDbEntity
  8
Defpoints
100
AcDbPoint
 10
500.1
 20
172.0
 30
0.0
  0
ENDBLK
  5
436
330
434
100
AcDbEntity
  8
0
100
AcDbBlockEnd
  0
BLOCK
  5
444
330
443
100
AcDbEntity
  8
0
100
AcDbBlockBegin
  2
*D41
 70
1
 10
0.0
 20
0.0
 30
0.0
  3
*D41
  1

  0
LINE
  5
446
330
443
100
AcDbEntity
  8
0
 62
94
100
AcDbLine
 10
460.5
 20
172.0
 30
0.0
 11
453.4
 21
172.0
 31
0.0
  0
LINE
  5
447
330
443
100
AcDbEntity
  8
0
 62
94
100
AcDbLine
 10
460.5
 20
210.1
 30
0.0
 11
453.4
 21
210.1
 31
0.0
  0
INSERT
  5
448
330
443
100
AcDbEntity
  8
COTAS
 62
94
100
AcDbBlockReference
  2
_OBLIQUE
 10
455.0
 20
172.0
 30
0.0
 41
3.2
 42
3.2
 50
90.0
  0
INSERT
  5
44A
330
443
100
AcDbEntity
  8
COTAS
 62
94
100
AcDbBlockReference
  2
_OBLIQUE
 10
455.0
 20
210.1
 30
0.0
 41
3.2
 42
3.2
 50
90.0
  0
LINE
  5
44C
330
443
100
AcDbEntity
  8
0
 62
94
100
AcDbLine
 10
455.0
 20
172.0
 30
0.0
 11
455.0
 21
210.1
 31
0.0
  0
MTEXT
  5
44D
330
443
100
AcDbEntity
  8
COTAS
 62
7
100
AcDbMText
 10
452.6
 20
191.05
 30
0.0
 40
2.8
 71
5
  1
38.1
  7
ARIAL
 50
90.0
  0
POINT
  5
44E
330
443
100
AcDbEntity
  8
Defpoints
100
AcDbPoint
 10
455.0
 20
172.0
 30
0.0
  0
POINT
  5
44F
330
443
100
AcDbEntity
  8
Defpoints
100
AcDbPoint
 10
462.0
 20
172.0
 30
0.0
  0
POINT
  5
450
330
443
100
AcDbEntity
  8
Defpoints
100
AcDbPoint
 10
462.0
 20
210.1
 30
0.0
  0
ENDBLK
  5
445
330
443
100
AcDbEntity
  8
0
100
AcDbBlockEnd
  0
BLOCK
  5
453
330
452
100
AcDbEntity
  8
0
100
AcDbBlockBegin
  2
*D42
 70
1
 10
0.0
 20
0.0
 30
0.0
  3
*D42
  1

  0
LINE
  5
455
330
452
100
AcDbEntity
  8
0
 62
94
100
AcDbLine
 10
501.6
 20
172.0
 30
0.0
 11
508.70000000000005
 21
172.0
 31
0.0
  0
LINE
  5
456
330
452
100
AcDbEntity
  8
0
 62
94
100
AcDbLine
 10
501.6
 20
175.175
 30
0.0
 11
508.70000000000005
 21
175.175
 31
0.0
  0
INSERT
  5
457
330
452
100
AcDbEntity
  8
COTAS
 62
94
100
AcDbBlockReference
  2
_OBLIQUE
 10
507.1
 20
172.0
 30
0.0
 41
3.2
 42
3.2
 50
90.0
  0
INSERT
  5
459
330
452
100
AcDbEntity
  8
COTAS
 62
94
100
AcDbBlockReference
  2
_OBLIQUE
 10
507.1
 20
175.175
 30
0.0
 41
3.2
 42
3.2
 50
90.0
  0
LINE
  5
45B
330
452
100
AcDbEntity
  8
0
 62
94
100
AcDbLine
 10
507.1
 20
172.0
 30
0.0
 11
507.1
 21
175.175
 31
0.0
  0
MTEXT
  5
45C
330
452
100
AcDbEntity
  8
COTAS
 62
7
100
AcDbMText
 10
503.1
 20
173.5875
 30
0.0
 40
2.8
 71
5
  1
3.2
  7
ARIAL
 50
90.0
  0
POINT
  5
45D
330
452
100
AcDbEntity
  8
Defpoints
100
AcDbPoint
 10
507.1
 20
172.0
 30
0.0
  0
POINT
  5
45E
330
452
100
AcDbEntity
  8
Defpoints
100
AcDbPoint
 10
500.1
 20
172.0
 30
0.0
  0
POINT
  5
45F
330
452
100
AcDbEntity
  8
Defpoints
100
AcDbPoint
 10
500.1
 20
175.175
 30
0.0
  0
ENDBLK
  5
454
330
452
100
AcDbEntity
  8
0
100
AcDbBlockEnd
  0
ENDSEC
  0
SECTION
  2
ENTITIES
  0
LWPOLYLINE
  5
A1
330
17
100
AcDbEntity
  8
LAMINA
100
AcDbPolyline
 90
4
 70
1
 10
0.0
 20
0.0
 10
841.0
 20
0.0
 10
841.0
 20
594.0
 10
0.0
 20
594.0
  0
LWPOLYLINE
  5
A2
330
17
100
AcDbEntity
  8
LAMINA
370
70
100
AcDbPolyline
 90
4
 70
1
 10
10.0
 20
10.0
 10
831.0
 20
10.0
 10
831.0
 20
584.0
 10
10.0
 20
584.0
  0
TEXT
  5
A3
330
17
100
AcDbEntity
  8
TITULOS
100
AcDbText
 10
22.0
 20
572.0
 30
0.0
 40
6.0
  1
A. PLANTA DEL REGISTRO
  7
ARIALB
 11
22.0
 21
572.0
 31
0.0
100
AcDbText
  0
LINE
  5
A4
330
17
100
AcDbEntity
  8
TITULOS
370
70
100
AcDbLine
 10
22.0
 20
570.0
 30
0.0
 11
182.0
 21
570.0
 31
0.0
  0
TEXT
  5
A5
330
17
100
AcDbEntity
  8
TITULOS
100
AcDbText
 10
22.0
 20
564.5
 30
0.0
 40
4.0
  1
ESC. 1/10
  7
ARIAL
 11
22.0
 21
564.5
 31
0.0
100
AcDbText
  0
LWPOLYLINE
  5
A6
330
17
100
AcDbEntity
  8
CONCRETO
100
AcDbPolyline
 90
2
 70
0
 10
49.99999999999999
 20
400.0
 10
49.99999999999999
 20
524.0
  0
LWPOLYLINE
  5
A7
330
17
100
AcDbEntity
  8
CONCRETO
100
AcDbPolyline
 90
2
 70
0
 10
160.0
 20
400.0
 10
160.0
 20
524.0
  0
LWPOLYLINE
  5
A8
330
17
100
AcDbEntity
  8
CONCRETO
100
AcDbPolyline
 90
6
 70
0
 10
49.99999999999999
 20
400.0
 10
97.0
 20
400.0
 10
100.0
 20
403.0
 10
104.0
 20
397.0
 10
107.0
 20
400.0
 10
160.0
 20
400.0
  0
LWPOLYLINE
  5
A9
330
17
100
AcDbEntity
  8
CONCRETO
100
AcDbPolyline
 90
6
 70
0
 10
49.99999999999999
 20
524.0
 10
97.0
 20
524.0
 10
100.0
 20
527.0
 10
104.0
 20
521.0
 10
107.0
 20
524.0
 10
160.0
 20
524.0
  0
LINE
  5
AA
330
17
100
AcDbEntity
  8
OCULTO
100
AcDbLine
 10
65.0
 20
400.0
 30
0.0
 11
65.0
 21
524.0
 31
0.0
  0
LINE
  5
AB
330
17
100
AcDbEntity
  8
OCULTO
100
AcDbLine
 10
145.0
 20
400.0
 30
0.0
 11
145.0
 21
524.0
 31
0.0
  0
LWPOLYLINE
  5
AC
330
17
100
AcDbEntity
  8
OCULTO
100
AcDbPolyline
 90
4
 70
1
 10
60.0
 20
417.0
 10
150.0
 20
417.0
 10
150.0
 20
507.0
 10
60.0
 20
507.0
  0
LWPOLYLINE
  5
AD
330
17
100
AcDbEntity
  8
CONCRETO
100
AcDbPolyline
 90
4
 70
1
 10
70.0
 20
427.0
 10
140.0
 20
427.0
 10
140.0
 20
497.0
 10
70.0
 20
497.0
  0
LWPOLYLINE
  5
AE
330
17
100
AcDbEntity
  8
OCULTO
100
AcDbPolyline
 90
4
 70
1
 10
71.0
 20
428.0
 10
139.0
 20
428.0
 10
139.0
 20
496.0
 10
71.0
 20
496.0
  0
LWPOLYLINE
  5
AF
330
17
100
AcDbEntity
  8
ANGULOS_OCULTO
100
AcDbPolyline
 90
4
 70
1
 10
75.08
 20
432.08
 10
134.92
 20
432.08
 10
134.92
 20
491.92
 10
75.08
 20
491.92
  0
LINE
  5
B0
330
17
100
AcDbEntity
  8
ACERO_OCULTO
100
AcDbLine
 10
65.0
 20
402.0
 30
0.0
 11
65.0
 21
522.0
 31
0.0
  0
LINE
  5
B1
330
17
100
AcDbEntity
  8
ACERO_OCULTO
100
AcDbLine
 10
54.0
 20
422.0
 30
0.0
 11
156.0
 21
422.0
 31
0.0
  0
LINE
  5
B2
330
17
100
AcDbEntity
  8
ACERO_OCULTO
100
AcDbLine
 10
70.0
 20
449.5
 30
0.0
 11
52.0
 21
449.5
 31
0.0
  0
LINE
  5
B3
330
17
100
AcDbEntity
  8
ACERO_OCULTO
100
AcDbLine
 10
92.5
 20
427.0
 30
0.0
 11
92.5
 21
409.0
 31
0.0
  0
LINE
  5
B4
330
17
100
AcDbEntity
  8
ACERO_OCULTO
100
AcDbLine
 10
70.0
 20
474.5
 30
0.0
 11
52.0
 21
474.5
 31
0.0
  0
LINE
  5
B5
330
17
100
AcDbEntity
  8
ACERO_OCULTO
100
AcDbLine
 10
117.5
 20
427.0
 30
0.0
 11
117.5
 21
409.0
 31
0.0
  0
LINE
  5
B6
330
17
100
AcDbEntity
  8
ACERO_OCULTO
100
AcDbLine
 10
145.0
 20
402.0
 30
0.0
 11
145.0
 21
522.0
 31
0.0
  0
LINE
  5
B7
330
17
100
AcDbEntity
  8
ACERO_OCULTO
100
AcDbLine
 10
54.0
 20
502.0
 30
0.0
 11
156.0
 21
502.0
 31
0.0
  0
LINE
  5
B8
330
17
100
AcDbEntity
  8
ACERO_OCULTO
100
AcDbLine
 10
140.0
 20
449.5
 30
0.0
 11
158.0
 21
449.5
 31
0.0
  0
LINE
  5
B9
330
17
100
AcDbEntity
  8
ACERO_OCULTO
100
AcDbLine
 10
92.5
 20
497.0
 30
0.0
 11
92.5
 21
515.0
 31
0.0
  0
LINE
  5
BA
330
17
100
AcDbEntity
  8
ACERO_OCULTO
100
AcDbLine
 10
140.0
 20
474.5
 30
0.0
 11
158.0
 21
474.5
 31
0.0
  0
LINE
  5
BB
330
17
100
AcDbEntity
  8
ACERO_OCULTO
100
AcDbLine
 10
117.5
 20
497.0
 30
0.0
 11
117.5
 21
515.0
 31
0.0
  0
HATCH
  5
BC
330
17
100
AcDbEntity
  8
ANGULOS
 62
140
100
AcDbHatch
 10
0.0
 20
0.0
 30
0.0
210
0.0
220
0.0
230
1.0
  2
SOLID
 70
1
 71
0
 91
2
 92
3
 72
0
 73
1
 93
4
 10
71.0
 20
428.0
 10
139.0
 20
428.0
 10
139.0
 20
496.0
 10
71.0
 20
496.0
 97
0
 92
18
 72
0
 73
1
 93
4
 10
74.81
 20
431.81
 10
135.19
 20
431.81
 10
135.19
 20
492.19
 10
74.81
 20
492.19
 97
0
 75
0
 76
1
 98
0
  0
LWPOLYLINE
  5
BD
330
17
100
AcDbEntity
  8
ANGULOS
100
AcDbPolyline
 90
4
 70
1
 10
71.0
 20
428.0
 10
139.0
 20
428.0
 10
139.0
 20
496.0
 10
71.0
 20
496.0
  0
LWPOLYLINE
  5
BE
330
17
100
AcDbEntity
  8
ANGULOS
100
AcDbPolyline
 90
4
 70
1
 10
74.81
 20
431.81
 10
135.19
 20
431.81
 10
135.19
 20
492.19
 10
74.81
 20
492.19
  0
HATCH
  5
BF
330
17
100
AcDbEntity
  8
CONCRETO_ACHURADO
 62
254
100
AcDbHatch
 10
0.0
 20
0.0
 30
0.0
210
0.0
220
0.0
230
1.0
  2
SOLID
 70
1
 71
0
 91
1
 92
3
 72
0
 73
1
 93
4
 10
74.81
 20
431.81
 10
135.19
 20
431.81
 10
135.19
 20
492.19
 10
74.81
 20
492.19
 97
0
 75
0
 76
1
 98
0
  0
LWPOLYLINE
  5
C0
330
17
100
AcDbEntity
  8
CONCRETO
100
AcDbPolyline
 90
4
 70
1
 10
74.81
 20
431.81
 10
135.19
 20
431.81
 10
135.19
 20
492.19
 10
74.81
 20
492.19
  0
LWPOLYLINE
  5
C1
330
17
100
AcDbEntity
  8
CONCRETO
100
AcDbPolyline
 90
4
 70
1
 10
97.0
 20
437.5
 10
113.0
 20
437.5
 10
113.0
 20
442.5
 10
97.0
 20
442.5
  0
LINE
  5
C2
330
17
100
AcDbEntity
  8
ACERO_LISO
100
AcDbLine
 10
99.0
 20
440.0
 30
0.0
 11
111.0
 21
440.0
 31
0.0
  0
LWPOLYLINE
  5
C3
330
17
100
AcDbEntity
  8
CONCRETO
100
AcDbPolyline
 90
4
 70
1
 10
97.0
 20
481.5
 10
113.0
 20
481.5
 10
113.0
 20
486.5
 10
97.0
 20
486.5
  0
LINE
  5
C4
330
17
100
AcDbEntity
  8
ACERO_LISO
100
AcDbLine
 10
99.0
 20
484.0
 30
0.0
 11
111.0
 21
484.0
 31
0.0
  0
LWPOLYLINE
  5
C5
330
17
100
AcDbEntity
  8
CORTE
100
AcDbPolyline
 90
2
 70
0
 43
0.6
 10
44.99999999999999
 20
474.5
 10
36.99999999999999
 20
474.5
  0
LWPOLYLINE
  5
C6
330
17
100
AcDbEntity
  8
CORTE
100
AcDbPolyline
 90
2
 70
0
 43
0.6
 10
36.99999999999999
 20
474.5
 10
36.99999999999999
 20
469.5
  0
SOLID
  5
C7
330
17
100
AcDbEntity
  8
CORTE
 62
1
100
AcDbTrace
 10
35.39999999999999
 20
469.5
 30
0.0
 11
38.599999999999994
 21
469.5
 31
0.0
 12
36.99999999999999
 22
465.5
 32
0.0
 13
36.99999999999999
 23
465.5
 33
0.0
  0
TEXT
  5
C8
330
17
100
AcDbEntity
  8
CORTE
100
AcDbText
 10
36.99999999999999
 20
476.5
 30
0.0
 40
5.0
  1
A
  7
ARIALB
 72
1
 11
36.99999999999999
 21
476.5
 31
0.0
100
AcDbText
 73
1
  0
LWPOLYLINE
  5
C9
330
17
100
AcDbEntity
  8
CORTE
100
AcDbPolyline
 90
2
 70
0
 43
0.6
 10
165.0
 20
474.5
 10
173.0
 20
474.5
  0
LWPOLYLINE
  5
CA
330
17
100
AcDbEntity
  8
CORTE
100
AcDbPolyline
 90
2
 70
0
 43
0.6
 10
173.0
 20
474.5
 10
173.0
 20
469.5
  0
SOLID
  5
CB
330
17
100
AcDbEntity
  8
CORTE
 62
1
100
AcDbTrace
 10
171.4
 20
469.5
 30
0.0
 11
174.6
 21
469.5
 31
0.0
 12
173.0
 22
465.5
 32
0.0
 13
173.0
 23
465.5
 33
0.0
  0
TEXT
  5
CC
330
17
100
AcDbEntity
  8
CORTE
100
AcDbText
 10
173.0
 20
476.5
 30
0.0
 40
5.0
  1
A
  7
ARIALB
 72
1
 11
173.0
 21
476.5
 31
0.0
100
AcDbText
 73
1
  0
LINE
  5
CD
330
17
100
AcDbEntity
  8
EJES
100
AcDbLine
 10
44.99999999999999
 20
474.5
 30
0.0
 11
165.0
 21
474.5
 31
0.0
  0
DIMENSION
  5
CE
330
17
100
AcDbEntity
  8
COTAS
100
AcDbDimension
280
0
  2
*D1
  3
M_1_10
 10
71.0
 20
412.0
 30
0.0
 11
105.0
 21
414.4
 31
0.0
 70
32
 71
5
  1
<>
100
AcDbAlignedDimension
 13
71.0
 23
428.0
 33
0.0
 14
139.0
 24
428.0
 34
0.0
 50
0.0
100
AcDbRotatedDimension
  0
DIMENSION
  5
E1
330
17
100
AcDbEntity
  8
COTAS
100
AcDbDimension
280
0
  2
*D2
  3
M_1_10
 10
70.0
 20
403.0
 30
0.0
 11
105.0
 21
405.4
 31
0.0
 70
32
 71
5
  1
<>
100
AcDbAlignedDimension
 13
70.0
 23
427.0
 33
0.0
 14
140.0
 24
427.0
 34
0.0
 50
0.0
100
AcDbRotatedDimension
  0
DIMENSION
  5
F0
330
17
100
AcDbEntity
  8
COTAS
100
AcDbDimension
280
0
  2
*D3
  3
M_1_10
 10
49.99999999999999
 20
365.0
 30
0.0
 11
105.0
 21
367.4
 31
0.0
 70
32
 71
5
  1
<>
100
AcDbAlignedDimension
 13
49.99999999999999
 23
400.0
 33
0.0
 14
160.0
 24
400.0
 34
0.0
 50
0.0
100
AcDbRotatedDimension
  0
DIMENSION
  5
FF
330
17
100
AcDbEntity
  8
COTAS
100
AcDbDimension
280
0
  2
*D4
  3
M_1_10
 10
75.08
 20
531.0
 30
0.0
 11
105.0
 21
533.4
 31
0.0
 70
32
 71
5
  1
0.60
100
AcDbAlignedDimension
 13
75.08
 23
497.0
 33
0.0
 14
134.92
 24
497.0
 34
0.0
 50
0.0
100
AcDbRotatedDimension
  0
DIMENSION
  5
10E
330
17
100
AcDbEntity
  8
COTAS
100
AcDbDimension
280
0
  2
*D5
  3
M_1_10
 10
60.0
 20
549.0
 30
0.0
 11
105.0
 21
551.4
 31
0.0
 70
32
 71
5
  1
<>
100
AcDbAlignedDimension
 13
60.0
 23
507.0
 33
0.0
 14
150.0
 24
507.0
 34
0.0
 50
0.0
100
AcDbRotatedDimension
  0
DIMENSION
  5
11D
330
17
100
AcDbEntity
  8
COTAS
100
AcDbDimension
280
0
  2
*D6
  3
M_1_10
 10
170.0
 20
449.5
 30
0.0
 11
167.6
 21
462.0
 31
0.0
 70
32
 71
5
  1
<>
100
AcDbAlignedDimension
 13
158.0
 23
449.5
 33
0.0
 14
158.0
 24
474.5
 34
0.0
 50
90.0
100
AcDbRotatedDimension
  0
CIRCLE
  5
12C
330
17
100
AcDbEntity
  8
NOTAS_LLAMADA
100
AcDbCircle
 10
139.5
 20
492.0
 30
0.0
 40
0.7
  0
HATCH
  5
12D
330
17
100
AcDbEntity
  8
NOTAS_LLAMADA
 62
30
100
AcDbHatch
 10
0.0
 20
0.0
 30
0.0
210
0.0
220
0.0
230
1.0
  2
SOLID
 70
1
 71
0
 91
1
 92
1
 93
1
 72
2
 10
139.5
 20
492.0
 40
0.7
 50
0
 51
360
 73
1
 97
0
 75
0
 76
1
 98
0
  0
LWPOLYLINE
  5
12E
330
17
100
AcDbEntity
  8
NOTAS_LLAMADA
100
AcDbPolyline
 90
3
 70
0
 10
139.5
 20
492.0
 10
200.0
 20
552.0
 10
204.0
 20
552.0
  0
MTEXT
  5
12F
330
17
100
AcDbEntity
  8
TEXTO
100
AcDbMText
 10
205.0
 20
554.1
 30
0.0
 40
3.5
 41
82.0
 71
1
  1
Holgura 1 cm entre la tapa\P(0.68) y la abertura (0.70)
  7
ARIAL
  0
CIRCLE
  5
130
330
17
100
AcDbEntity
  8
NOTAS_LLAMADA
100
AcDbCircle
 10
138.0
 20
477.0
 30
0.0
 40
0.7
  0
HATCH
  5
131
330
17
100
AcDbEntity
  8
NOTAS_LLAMADA
 62
30
100
AcDbHatch
 10
0.0
 20
0.0
 30
0.0
210
0.0
220
0.0
230
1.0
  2
SOLID
 70
1
 71
0
 91
1
 92
1
 93
1
 72
2
 10
138.0
 20
477.0
 40
0.7
 50
0
 51
360
 73
1
 97
0
 75
0
 76
1
 98
0
  0
LWPOLYLINE
  5
132
330
17
100
AcDbEntity
  8
NOTAS_LLAMADA
100
AcDbPolyline
 90
3
 70
0
 10
138.0
 20
477.0
 10
200.0
 20
532.0
 10
204.0
 20
532.0
  0
MTEXT
  5
133
330
17
100
AcDbEntity
  8
TEXTO
100
AcDbMText
 10
205.0
 20
534.1
 30
0.0
 40
3.5
 41
82.0
 71
1
  1
Marco de tapa L 1 1/2"x1 1/2"x1/8"
  7
ARIAL
  0
CIRCLE
  5
134
330
17
100
AcDbEntity
  8
NOTAS_LLAMADA
100
AcDbCircle
 10
117.0
 20
467.0
 30
0.0
 40
0.7
  0
HATCH
  5
135
330
17
100
AcDbEntity
  8
NOTAS_LLAMADA
 62
30
100
AcDbHatch
 10
0.0
 20
0.0
 30
0.0
210
0.0
220
0.0
230
1.0
  2
SOLID
 70
1
 71
0
 91
1
 92
1
 93
1
 72
2
 10
117.0
 20
467.0
 40
0.7
 50
0
 51
360
 73
1
 97
0
 75
0
 76
1
 98
0
  0
LWPOLYLINE
  5
136
330
17
100
AcDbEntity
  8
NOTAS_LLAMADA
100
AcDbPolyline
 90
3
 70
0
 10
117.0
 20
467.0
 10
200.0
 20
514.0
 10
204.0
 20
514.0
  0
MTEXT
  5
137
330
17
100
AcDbEntity
  8
TEXTO
100
AcDbMText
 10
205.0
 20
516.1
 30
0.0
 40
3.5
 41
82.0
 71
1
  1
Tapa de concreto f'c=210\P0.68 x 0.68 x 0.08 m
  7
ARIAL
  0
CIRCLE
  5
138
330
17
100
AcDbEntity
  8
NOTAS_LLAMADA
100
AcDbCircle
 10
111.0
 20
484.0
 30
0.0
 40
0.7
  0
HATCH
  5
139
330
17
100
AcDbEntity
  8
NOTAS_LLAMADA
 62
30
100
AcDbHatch
 10
0.0
 20
0.0
 30
0.0
210
0.0
220
0.0
230
1.0
  2
SOLID
 70
1
 71
0
 91
1
 92
1
 93
1
 72
2
 10
111.0
 20
484.0
 40
0.7
 50
0
 51
360
 73
1
 97
0
 75
0
 76
1
 98
0
  0
LWPOLYLINE
  5
13A
330
17
100
AcDbEntity
  8
NOTAS_LLAMADA
100
AcDbPolyline
 90
3
 70
0
 10
111.0
 20
484.0
 10
200.0
 20
494.0
 10
204.0
 20
494.0
  0
MTEXT
  5
13B
330
17
100
AcDbEntity
  8
TEXTO
100
AcDbMText
 10
205.0
 20
496.1
 30
0.0
 40
3.5
 41
82.0
 71
1
  1
Asa 3/8" liso en bolsillo\P0.16 x 0.05 x 0.03 m
  7
ARIAL
  0
CIRCLE
  5
13C
330
17
100
AcDbEntity
  8
NOTAS_LLAMADA
100
AcDbCircle
 10
75.0
 20
436.0
 30
0.0
 40
0.7
  0
HATCH
  5
13D
330
17
100
AcDbEntity
  8
NOTAS_LLAMADA
 62
30
100
AcDbHatch
 10
0.0
 20
0.0
 30
0.0
210
0.0
220
0.0
230
1.0
  2
SOLID
 70
1
 71
0
 91
1
 92
1
 93
1
 72
2
 10
75.0
 20
436.0
 40
0.7
 50
0
 51
360
 73
1
 97
0
 75
0
 76
1
 98
0
  0
LWPOLYLINE
  5
13E
330
17
100
AcDbEntity
  8
NOTAS_LLAMADA
100
AcDbPolyline
 90
3
 70
0
 10
75.0
 20
436.0
 10
60.0
 20
392.0
 10
56.0
 20
392.0
  0
MTEXT
  5
13F
330
17
100
AcDbEntity
  8
TEXTO
100
AcDbMText
 10
55.0
 20
394.1
 30
0.0
 40
3.5
 41
30.0
 71
3
  1
Contramarco\P(oculto)
  7
ARIAL
  0
CIRCLE
  5
140
330
17
100
AcDbEntity
  8
NOTAS_LLAMADA
100
AcDbCircle
 10
152.0
 20
449.5
 30
0.0
 40
0.7
  0
HATCH
  5
141
330
17
100
AcDbEntity
  8
NOTAS_LLAMADA
 62
30
100
AcDbHatch
 10
0.0
 20
0.0
 30
0.0
210
0.0
220
0.0
230
1.0
  2
SOLID
 70
1
 71
0
 91
1
 92
1
 93
1
 72
2
 10
152.0
 20
449.5
 40
0.7
 50
0
 51
360
 73
1
 97
0
 75
0
 76
1
 98
0
  0
LWPOLYLINE
  5
142
330
17
100
AcDbEntity
  8
NOTAS_LLAMADA
100
AcDbPolyline
 90
3
 70
0
 10
152.0
 20
449.5
 10
200.0
 20
474.0
 10
204.0
 20
474.0
  0
MTEXT
  5
143
330
17
100
AcDbEntity
  8
TEXTO
100
AcDbMText
 10
205.0
 20
476.1
 30
0.0
 40
3.5
 41
82.0
 71
1
  1
Anclajes 3/8" L=0.20 (8 und)\Pinclinados hacia la losa
  7
ARIAL
  0
CIRCLE
  5
144
330
17
100
AcDbEntity
  8
NOTAS_LLAMADA
100
AcDbCircle
 10
145.0
 20
412.0
 30
0.0
 40
0.7
  0
HATCH
  5
145
330
17
100
AcDbEntity
  8
NOTAS_LLAMADA
 62
30
100
AcDbHatch
 10
0.0
 20
0.0
 30
0.0
210
0.0
220
0.0
230
1.0
  2
SOLID
 70
1
 71
0
 91
1
 92
1
 93
1
 72
2
 10
145.0
 20
412.0
 40
0.7
 50
0
 51
360
 73
1
 97
0
 75
0
 76
1
 98
0
  0
LWPOLYLINE
  5
146
330
17
100
AcDbEntity
  8
NOTAS_LLAMADA
100
AcDbPolyline
 90
3
 70
0
 10
145.0
 20
412.0
 10
200.0
 20
456.0
 10
204.0
 20
456.0
  0
MTEXT
  5
147
330
17
100
AcDbEntity
  8
TEXTO
100
AcDbMText
 10
205.0
 20
458.1
 30
0.0
 40
3.5
 41
82.0
 71
1
  1
Refuerzo de borde\P2 de 1/2" por lado (oculto)
  7
ARIAL
  0
CIRCLE
  5
148
330
17
100
AcDbEntity
  8
NOTAS_LLAMADA
100
AcDbCircle
 10
150.0
 20
420.0
 30
0.0
 40
0.7
  0
HATCH
  5
149
330
17
100
AcDbEntity
  8
NOTAS_LLAMADA
 62
30
100
AcDbHatch
 10
0.0
 20
0.0
 30
0.0
210
0.0
220
0.0
230
1.0
  2
SOLID
 70
1
 71
0
 91
1
 92
1
 93
1
 72
2
 10
150.0
 20
420.0
 40
0.7
 50
0
 51
360
 73
1
 97
0
 75
0
 76
1
 98
0
  0
LWPOLYLINE
  5
14A
330
17
100
AcDbEntity
  8
NOTAS_LLAMADA
100
AcDbPolyline
 90
3
 70
0
 10
150.0
 20
420.0
 10
200.0
 20
436.0
 10
204.0
 20
436.0
  0
MTEXT
  5
14B
330
17
100
AcDbEntity
  8
TEXTO
100
AcDbMText
 10
205.0
 20
438.1
 30
0.0
 40
3.5
 41
82.0
 71
1
  1
Borde engrosado 0.15 x 0.10\Pbajo la losa (oculto)
  7
ARIAL
  0
TEXT
  5
14C
330
17
100
AcDbEntity
  8
TEXTO
100
AcDbText
 10
57.0
 20
412.0
 30
0.0
 40
3.0
  1
Losa superior (vereda)
 50
90.0
  7
ARIAL
 11
57.0
 21
412.0
 31
0.0
100
AcDbText
  0
TEXT
  5
14D
330
17
100
AcDbEntity
  8
TITULOS
100
AcDbText
 10
292.0
 20
572.0
 30
0.0
 40
6.0
  1
B. CORTE A-A (por la linea de anclajes)
  7
ARIALB
 11
292.0
 21
572.0
 31
0.0
100
AcDbText
  0
LINE
  5
14E
330
17
100
AcDbEntity
  8
TITULOS
370
70
100
AcDbLine
 10
292.0
 20
570.0
 30
0.0
 11
537.0
 21
570.0
 31
0.0
  0
TEXT
  5
14F
330
17
100
AcDbEntity
  8
TITULOS
100
AcDbText
 10
292.0
 20
564.5
 30
0.0
 40
4.0
  1
ESC. 1/10
  7
ARIAL
 11
292.0
 21
564.5
 31
0.0
100
AcDbText
  0
HATCH
  5
150
330
17
100
AcDbEntity
  8
CONCRETO_ACHURADO
 62
254
100
AcDbHatch
 10
0.0
 20
0.0
 30
0.0
210
0.0
220
0.0
230
1.0
  2
SOLID
 70
1
 71
0
 91
1
 92
3
 72
0
 73
1
 93
10
 10
370.0
 20
480.0
 10
350.0
 20
480.0
 10
350.0
 20
435.0
 10
365.0
 20
435.0
 10
365.0
 20
460.0
 10
375.0
 20
460.0
 10
375.0
 20
471.52375
 10
370.47625
 20
471.52375
 10
370.47625
 20
466.92
 10
370.0
 20
466.92
 97
0
 75
0
 76
1
 98
0
  0
LWPOLYLINE
  5
151
330
17
100
AcDbEntity
  8
CONCRETO
100
AcDbPolyline
 90
10
 70
1
 10
370.0
 20
480.0
 10
350.0
 20
480.0
 10
350.0
 20
435.0
 10
365.0
 20
435.0
 10
365.0
 20
460.0
 10
375.0
 20
460.0
 10
375.0
 20
471.52375
 10
370.47625
 20
471.52375
 10
370.47625
 20
466.92
 10
370.0
 20
466.92
  0
HATCH
  5
152
330
17
100
AcDbEntity
  8
ANGULOS
 62
5
100
AcDbHatch
 10
0.0
 20
0.0
 30
0.0
210
0.0
220
0.0
230
1.0
  2
SOLID
 70
1
 71
0
 91
1
 92
3
 72
0
 73
1
 93
6
 10
370.0
 20
472.0
 10
375.08
 20
472.0
 10
375.08
 20
471.52375
 10
370.47625
 20
471.52375
 10
370.47625
 20
466.92
 10
370.0
 20
466.92
 97
0
 75
0
 76
1
 98
0
  0
LWPOLYLINE
  5
153
330
17
100
AcDbEntity
  8
ANGULOS
100
AcDbPolyline
 90
6
 70
1
 10
370.0
 20
472.0
 10
375.08
 20
472.0
 10
375.08
 20
471.52375
 10
370.47625
 20
471.52375
 10
370.47625
 20
466.92
 10
370.0
 20
466.92
  0
HATCH
  5
154
330
17
100
AcDbEntity
  8
ANGULOS
 62
140
100
AcDbHatch
 10
0.0
 20
0.0
 30
0.0
210
0.0
220
0.0
230
1.0
  2
SOLID
 70
1
 71
0
 91
1
 92
3
 72
0
 73
1
 93
6
 10
371.0
 20
480.0
 10
374.81
 20
480.0
 10
374.81
 20
479.6825
 10
371.3175
 20
479.6825
 10
371.3175
 20
476.19
 10
371.0
 20
476.19
 97
0
 75
0
 76
1
 98
0
  0
LWPOLYLINE
  5
155
330
17
100
AcDbEntity
  8
ANGULOS
100
AcDbPolyline
 90
6
 70
1
 10
371.0
 20
480.0
 10
374.81
 20
480.0
 10
374.81
 20
479.6825
 10
371.3175
 20
479.6825
 10
371.3175
 20
476.19
 10
371.0
 20
476.19
  0
LINE
  5
156
330
17
100
AcDbEntity
  8
ACERO
100
AcDbLine
 10
370.0
 20
468.5
 30
0.0
 11
352.0
 21
477.5
 31
0.0
  0
HATCH
  5
157
330
17
100
AcDbEntity
  8
ACERO
 62
1
100
AcDbHatch
 10
0.0
 20
0.0
 30
0.0
210
0.0
220
0.0
230
1.0
  2
SOLID
 70
1
 71
0
 91
1
 92
1
 93
1
 72
2
 10
365.0
 20
475.5
 40
0.635
 50
0
 51
360
 73
1
 97
0
 75
0
 76
1
 98
0
  0
CIRCLE
  5
158
330
17
100
AcDbEntity
  8
ACERO
100
AcDbCircle
 10
365.0
 20
475.5
 30
0.0
 40
0.635
  0
HATCH
  5
159
330
17
100
AcDbEntity
  8
ACERO
 62
1
100
AcDbHatch
 10
0.0
 20
0.0
 30
0.0
210
0.0
220
0.0
230
1.0
  2
SOLID
 70
1
 71
0
 91
1
 92
1
 93
1
 72
2
 10
365.0
 20
464.5
 40
0.635
 50
0
 51
360
 73
1
 97
0
 75
0
 76
1
 98
0
  0
CIRCLE
  5
15A
330
17
100
AcDbEntity
  8
ACERO
100
AcDbCircle
 10
365.0
 20
464.5
 30
0.0
 40
0.635
  0
LWPOLYLINE
  5
15B
330
17
100
AcDbEntity
  8
CONCRETO
100
AcDbPolyline
 90
2
 70
0
 10
350.0
 20
435.0
 10
365.0
 20
435.0
  0
HATCH
  5
15C
330
17
100
AcDbEntity
  8
CONCRETO_ACHURADO
 62
254
100
AcDbHatch
 10
0.0
 20
0.0
 30
0.0
210
0.0
220
0.0
230
1.0
  2
SOLID
 70
1
 71
0
 91
1
 92
3
 72
0
 73
1
 93
10
 10
440.0
 20
480.0
 10
460.0
 20
480.0
 10
460.0
 20
435.0
 10
445.0
 20
435.0
 10
445.0
 20
460.0
 10
435.0
 20
460.0
 10
435.0
 20
471.52375
 10
439.52375
 20
471.52375
 10
439.52375
 20
466.92
 10
440.0
 20
466.92
 97
0
 75
0
 76
1
 98
0
  0
LWPOLYLINE
  5
15D
330
17
100
AcDbEntity
  8
CONCRETO
100
AcDbPolyline
 90
10
 70
1
 10
440.0
 20
480.0
 10
460.0
 20
480.0
 10
460.0
 20
435.0
 10
445.0
 20
435.0
 10
445.0
 20
460.0
 10
435.0
 20
460.0
 10
435.0
 20
471.52375
 10
439.52375
 20
471.52375
 10
439.52375
 20
466.92
 10
440.0
 20
466.92
  0
HATCH
  5
15E
330
17
100
AcDbEntity
  8
ANGULOS
 62
5
100
AcDbHatch
 10
0.0
 20
0.0
 30
0.0
210
0.0
220
0.0
230
1.0
  2
SOLID
 70
1
 71
0
 91
1
 92
3
 72
0
 73
1
 93
6
 10
440.0
 20
472.0
 10
434.92
 20
472.0
 10
434.92
 20
471.52375
 10
439.52375
 20
471.52375
 10
439.52375
 20
466.92
 10
440.0
 20
466.92
 97
0
 75
0
 76
1
 98
0
  0
LWPOLYLINE
  5
15F
330
17
100
AcDbEntity
  8
ANGULOS
100
AcDbPolyline
 90
6
 70
1
 10
440.0
 20
472.0
 10
434.92
 20
472.0
 10
434.92
 20
471.52375
 10
439.52375
 20
471.52375
 10
439.52375
 20
466.92
 10
440.0
 20
466.92
  0
HATCH
  5
160
330
17
100
AcDbEntity
  8
ANGULOS
 62
140
100
AcDbHatch
 10
0.0
 20
0.0
 30
0.0
210
0.0
220
0.0
230
1.0
  2
SOLID
 70
1
 71
0
 91
1
 92
3
 72
0
 73
1
 93
6
 10
439.0
 20
480.0
 10
435.19
 20
480.0
 10
435.19
 20
479.6825
 10
438.6825
 20
479.6825
 10
438.6825
 20
476.19
 10
439.0
 20
476.19
 97
0
 75
0
 76
1
 98
0
  0
LWPOLYLINE
  5
161
330
17
100
AcDbEntity
  8
ANGULOS
100
AcDbPolyline
 90
6
 70
1
 10
439.0
 20
480.0
 10
435.19
 20
480.0
 10
435.19
 20
479.6825
 10
438.6825
 20
479.6825
 10
438.6825
 20
476.19
 10
439.0
 20
476.19
  0
LINE
  5
162
330
17
100
AcDbEntity
  8
ACERO
100
AcDbLine
 10
440.0
 20
468.5
 30
0.0
 11
458.0
 21
477.5
 31
0.0
  0
HATCH
  5
163
330
17
100
AcDbEntity
  8
ACERO
 62
1
100
AcDbHatch
 10
0.0
 20
0.0
 30
0.0
210
0.0
220
0.0
230
1.0
  2
SOLID
 70
1
 71
0
 91
1
 92
1
 93
1
 72
2
 10
445.0
 20
475.5
 40
0.635
 50
0
 51
360
 73
1
 97
0
 75
0
 76
1
 98
0
  0
CIRCLE
  5
164
330
17
100
AcDbEntity
  8
ACERO
100
AcDbCircle
 10
445.0
 20
475.5
 30
0.0
 40
0.635
  0
HATCH
  5
165
330
17
100
AcDbEntity
  8
ACERO
 62
1
100
AcDbHatch
 10
0.0
 20
0.0
 30
0.0
210
0.0
220
0.0
230
1.0
  2
SOLID
 70
1
 71
0
 91
1
 92
1
 93
1
 72
2
 10
445.0
 20
464.5
 40
0.635
 50
0
 51
360
 73
1
 97
0
 75
0
 76
1
 98
0
  0
CIRCLE
  5
166
330
17
100
AcDbEntity
  8
ACERO
100
AcDbCircle
 10
445.0
 20
464.5
 30
0.0
 40
0.635
  0
LWPOLYLINE
  5
167
330
17
100
AcDbEntity
  8
CONCRETO
100
AcDbPolyline
 90
2
 70
0
 10
460.0
 20
435.0
 10
445.0
 20
435.0
  0
HATCH
  5
168
330
17
100
AcDbEntity
  8
CONCRETO_ACHURADO
 62
254
100
AcDbHatch
 10
0.0
 20
0.0
 30
0.0
210
0.0
220
0.0
230
1.0
  2
SOLID
 70
1
 71
0
 91
1
 92
3
 72
0
 73
1
 93
4
 10
371.3175
 20
479.6825
 10
438.6825
 20
479.6825
 10
438.6825
 20
472.0
 10
371.3175
 20
472.0
 97
0
 75
0
 76
1
 98
0
  0
LWPOLYLINE
  5
169
330
17
100
AcDbEntity
  8
CONCRETO
100
AcDbPolyline
 90
4
 70
1
 10
371.3175
 20
479.6825
 10
438.6825
 20
479.6825
 10
438.6825
 20
472.0
 10
371.3175
 20
472.0
  0
LINE
  5
16A
330
17
100
AcDbEntity
  8
ACERO
100
AcDbLine
 10
374.0
 20
474.5
 30
0.0
 11
436.0
 21
474.5
 31
0.0
  0
HATCH
  5
16B
330
17
100
AcDbEntity
  8
ACERO
 62
1
100
AcDbHatch
 10
0.0
 20
0.0
 30
0.0
210
0.0
220
0.0
230
1.0
  2
SOLID
 70
1
 71
0
 91
1
 92
1
 93
1
 72
2
 10
375.0
 20
475.45
 40
0.55
 50
0
 51
360
 73
1
 97
0
 75
0
 76
1
 98
0
  0
CIRCLE
  5
16C
330
17
100
AcDbEntity
  8
ACERO
100
AcDbCircle
 10
375.0
 20
475.45
 30
0.0
 40
0.55
  0
HATCH
  5
16D
330
17
100
AcDbEntity
  8
ACERO
 62
1
100
AcDbHatch
 10
0.0
 20
0.0
 30
0.0
210
0.0
220
0.0
230
1.0
  2
SOLID
 70
1
 71
0
 91
1
 92
1
 93
1
 72
2
 10
385.0
 20
475.45
 40
0.55
 50
0
 51
360
 73
1
 97
0
 75
0
 76
1
 98
0
  0
CIRCLE
  5
16E
330
17
100
AcDbEntity
  8
ACERO
100
AcDbCircle
 10
385.0
 20
475.45
 30
0.0
 40
0.55
  0
HATCH
  5
16F
330
17
100
AcDbEntity
  8
ACERO
 62
1
100
AcDbHatch
 10
0.0
 20
0.0
 30
0.0
210
0.0
220
0.0
230
1.0
  2
SOLID
 70
1
 71
0
 91
1
 92
1
 93
1
 72
2
 10
395.0
 20
475.45
 40
0.55
 50
0
 51
360
 73
1
 97
0
 75
0
 76
1
 98
0
  0
CIRCLE
  5
170
330
17
100
AcDbEntity
  8
ACERO
100
AcDbCircle
 10
395.0
 20
475.45
 30
0.0
 40
0.55
  0
HATCH
  5
171
330
17
100
AcDbEntity
  8
ACERO
 62
1
100
AcDbHatch
 10
0.0
 20
0.0
 30
0.0
210
0.0
220
0.0
230
1.0
  2
SOLID
 70
1
 71
0
 91
1
 92
1
 93
1
 72
2
 10
405.0
 20
475.45
 40
0.55
 50
0
 51
360
 73
1
 97
0
 75
0
 76
1
 98
0
  0
CIRCLE
  5
172
330
17
100
AcDbEntity
  8
ACERO
100
AcDbCircle
 10
405.0
 20
475.45
 30
0.0
 40
0.55
  0
HATCH
  5
173
330
17
100
AcDbEntity
  8
ACERO
 62
1
100
AcDbHatch
 10
0.0
 20
0.0
 30
0.0
210
0.0
220
0.0
230
1.0
  2
SOLID
 70
1
 71
0
 91
1
 92
1
 93
1
 72
2
 10
415.0
 20
475.45
 40
0.55
 50
0
 51
360
 73
1
 97
0
 75
0
 76
1
 98
0
  0
CIRCLE
  5
174
330
17
100
AcDbEntity
  8
ACERO
100
AcDbCircle
 10
415.0
 20
475.45
 30
0.0
 40
0.55
  0
HATCH
  5
175
330
17
100
AcDbEntity
  8
ACERO
 62
1
100
AcDbHatch
 10
0.0
 20
0.0
 30
0.0
210
0.0
220
0.0
230
1.0
  2
SOLID
 70
1
 71
0
 91
1
 92
1
 93
1
 72
2
 10
425.0
 20
475.45
 40
0.55
 50
0
 51
360
 73
1
 97
0
 75
0
 76
1
 98
0
  0
CIRCLE
  5
176
330
17
100
AcDbEntity
  8
ACERO
100
AcDbCircle
 10
425.0
 20
475.45
 30
0.0
 40
0.55
  0
HATCH
  5
177
330
17
100
AcDbEntity
  8
ACERO
 62
1
100
AcDbHatch
 10
0.0
 20
0.0
 30
0.0
210
0.0
220
0.0
230
1.0
  2
SOLID
 70
1
 71
0
 91
1
 92
1
 93
1
 72
2
 10
435.0
 20
475.45
 40
0.55
 50
0
 51
360
 73
1
 97
0
 75
0
 76
1
 98
0
  0
CIRCLE
  5
178
330
17
100
AcDbEntity
  8
ACERO
100
AcDbCircle
 10
435.0
 20
475.45
 30
0.0
 40
0.55
  0
LINE
  5
179
330
17
100
AcDbEntity
  8
CONCRETO
100
AcDbLine
 10
342.0
 20
480.0
 30
0.0
 11
350.0
 21
480.0
 31
0.0
  0
LINE
  5
17A
330
17
100
AcDbEntity
  8
CONCRETO
100
AcDbLine
 10
460.0
 20
480.0
 30
0.0
 11
468.0
 21
480.0
 31
0.0
  0
TEXT
  5
17B
330
17
100
AcDbEntity
  8
TEXTO
100
AcDbText
 10
405.0
 20
444.0
 30
0.0
 40
3.0
  1
INTERIOR DEL COLECTOR
  7
ARIAL
 72
1
 11
405.0
 21
444.0
 31
0.0
100
AcDbText
 73
1
  0
TEXT
  5
17C
330
17
100
AcDbEntity
  8
TEXTO
100
AcDbText
 10
462.0
 20
481.0
 30
0.0
 40
3.2
  1
NPT
  7
ARIAL
 11
462.0
 21
481.0
 31
0.0
100
AcDbText
  0
DIMENSION
  5
17D
330
17
100
AcDbEntity
  8
COTAS
100
AcDbDimension
280
0
  2
*D7
  3
M_1_10
 10
371.0
 20
502.0
 30
0.0
 11
405.0
 21
504.4
 31
0.0
 70
32
 71
5
  1
<>
100
AcDbAlignedDimension
 13
371.0
 23
480.0
 33
0.0
 14
439.0
 24
480.0
 34
0.0
 50
0.0
100
AcDbRotatedDimension
  0
DIMENSION
  5
18C
330
17
100
AcDbEntity
  8
COTAS
100
AcDbDimension
280
0
  2
*D8
  3
M_1_10
 10
370.0
 20
510.0
 30
0.0
 11
405.0
 21
512.4
 31
0.0
 70
32
 71
5
  1
<>
100
AcDbAlignedDimension
 13
370.0
 23
480.0
 33
0.0
 14
440.0
 24
480.0
 34
0.0
 50
0.0
100
AcDbRotatedDimension
  0
DIMENSION
  5
19B
330
17
100
AcDbEntity
  8
COTAS
100
AcDbDimension
280
0
  2
*D9
  3
M_1_10
 10
375.08
 20
450.0
 30
0.0
 11
405.0
 21
452.4
 31
0.0
 70
32
 71
5
  1
0.60
100
AcDbAlignedDimension
 13
375.08
 23
460.0
 33
0.0
 14
434.92
 24
460.0
 34
0.0
 50
0.0
100
AcDbRotatedDimension
  0
DIMENSION
  5
1AA
330
17
100
AcDbEntity
  8
COTAS
100
AcDbDimension
280
0
  2
*D10
  3
M_1_10
 10
365.0
 20
427.0
 30
0.0
 11
405.0
 21
429.4
 31
0.0
 70
32
 71
5
  1
<>
100
AcDbAlignedDimension
 13
365.0
 23
435.0
 33
0.0
 14
445.0
 24
435.0
 34
0.0
 50
0.0
100
AcDbRotatedDimension
  0
DIMENSION
  5
1B9
330
17
100
AcDbEntity
  8
COTAS
100
AcDbDimension
280
0
  2
*D11
  3
M_1_10
 10
445.0
 20
427.0
 30
0.0
 11
452.5
 21
429.4
 31
0.0
 70
32
 71
5
  1
<>
100
AcDbAlignedDimension
 13
445.0
 23
435.0
 33
0.0
 14
460.0
 24
435.0
 34
0.0
 50
0.0
100
AcDbRotatedDimension
  0
DIMENSION
  5
1C8
330
17
100
AcDbEntity
  8
COTAS
100
AcDbDimension
280
0
  2
*D12
  3
M_1_10
 10
435.0
 20
442.0
 30
0.0
 11
442.5
 21
444.4
 31
0.0
 70
32
 71
5
  1
<>
100
AcDbAlignedDimension
 13
435.0
 23
460.0
 33
0.0
 14
450.0
 24
460.0
 34
0.0
 50
0.0
100
AcDbRotatedDimension
  0
DIMENSION
  5
1D7
330
17
100
AcDbEntity
  8
COTAS
100
AcDbDimension
280
0
  2
*D13
  3
M_1_10
 10
474.0
 20
480.0
 30
0.0
 11
478.0
 21
475.0
 31
0.0
 70
32
 71
5
  1
<>
100
AcDbAlignedDimension
 13
460.0
 23
480.0
 33
0.0
 14
460.0
 24
470.0
 34
0.0
 50
90.0
100
AcDbRotatedDimension
  0
DIMENSION
  5
1E6
330
17
100
AcDbEntity
  8
COTAS
100
AcDbDimension
280
0
  2
*D14
  3
M_1_10
 10
474.0
 20
470.0
 30
0.0
 11
478.0
 21
465.0
 31
0.0
 70
32
 71
5
  1
<>
100
AcDbAlignedDimension
 13
460.0
 23
470.0
 33
0.0
 14
460.0
 24
460.0
 34
0.0
 50
90.0
100
AcDbRotatedDimension
  0
DIMENSION
  5
1F5
330
17
100
AcDbEntity
  8
COTAS
100
AcDbDimension
280
0
  2
*D15
  3
M_1_10
 10
336.0
 20
480.0
 30
0.0
 11
340.0
 21
476.0
 31
0.0
 70
32
 71
5
  1
<>
100
AcDbAlignedDimension
 13
350.0
 23
480.0
 33
0.0
 14
350.0
 24
472.0
 34
0.0
 50
90.0
100
AcDbRotatedDimension
  0
CIRCLE
  5
204
330
17
100
AcDbEntity
  8
NOTAS_LLAMADA
100
AcDbCircle
 10
437.0
 20
471.8
 30
0.0
 40
0.7
  0
HATCH
  5
205
330
17
100
AcDbEntity
  8
NOTAS_LLAMADA
 62
30
100
AcDbHatch
 10
0.0
 20
0.0
 30
0.0
210
0.0
220
0.0
230
1.0
  2
SOLID
 70
1
 71
0
 91
1
 92
1
 93
1
 72
2
 10
437.0
 20
471.8
 40
0.7
 50
0
 51
360
 73
1
 97
0
 75
0
 76
1
 98
0
  0
LWPOLYLINE
  5
206
330
17
100
AcDbEntity
  8
NOTAS_LLAMADA
100
AcDbPolyline
 90
3
 70
0
 10
437.0
 20
471.8
 10
490.0
 20
458.0
 10
494.0
 20
458.0
  0
MTEXT
  5
207
330
17
100
AcDbEntity
  8
TEXTO
100
AcDbMText
 10
495.0
 20
460.1
 30
0.0
 40
3.5
 41
55.0
 71
1
  1
Asiento: ala del\Pcontramarco
  7
ARIAL
  0
CIRCLE
  5
208
330
17
100
AcDbEntity
  8
NOTAS_LLAMADA
100
AcDbCircle
 10
365.0
 20
464.5
 30
0.0
 40
0.7
  0
HATCH
  5
209
330
17
100
AcDbEntity
  8
NOTAS_LLAMADA
 62
30
100
AcDbHatch
 10
0.0
 20
0.0
 30
0.0
210
0.0
220
0.0
230
1.0
  2
SOLID
 70
1
 71
0
 91
1
 92
1
 93
1
 72
2
 10
365.0
 20
464.5
 40
0.7
 50
0
 51
360
 73
1
 97
0
 75
0
 76
1
 98
0
  0
LWPOLYLINE
  5
20A
330
17
100
AcDbEntity
  8
NOTAS_LLAMADA
100
AcDbPolyline
 90
3
 70
0
 10
365.0
 20
464.5
 10
345.0
 20
442.0
 10
341.0
 20
442.0
  0
MTEXT
  5
20B
330
17
100
AcDbEntity
  8
TEXTO
100
AcDbMText
 10
340.0
 20
444.1
 30
0.0
 40
3.5
 41
45.0
 71
3
  1
Refuerzo de borde\P2 de 1/2" por lado
  7
ARIAL
  0
CIRCLE
  5
20C
330
17
100
AcDbEntity
  8
NOTAS_LLAMADA
100
AcDbCircle
 10
441.0
 20
460.0
 30
0.0
 40
0.7
  0
HATCH
  5
20D
330
17
100
AcDbEntity
  8
NOTAS_LLAMADA
 62
30
100
AcDbHatch
 10
0.0
 20
0.0
 30
0.0
210
0.0
220
0.0
230
1.0
  2
SOLID
 70
1
 71
0
 91
1
 92
1
 93
1
 72
2
 10
441.0
 20
460.0
 40
0.7
 50
0
 51
360
 73
1
 97
0
 75
0
 76
1
 98
0
  0
LWPOLYLINE
  5
20E
330
17
100
AcDbEntity
  8
NOTAS_LLAMADA
100
AcDbPolyline
 90
3
 70
0
 10
441.0
 20
460.0
 10
490.0
 20
436.0
 10
494.0
 20
436.0
  0
MTEXT
  5
20F
330
17
100
AcDbEntity
  8
TEXTO
100
AcDbMText
 10
495.0
 20
438.1
 30
0.0
 40
3.5
 41
55.0
 71
1
  1
Borde engrosado\P0.15 x 0.10
  7
ARIAL
  0
CIRCLE
  5
210
330
17
100
AcDbEntity
  8
NOTAS_LLAMADA
100
AcDbCircle
 10
361.0
 20
473.0
 30
0.0
 40
0.7
  0
HATCH
  5
211
330
17
100
AcDbEntity
  8
NOTAS_LLAMADA
 62
30
100
AcDbHatch
 10
0.0
 20
0.0
 30
0.0
210
0.0
220
0.0
230
1.0
  2
SOLID
 70
1
 71
0
 91
1
 92
1
 93
1
 72
2
 10
361.0
 20
473.0
 40
0.7
 50
0
 51
360
 73
1
 97
0
 75
0
 76
1
 98
0
  0
LWPOLYLINE
  5
212
330
17
100
AcDbEntity
  8
NOTAS_LLAMADA
100
AcDbPolyline
 90
3
 70
0
 10
361.0
 20
473.0
 10
345.0
 20
470.0
 10
341.0
 20
470.0
  0
MTEXT
  5
213
330
17
100
AcDbEntity
  8
TEXTO
100
AcDbMText
 10
340.0
 20
472.1
 30
0.0
 40
3.5
 41
45.0
 71
3
  1
Anclaje 3/8"\Pinclinado
  7
ARIAL
  0
CIRCLE
  5
214
330
17
100
AcDbEntity
  8
NOTAS_LLAMADA
100
AcDbCircle
 10
405.0
 20
475.45
 30
0.0
 40
0.7
  0
HATCH
  5
215
330
17
100
AcDbEntity
  8
NOTAS_LLAMADA
 62
30
100
AcDbHatch
 10
0.0
 20
0.0
 30
0.0
210
0.0
220
0.0
230
1.0
  2
SOLID
 70
1
 71
0
 91
1
 92
1
 93
1
 72
2
 10
405.0
 20
475.45
 40
0.7
 50
0
 51
360
 73
1
 97
0
 75
0
 76
1
 98
0
  0
LWPOLYLINE
  5
216
330
17
100
AcDbEntity
  8
NOTAS_LLAMADA
100
AcDbPolyline
 90
3
 70
0
 10
405.0
 20
475.45
 10
490.0
 20
540.0
 10
494.0
 20
540.0
  0
MTEXT
  5
217
330
17
100
AcDbEntity
  8
TEXTO
100
AcDbMText
 10
495.0
 20
542.1
 30
0.0
 40
3.5
 41
55.0
 71
1
  1
Parrilla 3/8"\P@0.10
  7
ARIAL
  0
CIRCLE
  5
218
330
17
100
AcDbEntity
  8
NOTAS_LLAMADA
100
AcDbCircle
 10
393.0
 20
474.5
 30
0.0
 40
0.7
  0
HATCH
  5
219
330
17
100
AcDbEntity
  8
NOTAS_LLAMADA
 62
30
100
AcDbHatch
 10
0.0
 20
0.0
 30
0.0
210
0.0
220
0.0
230
1.0
  2
SOLID
 70
1
 71
0
 91
1
 92
1
 93
1
 72
2
 10
393.0
 20
474.5
 40
0.7
 50
0
 51
360
 73
1
 97
0
 75
0
 76
1
 98
0
  0
LWPOLYLINE
  5
21A
330
17
100
AcDbEntity
  8
NOTAS_LLAMADA
100
AcDbPolyline
 90
3
 70
0
 10
393.0
 20
474.5
 10
345.0
 20
505.0
 10
341.0
 20
505.0
  0
MTEXT
  5
21B
330
17
100
AcDbEntity
  8
TEXTO
100
AcDbMText
 10
340.0
 20
507.1
 30
0.0
 40
3.5
 41
45.0
 71
3
  1
Recubrimiento\P2.5 cm
  7
ARIAL
  0
TEXT
  5
21C
330
17
100
AcDbEntity
  8
TITULOS
100
AcDbText
 10
552.0
 20
572.0
 30
0.0
 40
6.0
  1
C. DETALLE 1: ASIENTO DE LA TAPA
  7
ARIALB
 11
552.0
 21
572.0
 31
0.0
100
AcDbText
  0
LINE
  5
21D
330
17
100
AcDbEntity
  8
TITULOS
370
70
100
AcDbLine
 10
552.0
 20
570.0
 30
0.0
 11
822.0
 21
570.0
 31
0.0
  0
TEXT
  5
21E
330
17
100
AcDbEntity
  8
TITULOS
100
AcDbText
 10
552.0
 20
564.5
 30
0.0
 40
4.0
  1
ESC. 1/2
  7
ARIAL
 11
552.0
 21
564.5
 31
0.0
100
AcDbText
  0
HATCH
  5
21F
330
17
100
AcDbEntity
  8
CONCRETO_ACHURADO
 62
254
100
AcDbHatch
 10
0.0
 20
0.0
 30
0.0
210
0.0
220
0.0
230
1.0
  2
SOLID
 70
1
 71
0
 91
1
 92
3
 72
0
 73
1
 93
11
 10
620.0
 20
500.0
 10
625.0
 20
505.0
 10
710.0
 20
505.0
 10
710.0
 20
395.0
 10
645.0
 20
395.0
 10
645.0
 20
405.0
 10
595.0
 20
405.0
 10
595.0
 20
462.61875
 10
617.61875
 20
462.61875
 10
617.61875
 20
439.6
 10
620.0
 20
439.6
 97
0
 75
0
 76
1
 98
0
  0
LWPOLYLINE
  5
220
330
17
100
AcDbEntity
  8
CONCRETO
100
AcDbPolyline
 90
11
 70
1
 10
620.0
 20
500.0
 10
625.0
 20
505.0
 10
710.0
 20
505.0
 10
710.0
 20
395.0
 10
645.0
 20
395.0
 10
645.0
 20
405.0
 10
595.0
 20
405.0
 10
595.0
 20
462.61875
 10
617.61875
 20
462.61875
 10
617.61875
 20
439.6
 10
620.0
 20
439.6
  0
HATCH
  5
221
330
17
100
AcDbEntity
  8
ANGULOS
 62
5
100
AcDbHatch
 10
0.0
 20
0.0
 30
0.0
210
0.0
220
0.0
230
1.0
  2
SOLID
 70
1
 71
0
 91
1
 92
3
 72
0
 73
1
 93
6
 10
620.0
 20
465.0
 10
594.6
 20
465.0
 10
594.6
 20
462.61875
 10
617.61875
 20
462.61875
 10
617.61875
 20
439.6
 10
620.0
 20
439.6
 97
0
 75
0
 76
1
 98
0
  0
LWPOLYLINE
  5
222
330
17
100
AcDbEntity
  8
ANGULOS
100
AcDbPolyline
 90
6
 70
1
 10
620.0
 20
465.0
 10
594.6
 20
465.0
 10
594.6
 20
462.61875
 10
617.61875
 20
462.61875
 10
617.61875
 20
439.6
 10
620.0
 20
439.6
  0
HATCH
  5
223
330
17
100
AcDbEntity
  8
ANGULOS
 62
140
100
AcDbHatch
 10
0.0
 20
0.0
 30
0.0
210
0.0
220
0.0
230
1.0
  2
SOLID
 70
1
 71
0
 91
1
 92
3
 72
0
 73
1
 93
6
 10
615.0
 20
505.0
 10
595.95
 20
505.0
 10
595.95
 20
503.4125
 10
613.4125
 20
503.4125
 10
613.4125
 20
485.95
 10
615.0
 20
485.95
 97
0
 75
0
 76
1
 98
0
  0
LWPOLYLINE
  5
224
330
17
100
AcDbEntity
  8
ANGULOS
100
AcDbPolyline
 90
6
 70
1
 10
615.0
 20
505.0
 10
595.95
 20
505.0
 10
595.95
 20
503.4125
 10
613.4125
 20
503.4125
 10
613.4125
 20
485.95
 10
615.0
 20
485.95
  0
HATCH
  5
225
330
17
100
AcDbEntity
  8
CONCRETO_ACHURADO
 62
254
100
AcDbHatch
 10
0.0
 20
0.0
 30
0.0
210
0.0
220
0.0
230
1.0
  2
SOLID
 70
1
 71
0
 91
1
 92
3
 72
0
 73
1
 93
8
 10
565.0
 20
503.4125
 10
595.95
 20
503.4125
 10
595.95
 20
505.0
 10
613.4125
 20
505.0
 10
613.4125
 20
485.95
 10
615.0
 20
485.95
 10
615.0
 20
465.0
 10
565.0
 20
465.0
 97
0
 75
0
 76
1
 98
0
  0
LWPOLYLINE
  5
226
330
17
100
AcDbEntity
  8
CONCRETO
100
AcDbPolyline
 90
8
 70
1
 10
565.0
 20
503.4125
 10
595.95
 20
503.4125
 10
595.95
 20
505.0
 10
613.4125
 20
505.0
 10
613.4125
 20
485.95
 10
615.0
 20
485.95
 10
615.0
 20
465.0
 10
565.0
 20
465.0
  0
LWPOLYLINE
  5
227
330
17
100
AcDbEntity
  8
CONCRETO
100
AcDbPolyline
 90
4
 70
0
 10
565.0
 20
505.0
 10
562.5
 20
490.0
 10
567.5
 20
480.0
 10
565.0
 20
465.0
  0
LWPOLYLINE
  5
228
330
17
100
AcDbEntity
  8
CONCRETO
100
AcDbPolyline
 90
3
 70
0
 10
710.0
 20
395.0
 10
705.0
 20
400.0
 10
715.0
 20
405.0
  0
LINE
  5
229
330
17
100
AcDbEntity
  8
ACERO
100
AcDbLine
 10
620.0
 20
447.5
 30
0.0
 11
710.0
 21
492.5
 31
0.0
  0
HATCH
  5
22A
330
17
100
AcDbEntity
  8
ACERO
 62
1
100
AcDbHatch
 10
0.0
 20
0.0
 30
0.0
210
0.0
220
0.0
230
1.0
  2
SOLID
 70
1
 71
0
 91
1
 92
1
 93
1
 72
2
 10
645.0
 20
482.5
 40
3.175
 50
0
 51
360
 73
1
 97
0
 75
0
 76
1
 98
0
  0
CIRCLE
  5
22B
330
17
100
AcDbEntity
  8
ACERO
100
AcDbCircle
 10
645.0
 20
482.5
 30
0.0
 40
3.175
  0
HATCH
  5
22C
330
17
100
AcDbEntity
  8
ACERO
 62
1
100
AcDbHatch
 10
0.0
 20
0.0
 30
0.0
210
0.0
220
0.0
230
1.0
  2
SOLID
 70
1
 71
0
 91
1
 92
1
 93
1
 72
2
 10
645.0
 20
427.5
 40
3.175
 50
0
 51
360
 73
1
 97
0
 75
0
 76
1
 98
0
  0
CIRCLE
  5
22D
330
17
100
AcDbEntity
  8
ACERO
100
AcDbCircle
 10
645.0
 20
427.5
 30
0.0
 40
3.175
  0
LINE
  5
22E
330
17
100
AcDbEntity
  8
ACERO
100
AcDbLine
 10
565.0
 20
477.5
 30
0.0
 11
600.0
 21
477.5
 31
0.0
  0
HATCH
  5
22F
330
17
100
AcDbEntity
  8
ACERO
 62
1
100
AcDbHatch
 10
0.0
 20
0.0
 30
0.0
210
0.0
220
0.0
230
1.0
  2
SOLID
 70
1
 71
0
 91
1
 92
1
 93
1
 72
2
 10
595.0
 20
482.25
 40
2.3812499999999996
 50
0
 51
360
 73
1
 97
0
 75
0
 76
1
 98
0
  0
CIRCLE
  5
230
330
17
100
AcDbEntity
  8
ACERO
100
AcDbCircle
 10
595.0
 20
482.25
 30
0.0
 40
2.3812499999999996
  0
DIMENSION
  5
231
330
17
100
AcDbEntity
  8
COTAS
100
AcDbDimension
280
0
  2
*D16
  3
M_1_2
 10
615.0
 20
515.0
 30
0.0
 11
617.5
 21
519.0
 31
0.0
 70
32
 71
5
  1
0.01
100
AcDbAlignedDimension
 13
615.0
 23
505.0
 33
0.0
 14
620.0
 24
505.0
 34
0.0
 50
0.0
100
AcDbRotatedDimension
  0
DIMENSION
  5
240
330
17
100
AcDbEntity
  8
COTAS
100
AcDbDimension
280
0
  2
*D17
  3
M_1_2
 10
594.6
 20
415.0
 30
0.0
 11
607.3
 21
419.0
 31
0.0
 70
32
 71
5
  1
2" (asiento)
100
AcDbAlignedDimension
 13
594.6
 23
465.0
 33
0.0
 14
620.0
 24
465.0
 34
0.0
 50
0.0
100
AcDbRotatedDimension
  0
DIMENSION
  5
24F
330
17
100
AcDbEntity
  8
COTAS
100
AcDbDimension
280
0
  2
*D18
  3
M_1_2
 10
595.95
 20
523.0
 30
0.0
 11
605.475
 21
525.4
 31
0.0
 70
32
 71
5
  1
1 1/2"
100
AcDbAlignedDimension
 13
595.95
 23
505.0
 33
0.0
 14
615.0
 24
505.0
 34
0.0
 50
0.0
100
AcDbRotatedDimension
  0
DIMENSION
  5
25E
330
17
100
AcDbEntity
  8
COTAS
100
AcDbDimension
280
0
  2
*D19
  3
M_1_2
 10
722.0
 20
505.0
 30
0.0
 11
724.4
 21
485.0
 31
0.0
 70
32
 71
5
  1
<>
100
AcDbAlignedDimension
 13
710.0
 23
505.0
 33
0.0
 14
710.0
 24
465.0
 34
0.0
 50
90.0
100
AcDbRotatedDimension
  0
DIMENSION
  5
26D
330
17
100
AcDbEntity
  8
COTAS
100
AcDbDimension
280
0
  2
*D20
  3
M_1_2
 10
722.0
 20
465.0
 30
0.0
 11
724.4
 21
452.3
 31
0.0
 70
32
 71
5
  1
2"
100
AcDbAlignedDimension
 13
710.0
 23
465.0
 33
0.0
 14
710.0
 24
439.6
 34
0.0
 50
90.0
100
AcDbRotatedDimension
  0
DIMENSION
  5
27C
330
17
100
AcDbEntity
  8
COTAS
100
AcDbDimension
280
0
  2
*D21
  3
M_1_2
 10
736.0
 20
505.0
 30
0.0
 11
738.4
 21
480.0
 31
0.0
 70
32
 71
5
  1
<>
100
AcDbAlignedDimension
 13
710.0
 23
505.0
 33
0.0
 14
710.0
 24
455.0
 34
0.0
 50
90.0
100
AcDbRotatedDimension
  0
DIMENSION
  5
28B
330
17
100
AcDbEntity
  8
COTAS
100
AcDbDimension
280
0
  2
*D22
  3
M_1_2
 10
555.0
 20
465.0
 30
0.0
 11
551.0
 21
471.25
 31
0.0
 70
32
 71
5
  1
0.025
100
AcDbAlignedDimension
 13
565.0
 23
465.0
 33
0.0
 14
565.0
 24
477.5
 34
0.0
 50
90.0
100
AcDbRotatedDimension
  0
CIRCLE
  5
29A
330
17
100
AcDbEntity
  8
NOTAS_LLAMADA
100
AcDbCircle
 10
619.0
 20
450.0
 30
0.0
 40
0.7
  0
HATCH
  5
29B
330
17
100
AcDbEntity
  8
NOTAS_LLAMADA
 62
30
100
AcDbHatch
 10
0.0
 20
0.0
 30
0.0
210
0.0
220
0.0
230
1.0
  2
SOLID
 70
1
 71
0
 91
1
 92
1
 93
1
 72
2
 10
619.0
 20
450.0
 40
0.7
 50
0
 51
360
 73
1
 97
0
 75
0
 76
1
 98
0
  0
LWPOLYLINE
  5
29C
330
17
100
AcDbEntity
  8
NOTAS_LLAMADA
100
AcDbPolyline
 90
3
 70
0
 10
619.0
 20
450.0
 10
725.0
 20
558.0
 10
729.0
 20
558.0
  0
MTEXT
  5
29D
330
17
100
AcDbEntity
  8
TEXTO
100
AcDbMText
 10
730.0
 20
560.1
 30
0.0
 40
3.5
 41
95.0
 71
1
  1
Contramarco L 2"x2"x3/16": ala\Pvertical embutida, cara al ras\Pde la abertura
  7
ARIAL
  0
CIRCLE
  5
29E
330
17
100
AcDbEntity
  8
NOTAS_LLAMADA
100
AcDbCircle
 10
605.0
 20
464.0
 30
0.0
 40
0.7
  0
HATCH
  5
29F
330
17
100
AcDbEntity
  8
NOTAS_LLAMADA
 62
30
100
AcDbHatch
 10
0.0
 20
0.0
 30
0.0
210
0.0
220
0.0
230
1.0
  2
SOLID
 70
1
 71
0
 91
1
 92
1
 93
1
 72
2
 10
605.0
 20
464.0
 40
0.7
 50
0
 51
360
 73
1
 97
0
 75
0
 76
1
 98
0
  0
LWPOLYLINE
  5
2A0
330
17
100
AcDbEntity
  8
NOTAS_LLAMADA
100
AcDbPolyline
 90
3
 70
0
 10
605.0
 20
464.0
 10
725.0
 20
534.0
 10
729.0
 20
534.0
  0
MTEXT
  5
2A1
330
17
100
AcDbEntity
  8
TEXTO
100
AcDbMText
 10
730.0
 20
536.1
 30
0.0
 40
3.5
 41
95.0
 71
1
  1
Ala horizontal hacia adentro:\Pasiento de la tapa
  7
ARIAL
  0
CIRCLE
  5
2A2
330
17
100
AcDbEntity
  8
NOTAS_LLAMADA
100
AcDbCircle
 10
610.0
 20
504.5
 30
0.0
 40
0.7
  0
HATCH
  5
2A3
330
17
100
AcDbEntity
  8
NOTAS_LLAMADA
 62
30
100
AcDbHatch
 10
0.0
 20
0.0
 30
0.0
210
0.0
220
0.0
230
1.0
  2
SOLID
 70
1
 71
0
 91
1
 92
1
 93
1
 72
2
 10
610.0
 20
504.5
 40
0.7
 50
0
 51
360
 73
1
 97
0
 75
0
 76
1
 98
0
  0
LWPOLYLINE
  5
2A4
330
17
100
AcDbEntity
  8
NOTAS_LLAMADA
100
AcDbPolyline
 90
3
 70
0
 10
610.0
 20
504.5
 10
725.0
 20
515.0
 10
729.0
 20
515.0
  0
MTEXT
  5
2A5
330
17
100
AcDbEntity
  8
TEXTO
100
AcDbMText
 10
730.0
 20
517.1
 30
0.0
 40
3.5
 41
95.0
 71
1
  1
Marco L 1 1/2"x1 1/2"x1/8"
  7
ARIAL
  0
CIRCLE
  5
2A6
330
17
100
AcDbEntity
  8
NOTAS_LLAMADA
100
AcDbCircle
 10
617.5
 20
490.0
 30
0.0
 40
0.7
  0
HATCH
  5
2A7
330
17
100
AcDbEntity
  8
NOTAS_LLAMADA
 62
30
100
AcDbHatch
 10
0.0
 20
0.0
 30
0.0
210
0.0
220
0.0
230
1.0
  2
SOLID
 70
1
 71
0
 91
1
 92
1
 93
1
 72
2
 10
617.5
 20
490.0
 40
0.7
 50
0
 51
360
 73
1
 97
0
 75
0
 76
1
 98
0
  0
LWPOLYLINE
  5
2A8
330
17
100
AcDbEntity
  8
NOTAS_LLAMADA
100
AcDbPolyline
 90
3
 70
0
 10
617.5
 20
490.0
 10
725.0
 20
500.0
 10
729.0
 20
500.0
  0
MTEXT
  5
2A9
330
17
100
AcDbEntity
  8
TEXTO
100
AcDbMText
 10
730.0
 20
502.1
 30
0.0
 40
3.5
 41
95.0
 71
1
  1
Holgura 1 cm por lado\P(0.70 - 0.68) / 2
  7
ARIAL
  0
CIRCLE
  5
2AA
330
17
100
AcDbEntity
  8
NOTAS_LLAMADA
100
AcDbCircle
 10
622.0
 20
503.0
 30
0.0
 40
0.7
  0
HATCH
  5
2AB
330
17
100
AcDbEntity
  8
NOTAS_LLAMADA
 62
30
100
AcDbHatch
 10
0.0
 20
0.0
 30
0.0
210
0.0
220
0.0
230
1.0
  2
SOLID
 70
1
 71
0
 91
1
 92
1
 93
1
 72
2
 10
622.0
 20
503.0
 40
0.7
 50
0
 51
360
 73
1
 97
0
 75
0
 76
1
 98
0
  0
LWPOLYLINE
  5
2AC
330
17
100
AcDbEntity
  8
NOTAS_LLAMADA
100
AcDbPolyline
 90
3
 70
0
 10
622.0
 20
503.0
 10
725.0
 20
482.0
 10
729.0
 20
482.0
  0
MTEXT
  5
2AD
330
17
100
AcDbEntity
  8
TEXTO
100
AcDbMText
 10
730.0
 20
484.1
 30
0.0
 40
3.5
 41
95.0
 71
1
  1
Chaflan 1 x 1 cm en la\Parista de la abertura
  7
ARIAL
  0
CIRCLE
  5
2AE
330
17
100
AcDbEntity
  8
NOTAS_LLAMADA
100
AcDbCircle
 10
665.0
 20
470.0
 30
0.0
 40
0.7
  0
HATCH
  5
2AF
330
17
100
AcDbEntity
  8
NOTAS_LLAMADA
 62
30
100
AcDbHatch
 10
0.0
 20
0.0
 30
0.0
210
0.0
220
0.0
230
1.0
  2
SOLID
 70
1
 71
0
 91
1
 92
1
 93
1
 72
2
 10
665.0
 20
470.0
 40
0.7
 50
0
 51
360
 73
1
 97
0
 75
0
 76
1
 98
0
  0
LWPOLYLINE
  5
2B0
330
17
100
AcDbEntity
  8
NOTAS_LLAMADA
100
AcDbPolyline
 90
3
 70
0
 10
665.0
 20
470.0
 10
725.0
 20
462.0
 10
729.0
 20
462.0
  0
MTEXT
  5
2B1
330
17
100
AcDbEntity
  8
TEXTO
100
AcDbMText
 10
730.0
 20
464.1
 30
0.0
 40
3.5
 41
95.0
 71
1
  1
Anclaje 3/8" L = 0.20 soldado\Pal ala vertical, inclinado
  7
ARIAL
  0
CIRCLE
  5
2B2
330
17
100
AcDbEntity
  8
NOTAS_LLAMADA
100
AcDbCircle
 10
645.0
 20
427.5
 30
0.0
 40
0.7
  0
HATCH
  5
2B3
330
17
100
AcDbEntity
  8
NOTAS_LLAMADA
 62
30
100
AcDbHatch
 10
0.0
 20
0.0
 30
0.0
210
0.0
220
0.0
230
1.0
  2
SOLID
 70
1
 71
0
 91
1
 92
1
 93
1
 72
2
 10
645.0
 20
427.5
 40
0.7
 50
0
 51
360
 73
1
 97
0
 75
0
 76
1
 98
0
  0
LWPOLYLINE
  5
2B4
330
17
100
AcDbEntity
  8
NOTAS_LLAMADA
100
AcDbPolyline
 90
3
 70
0
 10
645.0
 20
427.5
 10
725.0
 20
440.0
 10
729.0
 20
440.0
  0
MTEXT
  5
2B5
330
17
100
AcDbEntity
  8
TEXTO
100
AcDbMText
 10
730.0
 20
442.1
 30
0.0
 40
3.5
 41
95.0
 71
1
  1
Refuerzo de borde 1/2"
  7
ARIAL
  0
CIRCLE
  5
2B6
330
17
100
AcDbEntity
  8
NOTAS_LLAMADA
100
AcDbCircle
 10
605.0
 20
457.5
 30
0.0
 40
0.7
  0
HATCH
  5
2B7
330
17
100
AcDbEntity
  8
NOTAS_LLAMADA
 62
30
100
AcDbHatch
 10
0.0
 20
0.0
 30
0.0
210
0.0
220
0.0
230
1.0
  2
SOLID
 70
1
 71
0
 91
1
 92
1
 93
1
 72
2
 10
605.0
 20
457.5
 40
0.7
 50
0
 51
360
 73
1
 97
0
 75
0
 76
1
 98
0
  0
LWPOLYLINE
  5
2B8
330
17
100
AcDbEntity
  8
NOTAS_LLAMADA
100
AcDbPolyline
 90
3
 70
0
 10
605.0
 20
457.5
 10
725.0
 20
424.0
 10
729.0
 20
424.0
  0
MTEXT
  5
2B9
330
17
100
AcDbEntity
  8
TEXTO
100
AcDbMText
 10
730.0
 20
426.1
 30
0.0
 40
3.5
 41
95.0
 71
1
  1
Concreto del engrosado\Pbajo el asiento
  7
ARIAL
  0
CIRCLE
  5
2BA
330
17
100
AcDbEntity
  8
NOTAS_LLAMADA
100
AcDbCircle
 10
595.0
 20
482.25
 30
0.0
 40
0.7
  0
HATCH
  5
2BB
330
17
100
AcDbEntity
  8
NOTAS_LLAMADA
 62
30
100
AcDbHatch
 10
0.0
 20
0.0
 30
0.0
210
0.0
220
0.0
230
1.0
  2
SOLID
 70
1
 71
0
 91
1
 92
1
 93
1
 72
2
 10
595.0
 20
482.25
 40
0.7
 50
0
 51
360
 73
1
 97
0
 75
0
 76
1
 98
0
  0
LWPOLYLINE
  5
2BC
330
17
100
AcDbEntity
  8
NOTAS_LLAMADA
100
AcDbPolyline
 90
3
 70
0
 10
595.0
 20
482.25
 10
725.0
 20
406.0
 10
729.0
 20
406.0
  0
MTEXT
  5
2BD
330
17
100
AcDbEntity
  8
TEXTO
100
AcDbMText
 10
730.0
 20
408.1
 30
0.0
 40
3.5
 41
95.0
 71
1
  1
Parrilla de la tapa 3/8" @0.10
  7
ARIAL
  0
TEXT
  5
2BE
330
17
100
AcDbEntity
  8
TITULOS
100
AcDbText
 10
22.0
 20
338.0
 30
0.0
 40
6.0
  1
D. TAPA: PLANTA DE ARMADO
  7
ARIALB
 11
22.0
 21
338.0
 31
0.0
100
AcDbText
  0
LINE
  5
2BF
330
17
100
AcDbEntity
  8
TITULOS
370
70
100
AcDbLine
 10
22.0
 20
336.0
 30
0.0
 11
182.0
 21
336.0
 31
0.0
  0
TEXT
  5
2C0
330
17
100
AcDbEntity
  8
TITULOS
100
AcDbText
 10
22.0
 20
330.5
 30
0.0
 40
4.0
  1
ESC. 1/5
  7
ARIAL
 11
22.0
 21
330.5
 31
0.0
100
AcDbText
  0
HATCH
  5
2C1
330
17
100
AcDbEntity
  8
ANGULOS
 62
140
100
AcDbHatch
 10
0.0
 20
0.0
 30
0.0
210
0.0
220
0.0
230
1.0
  2
SOLID
 70
1
 71
0
 91
2
 92
3
 72
0
 73
1
 93
4
 10
27.0
 20
174.0
 10
163.0
 20
174.0
 10
163.0
 20
310.0
 10
27.0
 20
310.0
 97
0
 92
18
 72
0
 73
1
 93
4
 10
34.61999999999999
 20
181.62
 10
155.38
 20
181.62
 10
155.38
 20
302.38
 10
34.61999999999999
 20
302.38
 97
0
 75
0
 76
1
 98
0
  0
LWPOLYLINE
  5
2C2
330
17
100
AcDbEntity
  8
ANGULOS
100
AcDbPolyline
 90
4
 70
1
 10
27.0
 20
174.0
 10
163.0
 20
174.0
 10
163.0
 20
310.0
 10
27.0
 20
310.0
  0
LWPOLYLINE
  5
2C3
330
17
100
AcDbEntity
  8
ANGULOS
100
AcDbPolyline
 90
4
 70
1
 10
34.61999999999999
 20
181.62
 10
155.38
 20
181.62
 10
155.38
 20
302.38
 10
34.61999999999999
 20
302.38
  0
LINE
  5
2C4
330
17
100
AcDbEntity
  8
ACERO
100
AcDbLine
 10
33.0
 20
182.0
 30
0.0
 11
157.0
 21
182.0
 31
0.0
  0
LINE
  5
2C5
330
17
100
AcDbEntity
  8
ACERO
100
AcDbLine
 10
35.0
 20
180.0
 30
0.0
 11
35.0
 21
304.0
 31
0.0
  0
LINE
  5
2C6
330
17
100
AcDbEntity
  8
ACERO
100
AcDbLine
 10
33.0
 20
202.0
 30
0.0
 11
157.0
 21
202.0
 31
0.0
  0
LINE
  5
2C7
330
17
100
AcDbEntity
  8
ACERO
100
AcDbLine
 10
55.0
 20
180.0
 30
0.0
 11
55.0
 21
304.0
 31
0.0
  0
LINE
  5
2C8
330
17
100
AcDbEntity
  8
ACERO
100
AcDbLine
 10
33.0
 20
222.0
 30
0.0
 11
157.0
 21
222.0
 31
0.0
  0
LINE
  5
2C9
330
17
100
AcDbEntity
  8
ACERO
100
AcDbLine
 10
75.0
 20
180.0
 30
0.0
 11
75.0
 21
304.0
 31
0.0
  0
LINE
  5
2CA
330
17
100
AcDbEntity
  8
ACERO
100
AcDbLine
 10
33.0
 20
242.0
 30
0.0
 11
157.0
 21
242.0
 31
0.0
  0
LINE
  5
2CB
330
17
100
AcDbEntity
  8
ACERO
100
AcDbLine
 10
95.00000000000001
 20
180.0
 30
0.0
 11
95.00000000000001
 21
304.0
 31
0.0
  0
LINE
  5
2CC
330
17
100
AcDbEntity
  8
ACERO
100
AcDbLine
 10
33.0
 20
262.0
 30
0.0
 11
157.0
 21
262.0
 31
0.0
  0
LINE
  5
2CD
330
17
100
AcDbEntity
  8
ACERO
100
AcDbLine
 10
115.0
 20
180.0
 30
0.0
 11
115.0
 21
304.0
 31
0.0
  0
LINE
  5
2CE
330
17
100
AcDbEntity
  8
ACERO
100
AcDbLine
 10
33.0
 20
282.0
 30
0.0
 11
157.0
 21
282.0
 31
0.0
  0
LINE
  5
2CF
330
17
100
AcDbEntity
  8
ACERO
100
AcDbLine
 10
135.0
 20
180.0
 30
0.0
 11
135.0
 21
304.0
 31
0.0
  0
LINE
  5
2D0
330
17
100
AcDbEntity
  8
ACERO
100
AcDbLine
 10
33.0
 20
302.0
 30
0.0
 11
157.0
 21
302.0
 31
0.0
  0
LINE
  5
2D1
330
17
100
AcDbEntity
  8
ACERO
100
AcDbLine
 10
155.00000000000003
 20
180.0
 30
0.0
 11
155.00000000000003
 21
304.0
 31
0.0
  0
LWPOLYLINE
  5
2D2
330
17
100
AcDbEntity
  8
CONCRETO
100
AcDbPolyline
 90
4
 70
1
 10
79.0
 20
193.0
 10
111.0
 20
193.0
 10
111.0
 20
203.0
 10
79.0
 20
203.0
  0
LWPOLYLINE
  5
2D3
330
17
100
AcDbEntity
  8
ACERO_LISO
100
AcDbPolyline
 90
2
 70
0
 10
64.0
 20
198.0
 10
83.0
 20
198.0
  0
LWPOLYLINE
  5
2D4
330
17
100
AcDbEntity
  8
ACERO_LISO
100
AcDbPolyline
 90
2
 70
0
 10
107.0
 20
198.0
 10
126.0
 20
198.0
  0
LWPOLYLINE
  5
2D5
330
17
100
AcDbEntity
  8
ACERO_LISO
100
AcDbPolyline
 90
2
 70
0
 43
1.0
 10
83.0
 20
198.0
 10
107.0
 20
198.0
  0
LWPOLYLINE
  5
2D6
330
17
100
AcDbEntity
  8
CONCRETO
100
AcDbPolyline
 90
4
 70
1
 10
79.0
 20
281.0
 10
111.0
 20
281.0
 10
111.0
 20
291.0
 10
79.0
 20
291.0
  0
LWPOLYLINE
  5
2D7
330
17
100
AcDbEntity
  8
ACERO_LISO
100
AcDbPolyline
 90
2
 70
0
 10
64.0
 20
286.0
 10
83.0
 20
286.0
  0
LWPOLYLINE
  5
2D8
330
17
100
AcDbEntity
  8
ACERO_LISO
100
AcDbPolyline
 90
2
 70
0
 10
107.0
 20
286.0
 10
126.0
 20
286.0
  0
LWPOLYLINE
  5
2D9
330
17
100
AcDbEntity
  8
ACERO_LISO
100
AcDbPolyline
 90
2
 70
0
 43
1.0
 10
83.0
 20
286.0
 10
107.0
 20
286.0
  0
LWPOLYLINE
  5
2DA
330
17
100
AcDbEntity
  8
CORTE
100
AcDbPolyline
 90
2
 70
0
 43
0.6
 10
19.0
 20
198.0
 10
11.0
 20
198.0
  0
LWPOLYLINE
  5
2DB
330
17
100
AcDbEntity
  8
CORTE
100
AcDbPolyline
 90
2
 70
0
 43
0.6
 10
11.0
 20
198.0
 10
11.0
 20
193.0
  0
SOLID
  5
2DC
330
17
100
AcDbEntity
  8
CORTE
 62
1
100
AcDbTrace
 10
9.4
 20
193.0
 30
0.0
 11
12.6
 21
193.0
 31
0.0
 12
11.0
 22
189.0
 32
0.0
 13
11.0
 23
189.0
 33
0.0
  0
TEXT
  5
2DD
330
17
100
AcDbEntity
  8
CORTE
100
AcDbText
 10
11.0
 20
200.0
 30
0.0
 40
5.0
  1
B
  7
ARIALB
 72
1
 11
11.0
 21
200.0
 31
0.0
100
AcDbText
 73
1
  0
LWPOLYLINE
  5
2DE
330
17
100
AcDbEntity
  8
CORTE
100
AcDbPolyline
 90
2
 70
0
 43
0.6
 10
171.0
 20
198.0
 10
179.0
 20
198.0
  0
LWPOLYLINE
  5
2DF
330
17
100
AcDbEntity
  8
CORTE
100
AcDbPolyline
 90
2
 70
0
 43
0.6
 10
179.0
 20
198.0
 10
179.0
 20
193.0
  0
SOLID
  5
2E0
330
17
100
AcDbEntity
  8
CORTE
 62
1
100
AcDbTrace
 10
177.4
 20
193.0
 30
0.0
 11
180.6
 21
193.0
 31
0.0
 12
179.0
 22
189.0
 32
0.0
 13
179.0
 23
189.0
 33
0.0
  0
TEXT
  5
2E1
330
17
100
AcDbEntity
  8
CORTE
100
AcDbText
 10
179.0
 20
200.0
 30
0.0
 40
5.0
  1
B
  7
ARIALB
 72
1
 11
179.0
 21
200.0
 31
0.0
100
AcDbText
 73
1
  0
LINE
  5
2E2
330
17
100
AcDbEntity
  8
EJES
100
AcDbLine
 10
19.0
 20
198.0
 30
0.0
 11
171.0
 21
198.0
 31
0.0
  0
DIMENSION
  5
2E3
330
17
100
AcDbEntity
  8
COTAS
100
AcDbDimension
280
0
  2
*D23
  3
M_1_5
 10
27.0
 20
322.0
 30
0.0
 11
95.0
 21
324.4
 31
0.0
 70
32
 71
5
  1
<>
100
AcDbAlignedDimension
 13
27.0
 23
310.0
 33
0.0
 14
163.0
 24
310.0
 34
0.0
 50
0.0
100
AcDbRotatedDimension
  0
DIMENSION
  5
2F2
330
17
100
AcDbEntity
  8
COTAS
100
AcDbDimension
280
0
  2
*D24
  3
M_1_5
 10
33.0
 20
162.0
 30
0.0
 11
95.0
 21
164.4
 31
0.0
 70
32
 71
5
  1
<>
100
AcDbAlignedDimension
 13
33.0
 23
174.0
 33
0.0
 14
157.0
 24
174.0
 34
0.0
 50
0.0
100
AcDbRotatedDimension
  0
DIMENSION
  5
301
330
17
100
AcDbEntity
  8
COTAS
100
AcDbDimension
280
0
  2
*D25
  3
M_1_5
 10
35.0
 20
152.0
 30
0.0
 11
45.0
 21
154.4
 31
0.0
 70
32
 71
5
  1
0.10
100
AcDbAlignedDimension
 13
35.0
 23
174.0
 33
0.0
 14
55.0
 24
174.0
 34
0.0
 50
0.0
100
AcDbRotatedDimension
  0
DIMENSION
  5
310
330
17
100
AcDbEntity
  8
COTAS
100
AcDbDimension
280
0
  2
*D26
  3
M_1_5
 10
177.0
 20
182.0
 30
0.0
 11
174.6
 21
242.0
 31
0.0
 70
32
 71
5
  1
6 @ 0.10 = 0.60
100
AcDbAlignedDimension
 13
163.0
 23
182.0
 33
0.0
 14
163.0
 24
302.0
 34
0.0
 50
90.0
100
AcDbRotatedDimension
  0
DIMENSION
  5
31F
330
17
100
AcDbEntity
  8
COTAS
100
AcDbDimension
280
0
  2
*D27
  3
M_1_5
 10
79.0
 20
301.0
 30
0.0
 11
95.0
 21
303.4
 31
0.0
 70
32
 71
5
  1
<>
100
AcDbAlignedDimension
 13
79.0
 23
291.0
 33
0.0
 14
111.0
 24
291.0
 34
0.0
 50
0.0
100
AcDbRotatedDimension
  0
DIMENSION
  5
32E
330
17
100
AcDbEntity
  8
COTAS
100
AcDbDimension
280
0
  2
*D28
  3
M_1_5
 10
15.0
 20
242.0
 30
0.0
 11
12.6
 21
264.0
 31
0.0
 70
32
 71
5
  1
<>
100
AcDbAlignedDimension
 13
27.0
 23
242.0
 33
0.0
 14
27.0
 24
286.0
 34
0.0
 50
90.0
100
AcDbRotatedDimension
  0
CIRCLE
  5
33D
330
17
100
AcDbEntity
  8
NOTAS_LLAMADA
100
AcDbCircle
 10
135.0
 20
242.0
 30
0.0
 40
0.7
  0
HATCH
  5
33E
330
17
100
AcDbEntity
  8
NOTAS_LLAMADA
 62
30
100
AcDbHatch
 10
0.0
 20
0.0
 30
0.0
210
0.0
220
0.0
230
1.0
  2
SOLID
 70
1
 71
0
 91
1
 92
1
 93
1
 72
2
 10
135.0
 20
242.0
 40
0.7
 50
0
 51
360
 73
1
 97
0
 75
0
 76
1
 98
0
  0
LWPOLYLINE
  5
33F
330
17
100
AcDbEntity
  8
NOTAS_LLAMADA
100
AcDbPolyline
 90
3
 70
0
 10
135.0
 20
242.0
 10
190.0
 20
300.0
 10
194.0
 20
300.0
  0
MTEXT
  5
340
330
17
100
AcDbEntity
  8
TEXTO
100
AcDbMText
 10
195.0
 20
302.1
 30
0.0
 40
3.5
 41
85.0
 71
1
  1
7 barras 3/8" en X\PL = 0.62
  7
ARIAL
  0
CIRCLE
  5
341
330
17
100
AcDbEntity
  8
NOTAS_LLAMADA
100
AcDbCircle
 10
95.0
 20
222.0
 30
0.0
 40
0.7
  0
HATCH
  5
342
330
17
100
AcDbEntity
  8
NOTAS_LLAMADA
 62
30
100
AcDbHatch
 10
0.0
 20
0.0
 30
0.0
210
0.0
220
0.0
230
1.0
  2
SOLID
 70
1
 71
0
 91
1
 92
1
 93
1
 72
2
 10
95.0
 20
222.0
 40
0.7
 50
0
 51
360
 73
1
 97
0
 75
0
 76
1
 98
0
  0
LWPOLYLINE
  5
343
330
17
100
AcDbEntity
  8
NOTAS_LLAMADA
100
AcDbPolyline
 90
3
 70
0
 10
95.0
 20
222.0
 10
190.0
 20
282.0
 10
194.0
 20
282.0
  0
MTEXT
  5
344
330
17
100
AcDbEntity
  8
TEXTO
100
AcDbMText
 10
195.0
 20
284.1
 30
0.0
 40
3.5
 41
85.0
 71
1
  1
7 barras 3/8" en Y\PL = 0.62
  7
ARIAL
  0
CIRCLE
  5
345
330
17
100
AcDbEntity
  8
NOTAS_LLAMADA
100
AcDbCircle
 10
95.0
 20
286.0
 30
0.0
 40
0.7
  0
HATCH
  5
346
330
17
100
AcDbEntity
  8
NOTAS_LLAMADA
 62
30
100
AcDbHatch
 10
0.0
 20
0.0
 30
0.0
210
0.0
220
0.0
230
1.0
  2
SOLID
 70
1
 71
0
 91
1
 92
1
 93
1
 72
2
 10
95.0
 20
286.0
 40
0.7
 50
0
 51
360
 73
1
 97
0
 75
0
 76
1
 98
0
  0
LWPOLYLINE
  5
347
330
17
100
AcDbEntity
  8
NOTAS_LLAMADA
100
AcDbPolyline
 90
3
 70
0
 10
95.0
 20
286.0
 10
190.0
 20
264.0
 10
194.0
 20
264.0
  0
MTEXT
  5
348
330
17
100
AcDbEntity
  8
TEXTO
100
AcDbMText
 10
195.0
 20
266.1
 30
0.0
 40
3.5
 41
85.0
 71
1
  1
Asa 3/8" liso (2 und)\P0.40 m desarrollado
  7
ARIAL
  0
CIRCLE
  5
349
330
17
100
AcDbEntity
  8
NOTAS_LLAMADA
100
AcDbCircle
 10
161.0
 20
202.0
 30
0.0
 40
0.7
  0
HATCH
  5
34A
330
17
100
AcDbEntity
  8
NOTAS_LLAMADA
 62
30
100
AcDbHatch
 10
0.0
 20
0.0
 30
0.0
210
0.0
220
0.0
230
1.0
  2
SOLID
 70
1
 71
0
 91
1
 92
1
 93
1
 72
2
 10
161.0
 20
202.0
 40
0.7
 50
0
 51
360
 73
1
 97
0
 75
0
 76
1
 98
0
  0
LWPOLYLINE
  5
34B
330
17
100
AcDbEntity
  8
NOTAS_LLAMADA
100
AcDbPolyline
 90
3
 70
0
 10
161.0
 20
202.0
 10
190.0
 20
240.0
 10
194.0
 20
240.0
  0
MTEXT
  5
34C
330
17
100
AcDbEntity
  8
TEXTO
100
AcDbMText
 10
195.0
 20
242.1
 30
0.0
 40
3.5
 41
85.0
 71
1
  1
Marco L 1 1/2"\P(perimetro 2.72 m)
  7
ARIAL
  0
TEXT
  5
34D
330
17
100
AcDbEntity
  8
TITULOS
100
AcDbText
 10
22.0
 20
140.0
 30
0.0
 40
4.5
  1
CORTE B-B (por el asa)  ESC. 1/5
  7
ARIALB
 11
22.0
 21
140.0
 31
0.0
100
AcDbText
  0
HATCH
  5
34E
330
17
100
AcDbEntity
  8
CONCRETO_ACHURADO
 62
254
100
AcDbHatch
 10
0.0
 20
0.0
 30
0.0
210
0.0
220
0.0
230
1.0
  2
SOLID
 70
1
 71
0
 91
1
 92
3
 72
0
 73
1
 93
8
 10
34.61999999999999
 20
111.365
 10
79.0
 20
111.365
 10
79.0
 20
106.0
 10
111.0
 20
106.0
 10
111.0
 20
111.365
 10
155.38
 20
111.365
 10
155.38
 20
96.0
 10
34.61999999999999
 20
96.0
 97
0
 75
0
 76
1
 98
0
  0
LWPOLYLINE
  5
34F
330
17
100
AcDbEntity
  8
CONCRETO
100
AcDbPolyline
 90
8
 70
1
 10
34.61999999999999
 20
111.365
 10
79.0
 20
111.365
 10
79.0
 20
106.0
 10
111.0
 20
106.0
 10
111.0
 20
111.365
 10
155.38
 20
111.365
 10
155.38
 20
96.0
 10
34.61999999999999
 20
96.0
  0
HATCH
  5
350
330
17
100
AcDbEntity
  8
ANGULOS
 62
140
100
AcDbHatch
 10
0.0
 20
0.0
 30
0.0
210
0.0
220
0.0
230
1.0
  2
SOLID
 70
1
 71
0
 91
1
 92
3
 72
0
 73
1
 93
6
 10
27.0
 20
112.0
 10
34.61999999999999
 20
112.0
 10
34.61999999999999
 20
111.365
 10
27.63499999999999
 20
111.365
 10
27.63499999999999
 20
104.38
 10
27.0
 20
104.38
 97
0
 75
0
 76
1
 98
0
  0
HATCH
  5
351
330
17
100
AcDbEntity
  8
ANGULOS
 62
140
100
AcDbHatch
 10
0.0
 20
0.0
 30
0.0
210
0.0
220
0.0
230
1.0
  2
SOLID
 70
1
 71
0
 91
1
 92
3
 72
0
 73
1
 93
6
 10
163.0
 20
112.0
 10
155.38
 20
112.0
 10
155.38
 20
111.365
 10
162.365
 20
111.365
 10
162.365
 20
104.38
 10
163.0
 20
104.38
 97
0
 75
0
 76
1
 98
0
  0
HATCH
  5
352
330
17
100
AcDbEntity
  8
CONCRETO_ACHURADO
 62
254
100
AcDbHatch
 10
0.0
 20
0.0
 30
0.0
210
0.0
220
0.0
230
1.0
  2
SOLID
 70
1
 71
0
 91
1
 92
3
 72
0
 73
1
 93
4
 10
162.365
 20
104.38
 10
163.0
 20
104.38
 10
163.0
 20
96.0
 10
162.365
 20
96.0
 97
0
 75
0
 76
1
 98
0
  0
HATCH
  5
353
330
17
100
AcDbEntity
  8
CONCRETO_ACHURADO
 62
254
100
AcDbHatch
 10
0.0
 20
0.0
 30
0.0
210
0.0
220
0.0
230
1.0
  2
SOLID
 70
1
 71
0
 91
1
 92
3
 72
0
 73
1
 93
4
 10
27.0
 20
104.38
 10
27.63499999999999
 20
104.38
 10
27.63499999999999
 20
96.0
 10
27.0
 20
96.0
 97
0
 75
0
 76
1
 98
0
  0
LWPOLYLINE
  5
354
330
17
100
AcDbEntity
  8
ACERO_LISO
100
AcDbPolyline
 90
6
 70
0
 43
1.9049999999999998
 10
64.0
 20
100.0
 10
83.0
 20
100.0
 10
83.0
 20
109.0
 10
107.0
 20
109.0
 10
107.0
 20
100.0
 10
126.0
 20
100.0
  0
LINE
  5
355
330
17
100
AcDbEntity
  8
ACERO
100
AcDbLine
 10
33.0
 20
101.0
 30
0.0
 11
157.0
 21
101.0
 31
0.0
  0
HATCH
  5
356
330
17
100
AcDbEntity
  8
ACERO
 62
1
100
AcDbHatch
 10
0.0
 20
0.0
 30
0.0
210
0.0
220
0.0
230
1.0
  2
SOLID
 70
1
 71
0
 91
1
 92
1
 93
1
 72
2
 10
35.0
 20
102.9
 40
0.9524999999999999
 50
0
 51
360
 73
1
 97
0
 75
0
 76
1
 98
0
  0
CIRCLE
  5
357
330
17
100
AcDbEntity
  8
ACERO
100
AcDbCircle
 10
35.0
 20
102.9
 30
0.0
 40
0.9524999999999999
  0
HATCH
  5
358
330
17
100
AcDbEntity
  8
ACERO
 62
1
100
AcDbHatch
 10
0.0
 20
0.0
 30
0.0
210
0.0
220
0.0
230
1.0
  2
SOLID
 70
1
 71
0
 91
1
 92
1
 93
1
 72
2
 10
55.0
 20
102.9
 40
0.9524999999999999
 50
0
 51
360
 73
1
 97
0
 75
0
 76
1
 98
0
  0
CIRCLE
  5
359
330
17
100
AcDbEntity
  8
ACERO
100
AcDbCircle
 10
55.0
 20
102.9
 30
0.0
 40
0.9524999999999999
  0
HATCH
  5
35A
330
17
100
AcDbEntity
  8
ACERO
 62
1
100
AcDbHatch
 10
0.0
 20
0.0
 30
0.0
210
0.0
220
0.0
230
1.0
  2
SOLID
 70
1
 71
0
 91
1
 92
1
 93
1
 72
2
 10
75.0
 20
102.9
 40
0.9524999999999999
 50
0
 51
360
 73
1
 97
0
 75
0
 76
1
 98
0
  0
CIRCLE
  5
35B
330
17
100
AcDbEntity
  8
ACERO
100
AcDbCircle
 10
75.0
 20
102.9
 30
0.0
 40
0.9524999999999999
  0
HATCH
  5
35C
330
17
100
AcDbEntity
  8
ACERO
 62
1
100
AcDbHatch
 10
0.0
 20
0.0
 30
0.0
210
0.0
220
0.0
230
1.0
  2
SOLID
 70
1
 71
0
 91
1
 92
1
 93
1
 72
2
 10
95.00000000000001
 20
102.9
 40
0.9524999999999999
 50
0
 51
360
 73
1
 97
0
 75
0
 76
1
 98
0
  0
CIRCLE
  5
35D
330
17
100
AcDbEntity
  8
ACERO
100
AcDbCircle
 10
95.00000000000001
 20
102.9
 30
0.0
 40
0.9524999999999999
  0
HATCH
  5
35E
330
17
100
AcDbEntity
  8
ACERO
 62
1
100
AcDbHatch
 10
0.0
 20
0.0
 30
0.0
210
0.0
220
0.0
230
1.0
  2
SOLID
 70
1
 71
0
 91
1
 92
1
 93
1
 72
2
 10
115.0
 20
102.9
 40
0.9524999999999999
 50
0
 51
360
 73
1
 97
0
 75
0
 76
1
 98
0
  0
CIRCLE
  5
35F
330
17
100
AcDbEntity
  8
ACERO
100
AcDbCircle
 10
115.0
 20
102.9
 30
0.0
 40
0.9524999999999999
  0
HATCH
  5
360
330
17
100
AcDbEntity
  8
ACERO
 62
1
100
AcDbHatch
 10
0.0
 20
0.0
 30
0.0
210
0.0
220
0.0
230
1.0
  2
SOLID
 70
1
 71
0
 91
1
 92
1
 93
1
 72
2
 10
135.0
 20
102.9
 40
0.9524999999999999
 50
0
 51
360
 73
1
 97
0
 75
0
 76
1
 98
0
  0
CIRCLE
  5
361
330
17
100
AcDbEntity
  8
ACERO
100
AcDbCircle
 10
135.0
 20
102.9
 30
0.0
 40
0.9524999999999999
  0
HATCH
  5
362
330
17
100
AcDbEntity
  8
ACERO
 62
1
100
AcDbHatch
 10
0.0
 20
0.0
 30
0.0
210
0.0
220
0.0
230
1.0
  2
SOLID
 70
1
 71
0
 91
1
 92
1
 93
1
 72
2
 10
155.00000000000003
 20
102.9
 40
0.9524999999999999
 50
0
 51
360
 73
1
 97
0
 75
0
 76
1
 98
0
  0
CIRCLE
  5
363
330
17
100
AcDbEntity
  8
ACERO
100
AcDbCircle
 10
155.00000000000003
 20
102.9
 30
0.0
 40
0.9524999999999999
  0
DIMENSION
  5
364
330
17
100
AcDbEntity
  8
COTAS
100
AcDbDimension
280
0
  2
*D29
  3
M_1_5
 10
27.0
 20
126.0
 30
0.0
 11
95.0
 21
128.4
 31
0.0
 70
32
 71
5
  1
<>
100
AcDbAlignedDimension
 13
27.0
 23
112.0
 33
0.0
 14
163.0
 24
112.0
 34
0.0
 50
0.0
100
AcDbRotatedDimension
  0
DIMENSION
  5
373
330
17
100
AcDbEntity
  8
COTAS
100
AcDbDimension
280
0
  2
*D30
  3
M_1_5
 10
175.0
 20
112.0
 30
0.0
 11
177.4
 21
104.0
 31
0.0
 70
32
 71
5
  1
<>
100
AcDbAlignedDimension
 13
163.0
 23
112.0
 33
0.0
 14
163.0
 24
96.0
 34
0.0
 50
90.0
100
AcDbRotatedDimension
  0
DIMENSION
  5
382
330
17
100
AcDbEntity
  8
COTAS
100
AcDbDimension
280
0
  2
*D31
  3
M_1_5
 10
17.0
 20
96.0
 30
0.0
 11
13.0
 21
98.5
 31
0.0
 70
32
 71
5
  1
0.025
100
AcDbAlignedDimension
 13
27.0
 23
96.0
 33
0.0
 14
27.0
 24
101.0
 34
0.0
 50
90.0
100
AcDbRotatedDimension
  0
DIMENSION
  5
391
330
17
100
AcDbEntity
  8
COTAS
100
AcDbDimension
280
0
  2
*D32
  3
M_1_5
 10
79.0
 20
80.0
 30
0.0
 11
95.0
 21
82.4
 31
0.0
 70
32
 71
5
  1
<>
100
AcDbAlignedDimension
 13
79.0
 23
106.0
 33
0.0
 14
111.0
 24
106.0
 34
0.0
 50
0.0
100
AcDbRotatedDimension
  0
CIRCLE
  5
3A0
330
17
100
AcDbEntity
  8
NOTAS_LLAMADA
100
AcDbCircle
 10
95.0
 20
109.0
 30
0.0
 40
0.7
  0
HATCH
  5
3A1
330
17
100
AcDbEntity
  8
NOTAS_LLAMADA
 62
30
100
AcDbHatch
 10
0.0
 20
0.0
 30
0.0
210
0.0
220
0.0
230
1.0
  2
SOLID
 70
1
 71
0
 91
1
 92
1
 93
1
 72
2
 10
95.0
 20
109.0
 40
0.7
 50
0
 51
360
 73
1
 97
0
 75
0
 76
1
 98
0
  0
LWPOLYLINE
  5
3A2
330
17
100
AcDbEntity
  8
NOTAS_LLAMADA
100
AcDbPolyline
 90
3
 70
0
 10
95.0
 20
109.0
 10
190.0
 20
122.0
 10
194.0
 20
122.0
  0
MTEXT
  5
3A3
330
17
100
AcDbEntity
  8
TEXTO
100
AcDbMText
 10
195.0
 20
124.1
 30
0.0
 40
3.5
 41
85.0
 71
1
  1
Agarradera del asa en el\Pbolsillo (no sobresale)
  7
ARIAL
  0
CIRCLE
  5
3A4
330
17
100
AcDbEntity
  8
NOTAS_LLAMADA
100
AcDbCircle
 10
121.0
 20
100.0
 30
0.0
 40
0.7
  0
HATCH
  5
3A5
330
17
100
AcDbEntity
  8
NOTAS_LLAMADA
 62
30
100
AcDbHatch
 10
0.0
 20
0.0
 30
0.0
210
0.0
220
0.0
230
1.0
  2
SOLID
 70
1
 71
0
 91
1
 92
1
 93
1
 72
2
 10
121.0
 20
100.0
 40
0.7
 50
0
 51
360
 73
1
 97
0
 75
0
 76
1
 98
0
  0
LWPOLYLINE
  5
3A6
330
17
100
AcDbEntity
  8
NOTAS_LLAMADA
100
AcDbPolyline
 90
3
 70
0
 10
121.0
 20
100.0
 10
190.0
 20
104.0
 10
194.0
 20
104.0
  0
MTEXT
  5
3A7
330
17
100
AcDbEntity
  8
TEXTO
100
AcDbMText
 10
195.0
 20
106.1
 30
0.0
 40
3.5
 41
85.0
 71
1
  1
Gancho del asa anclado\Pen el concreto
  7
ARIAL
  0
TEXT
  5
3A8
330
17
100
AcDbEntity
  8
TITULOS
100
AcDbText
 10
292.0
 20
338.0
 30
0.0
 40
6.0
  1
E. CONTRAMARCO CON ANCLAJES
  7
ARIALB
 11
292.0
 21
338.0
 31
0.0
100
AcDbText
  0
LINE
  5
3A9
330
17
100
AcDbEntity
  8
TITULOS
370
70
100
AcDbLine
 10
292.0
 20
336.0
 30
0.0
 11
432.0
 21
336.0
 31
0.0
  0
TEXT
  5
3AA
330
17
100
AcDbEntity
  8
TITULOS
100
AcDbText
 10
292.0
 20
330.5
 30
0.0
 40
4.0
  1
ESC. 1/10 - vista superior
  7
ARIAL
 11
292.0
 21
330.5
 31
0.0
100
AcDbText
  0
HATCH
  5
3AB
330
17
100
AcDbEntity
  8
ANGULOS
 62
5
100
AcDbHatch
 10
0.0
 20
0.0
 30
0.0
210
0.0
220
0.0
230
1.0
  2
SOLID
 70
1
 71
0
 91
2
 92
3
 72
0
 73
1
 93
4
 10
315.0
 20
217.0
 10
385.0
 20
217.0
 10
385.0
 20
287.0
 10
315.0
 20
287.0
 97
0
 92
18
 72
0
 73
1
 93
4
 10
320.08
 20
222.08
 10
379.92
 20
222.08
 10
379.92
 20
281.92
 10
320.08
 20
281.92
 97
0
 75
0
 76
1
 98
0
  0
LWPOLYLINE
  5
3AC
330
17
100
AcDbEntity
  8
ANGULOS
100
AcDbPolyline
 90
4
 70
1
 10
315.0
 20
217.0
 10
385.0
 20
217.0
 10
385.0
 20
287.0
 10
315.0
 20
287.0
  0
LWPOLYLINE
  5
3AD
330
17
100
AcDbEntity
  8
ANGULOS
100
AcDbPolyline
 90
4
 70
1
 10
320.08
 20
222.08
 10
379.92
 20
222.08
 10
379.92
 20
281.92
 10
320.08
 20
281.92
  0
LINE
  5
3AE
330
17
100
AcDbEntity
  8
ANGULOS
100
AcDbLine
 10
315.0
 20
217.0
 30
0.0
 11
320.08
 21
222.08
 31
0.0
  0
LINE
  5
3AF
330
17
100
AcDbEntity
  8
ANGULOS
100
AcDbLine
 10
385.0
 20
217.0
 30
0.0
 11
379.92
 21
222.08
 31
0.0
  0
LINE
  5
3B0
330
17
100
AcDbEntity
  8
ACERO
100
AcDbLine
 10
315.0
 20
239.5
 30
0.0
 11
297.0
 21
239.5
 31
0.0
  0
LINE
  5
3B1
330
17
100
AcDbEntity
  8
ACERO
100
AcDbLine
 10
337.5
 20
217.0
 30
0.0
 11
337.5
 21
199.0
 31
0.0
  0
LINE
  5
3B2
330
17
100
AcDbEntity
  8
ACERO
100
AcDbLine
 10
315.0
 20
264.5
 30
0.0
 11
297.0
 21
264.5
 31
0.0
  0
LINE
  5
3B3
330
17
100
AcDbEntity
  8
ACERO
100
AcDbLine
 10
362.5
 20
217.0
 30
0.0
 11
362.5
 21
199.0
 31
0.0
  0
LINE
  5
3B4
330
17
100
AcDbEntity
  8
ANGULOS
100
AcDbLine
 10
315.0
 20
287.0
 30
0.0
 11
320.08
 21
281.92
 31
0.0
  0
LINE
  5
3B5
330
17
100
AcDbEntity
  8
ANGULOS
100
AcDbLine
 10
385.0
 20
287.0
 30
0.0
 11
379.92
 21
281.92
 31
0.0
  0
LINE
  5
3B6
330
17
100
AcDbEntity
  8
ACERO
100
AcDbLine
 10
385.0
 20
239.5
 30
0.0
 11
403.0
 21
239.5
 31
0.0
  0
LINE
  5
3B7
330
17
100
AcDbEntity
  8
ACERO
100
AcDbLine
 10
337.5
 20
287.0
 30
0.0
 11
337.5
 21
305.0
 31
0.0
  0
LINE
  5
3B8
330
17
100
AcDbEntity
  8
ACERO
100
AcDbLine
 10
385.0
 20
264.5
 30
0.0
 11
403.0
 21
264.5
 31
0.0
  0
LINE
  5
3B9
330
17
100
AcDbEntity
  8
ACERO
100
AcDbLine
 10
362.5
 20
287.0
 30
0.0
 11
362.5
 21
305.0
 31
0.0
  0
DIMENSION
  5
3BA
330
17
100
AcDbEntity
  8
COTAS
100
AcDbDimension
280
0
  2
*D33
  3
M_1_10
 10
315.0
 20
192.0
 30
0.0
 11
350.0
 21
194.4
 31
0.0
 70
32
 71
5
  1
<>
100
AcDbAlignedDimension
 13
315.0
 23
202.0
 33
0.0
 14
385.0
 24
202.0
 34
0.0
 50
0.0
100
AcDbRotatedDimension
  0
DIMENSION
  5
3C9
330
17
100
AcDbEntity
  8
COTAS
100
AcDbDimension
280
0
  2
*D34
  3
M_1_10
 10
337.5
 20
184.0
 30
0.0
 11
350.0
 21
186.4
 31
0.0
 70
32
 71
5
  1
<>
100
AcDbAlignedDimension
 13
337.5
 23
202.0
 33
0.0
 14
362.5
 24
202.0
 34
0.0
 50
0.0
100
AcDbRotatedDimension
  0
DIMENSION
  5
3D8
330
17
100
AcDbEntity
  8
COTAS
100
AcDbDimension
280
0
  2
*D35
  3
M_1_10
 10
320.08
 20
311.0
 30
0.0
 11
350.0
 21
313.4
 31
0.0
 70
32
 71
5
  1
0.60
100
AcDbAlignedDimension
 13
320.08
 23
305.0
 33
0.0
 14
379.92
 24
305.0
 34
0.0
 50
0.0
100
AcDbRotatedDimension
  0
DIMENSION
  5
3E7
330
17
100
AcDbEntity
  8
COTAS
100
AcDbDimension
280
0
  2
*D36
  3
M_1_10
 10
385.0
 20
286.5
 30
0.0
 11
394.0
 21
290.5
 31
0.0
 70
32
 71
5
  1
0.18 (proy.)
100
AcDbAlignedDimension
 13
385.0
 23
264.5
 33
0.0
 14
403.0
 24
264.5
 34
0.0
 50
0.0
100
AcDbRotatedDimension
  0
CIRCLE
  5
3F6
330
17
100
AcDbEntity
  8
NOTAS_LLAMADA
100
AcDbCircle
 10
317.0
 20
272.0
 30
0.0
 40
0.7
  0
HATCH
  5
3F7
330
17
100
AcDbEntity
  8
NOTAS_LLAMADA
 62
30
100
AcDbHatch
 10
0.0
 20
0.0
 30
0.0
210
0.0
220
0.0
230
1.0
  2
SOLID
 70
1
 71
0
 91
1
 92
1
 93
1
 72
2
 10
317.0
 20
272.0
 40
0.7
 50
0
 51
360
 73
1
 97
0
 75
0
 76
1
 98
0
  0
LWPOLYLINE
  5
3F8
330
17
100
AcDbEntity
  8
NOTAS_LLAMADA
100
AcDbPolyline
 90
3
 70
0
 10
317.0
 20
272.0
 10
300.0
 20
180.0
 10
296.0
 20
180.0
  0
MTEXT
  5
3F9
330
17
100
AcDbEntity
  8
TEXTO
100
AcDbMText
 10
295.0
 20
182.1
 30
0.0
 40
3.5
 41
55.0
 71
3
  1
Esquinas a 45 grados\Py soldadas
  7
ARIAL
  0
CIRCLE
  5
3FA
330
17
100
AcDbEntity
  8
NOTAS_LLAMADA
100
AcDbCircle
 10
395.0
 20
239.5
 30
0.0
 40
0.7
  0
HATCH
  5
3FB
330
17
100
AcDbEntity
  8
NOTAS_LLAMADA
 62
30
100
AcDbHatch
 10
0.0
 20
0.0
 30
0.0
210
0.0
220
0.0
230
1.0
  2
SOLID
 70
1
 71
0
 91
1
 92
1
 93
1
 72
2
 10
395.0
 20
239.5
 40
0.7
 50
0
 51
360
 73
1
 97
0
 75
0
 76
1
 98
0
  0
LWPOLYLINE
  5
3FC
330
17
100
AcDbEntity
  8
NOTAS_LLAMADA
100
AcDbPolyline
 90
3
 70
0
 10
395.0
 20
239.5
 10
402.0
 20
180.0
 10
406.0
 20
180.0
  0
MTEXT
  5
3FD
330
17
100
AcDbEntity
  8
TEXTO
100
AcDbMText
 10
407.0
 20
182.1
 30
0.0
 40
3.5
 41
40.0
 71
1
  1
Anclaje 3/8"\PL = 0.20
  7
ARIAL
  0
TEXT
  5
3FE
330
17
100
AcDbEntity
  8
TITULOS
100
AcDbText
 10
445.0
 20
338.0
 30
0.0
 40
6.0
  1
F. PERFILES DE ANGULOS
  7
ARIALB
 11
445.0
 21
338.0
 31
0.0
100
AcDbText
  0
LINE
  5
3FF
330
17
100
AcDbEntity
  8
TITULOS
370
70
100
AcDbLine
 10
445.0
 20
336.0
 30
0.0
 11
575.0
 21
336.0
 31
0.0
  0
TEXT
  5
400
330
17
100
AcDbEntity
  8
TITULOS
100
AcDbText
 10
445.0
 20
330.5
 30
0.0
 40
4.0
  1
ESC. 1/1 (cotas en mm)
  7
ARIAL
 11
445.0
 21
330.5
 31
0.0
100
AcDbText
  0
HATCH
  5
401
330
17
100
AcDbEntity
  8
ANGULOS
 62
5
100
AcDbHatch
 10
0.0
 20
0.0
 30
0.0
210
0.0
220
0.0
230
1.0
  2
SOLID
 70
1
 71
0
 91
1
 92
3
 72
0
 73
1
 93
6
 10
462.0
 20
252.0
 10
512.8
 20
252.0
 10
512.8
 20
256.7625
 10
466.7625
 20
256.7625
 10
466.7625
 20
302.8
 10
462.0
 20
302.8
 97
0
 75
0
 76
1
 98
0
  0
LWPOLYLINE
  5
402
330
17
100
AcDbEntity
  8
ANGULOS
100
AcDbPolyline
 90
6
 70
1
 10
462.0
 20
252.0
 10
512.8
 20
252.0
 10
512.8
 20
256.7625
 10
466.7625
 20
256.7625
 10
466.7625
 20
302.8
 10
462.0
 20
302.8
  0
DIMENSION
  5
403
330
17
100
AcDbEntity
  8
COTAS
100
AcDbDimension
280
0
  2
*D37
  3
MM_1_1
 10
462.0
 20
245.0
 30
0.0
 11
487.4
 21
247.4
 31
0.0
 70
32
 71
5
  1
<>
100
AcDbAlignedDimension
 13
462.0
 23
252.0
 33
0.0
 14
512.8
 24
252.0
 34
0.0
 50
0.0
100
AcDbRotatedDimension
  0
DIMENSION
  5
412
330
17
100
AcDbEntity
  8
COTAS
100
AcDbDimension
280
0
  2
*D38
  3
MM_1_1
 10
455.0
 20
252.0
 30
0.0
 11
452.6
 21
277.4
 31
0.0
 70
32
 71
5
  1
<>
100
AcDbAlignedDimension
 13
462.0
 23
252.0
 33
0.0
 14
462.0
 24
302.8
 34
0.0
 50
90.0
100
AcDbRotatedDimension
  0
DIMENSION
  5
421
330
17
100
AcDbEntity
  8
COTAS
100
AcDbDimension
280
0
  2
*D39
  3
MM_1_1
 10
519.8
 20
252.0
 30
0.0
 11
515.8
 21
254.38125
 31
0.0
 70
32
 71
5
  1
<>
100
AcDbAlignedDimension
 13
512.8
 23
252.0
 33
0.0
 14
512.8
 24
256.7625
 34
0.0
 50
90.0
100
AcDbRotatedDimension
  0
MTEXT
  5
430
330
17
100
AcDbEntity
  8
TEXTO
100
AcDbMText
 10
526.8
 20
302.8
 30
0.0
 40
3.2
 41
60.0
 71
1
  1
CONTRAMARCO\PL 2" x 2" x 3/16"\P3.63 kg/m\P4 x 0.70 = 2.80 m\P10.2 kg / registro
  7
ARIAL
  0
HATCH
  5
431
330
17
100
AcDbEntity
  8
ANGULOS
 62
5
100
AcDbHatch
 10
0.0
 20
0.0
 30
0.0
210
0.0
220
0.0
230
1.0
  2
SOLID
 70
1
 71
0
 91
1
 92
3
 72
0
 73
1
 93
6
 10
462.0
 20
172.0
 10
500.1
 20
172.0
 10
500.1
 20
175.175
 10
465.175
 20
175.175
 10
465.175
 20
210.1
 10
462.0
 20
210.1
 97
0
 75
0
 76
1
 98
0
  0
LWPOLYLINE
  5
432
330
17
100
AcDbEntity
  8
ANGULOS
100
AcDbPolyline
 90
6
 70
1
 10
462.0
 20
172.0
 10
500.1
 20
172.0
 10
500.1
 20
175.175
 10
465.175
 20
175.175
 10
465.175
 20
210.1
 10
462.0
 20
210.1
  0
DIMENSION
  5
433
330
17
100
AcDbEntity
  8
COTAS
100
AcDbDimension
280
0
  2
*D40
  3
MM_1_1
 10
462.0
 20
165.0
 30
0.0
 11
481.05
 21
167.4
 31
0.0
 70
32
 71
5
  1
<>
100
AcDbAlignedDimension
 13
462.0
 23
172.0
 33
0.0
 14
500.1
 24
172.0
 34
0.0
 50
0.0
100
AcDbRotatedDimension
  0
DIMENSION
  5
442
330
17
100
AcDbEntity
  8
COTAS
100
AcDbDimension
280
0
  2
*D41
  3
MM_1_1
 10
455.0
 20
172.0
 30
0.0
 11
452.6
 21
191.05
 31
0.0
 70
32
 71
5
  1
<>
100
AcDbAlignedDimension
 13
462.0
 23
172.0
 33
0.0
 14
462.0
 24
210.1
 34
0.0
 50
90.0
100
AcDbRotatedDimension
  0
DIMENSION
  5
451
330
17
100
AcDbEntity
  8
COTAS
100
AcDbDimension
280
0
  2
*D42
  3
MM_1_1
 10
507.1
 20
172.0
 30
0.0
 11
503.1
 21
173.5875
 31
0.0
 70
32
 71
5
  1
<>
100
AcDbAlignedDimension
 13
500.1
 23
172.0
 33
0.0
 14
500.1
 24
175.175
 34
0.0
 50
90.0
100
AcDbRotatedDimension
  0
MTEXT
  5
460
330
17
100
AcDbEntity
  8
TEXTO
100
AcDbMText
 10
514.1
 20
210.1
 30
0.0
 40
3.2
 41
60.0
 71
1
  1
MARCO DE TAPA\PL 1 1/2" x 1 1/2" x 1/8"\P1.83 kg/m\P4 x 0.68 = 2.72 m\P5.0 kg / registro
  7
ARIAL
  0
TEXT
  5
461
330
17
100
AcDbEntity
  8
TITULOS
100
AcDbText
 10
590.0
 20
338.0
 30
0.0
 40
6.0
  1
G. ISOMETRICO DE DESPIECE
  7
ARIALB
 11
590.0
 21
338.0
 31
0.0
100
AcDbText
  0
LINE
  5
462
330
17
100
AcDbEntity
  8
TITULOS
370
70
100
AcDbLine
 10
590.0
 20
336.0
 30
0.0
 11
825.0
 21
336.0
 31
0.0
  0
TEXT
  5
463
330
17
100
AcDbEntity
  8
TITULOS
100
AcDbText
 10
590.0
 20
330.5
 30
0.0
 40
4.0
  1
SIN ESCALA
  7
ARIAL
 11
590.0
 21
330.5
 31
0.0
100
AcDbText
  0
LINE
  5
464
330
17
100
AcDbEntity
  8
CONCRETO
100
AcDbLine
 10
670.9444863728671
 20
158.9
 30
0.0
 11
735.7231865759431
 21
196.3
 31
0.0
  0
LINE
  5
465
330
17
100
AcDbEntity
  8
CONCRETO
100
AcDbLine
 10
735.7231865759431
 20
196.3
 30
0.0
 11
665.0555136271329
 21
237.1
 31
0.0
  0
LINE
  5
466
330
17
100
AcDbEntity
  8
CONCRETO
100
AcDbLine
 10
665.0555136271329
 20
237.1
 30
0.0
 11
600.2768134240569
 21
199.7
 31
0.0
  0
LINE
  5
467
330
17
100
AcDbEntity
  8
CONCRETO
100
AcDbLine
 10
600.2768134240569
 20
199.7
 30
0.0
 11
670.9444863728671
 21
158.9
 31
0.0
  0
LINE
  5
468
330
17
100
AcDbEntity
  8
CONCRETO
100
AcDbLine
 10
670.9444863728671
 20
152.10000000000002
 30
0.0
 11
670.9444863728671
 21
158.9
 31
0.0
  0
LINE
  5
469
330
17
100
AcDbEntity
  8
CONCRETO
100
AcDbLine
 10
735.7231865759431
 20
189.5
 30
0.0
 11
735.7231865759431
 21
196.3
 31
0.0
  0
LINE
  5
46A
330
17
100
AcDbEntity
  8
CONCRETO
100
AcDbLine
 10
600.2768134240569
 20
192.9
 30
0.0
 11
600.2768134240569
 21
199.7
 31
0.0
  0
LINE
  5
46B
330
17
100
AcDbEntity
  8
CONCRETO
100
AcDbLine
 10
670.9444863728671
 20
152.10000000000002
 30
0.0
 11
735.7231865759431
 21
189.5
 31
0.0
  0
LINE
  5
46C
330
17
100
AcDbEntity
  8
CONCRETO
100
AcDbLine
 10
670.9444863728671
 20
152.10000000000002
 30
0.0
 11
600.2768134240569
 21
192.9
 31
0.0
  0
LWPOLYLINE
  5
46D
330
17
100
AcDbEntity
  8
CONCRETO
100
AcDbPolyline
 90
4
 70
1
 10
668.0
 20
174.20000000000002
 10
709.2228092201393
 20
198.0
 10
668.0
 20
221.79999999999998
 10
626.7771907798607
 20
198.0
  0
LWPOLYLINE
  5
46E
330
17
100
AcDbEntity
  8
OCULTO
100
AcDbPolyline
 90
4
 70
1
 10
668.0
 20
170.8
 10
703.3338364744051
 20
191.2
 10
668.0
 20
211.6
 10
632.6661635255949
 20
191.2
  0
LINE
  5
46F
330
17
100
AcDbEntity
  8
CONCRETO
100
AcDbLine
 10
668.0
 20
174.20000000000002
 30
0.0
 11
668.0
 21
167.4
 31
0.0
  0
LINE
  5
470
330
17
100
AcDbEntity
  8
CONCRETO
100
AcDbLine
 10
709.2228092201393
 20
198.0
 30
0.0
 11
709.2228092201393
 21
191.2
 31
0.0
  0
LINE
  5
471
330
17
100
AcDbEntity
  8
CONCRETO
100
AcDbLine
 10
626.7771907798607
 20
198.0
 30
0.0
 11
626.7771907798607
 21
191.2
 31
0.0
  0
LWPOLYLINE
  5
472
330
17
100
AcDbEntity
  8
ANGULOS
100
AcDbPolyline
 90
4
 70
1
 10
668.0
 20
189.16
 10
709.2228092201393
 20
212.96
 10
668.0
 20
236.76
 10
626.7771907798607
 20
212.96
  0
LWPOLYLINE
  5
473
330
17
100
AcDbEntity
  8
ANGULOS
100
AcDbPolyline
 90
4
 70
1
 10
668.0
 20
192.61440000000002
 10
703.2396129104734
 20
212.96
 10
668.0
 20
233.3056
 10
632.7603870895266
 20
212.96
  0
LWPOLYLINE
  5
474
330
17
100
AcDbEntity
  8
ANGULOS
100
AcDbPolyline
 90
4
 70
1
 10
668.0
 20
185.7056
 10
709.2228092201393
 20
209.5056
 10
668.0
 20
233.3056
 10
626.7771907798607
 20
209.5056
  0
LINE
  5
475
330
17
100
AcDbEntity
  8
ANGULOS
100
AcDbLine
 10
668.0
 20
189.16
 30
0.0
 11
668.0
 21
185.7056
 31
0.0
  0
LINE
  5
476
330
17
100
AcDbEntity
  8
ANGULOS
100
AcDbLine
 10
709.2228092201393
 20
212.96
 30
0.0
 11
709.2228092201393
 21
209.5056
 31
0.0
  0
LINE
  5
477
330
17
100
AcDbEntity
  8
ANGULOS
100
AcDbLine
 10
626.7771907798607
 20
212.96
 30
0.0
 11
626.7771907798607
 21
209.5056
 31
0.0
  0
LINE
  5
478
330
17
100
AcDbEntity
  8
ACERO
100
AcDbLine
 10
654.7498113220981
 20
194.43
 30
0.0
 11
644.1496603797766
 21
194.43
 31
0.0
  0
LINE
  5
479
330
17
100
AcDbEntity
  8
ACERO
100
AcDbLine
 10
681.2501886779019
 20
194.43
 30
0.0
 11
691.8503396202234
 21
194.43
 31
0.0
  0
LINE
  5
47A
330
17
100
AcDbEntity
  8
ACERO
100
AcDbLine
 10
640.0273794577627
 20
202.93
 30
0.0
 11
629.4272285154411
 21
202.93
 31
0.0
  0
LINE
  5
47B
330
17
100
AcDbEntity
  8
ACERO
100
AcDbLine
 10
695.9726205422373
 20
202.93
 30
0.0
 11
706.5727714845589
 21
202.93
 31
0.0
  0
LINE
  5
47C
330
17
100
AcDbEntity
  8
ACERO
100
AcDbLine
 10
695.9726205422373
 20
218.23
 30
0.0
 11
706.5727714845589
 21
230.47
 31
0.0
  0
LINE
  5
47D
330
17
100
AcDbEntity
  8
ACERO
100
AcDbLine
 10
640.0273794577627
 20
218.23
 30
0.0
 11
629.4272285154411
 21
230.47
 31
0.0
  0
LINE
  5
47E
330
17
100
AcDbEntity
  8
ACERO
100
AcDbLine
 10
681.2501886779019
 20
226.73
 30
0.0
 11
691.8503396202234
 21
238.97
 31
0.0
  0
LINE
  5
47F
330
17
100
AcDbEntity
  8
ACERO
100
AcDbLine
 10
654.7498113220981
 20
226.73
 30
0.0
 11
644.1496603797766
 21
238.97
 31
0.0
  0
LINE
  5
480
330
17
100
AcDbEntity
  8
ACERO
100
AcDbLine
 10
667.4111027254265
 20
210.92000000000002
 30
0.0
 11
703.9227337489785
 21
232.0
 31
0.0
  0
LINE
  5
481
330
17
100
AcDbEntity
  8
ACERO
100
AcDbLine
 10
668.5888972745735
 20
211.6
 30
0.0
 11
632.0772662510215
 21
232.68
 31
0.0
  0
LINE
  5
482
330
17
100
AcDbEntity
  8
ACERO
100
AcDbLine
 10
661.5221299796924
 20
214.32
 30
0.0
 11
698.0337610032443
 21
235.4
 31
0.0
  0
LINE
  5
483
330
17
100
AcDbEntity
  8
ACERO
100
AcDbLine
 10
674.4778700203076
 20
215.0
 30
0.0
 11
637.9662389967557
 21
236.08
 31
0.0
  0
LINE
  5
484
330
17
100
AcDbEntity
  8
ACERO
100
AcDbLine
 10
655.6331572339582
 20
217.72
 30
0.0
 11
692.1447882575102
 21
238.8
 31
0.0
  0
LINE
  5
485
330
17
100
AcDbEntity
  8
ACERO
100
AcDbLine
 10
680.3668427660418
 20
218.4
 30
0.0
 11
643.8552117424898
 21
239.48
 31
0.0
  0
LINE
  5
486
330
17
100
AcDbEntity
  8
ACERO
100
AcDbLine
 10
649.744184488224
 20
221.12
 30
0.0
 11
686.255815511776
 21
242.2
 31
0.0
  0
LINE
  5
487
330
17
100
AcDbEntity
  8
ACERO
100
AcDbLine
 10
686.255815511776
 20
221.8
 30
0.0
 11
649.744184488224
 21
242.88
 31
0.0
  0
LINE
  5
488
330
17
100
AcDbEntity
  8
ACERO
100
AcDbLine
 10
643.8552117424898
 20
224.52
 30
0.0
 11
680.3668427660418
 21
245.6
 31
0.0
  0
LINE
  5
489
330
17
100
AcDbEntity
  8
ACERO
100
AcDbLine
 10
692.1447882575102
 20
225.2
 30
0.0
 11
655.6331572339582
 21
246.28
 31
0.0
  0
LINE
  5
48A
330
17
100
AcDbEntity
  8
ACERO
100
AcDbLine
 10
637.9662389967557
 20
227.92000000000002
 30
0.0
 11
674.4778700203076
 21
249.0
 31
0.0
  0
LINE
  5
48B
330
17
100
AcDbEntity
  8
ACERO
100
AcDbLine
 10
698.0337610032443
 20
228.6
 30
0.0
 11
661.5221299796924
 21
249.68
 31
0.0
  0
LINE
  5
48C
330
17
100
AcDbEntity
  8
ACERO
100
AcDbLine
 10
632.0772662510215
 20
231.32
 30
0.0
 11
668.5888972745734
 21
252.4
 31
0.0
  0
LINE
  5
48D
330
17
100
AcDbEntity
  8
ACERO
100
AcDbLine
 10
703.9227337489785
 20
232.0
 30
0.0
 11
667.4111027254266
 21
253.08
 31
0.0
  0
LWPOLYLINE
  5
48E
330
17
100
AcDbEntity
  8
ACERO_LISO
100
AcDbPolyline
 90
6
 70
0
 10
671.8278322847273
 20
235.57
 10
677.4223563931747
 20
238.8
 10
677.4223563931747
 20
241.86
 10
684.4891236880558
 20
245.94
 10
684.4891236880558
 20
242.88
 10
690.0836477965032
 20
246.11
  0
LWPOLYLINE
  5
48F
330
17
100
AcDbEntity
  8
ACERO_LISO
100
AcDbPolyline
 90
6
 70
0
 10
645.9163522034968
 20
250.53
 10
651.5108763119442
 20
253.76
 10
651.5108763119442
 20
256.82
 10
658.5776436068253
 20
260.9
 10
658.5776436068253
 20
257.84000000000003
 10
664.1721677152727
 20
261.07
  0
LINE
  5
490
330
17
100
AcDbEntity
  8
CONCRETO
100
AcDbLine
 10
668.0
 20
248.6549
 30
0.0
 11
703.557617438743
 21
269.1841
 31
0.0
  0
LINE
  5
491
330
17
100
AcDbEntity
  8
CONCRETO
100
AcDbLine
 10
703.557617438743
 20
269.1841
 30
0.0
 11
668.0
 21
289.7133
 31
0.0
  0
LINE
  5
492
330
17
100
AcDbEntity
  8
CONCRETO
100
AcDbLine
 10
668.0
 20
289.7133
 30
0.0
 11
632.442382561257
 21
269.1841
 31
0.0
  0
LINE
  5
493
330
17
100
AcDbEntity
  8
CONCRETO
100
AcDbLine
 10
632.442382561257
 20
269.1841
 30
0.0
 11
668.0
 21
248.6549
 31
0.0
  0
LINE
  5
494
330
17
100
AcDbEntity
  8
CONCRETO
100
AcDbLine
 10
668.0
 20
243.4308
 30
0.0
 11
668.0
 21
248.6549
 31
0.0
  0
LINE
  5
495
330
17
100
AcDbEntity
  8
CONCRETO
100
AcDbLine
 10
703.557617438743
 20
263.96000000000004
 30
0.0
 11
703.557617438743
 21
269.1841
 31
0.0
  0
LINE
  5
496
330
17
100
AcDbEntity
  8
CONCRETO
100
AcDbLine
 10
632.442382561257
 20
263.96000000000004
 30
0.0
 11
632.442382561257
 21
269.1841
 31
0.0
  0
LINE
  5
497
330
17
100
AcDbEntity
  8
CONCRETO
100
AcDbLine
 10
668.0
 20
243.4308
 30
0.0
 11
703.557617438743
 21
263.96000000000004
 31
0.0
  0
LINE
  5
498
330
17
100
AcDbEntity
  8
CONCRETO
100
AcDbLine
 10
668.0
 20
243.4308
 30
0.0
 11
632.442382561257
 21
263.96000000000004
 31
0.0
  0
LWPOLYLINE
  5
499
330
17
100
AcDbEntity
  8
CONCRETO
100
AcDbPolyline
 90
4
 70
1
 10
677.7168050304614
 20
258.1341
 10
687.1391614236361
 20
263.5741
 10
684.194675050769
 20
265.2741
 10
674.7723186575943
 20
259.83410000000003
  0
LWPOLYLINE
  5
49A
330
17
100
AcDbEntity
  8
CONCRETO
100
AcDbPolyline
 90
4
 70
1
 10
651.805324949231
 20
273.0941
 10
661.2276813424057
 20
278.5341
 10
658.2831949695386
 20
280.2341
 10
648.8608385763639
 20
274.7941
  0
LWPOLYLINE
  5
49B
330
17
100
AcDbEntity
  8
ANGULOS
100
AcDbPolyline
 90
4
 70
1
 10
668.0
 20
265.32
 10
708.0450146709925
 20
288.44
 10
668.0
 20
311.56
 10
627.9549853290075
 20
288.44
  0
LWPOLYLINE
  5
49C
330
17
100
AcDbEntity
  8
ANGULOS
100
AcDbPolyline
 90
4
 70
1
 10
668.0
 20
267.9108
 10
703.557617438743
 20
288.44
 10
668.0
 20
308.9692
 10
632.442382561257
 20
288.44
  0
LWPOLYLINE
  5
49D
330
17
100
AcDbEntity
  8
ANGULOS
100
AcDbPolyline
 90
4
 70
1
 10
668.0
 20
262.7292
 10
708.0450146709925
 20
285.8492
 10
668.0
 20
308.9692
 10
627.9549853290075
 20
285.8492
  0
LINE
  5
49E
330
17
100
AcDbEntity
  8
ANGULOS
100
AcDbLine
 10
668.0
 20
265.32
 30
0.0
 11
668.0
 21
262.7292
 31
0.0
  0
LINE
  5
49F
330
17
100
AcDbEntity
  8
ANGULOS
100
AcDbLine
 10
708.0450146709925
 20
288.44
 30
0.0
 11
708.0450146709925
 21
285.8492
 31
0.0
  0
LINE
  5
4A0
330
17
100
AcDbEntity
  8
ANGULOS
100
AcDbLine
 10
627.9549853290075
 20
288.44
 30
0.0
 11
627.9549853290075
 21
285.8492
 31
0.0
  0
CIRCLE
  5
4A1
330
17
100
AcDbEntity
  8
NOTAS_LLAMADA
100
AcDbCircle
 10
688.0225073354962
 20
300.0
 30
0.0
 40
0.7
  0
HATCH
  5
4A2
330
17
100
AcDbEntity
  8
NOTAS_LLAMADA
 62
30
100
AcDbHatch
 10
0.0
 20
0.0
 30
0.0
210
0.0
220
0.0
230
1.0
  2
SOLID
 70
1
 71
0
 91
1
 92
1
 93
1
 72
2
 10
688.0225073354962
 20
300.0
 40
0.7
 50
0
 51
360
 73
1
 97
0
 75
0
 76
1
 98
0
  0
LWPOLYLINE
  5
4A3
330
17
100
AcDbEntity
  8
NOTAS_LLAMADA
100
AcDbPolyline
 90
3
 70
0
 10
688.0225073354962
 20
300.0
 10
760.0
 20
318.0
 10
764.0
 20
318.0
  0
MTEXT
  5
4A4
330
17
100
AcDbEntity
  8
TEXTO
100
AcDbMText
 10
765.0
 20
319.98
 30
0.0
 40
3.3
 41
66.0
 71
1
  1
Marco de tapa\PL 1 1/2"
  7
ARIAL
  0
CIRCLE
  5
4A5
330
17
100
AcDbEntity
  8
NOTAS_LLAMADA
100
AcDbCircle
 10
679.8898359736373
 20
279.6646
 30
0.0
 40
0.7
  0
HATCH
  5
4A6
330
17
100
AcDbEntity
  8
NOTAS_LLAMADA
 62
30
100
AcDbHatch
 10
0.0
 20
0.0
 30
0.0
210
0.0
220
0.0
230
1.0
  2
SOLID
 70
1
 71
0
 91
1
 92
1
 93
1
 72
2
 10
679.8898359736373
 20
279.6646
 40
0.7
 50
0
 51
360
 73
1
 97
0
 75
0
 76
1
 98
0
  0
LWPOLYLINE
  5
4A7
330
17
100
AcDbEntity
  8
NOTAS_LLAMADA
100
AcDbPolyline
 90
3
 70
0
 10
679.8898359736373
 20
279.6646
 10
760.0
 20
296.0
 10
764.0
 20
296.0
  0
MTEXT
  5
4A8
330
17
100
AcDbEntity
  8
TEXTO
100
AcDbMText
 10
765.0
 20
297.98
 30
0.0
 40
3.3
 41
66.0
 71
1
  1
Concreto de la\Ptapa f'c=210
  7
ARIAL
  0
CIRCLE
  5
4A9
330
17
100
AcDbEntity
  8
NOTAS_LLAMADA
100
AcDbCircle
 10
664.1721677152727
 20
261.07
 30
0.0
 40
0.7
  0
HATCH
  5
4AA
330
17
100
AcDbEntity
  8
NOTAS_LLAMADA
 62
30
100
AcDbHatch
 10
0.0
 20
0.0
 30
0.0
210
0.0
220
0.0
230
1.0
  2
SOLID
 70
1
 71
0
 91
1
 92
1
 93
1
 72
2
 10
664.1721677152727
 20
261.07
 40
0.7
 50
0
 51
360
 73
1
 97
0
 75
0
 76
1
 98
0
  0
LWPOLYLINE
  5
4AB
330
17
100
AcDbEntity
  8
NOTAS_LLAMADA
100
AcDbPolyline
 90
3
 70
0
 10
664.1721677152727
 20
261.07
 10
760.0
 20
274.0
 10
764.0
 20
274.0
  0
MTEXT
  5
4AC
330
17
100
AcDbEntity
  8
TEXTO
100
AcDbMText
 10
765.0
 20
275.98
 30
0.0
 40
3.3
 41
66.0
 71
1
  1
Asas 3/8" liso (2)
  7
ARIAL
  0
CIRCLE
  5
4AD
330
17
100
AcDbEntity
  8
NOTAS_LLAMADA
100
AcDbCircle
 10
680.3668427660418
 20
245.6
 30
0.0
 40
0.7
  0
HATCH
  5
4AE
330
17
100
AcDbEntity
  8
NOTAS_LLAMADA
 62
30
100
AcDbHatch
 10
0.0
 20
0.0
 30
0.0
210
0.0
220
0.0
230
1.0
  2
SOLID
 70
1
 71
0
 91
1
 92
1
 93
1
 72
2
 10
680.3668427660418
 20
245.6
 40
0.7
 50
0
 51
360
 73
1
 97
0
 75
0
 76
1
 98
0
  0
LWPOLYLINE
  5
4AF
330
17
100
AcDbEntity
  8
NOTAS_LLAMADA
100
AcDbPolyline
 90
3
 70
0
 10
680.3668427660418
 20
245.6
 10
760.0
 20
254.0
 10
764.0
 20
254.0
  0
MTEXT
  5
4B0
330
17
100
AcDbEntity
  8
TEXTO
100
AcDbMText
 10
765.0
 20
255.98
 30
0.0
 40
3.3
 41
66.0
 71
1
  1
Parrilla 3/8"\P@0.10
  7
ARIAL
  0
CIRCLE
  5
4B1
330
17
100
AcDbEntity
  8
NOTAS_LLAMADA
100
AcDbCircle
 10
682.7224318643355
 20
228.26
 30
0.0
 40
0.7
  0
HATCH
  5
4B2
330
17
100
AcDbEntity
  8
NOTAS_LLAMADA
 62
30
100
AcDbHatch
 10
0.0
 20
0.0
 30
0.0
210
0.0
220
0.0
230
1.0
  2
SOLID
 70
1
 71
0
 91
1
 92
1
 93
1
 72
2
 10
682.7224318643355
 20
228.26
 40
0.7
 50
0
 51
360
 73
1
 97
0
 75
0
 76
1
 98
0
  0
LWPOLYLINE
  5
4B3
330
17
100
AcDbEntity
  8
NOTAS_LLAMADA
100
AcDbPolyline
 90
3
 70
0
 10
682.7224318643355
 20
228.26
 10
760.0
 20
228.0
 10
764.0
 20
228.0
  0
MTEXT
  5
4B4
330
17
100
AcDbEntity
  8
TEXTO
100
AcDbMText
 10
765.0
 20
229.98
 30
0.0
 40
3.3
 41
66.0
 71
1
  1
Contramarco L 2"\Pcon anclajes
  7
ARIAL
  0
CIRCLE
  5
4B5
330
17
100
AcDbEntity
  8
NOTAS_LLAMADA
100
AcDbCircle
 10
682.7224318643355
 20
226.9
 30
0.0
 40
0.7
  0
HATCH
  5
4B6
330
17
100
AcDbEntity
  8
NOTAS_LLAMADA
 62
30
100
AcDbHatch
 10
0.0
 20
0.0
 30
0.0
210
0.0
220
0.0
230
1.0
  2
SOLID
 70
1
 71
0
 91
1
 92
1
 93
1
 72
2
 10
682.7224318643355
 20
226.9
 40
0.7
 50
0
 51
360
 73
1
 97
0
 75
0
 76
1
 98
0
  0
LWPOLYLINE
  5
4B7
330
17
100
AcDbEntity
  8
NOTAS_LLAMADA
100
AcDbPolyline
 90
3
 70
0
 10
682.7224318643355
 20
226.9
 10
760.0
 20
192.0
 10
764.0
 20
192.0
  0
MTEXT
  5
4B8
330
17
100
AcDbEntity
  8
TEXTO
100
AcDbMText
 10
765.0
 20
193.98
 30
0.0
 40
3.3
 41
66.0
 71
1
  1
Losa con abertura\P0.70 x 0.70
  7
ARIAL
  0
TEXT
  5
4B9
330
17
100
AcDbEntity
  8
TITULOS
100
AcDbText
 10
292.0
 20
142.0
 30
0.0
 40
4.5
  1
H. MATERIALES POR REGISTRO
  7
ARIALB
 11
292.0
 21
142.0
 31
0.0
100
AcDbText
  0
LWPOLYLINE
  5
4BA
330
17
100
AcDbEntity
  8
MEMBRETE
100
AcDbPolyline
 90
4
 70
1
 10
292.0
 20
137.0
 10
416.0
 20
137.0
 10
416.0
 20
75.0
 10
292.0
 20
75.0
  0
LINE
  5
4BB
330
17
100
AcDbEntity
  8
MEMBRETE
100
AcDbLine
 10
292.0
 20
130.8
 30
0.0
 11
416.0
 21
130.8
 31
0.0
  0
TEXT
  5
4BC
330
17
100
AcDbEntity
  8
TEXTO
100
AcDbText
 10
293.5
 20
132.4
 30
0.0
 40
3.0
  1
DESCRIPCION
  7
ARIALB
 11
293.5
 21
132.4
 31
0.0
100
AcDbText
  0
TEXT
  5
4BD
330
17
100
AcDbEntity
  8
TEXTO
100
AcDbText
 10
391.0
 20
132.4
 30
0.0
 40
3.0
  1
UND
  7
ARIALB
 72
1
 11
391.0
 21
132.4
 31
0.0
100
AcDbText
 73
1
  0
TEXT
  5
4BE
330
17
100
AcDbEntity
  8
TEXTO
100
AcDbText
 10
407.0
 20
132.4
 30
0.0
 40
3.0
  1
CANT.
  7
ARIALB
 72
1
 11
407.0
 21
132.4
 31
0.0
100
AcDbText
 73
1
  0
LINE
  5
4BF
330
17
100
AcDbEntity
  8
MEMBRETE
100
AcDbLine
 10
292.0
 20
124.6
 30
0.0
 11
416.0
 21
124.6
 31
0.0
  0
TEXT
  5
4C0
330
17
100
AcDbEntity
  8
TEXTO
100
AcDbText
 10
293.5
 20
126.19999999999999
 30
0.0
 40
3.0
  1
Contramarco L 2"x2"x3/16" (2.80 m)
  7
ARIAL
 11
293.5
 21
126.19999999999999
 31
0.0
100
AcDbText
  0
TEXT
  5
4C1
330
17
100
AcDbEntity
  8
TEXTO
100
AcDbText
 10
391.0
 20
126.19999999999999
 30
0.0
 40
3.0
  1
kg
  7
ARIAL
 72
1
 11
391.0
 21
126.19999999999999
 31
0.0
100
AcDbText
 73
1
  0
TEXT
  5
4C2
330
17
100
AcDbEntity
  8
TEXTO
100
AcDbText
 10
407.0
 20
126.19999999999999
 30
0.0
 40
3.0
  1
10.16
  7
ARIAL
 72
1
 11
407.0
 21
126.19999999999999
 31
0.0
100
AcDbText
 73
1
  0
LINE
  5
4C3
330
17
100
AcDbEntity
  8
MEMBRETE
100
AcDbLine
 10
292.0
 20
118.4
 30
0.0
 11
416.0
 21
118.4
 31
0.0
  0
TEXT
  5
4C4
330
17
100
AcDbEntity
  8
TEXTO
100
AcDbText
 10
293.5
 20
120.0
 30
0.0
 40
3.0
  1
Marco L 1 1/2"x1 1/2"x1/8" (2.72 m)
  7
ARIAL
 11
293.5
 21
120.0
 31
0.0
100
AcDbText
  0
TEXT
  5
4C5
330
17
100
AcDbEntity
  8
TEXTO
100
AcDbText
 10
391.0
 20
120.0
 30
0.0
 40
3.0
  1
kg
  7
ARIAL
 72
1
 11
391.0
 21
120.0
 31
0.0
100
AcDbText
 73
1
  0
TEXT
  5
4C6
330
17
100
AcDbEntity
  8
TEXTO
100
AcDbText
 10
407.0
 20
120.0
 30
0.0
 40
3.0
  1
4.98
  7
ARIAL
 72
1
 11
407.0
 21
120.0
 31
0.0
100
AcDbText
 73
1
  0
LINE
  5
4C7
330
17
100
AcDbEntity
  8
MEMBRETE
100
AcDbLine
 10
292.0
 20
112.2
 30
0.0
 11
416.0
 21
112.2
 31
0.0
  0
TEXT
  5
4C8
330
17
100
AcDbEntity
  8
TEXTO
100
AcDbText
 10
293.5
 20
113.8
 30
0.0
 40
3.0
  1
Anclajes 3/8" L = 0.20 m
  7
ARIAL
 11
293.5
 21
113.8
 31
0.0
100
AcDbText
  0
TEXT
  5
4C9
330
17
100
AcDbEntity
  8
TEXTO
100
AcDbText
 10
391.0
 20
113.8
 30
0.0
 40
3.0
  1
und
  7
ARIAL
 72
1
 11
391.0
 21
113.8
 31
0.0
100
AcDbText
 73
1
  0
TEXT
  5
4CA
330
17
100
AcDbEntity
  8
TEXTO
100
AcDbText
 10
407.0
 20
113.8
 30
0.0
 40
3.0
  1
8
  7
ARIAL
 72
1
 11
407.0
 21
113.8
 31
0.0
100
AcDbText
 73
1
  0
LINE
  5
4CB
330
17
100
AcDbEntity
  8
MEMBRETE
100
AcDbLine
 10
292.0
 20
106.0
 30
0.0
 11
416.0
 21
106.0
 31
0.0
  0
TEXT
  5
4CC
330
17
100
AcDbEntity
  8
TEXTO
100
AcDbText
 10
293.5
 20
107.6
 30
0.0
 40
3.0
  1
Concreto tapa f'c=210
  7
ARIAL
 11
293.5
 21
107.6
 31
0.0
100
AcDbText
  0
TEXT
  5
4CD
330
17
100
AcDbEntity
  8
TEXTO
100
AcDbText
 10
391.0
 20
107.6
 30
0.0
 40
3.0
  1
m3
  7
ARIAL
 72
1
 11
391.0
 21
107.6
 31
0.0
100
AcDbText
 73
1
  0
TEXT
  5
4CE
330
17
100
AcDbEntity
  8
TEXTO
100
AcDbText
 10
407.0
 20
107.6
 30
0.0
 40
3.0
  1
0.037
  7
ARIAL
 72
1
 11
407.0
 21
107.6
 31
0.0
100
AcDbText
 73
1
  0
LINE
  5
4CF
330
17
100
AcDbEntity
  8
MEMBRETE
100
AcDbLine
 10
292.0
 20
99.8
 30
0.0
 11
416.0
 21
99.8
 31
0.0
  0
TEXT
  5
4D0
330
17
100
AcDbEntity
  8
TEXTO
100
AcDbText
 10
293.5
 20
101.39999999999999
 30
0.0
 40
3.0
  1
Acero tapa 3/8" (14 x 0.62 m)
  7
ARIAL
 11
293.5
 21
101.39999999999999
 31
0.0
100
AcDbText
  0
TEXT
  5
4D1
330
17
100
AcDbEntity
  8
TEXTO
100
AcDbText
 10
391.0
 20
101.39999999999999
 30
0.0
 40
3.0
  1
kg
  7
ARIAL
 72
1
 11
391.0
 21
101.39999999999999
 31
0.0
100
AcDbText
 73
1
  0
TEXT
  5
4D2
330
17
100
AcDbEntity
  8
TEXTO
100
AcDbText
 10
407.0
 20
101.39999999999999
 30
0.0
 40
3.0
  1
4.86
  7
ARIAL
 72
1
 11
407.0
 21
101.39999999999999
 31
0.0
100
AcDbText
 73
1
  0
LINE
  5
4D3
330
17
100
AcDbEntity
  8
MEMBRETE
100
AcDbLine
 10
292.0
 20
93.6
 30
0.0
 11
416.0
 21
93.6
 31
0.0
  0
TEXT
  5
4D4
330
17
100
AcDbEntity
  8
TEXTO
100
AcDbText
 10
293.5
 20
95.19999999999999
 30
0.0
 40
3.0
  1
Asas 3/8" liso (2 x 0.40 m)
  7
ARIAL
 11
293.5
 21
95.19999999999999
 31
0.0
100
AcDbText
  0
TEXT
  5
4D5
330
17
100
AcDbEntity
  8
TEXTO
100
AcDbText
 10
391.0
 20
95.19999999999999
 30
0.0
 40
3.0
  1
kg
  7
ARIAL
 72
1
 11
391.0
 21
95.19999999999999
 31
0.0
100
AcDbText
 73
1
  0
TEXT
  5
4D6
330
17
100
AcDbEntity
  8
TEXTO
100
AcDbText
 10
407.0
 20
95.19999999999999
 30
0.0
 40
3.0
  1
0.45
  7
ARIAL
 72
1
 11
407.0
 21
95.19999999999999
 31
0.0
100
AcDbText
 73
1
  0
LINE
  5
4D7
330
17
100
AcDbEntity
  8
MEMBRETE
100
AcDbLine
 10
292.0
 20
87.4
 30
0.0
 11
416.0
 21
87.4
 31
0.0
  0
TEXT
  5
4D8
330
17
100
AcDbEntity
  8
TEXTO
100
AcDbText
 10
293.5
 20
89.0
 30
0.0
 40
3.0
  1
Refuerzo de borde 1/2" (8 x 1.40 m)
  7
ARIAL
 11
293.5
 21
89.0
 31
0.0
100
AcDbText
  0
TEXT
  5
4D9
330
17
100
AcDbEntity
  8
TEXTO
100
AcDbText
 10
391.0
 20
89.0
 30
0.0
 40
3.0
  1
kg
  7
ARIAL
 72
1
 11
391.0
 21
89.0
 31
0.0
100
AcDbText
 73
1
  0
TEXT
  5
4DA
330
17
100
AcDbEntity
  8
TEXTO
100
AcDbText
 10
407.0
 20
89.0
 30
0.0
 40
3.0
  1
11.13
  7
ARIAL
 72
1
 11
407.0
 21
89.0
 31
0.0
100
AcDbText
 73
1
  0
LINE
  5
4DB
330
17
100
AcDbEntity
  8
MEMBRETE
100
AcDbLine
 10
292.0
 20
81.19999999999999
 30
0.0
 11
416.0
 21
81.19999999999999
 31
0.0
  0
TEXT
  5
4DC
330
17
100
AcDbEntity
  8
TEXTO
100
AcDbText
 10
293.5
 20
82.79999999999998
 30
0.0
 40
3.0
  1
Borde engrosado (3.00 x 0.15 x 0.10)
  7
ARIAL
 11
293.5
 21
82.79999999999998
 31
0.0
100
AcDbText
  0
TEXT
  5
4DD
330
17
100
AcDbEntity
  8
TEXTO
100
AcDbText
 10
391.0
 20
82.79999999999998
 30
0.0
 40
3.0
  1
m3
  7
ARIAL
 72
1
 11
391.0
 21
82.79999999999998
 31
0.0
100
AcDbText
 73
1
  0
TEXT
  5
4DE
330
17
100
AcDbEntity
  8
TEXTO
100
AcDbText
 10
407.0
 20
82.79999999999998
 30
0.0
 40
3.0
  1
0.045
  7
ARIAL
 72
1
 11
407.0
 21
82.79999999999998
 31
0.0
100
AcDbText
 73
1
  0
LINE
  5
4DF
330
17
100
AcDbEntity
  8
MEMBRETE
100
AcDbLine
 10
292.0
 20
75.0
 30
0.0
 11
416.0
 21
75.0
 31
0.0
  0
TEXT
  5
4E0
330
17
100
AcDbEntity
  8
TEXTO
100
AcDbText
 10
293.5
 20
76.6
 30
0.0
 40
3.0
  1
Pintura en angulos
  7
ARIAL
 11
293.5
 21
76.6
 31
0.0
100
AcDbText
  0
TEXT
  5
4E1
330
17
100
AcDbEntity
  8
TEXTO
100
AcDbText
 10
391.0
 20
76.6
 30
0.0
 40
3.0
  1
m2
  7
ARIAL
 72
1
 11
391.0
 21
76.6
 31
0.0
100
AcDbText
 73
1
  0
TEXT
  5
4E2
330
17
100
AcDbEntity
  8
TEXTO
100
AcDbText
 10
407.0
 20
76.6
 30
0.0
 40
3.0
  1
0.98
  7
ARIAL
 72
1
 11
407.0
 21
76.6
 31
0.0
100
AcDbText
 73
1
  0
LINE
  5
4E3
330
17
100
AcDbEntity
  8
MEMBRETE
100
AcDbLine
 10
384.0
 20
137.0
 30
0.0
 11
384.0
 21
75.0
 31
0.0
  0
LINE
  5
4E4
330
17
100
AcDbEntity
  8
MEMBRETE
100
AcDbLine
 10
398.0
 20
137.0
 30
0.0
 11
398.0
 21
75.0
 31
0.0
  0
TEXT
  5
4E5
330
17
100
AcDbEntity
  8
TEXTO
100
AcDbText
 10
292.0
 20
70.0
 30
0.0
 40
2.8
  1
Registros: Hogar de Refugio 10 - CAR Mujeres 15 - CAR Varones 11
  7
ARIAL
 11
292.0
 21
70.0
 31
0.0
100
AcDbText
  0
TEXT
  5
4E6
330
17
100
AcDbEntity
  8
TITULOS
100
AcDbText
 10
430.0
 20
142.0
 30
0.0
 40
4.5
  1
NOTAS
  7
ARIALB
 11
430.0
 21
142.0
 31
0.0
100
AcDbText
  0
TEXT
  5
4E7
330
17
100
AcDbEntity
  8
TEXTO
100
AcDbText
 10
430.0
 20
135.0
 30
0.0
 40
3.0
  1
1. Concreto f'c=210 kg/cm2 en losa, borde engrosado y tapa. Acero fy=4200 kg/cm2; asas de 3/8" liso.
  7
ARIAL
 11
430.0
 21
135.0
 31
0.0
100
AcDbText
  0
TEXT
  5
4E8
330
17
100
AcDbEntity
  8
TEXTO
100
AcDbText
 10
430.0
 20
129.7
 30
0.0
 40
3.0
  1
2. Angulos ASTM A36; soldadura E6011 1/8" en esquinas (corte a 45 grados); anclajes soldados e inclinados hacia la losa.
  7
ARIAL
 11
430.0
 21
129.7
 31
0.0
100
AcDbText
  0
TEXT
  5
4E9
330
17
100
AcDbEntity
  8
TEXTO
100
AcDbText
 10
430.0
 20
124.4
 30
0.0
 40
3.0
  1
3. El contramarco se fija y nivela antes de vaciar la losa, con su ala horizontal (asiento) a 0.08 bajo el NPT.
  7
ARIAL
 11
430.0
 21
124.4
 31
0.0
100
AcDbText
  0
TEXT
  5
4EA
330
17
100
AcDbEntity
  8
TEXTO
100
AcDbText
 10
430.0
 20
119.1
 30
0.0
 40
3.0
  1
4. El marco se fabrica primero y sirve de encofrado lateral de la tapa. Recubrimiento de la parrilla 2.5 cm.
  7
ARIAL
 11
430.0
 21
119.1
 31
0.0
100
AcDbText
  0
TEXT
  5
4EB
330
17
100
AcDbEntity
  8
TEXTO
100
AcDbText
 10
430.0
 20
113.8
 30
0.0
 40
3.0
  1
5. Holgura 1 cm por lado entre la tapa (0.68) y la abertura (0.70); chaflan 1 x 1 cm en la arista superior.
  7
ARIAL
 11
430.0
 21
113.8
 31
0.0
100
AcDbText
  0
TEXT
  5
4EC
330
17
100
AcDbEntity
  8
TEXTO
100
AcDbText
 10
430.0
 20
108.5
 30
0.0
 40
3.0
  1
6. Angulos con 2 manos de pintura anticorrosiva y 2 manos de esmalte.
  7
ARIAL
 11
430.0
 21
108.5
 31
0.0
100
AcDbText
  0
TEXT
  5
4ED
330
17
100
AcDbEntity
  8
TEXTO
100
AcDbText
 10
430.0
 20
103.2
 30
0.0
 40
3.0
  1
7. Peso de la tapa aprox. 94 kg: se retira entre 2 operarios con ganchos en las asas.
  7
ARIAL
 11
430.0
 21
103.2
 31
0.0
100
AcDbText
  0
TEXT
  5
4EE
330
17
100
AcDbEntity
  8
TEXTO
100
AcDbText
 10
430.0
 20
97.9
 30
0.0
 40
3.0
  1
8. Los registros no se ubican dentro de los cruces vehiculares.
  7
ARIAL
 11
430.0
 21
97.9
 31
0.0
100
AcDbText
  0
LWPOLYLINE
  5
4EF
330
17
100
AcDbEntity
  8
MEMBRETE
370
50
100
AcDbPolyline
 90
4
 70
1
 10
590.0
 20
12.0
 10
829.0
 20
12.0
 10
829.0
 20
90.0
 10
590.0
 20
90.0
  0
LINE
  5
4F0
330
17
100
AcDbEntity
  8
MEMBRETE
100
AcDbLine
 10
590.0
 20
70.0
 30
0.0
 11
829.0
 21
70.0
 31
0.0
  0
LINE
  5
4F1
330
17
100
AcDbEntity
  8
MEMBRETE
100
AcDbLine
 10
590.0
 20
54.0
 30
0.0
 11
829.0
 21
54.0
 31
0.0
  0
LINE
  5
4F2
330
17
100
AcDbEntity
  8
MEMBRETE
100
AcDbLine
 10
590.0
 20
36.0
 30
0.0
 11
829.0
 21
36.0
 31
0.0
  0
LINE
  5
4F3
330
17
100
AcDbEntity
  8
MEMBRETE
100
AcDbLine
 10
590.0
 20
24.0
 30
0.0
 11
829.0
 21
24.0
 31
0.0
  0
LINE
  5
4F4
330
17
100
AcDbEntity
  8
MEMBRETE
100
AcDbLine
 10
740.0
 20
12.0
 30
0.0
 11
740.0
 21
36.0
 31
0.0
  0
MTEXT
  5
4F5
330
17
100
AcDbEntity
  8
TEXTO
100
AcDbMText
 10
592.0
 20
88.5
 30
0.0
 40
2.5
 41
232.0
 71
1
  1
PROYECTO: CREACION DEL SERVICIO DE ATENCION INTEGRAL A MUJERES VICTIMAS DE VIOLENCIA EN EL HOGAR DE REFUGIO TEMPORAL MUJERES VIOLENTADAS, DISTRITO DE MORALES, PROVINCIA Y DEPARTAMENTO DE SAN MARTIN - CUI N. 2675514
  7
ARIAL
  0
MTEXT
  5
4F6
330
17
100
AcDbEntity
  8
TEXTO
100
AcDbMText
 10
592.0
 20
68.0
 30
0.0
 40
2.5
 41
232.0
 71
1
  1
ENTIDAD: GERENCIA TERRITORIAL BAJO MAYO - TARAPOTO\PUBICACION: PREDIO RURAL LOS MANGOS - MORALES - SAN MARTIN\PESPECIALIDAD: INSTALACIONES SANITARIAS - DRENAJE PLUVIAL
  7
ARIAL
  0
TEXT
  5
4F7
330
17
100
AcDbEntity
  8
TEXTO
100
AcDbText
 10
592.0
 20
46.0
 30
0.0
 40
3.4
  1
PLANO: DETALLE DE REGISTRO DE LIMPIEZA - TAPA 0.68 x 0.68
  7
ARIALB
 11
592.0
 21
46.0
 31
0.0
100
AcDbText
  0
TEXT
  5
4F8
330
17
100
AcDbEntity
  8
TEXTO
100
AcDbText
 10
592.0
 20
40.0
 30
0.0
 40
3.4
  1
C/MARCO Y CONTRAMARCO (ASIENTO), ANCLAJES Y REFUERZO DE BORDE
  7
ARIALB
 11
592.0
 21
40.0
 31
0.0
100
AcDbText
  0
TEXT
  5
4F9
330
17
100
AcDbEntity
  8
TEXTO
100
AcDbText
 10
592.0
 20
28.0
 30
0.0
 40
2.6
  1
ELABORADO: HIDROCONSULT        PROYECTISTA: ________________  CIP: ______
  7
ARIAL
 11
592.0
 21
28.0
 31
0.0
100
AcDbText
  0
TEXT
  5
4FA
330
17
100
AcDbEntity
  8
TEXTO
100
AcDbText
 10
592.0
 20
16.0
 30
0.0
 40
2.6
  1
REVISADO: ________________        FIRMA Y SELLO:
  7
ARIAL
 11
592.0
 21
16.0
 31
0.0
100
AcDbText
  0
TEXT
  5
4FB
330
17
100
AcDbEntity
  8
TEXTO
100
AcDbText
 10
743.0
 20
28.0
 30
0.0
 40
2.6
  1
ESCALA: INDICADA   FECHA: OCT. 2026
  7
ARIAL
 11
743.0
 21
28.0
 31
0.0
100
AcDbText
  0
TEXT
  5
4FC
330
17
100
AcDbEntity
  8
TEXTO
100
AcDbText
 10
743.0
 20
16.0
 30
0.0
 40
2.6
  1
REVISION: 01
  7
ARIAL
 11
743.0
 21
16.0
 31
0.0
100
AcDbText
  0
TEXT
  5
4FD
330
17
100
AcDbEntity
  8
TITULOS
100
AcDbText
 10
825.0
 20
15.0
 30
0.0
 40
9.0
  1
DP-06B
  7
ARIALB
 72
2
 11
825.0
 21
15.0
 31
0.0
100
AcDbText
 73
1
  0
TEXT
  5
4FE
330
17
100
AcDbEntity
  8
TITULOS
100
AcDbText
 10
292.0
 20
42.0
 30
0.0
 40
3.5
  1
LEYENDA
  7
ARIALB
 11
292.0
 21
42.0
 31
0.0
100
AcDbText
  0
HATCH
  5
4FF
330
17
100
AcDbEntity
  8
TEXTO
 62
253
100
AcDbHatch
 10
0.0
 20
0.0
 30
0.0
210
0.0
220
0.0
230
1.0
  2
SOLID
 70
1
 71
0
 91
1
 92
3
 72
0
 73
1
 93
4
 10
292.0
 20
34.0
 10
300.0
 20
34.0
 10
300.0
 20
38.0
 10
292.0
 20
38.0
 97
0
 75
0
 76
1
 98
0
  0
TEXT
  5
500
330
17
100
AcDbEntity
  8
TEXTO
100
AcDbText
 10
303.0
 20
34.0
 30
0.0
 40
3.0
  1
Concreto
  7
ARIAL
 11
303.0
 21
34.0
 31
0.0
100
AcDbText
  0
HATCH
  5
501
330
17
100
AcDbEntity
  8
TEXTO
 62
5
100
AcDbHatch
 10
0.0
 20
0.0
 30
0.0
210
0.0
220
0.0
230
1.0
  2
SOLID
 70
1
 71
0
 91
1
 92
3
 72
0
 73
1
 93
4
 10
352.0
 20
34.0
 10
360.0
 20
34.0
 10
360.0
 20
38.0
 10
352.0
 20
38.0
 97
0
 75
0
 76
1
 98
0
  0
TEXT
  5
502
330
17
100
AcDbEntity
  8
TEXTO
100
AcDbText
 10
363.0
 20
34.0
 30
0.0
 40
3.0
  1
Angulos
  7
ARIAL
 11
363.0
 21
34.0
 31
0.0
100
AcDbText
  0
HATCH
  5
503
330
17
100
AcDbEntity
  8
TEXTO
 62
1
100
AcDbHatch
 10
0.0
 20
0.0
 30
0.0
210
0.0
220
0.0
230
1.0
  2
SOLID
 70
1
 71
0
 91
1
 92
3
 72
0
 73
1
 93
4
 10
292.0
 20
26.0
 10
300.0
 20
26.0
 10
300.0
 20
30.0
 10
292.0
 20
30.0
 97
0
 75
0
 76
1
 98
0
  0
TEXT
  5
504
330
17
100
AcDbEntity
  8
TEXTO
100
AcDbText
 10
303.0
 20
26.0
 30
0.0
 40
3.0
  1
Acero corrugado
  7
ARIAL
 11
303.0
 21
26.0
 31
0.0
100
AcDbText
  0
HATCH
  5
505
330
17
100
AcDbEntity
  8
TEXTO
 62
30
100
AcDbHatch
 10
0.0
 20
0.0
 30
0.0
210
0.0
220
0.0
230
1.0
  2
SOLID
 70
1
 71
0
 91
1
 92
3
 72
0
 73
1
 93
4
 10
352.0
 20
26.0
 10
360.0
 20
26.0
 10
360.0
 20
30.0
 10
352.0
 20
30.0
 97
0
 75
0
 76
1
 98
0
  0
TEXT
  5
506
330
17
100
AcDbEntity
  8
TEXTO
100
AcDbText
 10
363.0
 20
26.0
 30
0.0
 40
3.0
  1
Acero liso (asas)
  7
ARIAL
 11
363.0
 21
26.0
 31
0.0
100
AcDbText
  0
ENDSEC
  0
SECTION
  2
OBJECTS
  0
DICTIONARY
  5
A
330
0
100
AcDbDictionary
281
1
  3
ACAD_COLOR
350
B
  3
ACAD_GROUP
350
C
  3
ACAD_LAYOUT
350
D
  3
ACAD_MATERIAL
350
E
  3
ACAD_MLEADERSTYLE
350
F
  3
ACAD_MLINESTYLE
350
10
  3
ACAD_PLOTSETTINGS
350
11
  3
ACAD_PLOTSTYLENAME
350
12
  3
ACAD_SCALELIST
350
14
  3
ACAD_TABLESTYLE
350
15
  3
ACAD_VISUALSTYLE
350
16
  3
EZDXF_META
350
2D
  0
DICTIONARY
  5
B
330
A
100
AcDbDictionary
281
1
  0
DICTIONARY
  5
C
330
A
100
AcDbDictionary
281
1
  0
DICTIONARY
  5
D
330
A
100
AcDbDictionary
281
1
  3
Model
350
1A
  3
Layout1
350
1E
  0
DICTIONARY
  5
E
330
A
100
AcDbDictionary
281
1
  3
ByBlock
350
1F
  3
ByLayer
350
20
  3
Global
350
21
  0
DICTIONARY
  5
F
330
A
100
AcDbDictionary
281
1
  3
Standard
350
2C
  0
DICTIONARY
  5
10
330
A
100
AcDbDictionary
281
1
  3
Standard
350
22
  0
DICTIONARY
  5
11
330
A
100
AcDbDictionary
281
1
  0
ACDBDICTIONARYWDFLT
  5
12
330
A
100
AcDbDictionary
281
1
  3
Normal
350
13
100
AcDbDictionaryWithDefault
340
13
  0
ACDBPLACEHOLDER
  5
13
330
12
  0
DICTIONARY
  5
14
330
A
100
AcDbDictionary
281
1
  0
DICTIONARY
  5
15
330
A
100
AcDbDictionary
281
1
  0
DICTIONARY
  5
16
330
A
100
AcDbDictionary
281
1
  3
2dWireframe
350
5A
  3
Basic
350
5B
  3
Brighten
350
5C
  3
ColorChange
350
5D
  3
Conceptual
350
5E
  3
Dim
350
5F
  3
EdgeColorOff
350
60
  3
Facepattern
350
61
  3
Flat
350
62
  3
FlatWithEdges
350
63
  3
Gouraud
350
64
  3
GouraudWithEdges
350
65
  3
Hidden
350
66
  3
JitterOff
350
67
  3
Linepattern
350
68
  3
Modeling
350
69
  3
OverhangOff
350
6A
  3
Realistic
350
6B
  3
Shaded
350
6C
  3
Shaded with edges
350
6D
  3
Shades of Gray
350
6E
  3
Sketchy
350
6F
  3
Thicken
350
70
  3
Wireframe
350
71
  3
X-Ray
350
72
  0
LAYOUT
  5
1A
330
D
100
AcDbPlotSettings
  1

  4
A3
  6

 40
7.5
 41
20.0
 42
7.5
 43
20.0
 44
420.0
 45
297.0
 46
0.0
 47
0.0
 48
0.0
 49
0.0
140
0.0
141
0.0
142
1.0
143
1.0
 70
1024
 72
1
 73
0
 74
5
  7

 75
16
 76
0
 77
2
 78
300
147
1.0
148
0.0
149
0.0
100
AcDbLayout
  1
Model
 70
1
 71
0
 10
0.0
 20
0.0
 11
420.0
 21
297.0
 12
0.0
 22
0.0
 32
0.0
 14
1e+20
 24
1e+20
 34
1e+20
 15
-1e+20
 25
-1e+20
 35
-1e+20
146
0.0
 13
0.0
 23
0.0
 33
0.0
 16
1.0
 26
0.0
 36
0.0
 17
0.0
 27
1.0
 37
0.0
 76
1
330
17
  0
LAYOUT
  5
1E
330
D
100
AcDbPlotSettings
  1

  4
A3
  6

 40
7.5
 41
20.0
 42
7.5
 43
20.0
 44
420.0
 45
297.0
 46
0.0
 47
0.0
 48
0.0
 49
0.0
140
0.0
141
0.0
142
1.0
143
1.0
 70
0
 72
1
 73
0
 74
5
  7

 75
16
 76
0
 77
2
 78
300
147
1.0
148
0.0
149
0.0
100
AcDbLayout
  1
Layout1
 70
1
 71
1
 10
0.0
 20
0.0
 11
420.0
 21
297.0
 12
0.0
 22
0.0
 32
0.0
 14
1e+20
 24
1e+20
 34
1e+20
 15
-1e+20
 25
-1e+20
 35
-1e+20
146
0.0
 13
0.0
 23
0.0
 33
0.0
 16
1.0
 26
0.0
 36
0.0
 17
0.0
 27
1.0
 37
0.0
 76
1
330
1B
  0
MATERIAL
  5
1F
102
{ACAD_REACTORS
330
E
102
}
330
E
100
AcDbMaterial
  1
ByBlock
  2

 70
0
 40
1.0
 71
1
 41
1.0
 91
-1023410177
 42
1.0
 72
1
  3

 73
1
 74
1
 75
1
 44
0.5
 73
0
 45
1.0
 46
1.0
 77
1
  4

 78
1
 79
1
170
1
 48
1.0
171
1
  6

172
1
173
1
174
1
140
1.0
141
1.0
175
1
  7

176
1
177
1
178
1
143
1.0
179
1
  8

270
1
271
1
272
1
145
1.0
146
1.0
273
1
  9

274
1
275
1
276
1
 42
1.0
 72
1
  3

 73
1
 74
1
 75
1
 94
63
  0
MATERIAL
  5
20
102
{ACAD_REACTORS
330
E
102
}
330
E
100
AcDbMaterial
  1
ByLayer
  2

 70
0
 40
1.0
 71
1
 41
1.0
 91
-1023410177
 42
1.0
 72
1
  3

 73
1
 74
1
 75
1
 44
0.5
 73
0
 45
1.0
 46
1.0
 77
1
  4

 78
1
 79
1
170
1
 48
1.0
171
1
  6

172
1
173
1
174
1
140
1.0
141
1.0
175
1
  7

176
1
177
1
178
1
143
1.0
179
1
  8

270
1
271
1
272
1
145
1.0
146
1.0
273
1
  9

274
1
275
1
276
1
 42
1.0
 72
1
  3

 73
1
 74
1
 75
1
 94
63
  0
MATERIAL
  5
21
102
{ACAD_REACTORS
330
E
102
}
330
E
100
AcDbMaterial
  1
Global
  2

 70
0
 40
1.0
 71
1
 41
1.0
 91
-1023410177
 42
1.0
 72
1
  3

 73
1
 74
1
 75
1
 44
0.5
 73
0
 45
1.0
 46
1.0
 77
1
  4

 78
1
 79
1
170
1
 48
1.0
171
1
  6

172
1
173
1
174
1
140
1.0
141
1.0
175
1
  7

176
1
177
1
178
1
143
1.0
179
1
  8

270
1
271
1
272
1
145
1.0
146
1.0
273
1
  9

274
1
275
1
276
1
 42
1.0
 72
1
  3

 73
1
 74
1
 75
1
 94
63
  0
MLINESTYLE
  5
22
102
{ACAD_REACTORS
330
10
102
}
330
10
100
AcDbMlineStyle
  2
Standard
 70
0
  3

 62
256
 51
90.0
 52
90.0
 71
2
 49
0.5
 62
256
  6
BYLAYER
 49
-0.5
 62
256
  6
BYLAYER
  0
MLEADERSTYLE
  5
2C
102
{ACAD_REACTORS
330
F
102
}
330
F
100
AcDbMLeaderStyle
179
2
170
2
171
1
172
0
 90
2
 40
0.0
 41
0.0
173
1
 91
-1056964608
 92
-2
290
1
 42
2.0
291
1
 43
8.0
  3
Standard
 44
4.0
300

342
29
174
1
175
1
176
0
178
1
 93
-1056964608
 45
4.0
292
0
297
0
 46
4.0
 94
-1056964608
 47
1.0
 49
1.0
140
1.0
294
1
141
0.0
177
0
142
1.0
295
0
296
0
143
3.75
271
0
272
9
273
9
  0
DICTIONARY
  5
2D
330
A
100
AcDbDictionary
280
1
281
1
  3
CREATED_BY_EZDXF
350
2E
  3
WRITTEN_BY_EZDXF
350
509
  0
DICTIONARYVAR
  5
2E
330
2D
100
DictionaryVariables
280
0
  1
1.4.4 @ 2026-10-07T01:24:51.094921+00:00
  0
VISUALSTYLE
  5
5A
102
{ACAD_REACTORS
330
16
102
}
330
16
100
AcDbVisualStyle
  2
2dWireframe
 70
4
 90
0
 40
0.6
 62
7
290
0
291
0
  0
VISUALSTYLE
  5
5B
102
{ACAD_REACTORS
330
16
102
}
330
16
100
AcDbVisualStyle
  2
Basic
 70
7
 90
1
 40
0.6
 62
7
290
0
291
1
  0
VISUALSTYLE
  5
5C
102
{ACAD_REACTORS
330
16
102
}
330
16
100
AcDbVisualStyle
  2
Brighten
 70
12
 90
2
 40
0.6
 62
7
290
0
291
1
  0
VISUALSTYLE
  5
5D
102
{ACAD_REACTORS
330
16
102
}
330
16
100
AcDbVisualStyle
  2
ColorChange
 70
16
 90
2
 40
0.6
 62
8
290
0
291
1
  0
VISUALSTYLE
  5
5E
102
{ACAD_REACTORS
330
16
102
}
330
16
100
AcDbVisualStyle
  2
Conceptual
 70
9
 90
3
 40
0.6
 62
7
290
0
291
0
  0
VISUALSTYLE
  5
5F
102
{ACAD_REACTORS
330
16
102
}
330
16
100
AcDbVisualStyle
  2
Dim
 70
11
 90
2
 40
0.6
 62
7
290
0
291
1
  0
VISUALSTYLE
  5
60
102
{ACAD_REACTORS
330
16
102
}
330
16
100
AcDbVisualStyle
  2
EdgeColorOff
 70
22
 90
2
 40
0.6
 62
7
290
0
291
1
  0
VISUALSTYLE
  5
61
102
{ACAD_REACTORS
330
16
102
}
330
16
100
AcDbVisualStyle
  2
Facepattern
 70
15
 90
2
 40
0.6
 62
7
290
0
291
1
  0
VISUALSTYLE
  5
62
102
{ACAD_REACTORS
330
16
102
}
330
16
100
AcDbVisualStyle
  2
Flat
 70
0
 90
2
 40
0.6
 62
7
290
0
291
1
  0
VISUALSTYLE
  5
63
102
{ACAD_REACTORS
330
16
102
}
330
16
100
AcDbVisualStyle
  2
FlatWithEdges
 70
1
 90
2
 40
0.6
 62
7
290
0
291
1
  0
VISUALSTYLE
  5
64
102
{ACAD_REACTORS
330
16
102
}
330
16
100
AcDbVisualStyle
  2
Gouraud
 70
2
 90
2
 40
0.6
 62
7
290
0
291
1
  0
VISUALSTYLE
  5
65
102
{ACAD_REACTORS
330
16
102
}
330
16
100
AcDbVisualStyle
  2
GouraudWithEdges
 70
3
 90
2
 40
0.6
 62
7
290
0
291
1
  0
VISUALSTYLE
  5
66
102
{ACAD_REACTORS
330
16
102
}
330
16
100
AcDbVisualStyle
  2
Hidden
 70
6
 90
1
 40
0.6
 62
7
290
0
291
0
  0
VISUALSTYLE
  5
67
102
{ACAD_REACTORS
330
16
102
}
330
16
100
AcDbVisualStyle
  2
JitterOff
 70
20
 90
2
 40
0.6
 62
7
290
0
291
1
  0
VISUALSTYLE
  5
68
102
{ACAD_REACTORS
330
16
102
}
330
16
100
AcDbVisualStyle
  2
Linepattern
 70
14
 90
2
 40
0.6
 62
7
290
0
291
1
  0
VISUALSTYLE
  5
69
102
{ACAD_REACTORS
330
16
102
}
330
16
100
AcDbVisualStyle
  2
Modeling
 70
10
 90
2
 40
0.6
 62
7
290
0
291
0
  0
VISUALSTYLE
  5
6A
102
{ACAD_REACTORS
330
16
102
}
330
16
100
AcDbVisualStyle
  2
OverhangOff
 70
21
 90
2
 40
0.6
 62
7
290
0
291
1
  0
VISUALSTYLE
  5
6B
102
{ACAD_REACTORS
330
16
102
}
330
16
100
AcDbVisualStyle
  2
Realistic
 70
8
 90
2
 40
0.6
 62
7
290
0
291
0
  0
VISUALSTYLE
  5
6C
102
{ACAD_REACTORS
330
16
102
}
330
16
100
AcDbVisualStyle
  2
Shaded
 70
27
 90
2
 40
0.6
 62
7
290
0
291
0
  0
VISUALSTYLE
  5
6D
102
{ACAD_REACTORS
330
16
102
}
330
16
100
AcDbVisualStyle
  2
Shaded with edges
 70
26
 90
2
 40
0.6
 62
7
290
0
291
0
  0
VISUALSTYLE
  5
6E
102
{ACAD_REACTORS
330
16
102
}
330
16
100
AcDbVisualStyle
  2
Shades of Gray
 70
23
 90
2
 40
0.6
 62
7
290
0
291
0
  0
VISUALSTYLE
  5
6F
102
{ACAD_REACTORS
330
16
102
}
330
16
100
AcDbVisualStyle
  2
Sketchy
 70
24
 90
1
 40
0.6
 62
7
290
0
291
0
  0
VISUALSTYLE
  5
70
102
{ACAD_REACTORS
330
16
102
}
330
16
100
AcDbVisualStyle
  2
Thicken
 70
13
 90
2
 40
0.6
 62
7
290
0
291
1
  0
VISUALSTYLE
  5
71
102
{ACAD_REACTORS
330
16
102
}
330
16
100
AcDbVisualStyle
  2
Wireframe
 70
5
 90
0
 40
0.6
 62
7
290
0
291
0
  0
VISUALSTYLE
  5
72
102
{ACAD_REACTORS
330
16
102
}
330
16
100
AcDbVisualStyle
  2
X-Ray
 70
25
 90
2
 40
0.5
 62
7
290
0
291
0
  0
DICTIONARYVAR
  5
509
330
2D
100
DictionaryVariables
280
0
  1
1.4.4 @ 2026-10-07T01:24:51.176655+00:00
  0
ENDSEC
  0
EOF
