  0
SECTION
  2
HEADER
  9
$ACADVER
  1
AC1024
  9
$ACADMAINTVER
 70
6
  9
$DWGCODEPAGE
  3
ANSI_1252
  9
$LASTSAVEDBY
  1
ezdxf
  9
$INSBASE
 10
0.0
 20
0.0
 30
0.0
  9
$EXTMIN
 10
1e+20
 20
1e+20
 30
1e+20
  9
$EXTMAX
 10
-1e+20
 20
-1e+20
 30
-1e+20
  9
$LIMMIN
 10
0.0
 20
0.0
  9
$LIMMAX
 10
420.0
 20
297.0
  9
$ORTHOMODE
 70
0
  9
$REGENMODE
 70
1
  9
$FILLMODE
 70
1
  9
$QTEXTMODE
 70
0
  9
$MIRRTEXT
 70
1
  9
$LTSCALE
 40
0.25
  9
$ATTMODE
 70
1
  9
$TEXTSIZE
 40
2.5
  9
$TRACEWID
 40
1.0
  9
$TEXTSTYLE
  7
Standard
  9
$CLAYER
  8
0
  9
$CELTYPE
  6
ByLayer
  9
$CECOLOR
 62
256
  9
$CELTSCALE
 40
1.0
  9
$DISPSILH
 70
0
  9
$DIMSCALE
 40
1.0
  9
$DIMASZ
 40
2.5
  9
$DIMEXO
 40
0.625
  9
$DIMDLI
 40
3.75
  9
$DIMRND
 40
0.0
  9
$DIMDLE
 40
0.0
  9
$DIMEXE
 40
1.25
  9
$DIMTP
 40
0.0
  9
$DIMTM
 40
0.0
  9
$DIMTXT
 40
2.5
  9
$DIMCEN
 40
2.5
  9
$DIMTSZ
 40
0.0
  9
$DIMTOL
 70
0
  9
$DIMLIM
 70
0
  9
$DIMTIH
 70
0
  9
$DIMTOH
 70
0
  9
$DIMSE1
 70
0
  9
$DIMSE2
 70
0
  9
$DIMTAD
 70
1
  9
$DIMZIN
 70
8
  9
$DIMBLK
  1

  9
$DIMASO
 70
1
  9
$DIMSHO
 70
1
  9
$DIMPOST
  1

  9
$DIMAPOST
  1

  9
$DIMALT
 70
0
  9
$DIMALTD
 70
3
  9
$DIMALTF
 40
0.03937007874
  9
$DIMLFAC
 40
1.0
  9
$DIMTOFL
 70
1
  9
$DIMTVP
 40
0.0
  9
$DIMTIX
 70
0
  9
$DIMSOXD
 70
0
  9
$DIMSAH
 70
0
  9
$DIMBLK1
  1

  9
$DIMBLK2
  1

  9
$DIMSTYLE
  2
ISO-25
  9
$DIMCLRD
 70
0
  9
$DIMCLRE
 70
0
  9
$DIMCLRT
 70
0
  9
$DIMTFAC
 40
1.0
  9
$DIMGAP
 40
0.625
  9
$DIMJUST
 70
0
  9
$DIMSD1
 70
0
  9
$DIMSD2
 70
0
  9
$DIMTOLJ
 70
0
  9
$DIMTZIN
 70
8
  9
$DIMALTZ
 70
0
  9
$DIMALTTZ
 70
0
  9
$DIMUPT
 70
0
  9
$DIMDEC
 70
2
  9
$DIMTDEC
 70
2
  9
$DIMALTU
 70
2
  9
$DIMALTTD
 70
3
  9
$DIMTXSTY
  7
Standard
  9
$DIMAUNIT
 70
0
  9
$DIMADEC
 70
0
  9
$DIMALTRND
 40
0.0
  9
$DIMAZIN
 70
0
  9
$DIMDSEP
 70
44
  9
$DIMATFIT
 70
3
  9
$DIMFRAC
 70
0
  9
$DIMLDRBLK
  1

  9
$DIMLUNIT
 70
2
  9
$DIMLWD
 70
-2
  9
$DIMLWE
 70
-2
  9
$DIMTMOVE
 70
0
  9
$DIMFXL
 40
1.0
  9
$DIMFXLON
 70
0
  9
$DIMJOGANG
 40
0.785398163397
  9
$DIMTFILL
 70
0
  9
$DIMTFILLCLR
 70
0
  9
$DIMARCSYM
 70
0
  9
$DIMLTYPE
  6

  9
$DIMLTEX1
  6

  9
$DIMLTEX2
  6

  9
$DIMTXTDIRECTION
 70
0
  9
$LUNITS
 70
2
  9
$LUPREC
 70
2
  9
$SKETCHINC
 40
1.0
  9
$FILLETRAD
 40
10.0
  9
$AUNITS
 70
0
  9
$AUPREC
 70
2
  9
$MENU
  1
.
  9
$ELEVATION
 40
0.0
  9
$PELEVATION
 40
0.0
  9
$THICKNESS
 40
0.0
  9
$LIMCHECK
 70
0
  9
$CHAMFERA
 40
0.0
  9
$CHAMFERB
 40
0.0
  9
$CHAMFERC
 40
0.0
  9
$CHAMFERD
 40
0.0
  9
$SKPOLY
 70
0
  9
$TDCREATE
 40
2461323.6711921296
  9
$TDUCREATE
 40
2458532.153996898
  9
$TDUPDATE
 40
2461323.6712037036
  9
$TDUUPDATE
 40
2458532.1544311
  9
$TDINDWG
 40
0.0
  9
$TDUSRTIMER
 40
0.0
  9
$USRTIMER
 70
1
  9
$ANGBASE
 50
0.0
  9
$ANGDIR
 70
0
  9
$PDMODE
 70
0
  9
$PDSIZE
 40
0.0
  9
$PLINEWID
 40
0.0
  9
$SPLFRAME
 70
0
  9
$SPLINETYPE
 70
6
  9
$SPLINESEGS
 70
8
  9
$HANDSEED
  5
494
  9
$SURFTAB1
 70
6
  9
$SURFTAB2
 70
6
  9
$SURFTYPE
 70
6
  9
$SURFU
 70
6
  9
$SURFV
 70
6
  9
$UCSBASE
  2

  9
$UCSNAME
  2

  9
$UCSORG
 10
0.0
 20
0.0
 30
0.0
  9
$UCSXDIR
 10
1.0
 20
0.0
 30
0.0
  9
$UCSYDIR
 10
0.0
 20
1.0
 30
0.0
  9
$UCSORTHOREF
  2

  9
$UCSORTHOVIEW
 70
0
  9
$UCSORGTOP
 10
0.0
 20
0.0
 30
0.0
  9
$UCSORGBOTTOM
 10
0.0
 20
0.0
 30
0.0
  9
$UCSORGLEFT
 10
0.0
 20
0.0
 30
0.0
  9
$UCSORGRIGHT
 10
0.0
 20
0.0
 30
0.0
  9
$UCSORGFRONT
 10
0.0
 20
0.0
 30
0.0
  9
$UCSORGBACK
 10
0.0
 20
0.0
 30
0.0
  9
$PUCSBASE
  2

  9
$PUCSNAME
  2

  9
$PUCSORG
 10
0.0
 20
0.0
 30
0.0
  9
$PUCSXDIR
 10
1.0
 20
0.0
 30
0.0
  9
$PUCSYDIR
 10
0.0
 20
1.0
 30
0.0
  9
$PUCSORTHOREF
  2

  9
$PUCSORTHOVIEW
 70
0
  9
$PUCSORGTOP
 10
0.0
 20
0.0
 30
0.0
  9
$PUCSORGBOTTOM
 10
0.0
 20
0.0
 30
0.0
  9
$PUCSORGLEFT
 10
0.0
 20
0.0
 30
0.0
  9
$PUCSORGRIGHT
 10
0.0
 20
0.0
 30
0.0
  9
$PUCSORGFRONT
 10
0.0
 20
0.0
 30
0.0
  9
$PUCSORGBACK
 10
0.0
 20
0.0
 30
0.0
  9
$USERI1
 70
0
  9
$USERI2
 70
0
  9
$USERI3
 70
0
  9
$USERI4
 70
0
  9
$USERI5
 70
0
  9
$USERR1
 40
0.0
  9
$USERR2
 40
0.0
  9
$USERR3
 40
0.0
  9
$USERR4
 40
0.0
  9
$USERR5
 40
0.0
  9
$WORLDVIEW
 70
1
  9
$SHADEDGE
 70
3
  9
$SHADEDIF
 70
70
  9
$TILEMODE
 70
1
  9
$MAXACTVP
 70
64
  9
$PINSBASE
 10
0.0
 20
0.0
 30
0.0
  9
$PLIMCHECK
 70
0
  9
$PEXTMIN
 10
1e+20
 20
1e+20
 30
1e+20
  9
$PEXTMAX
 10
-1e+20
 20
-1e+20
 30
-1e+20
  9
$PLIMMIN
 10
-0.0
 20
-0.0
  9
$PLIMMAX
 10
841.0
 20
594.0
  9
$UNITMODE
 70
0
  9
$VISRETAIN
 70
1
  9
$PLINEGEN
 70
0
  9
$PSLTSCALE
 70
1
  9
$TREEDEPTH
 70
3020
  9
$CMLSTYLE
  2
Standard
  9
$CMLJUST
 70
0
  9
$CMLSCALE
 40
20.0
  9
$PROXYGRAPHICS
 70
1
  9
$MEASUREMENT
 70
1
  9
$CELWEIGHT
370
-1
  9
$ENDCAPS
280
0
  9
$JOINSTYLE
280
0
  9
$LWDISPLAY
290
0
  9
$INSUNITS
 70
6
  9
$HYPERLINKBASE
  1

  9
$STYLESHEET
  1

  9
$XEDIT
290
1
  9
$CEPSNTYPE
380
0
  9
$PSTYLEMODE
290
1
  9
$FINGERPRINTGUID
  2
{73CE8DC5-C878-45D5-9089-3A9058F0FA54}
  9
$VERSIONGUID
  2
{E0A3419E-E1AA-41B4-B2E2-38389B080060}
  9
$EXTNAMES
290
1
  9
$PSVPSCALE
 40
0.0
  9
$OLESTARTUP
290
0
  9
$SORTENTS
280
127
  9
$INDEXCTL
280
0
  9
$HIDETEXT
280
1
  9
$XCLIPFRAME
280
1
  9
$HALOGAP
280
0
  9
$OBSCOLOR
 70
257
  9
$OBSLTYPE
280
0
  9
$INTERSECTIONDISPLAY
280
0
  9
$INTERSECTIONCOLOR
 70
257
  9
$DIMASSOC
280
2
  9
$PROJECTNAME
  1

  9
$CAMERADISPLAY
290
0
  9
$LENSLENGTH
 40
50.0
  9
$CAMERAHEIGHT
 40
0.0
  9
$STEPSPERSEC
 40
24.0
  9
$STEPSIZE
 40
100.0
  9
$3DDWFPREC
 40
2.0
  9
$PSOLWIDTH
 40
0.005
  9
$PSOLHEIGHT
 40
0.08
  9
$LOFTANG1
 40
1.570796326795
  9
$LOFTANG2
 40
1.570796326795
  9
$LOFTMAG1
 40
0.0
  9
$LOFTMAG2
 40
0.0
  9
$LOFTPARAM
 70
7
  9
$LOFTNORMALS
280
1
  9
$LATITUDE
 40
37.795
  9
$LONGITUDE
 40
-122.394
  9
$NORTHDIRECTION
 40
0.0
  9
$TIMEZONE
 70
-8000
  9
$LIGHTGLYPHDISPLAY
280
1
  9
$TILEMODELIGHTSYNCH
280
1
  9
$CMATERIAL
347
20
  9
$SOLIDHIST
280
0
  9
$SHOWHIST
280
1
  9
$DWFFRAME
280
2
  9
$DGNFRAME
280
2
  9
$REALWORLDSCALE
290
1
  9
$INTERFERECOLOR
 62
256
  9
$CSHADOW
280
0
  9
$SHADOWPLANELOCATION
 40
0.0
  0
ENDSEC
  0
SECTION
  2
CLASSES
  0
CLASS
  1
ACDBDICTIONARYWDFLT
  2
AcDbDictionaryWithDefault
  3
ObjectDBX Classes
 90
0
 91
0
280
0
281
0
  0
CLASS
  1
SUN
  2
AcDbSun
  3
SCENEOE
 90
1153
 91
0
280
0
281
0
  0
CLASS
  1
VISUALSTYLE
  2
AcDbVisualStyle
  3
ObjectDBX Classes
 90
4095
 91
0
280
0
281
0
  0
CLASS
  1
MATERIAL
  2
AcDbMaterial
  3
ObjectDBX Classes
 90
1153
 91
0
280
0
281
0
  0
CLASS
  1
SCALE
  2
AcDbScale
  3
ObjectDBX Classes
 90
1153
 91
0
280
0
281
0
  0
CLASS
  1
TABLESTYLE
  2
AcDbTableStyle
  3
ObjectDBX Classes
 90
4095
 91
0
280
0
281
0
  0
CLASS
  1
MLEADERSTYLE
  2
AcDbMLeaderStyle
  3
ACDB_MLEADERSTYLE_CLASS
 90
4095
 91
0
280
0
281
0
  0
CLASS
  1
DICTIONARYVAR
  2
AcDbDictionaryVar
  3
ObjectDBX Classes
 90
0
 91
0
280
0
281
0
  0
CLASS
  1
CELLSTYLEMAP
  2
AcDbCellStyleMap
  3
ObjectDBX Classes
 90
1152
 91
0
280
0
281
0
  0
CLASS
  1
MENTALRAYRENDERSETTINGS
  2
AcDbMentalRayRenderSettings
  3
SCENEOE
 90
1024
 91
0
280
0
281
0
  0
CLASS
  1
ACDBDETAILVIEWSTYLE
  2
AcDbDetailViewStyle
  3
ObjectDBX Classes
 90
1025
 91
0
280
0
281
0
  0
CLASS
  1
ACDBSECTIONVIEWSTYLE
  2
AcDbSectionViewStyle
  3
ObjectDBX Classes
 90
1025
 91
0
280
0
281
0
  0
CLASS
  1
RASTERVARIABLES
  2
AcDbRasterVariables
  3
ISM
 90
0
 91
0
280
0
281
0
  0
CLASS
  1
LAYOUT
  2
AcDbLayout
  3
ObjectDBX Classes
 90
0
 91
0
280
0
281
0
  0
CLASS
  1
ACDBPLACEHOLDER
  2
AcDbPlaceHolder
  3
ObjectDBX Classes
 90
0
 91
0
280
0
281
0
  0
CLASS
  1
SORTENTSTABLE
  2
AcDbSortentsTable
  3
ObjectDBX Classes
 90
0
 91
0
280
0
281
0
  0
ENDSEC
  0
SECTION
  2
TABLES
  0
TABLE
  2
VPORT
  5
8
330
0
100
AcDbSymbolTable
 70
1
  0
VPORT
  5
23
330
8
100
AcDbSymbolTableRecord
100
AcDbViewportTableRecord
  2
*Active
 70
0
 10
0.0
 20
0.0
 11
1.0
 21
1.0
 12
0.0
 22
0.0
 13
0.0
 23
0.0
 14
0.5
 24
0.5
 15
0.5
 25
0.5
 16
0.0
 26
0.0
 36
1.0
 17
0.0
 27
0.0
 37
0.0
 40
1000.0
 41
1.34
 42
50.0
 43
0.0
 44
0.0
 50
0.0
 51
0.0
 71
0
 72
1000
 73
1
 74
3
 75
0
 76
0
 77
0
 78
0
281
0
 65
0
146
0.0
  0
ENDTAB
  0
TABLE
  2
LTYPE
  5
2
330
0
100
AcDbSymbolTable
 70
22
  0
LTYPE
  5
24
330
2
100
AcDbSymbolTableRecord
100
AcDbLinetypeTableRecord
  2
ByBlock
 70
0
  3

 72
65
 73
0
 40
0.0
  0
LTYPE
  5
25
330
2
100
AcDbSymbolTableRecord
100
AcDbLinetypeTableRecord
  2
ByLayer
 70
0
  3

 72
65
 73
0
 40
0.0
  0
LTYPE
  5
26
330
2
100
AcDbSymbolTableRecord
100
AcDbLinetypeTableRecord
  2
Continuous
 70
0
  3

 72
65
 73
0
 40
0.0
  0
LTYPE
  5
2F
330
2
100
AcDbSymbolTableRecord
100
AcDbLinetypeTableRecord
  2
CENTER
 70
0
  3
Center ____ _ ____ _ ____ _ ____ _ ____ _ ____
 72
65
 73
4
 40
5.08
 49
3.175
 74
0
 49
-0.635
 74
0
 49
0.635
 74
0
 49
-0.635
 74
0
  0
LTYPE
  5
30
330
2
100
AcDbSymbolTableRecord
100
AcDbLinetypeTableRecord
  2
CENTERX2
 70
0
  3
Center (2x) ________  __  ________  __  ________
 72
65
 73
4
 40
8.89
 49
6.35
 74
0
 49
-0.635
 74
0
 49
1.27
 74
0
 49
-0.635
 74
0
  0
LTYPE
  5
31
330
2
100
AcDbSymbolTableRecord
100
AcDbLinetypeTableRecord
  2
CENTER2
 70
0
  3
Center (.5x) ____ _ ____ _ ____ _ ____ _ ____
 72
65
 73
4
 40
2.54
 49
1.587
 74
0
 49
-0.318
 74
0
 49
0.318
 74
0
 49
-0.318
 74
0
  0
LTYPE
  5
32
330
2
100
AcDbSymbolTableRecord
100
AcDbLinetypeTableRecord
  2
DASHED
 70
0
  3
Dashed __ __ __ __ __ __ __ __ __ __ __ __ __ _
 72
65
 73
2
 40
1.524
 49
1.27
 74
0
 49
-0.254
 74
0
  0
LTYPE
  5
33
330
2
100
AcDbSymbolTableRecord
100
AcDbLinetypeTableRecord
  2
DASHEDX2
 70
0
  3
Dashed (2x) ____  ____  ____  ____  ____  ____
 72
65
 73
2
 40
3.048
 49
2.54
 74
0
 49
-0.508
 74
0
  0
LTYPE
  5
34
330
2
100
AcDbSymbolTableRecord
100
AcDbLinetypeTableRecord
  2
DASHED2
 70
0
  3
Dashed (.5x) _ _ _ _ _ _ _ _ _ _ _ _ _ _
 72
65
 73
2
 40
0.762
 49
0.635
 74
0
 49
-0.127
 74
0
  0
LTYPE
  5
35
330
2
100
AcDbSymbolTableRecord
100
AcDbLinetypeTableRecord
  2
PHANTOM
 70
0
  3
Phantom ______  __  __  ______  __  __  ______
 72
65
 73
6
 40
6.35
 49
3.175
 74
0
 49
-0.635
 74
0
 49
0.635
 74
0
 49
-0.635
 74
0
 49
0.635
 74
0
 49
-0.635
 74
0
  0
LTYPE
  5
36
330
2
100
AcDbSymbolTableRecord
100
AcDbLinetypeTableRecord
  2
PHANTOMX2
 70
0
  3
Phantom (2x)____________    ____    ____    ____________
 72
65
 73
6
 40
10.795
 49
6.35
 74
0
 49
-0.635
 74
0
 49
1.27
 74
0
 49
-0.635
 74
0
 49
1.27
 74
0
 49
-0.635
 74
0
  0
LTYPE
  5
37
330
2
100
AcDbSymbolTableRecord
100
AcDbLinetypeTableRecord
  2
PHANTOM2
 70
0
  3
Phantom (.5x) ___ _ _ ___ _ _ ___ _ _ ___ _ _ ___
 72
65
 73
6
 40
3.175
 49
1.587
 74
0
 49
-0.318
 74
0
 49
0.318
 74
0
 49
-0.318
 74
0
 49
0.318
 74
0
 49
-0.318
 74
0
  0
LTYPE
  5
38
330
2
100
AcDbSymbolTableRecord
100
AcDbLinetypeTableRecord
  2
DASHDOT
 70
0
  3
Dash dot __ . __ . __ . __ . __ . __ . __ . __
 72
65
 73
4
 40
3.556
 49
2.54
 74
0
 49
-0.508
 74
0
 49
0.0
 74
0
 49
-0.508
 74
0
  0
LTYPE
  5
39
330
2
100
AcDbSymbolTableRecord
100
AcDbLinetypeTableRecord
  2
DASHDOTX2
 70
0
  3
Dash dot (2x) ____  .  ____  .  ____  .  ____
 72
65
 73
4
 40
6.096
 49
5.08
 74
0
 49
-0.508
 74
0
 49
0.0
 74
0
 49
-0.508
 74
0
  0
LTYPE
  5
3A
330
2
100
AcDbSymbolTableRecord
100
AcDbLinetypeTableRecord
  2
DASHDOT2
 70
0
  3
Dash dot (.5x) _ . _ . _ . _ . _ . _ . _ . _
 72
65
 73
4
 40
1.778
 49
1.27
 74
0
 49
-0.254
 74
0
 49
0.0
 74
0
 49
-0.254
 74
0
  0
LTYPE
  5
3B
330
2
100
AcDbSymbolTableRecord
100
AcDbLinetypeTableRecord
  2
DOT
 70
0
  3
Dot .  .  .  .  .  .  .  .  .  .  .  .  .  .  .  .
 72
65
 73
2
 40
0.508
 49
0.0
 74
0
 49
-0.508
 74
0
  0
LTYPE
  5
3C
330
2
100
AcDbSymbolTableRecord
100
AcDbLinetypeTableRecord
  2
DOTX2
 70
0
  3
Dot (2x) .    .    .    .    .    .    .    . 
 72
65
 73
2
 40
1.016
 49
0.0
 74
0
 49
-1.016
 74
0
  0
LTYPE
  5
3D
330
2
100
AcDbSymbolTableRecord
100
AcDbLinetypeTableRecord
  2
DOT2
 70
0
  3
Dot (.5) . . . . . . . . . . . . . . . . . . . 
 72
65
 73
2
 40
0.254
 49
0.0
 74
0
 49
-0.254
 74
0
  0
LTYPE
  5
3E
330
2
100
AcDbSymbolTableRecord
100
AcDbLinetypeTableRecord
  2
DIVIDE
 70
0
  3
Divide __ . . __ . . __ . . __ . . __ . . __
 72
65
 73
6
 40
4.064
 49
2.54
 74
0
 49
-0.508
 74
0
 49
0.0
 74
0
 49
-0.508
 74
0
 49
0.0
 74
0
 49
-0.508
 74
0
  0
LTYPE
  5
3F
330
2
100
AcDbSymbolTableRecord
100
AcDbLinetypeTableRecord
  2
DIVIDEX2
 70
0
  3
Divide (2x) ____  . .  ____  . .  ____  . .  ____
 72
65
 73
6
 40
6.604
 49
5.08
 74
0
 49
-0.508
 74
0
 49
0.0
 74
0
 49
-0.508
 74
0
 49
0.0
 74
0
 49
-0.508
 74
0
  0
LTYPE
  5
40
330
2
100
AcDbSymbolTableRecord
100
AcDbLinetypeTableRecord
  2
DIVIDE2
 70
0
  3
Divide(.5x) _ . _ . _ . _ . _ . _ . _ . _
 72
65
 73
6
 40
2.032
 49
1.27
 74
0
 49
-0.254
 74
0
 49
0.0
 74
0
 49
-0.254
 74
0
 49
0.0
 74
0
 49
-0.254
 74
0
  0
LTYPE
  5
41
330
2
100
AcDbSymbolTableRecord
100
AcDbLinetypeTableRecord
  2
HIDDEN
 70
0
  3
Hidden __ __ __ __ __ __ __ __ __ __ __ __ __ __
 72
65
 73
2
 40
0.375
 49
0.25
 74
0
 49
-0.125
 74
0
  0
ENDTAB
  0
TABLE
  2
LAYER
  5
1
330
0
100
AcDbSymbolTable
 70
63
  0
LAYER
  5
27
330
1
100
AcDbSymbolTableRecord
100
AcDbLayerTableRecord
  2
0
 70
0
 62
7
  6
Continuous
370
-3
390
13
347
21
  0
LAYER
  5
28
330
1
100
AcDbSymbolTableRecord
100
AcDbLayerTableRecord
  2
Defpoints
 70
0
 62
7
  6
Continuous
290
0
370
-3
390
13
347
21
  0
LAYER
  5
42
330
1
100
AcDbSymbolTableRecord
100
AcDbLayerTableRecord
  2
MARCO
 70
0
 62
7
  6
CONTINUOUS
370
50
390
13
347
21
  0
LAYER
  5
43
330
1
100
AcDbSymbolTableRecord
100
AcDbLayerTableRecord
  2
ROTULO
 70
0
 62
7
  6
CONTINUOUS
370
35
390
13
347
21
  0
LAYER
  5
44
330
1
100
AcDbSymbolTableRecord
100
AcDbLayerTableRecord
  2
ROTULO-TEXTO
 70
0
 62
7
  6
CONTINUOUS
370
-3
390
13
347
21
  0
LAYER
  5
45
330
1
100
AcDbSymbolTableRecord
100
AcDbLayerTableRecord
  2
TITULOS
 70
0
 62
160
  6
CONTINUOUS
370
35
390
13
347
21
  0
LAYER
  5
46
330
1
100
AcDbSymbolTableRecord
100
AcDbLayerTableRecord
  2
TEXTOS
 70
0
 62
7
  6
CONTINUOUS
370
-3
390
13
347
21
  0
LAYER
  5
47
330
1
100
AcDbSymbolTableRecord
100
AcDbLayerTableRecord
  2
TEXTOS-NOTAS
 70
0
 62
7
  6
CONTINUOUS
370
-3
390
13
347
21
  0
LAYER
  5
48
330
1
100
AcDbSymbolTableRecord
100
AcDbLayerTableRecord
  2
LEYENDA
 70
0
 62
7
  6
CONTINUOUS
370
-3
390
13
347
21
  0
LAYER
  5
49
330
1
100
AcDbSymbolTableRecord
100
AcDbLayerTableRecord
  2
COTAS
 70
0
 62
94
  6
CONTINUOUS
370
18
390
13
347
21
  0
LAYER
  5
4A
330
1
100
AcDbSymbolTableRecord
100
AcDbLayerTableRecord
  2
NIVELES
 70
0
 62
7
  6
CONTINUOUS
370
-3
390
13
347
21
  0
LAYER
  5
4B
330
1
100
AcDbSymbolTableRecord
100
AcDbLayerTableRecord
  2
LLAMADAS
 70
0
 62
30
  6
CONTINUOUS
370
18
390
13
347
21
  0
LAYER
  5
4C
330
1
100
AcDbSymbolTableRecord
100
AcDbLayerTableRecord
  2
EJE-COLECTOR
 70
0
 62
1
  6
CENTER
370
18
390
13
347
21
  0
LAYER
  5
4D
330
1
100
AcDbSymbolTableRecord
100
AcDbLayerTableRecord
  2
CONCRETO
 70
0
 62
250
  6
CONTINUOUS
370
50
390
13
347
21
  0
LAYER
  5
4E
330
1
100
AcDbSymbolTableRecord
100
AcDbLayerTableRecord
  2
CONCRETO-OCULTO
 70
0
 62
8
  6
HIDDEN
370
25
390
13
347
21
  0
LAYER
  5
4F
330
1
100
AcDbSymbolTableRecord
100
AcDbLayerTableRecord
  2
CONCRETO-ACHURADO
 70
0
 62
8
420
14869218
  6
CONTINUOUS
370
-3
390
13
347
21
  0
LAYER
  5
50
330
1
100
AcDbSymbolTableRecord
100
AcDbLayerTableRecord
  2
SOLADO
 70
0
 62
8
  6
CONTINUOUS
370
-3
390
13
347
21
  0
LAYER
  5
51
330
1
100
AcDbSymbolTableRecord
100
AcDbLayerTableRecord
  2
ACERO
 70
0
 62
1
  6
CONTINUOUS
370
35
390
13
347
21
  0
LAYER
  5
52
330
1
100
AcDbSymbolTableRecord
100
AcDbLayerTableRecord
  2
ACERO-LONG
 70
0
 62
5
  6
CONTINUOUS
370
35
390
13
347
21
  0
LAYER
  5
53
330
1
100
AcDbSymbolTableRecord
100
AcDbLayerTableRecord
  2
ACERO-PUNTOS
 70
0
 62
5
  6
CONTINUOUS
370
-3
390
13
347
21
  0
LAYER
  5
54
330
1
100
AcDbSymbolTableRecord
100
AcDbLayerTableRecord
  2
REGISTRO
 70
0
 62
32
  6
CONTINUOUS
370
35
390
13
347
21
  0
LAYER
  5
55
330
1
100
AcDbSymbolTableRecord
100
AcDbLayerTableRecord
  2
REGISTRO-TAPA
 70
0
 62
30
  6
CONTINUOUS
370
18
390
13
347
21
  0
LAYER
  5
56
330
1
100
AcDbSymbolTableRecord
100
AcDbLayerTableRecord
  2
MARCO-METALICO
 70
0
 62
32
  6
CONTINUOUS
370
40
390
13
347
21
  0
LAYER
  5
57
330
1
100
AcDbSymbolTableRecord
100
AcDbLayerTableRecord
  2
JUNTAS
 70
0
 62
8
  6
DASHED
370
-3
390
13
347
21
  0
LAYER
  5
58
330
1
100
AcDbSymbolTableRecord
100
AcDbLayerTableRecord
  2
CRUCE-VEHICULAR
 70
0
 62
30
  6
CONTINUOUS
370
-3
390
13
347
21
  0
LAYER
  5
59
330
1
100
AcDbSymbolTableRecord
100
AcDbLayerTableRecord
  2
CUNETA
 70
0
 62
3
  6
CONTINUOUS
370
35
390
13
347
21
  0
LAYER
  5
5A
330
1
100
AcDbSymbolTableRecord
100
AcDbLayerTableRecord
  2
CUNETA-OCULTA
 70
0
 62
3
  6
HIDDEN
370
-3
390
13
347
21
  0
LAYER
  5
5B
330
1
100
AcDbSymbolTableRecord
100
AcDbLayerTableRecord
  2
POZA
 70
0
 62
34
  6
CONTINUOUS
370
35
390
13
347
21
  0
LAYER
  5
5C
330
1
100
AcDbSymbolTableRecord
100
AcDbLayerTableRecord
  2
TERRENO
 70
0
 62
7
  6
CONTINUOUS
370
30
390
13
347
21
  0
LAYER
  5
5D
330
1
100
AcDbSymbolTableRecord
100
AcDbLayerTableRecord
  2
TERRENO-EXISTENTE
 70
0
 62
8
  6
DASHED
370
-3
390
13
347
21
  0
LAYER
  5
5E
330
1
100
AcDbSymbolTableRecord
100
AcDbLayerTableRecord
  2
TERRENO-ACHURADO
 70
0
 62
8
  6
CONTINUOUS
370
-3
390
13
347
21
  0
LAYER
  5
5F
330
1
100
AcDbSymbolTableRecord
100
AcDbLayerTableRecord
  2
EXCAVACION
 70
0
 62
8
  6
HIDDEN
370
-3
390
13
347
21
  0
LAYER
  5
60
330
1
100
AcDbSymbolTableRecord
100
AcDbLayerTableRecord
  2
RELLENO
 70
0
 62
32
  6
CONTINUOUS
370
-3
390
13
347
21
  0
LAYER
  5
61
330
1
100
AcDbSymbolTableRecord
100
AcDbLayerTableRecord
  2
AGUA
 70
0
 62
150
  6
DASHED
370
25
390
13
347
21
  0
LAYER
  5
62
330
1
100
AcDbSymbolTableRecord
100
AcDbLayerTableRecord
  2
AGUA-SIMBOLO
 70
0
 62
150
  6
CONTINUOUS
370
-3
390
13
347
21
  0
LAYER
  5
63
330
1
100
AcDbSymbolTableRecord
100
AcDbLayerTableRecord
  2
AGUA-RELLENO
 70
0
 62
150
420
13493494
  6
CONTINUOUS
370
-3
390
13
347
21
  0
LAYER
  5
64
330
1
100
AcDbSymbolTableRecord
100
AcDbLayerTableRecord
  2
FLUJO
 70
0
 62
150
  6
CONTINUOUS
370
-3
390
13
347
21
  0
LAYER
  5
65
330
1
100
AcDbSymbolTableRecord
100
AcDbLayerTableRecord
  2
CORTES
 70
0
 62
6
  6
CONTINUOUS
370
50
390
13
347
21
  0
LAYER
  5
66
330
1
100
AcDbSymbolTableRecord
100
AcDbLayerTableRecord
  2
PROGRESIVAS
 70
0
 62
5
  6
CONTINUOUS
370
-3
390
13
347
21
  0
LAYER
  5
67
330
1
100
AcDbSymbolTableRecord
100
AcDbLayerTableRecord
  2
GRILLA
 70
0
 62
9
  6
CONTINUOUS
370
13
390
13
347
21
  0
LAYER
  5
68
330
1
100
AcDbSymbolTableRecord
100
AcDbLayerTableRecord
  2
GUITARRA
 70
0
 62
8
  6
CONTINUOUS
370
-3
390
13
347
21
  0
LAYER
  5
69
330
1
100
AcDbSymbolTableRecord
100
AcDbLayerTableRecord
  2
LINDERO
 70
0
 62
6
  6
PHANTOM
370
-3
390
13
347
21
  0
LAYER
  5
6A
330
1
100
AcDbSymbolTableRecord
100
AcDbLayerTableRecord
  2
CERCO
 70
0
 62
14
  6
CONTINUOUS
370
40
390
13
347
21
  0
LAYER
  5
6B
330
1
100
AcDbSymbolTableRecord
100
AcDbLayerTableRecord
  2
ARQ-BASE
 70
0
 62
8
  6
CONTINUOUS
370
13
390
13
347
21
  0
LAYER
  5
6C
330
1
100
AcDbSymbolTableRecord
100
AcDbLayerTableRecord
  2
ARQ-TEXTO
 70
0
 62
8
  6
CONTINUOUS
370
13
390
13
347
21
  0
LAYER
  5
6D
330
1
100
AcDbSymbolTableRecord
100
AcDbLayerTableRecord
  2
VIA
 70
0
 62
8
  6
CONTINUOUS
370
-3
390
13
347
21
  0
LAYER
  5
6E
330
1
100
AcDbSymbolTableRecord
100
AcDbLayerTableRecord
  2
ISO-CONCRETO-SUP
 70
0
 62
254
420
15263976
  6
CONTINUOUS
370
-3
390
13
347
21
  0
LAYER
  5
6F
330
1
100
AcDbSymbolTableRecord
100
AcDbLayerTableRecord
  2
ISO-CONCRETO-LAT1
 70
0
 62
253
420
13553358
  6
CONTINUOUS
370
-3
390
13
347
21
  0
LAYER
  5
70
330
1
100
AcDbSymbolTableRecord
100
AcDbLayerTableRecord
  2
ISO-CONCRETO-LAT2
 70
0
 62
252
420
11711154
  6
CONTINUOUS
370
-3
390
13
347
21
  0
LAYER
  5
71
330
1
100
AcDbSymbolTableRecord
100
AcDbLayerTableRecord
  2
ISO-TAPA
 70
0
 62
255
420
16315622
  6
CONTINUOUS
370
-3
390
13
347
21
  0
LAYER
  5
72
330
1
100
AcDbSymbolTableRecord
100
AcDbLayerTableRecord
  2
ISO-ARISTAS
 70
0
 62
8
  6
CONTINUOUS
370
-3
390
13
347
21
  0
LAYER
  5
73
330
1
100
AcDbSymbolTableRecord
100
AcDbLayerTableRecord
  2
ISO-AGUA
 70
0
 62
150
420
8568560
  6
CONTINUOUS
370
-3
390
13
347
21
  0
LAYER
  5
74
330
1
100
AcDbSymbolTableRecord
100
AcDbLayerTableRecord
  2
ISO-TERRENO
 70
0
 62
94
420
14082756
  6
CONTINUOUS
370
-3
390
13
347
21
  0
LAYER
  5
75
330
1
100
AcDbSymbolTableRecord
100
AcDbLayerTableRecord
  2
ISO-PIEDRA
 70
0
 62
34
420
12890258
  6
CONTINUOUS
370
-3
390
13
347
21
  0
LAYER
  5
76
330
1
100
AcDbSymbolTableRecord
100
AcDbLayerTableRecord
  2
ISO-CUNETA
 70
0
 62
94
420
11065000
  6
CONTINUOUS
370
-3
390
13
347
21
  0
LAYER
  5
77
330
1
100
AcDbSymbolTableRecord
100
AcDbLayerTableRecord
  2
ISO-CERCO
 70
0
 62
14
420
14862536
  6
CONTINUOUS
370
-3
390
13
347
21
  0
LAYER
  5
C0
330
1
100
AcDbSymbolTableRecord
100
AcDbLayerTableRecord
  2
PLANCHA-GALV
 70
0
 62
5
  6
CONTINUOUS
370
40
390
13
347
21
  0
LAYER
  5
C1
330
1
100
AcDbSymbolTableRecord
100
AcDbLayerTableRecord
  2
PLATINA
 70
0
 62
140
  6
CONTINUOUS
370
50
390
13
347
21
  0
LAYER
  5
C2
330
1
100
AcDbSymbolTableRecord
100
AcDbLayerTableRecord
  2
PERNOS
 70
0
 62
34
  6
CONTINUOUS
370
25
390
13
347
21
  0
LAYER
  5
C3
330
1
100
AcDbSymbolTableRecord
100
AcDbLayerTableRecord
  2
TUBERIA-PVC
 70
0
 62
3
  6
CONTINUOUS
370
35
390
13
347
21
  0
LAYER
  5
C4
330
1
100
AcDbSymbolTableRecord
100
AcDbLayerTableRecord
  2
TUBERIA-OCULTA
 70
0
 62
3
  6
HIDDEN
370
25
390
13
347
21
  0
LAYER
  5
C5
330
1
100
AcDbSymbolTableRecord
100
AcDbLayerTableRecord
  2
COBERTURA
 70
0
 62
8
  6
CONTINUOUS
370
30
390
13
347
21
  0
LAYER
  5
C6
330
1
100
AcDbSymbolTableRecord
100
AcDbLayerTableRecord
  2
MURO
 70
0
 62
8
  6
CONTINUOUS
370
25
390
13
347
21
  0
ENDTAB
  0
TABLE
  2
STYLE
  5
5
330
0
100
AcDbSymbolTable
 70
2
  0
STYLE
  5
29
330
5
100
AcDbSymbolTableRecord
100
AcDbTextStyleTableRecord
  2
Standard
 70
0
 40
0.0
 41
1.0
 50
0.0
 71
0
 42
2.5
  3
arial.ttf
  4

  0
STYLE
  5
78
330
5
100
AcDbSymbolTableRecord
100
AcDbTextStyleTableRecord
  2
TITULOS
 70
0
 40
0.0
 41
1.0
 50
0.0
 71
0
 42
2.5
  3
arialbd.ttf
  4

  0
ENDTAB
  0
TABLE
  2
VIEW
  5
7
330
0
100
AcDbSymbolTable
 70
0
  0
ENDTAB
  0
TABLE
  2
UCS
  5
6
330
0
100
AcDbSymbolTable
 70
0
  0
ENDTAB
  0
TABLE
  2
APPID
  5
3
330
0
100
AcDbSymbolTable
 70
3
  0
APPID
  5
2A
330
3
100
AcDbSymbolTableRecord
100
AcDbRegAppTableRecord
  2
ACAD
 70
0
  0
APPID
  5
491
330
3
100
AcDbSymbolTableRecord
100
AcDbRegAppTableRecord
  2
HATCHBACKGROUNDCOLOR
 70
0
  0
APPID
  5
492
330
3
100
AcDbSymbolTableRecord
100
AcDbRegAppTableRecord
  2
EZDXF
 70
0
  0
ENDTAB
  0
TABLE
  2
DIMSTYLE
  5
4
330
0
100
AcDbSymbolTable
 70
11
100
AcDbDimStyleTable
  0
DIMSTYLE
105
2B
330
4
100
AcDbSymbolTableRecord
100
AcDbDimStyleTableRecord
  2
Standard
 70
0
 40
1.0
 41
2.5
 42
0.625
 43
3.75
 44
1.25
 45
0.0
 46
0.0
 47
0.0
 48
0.0
 49
2.5
140
2.5
141
2.5
142
0.0
143
0.03937007874
144
1.0
145
0.0
146
1.0
147
0.625
148
0.0
 69
0
 70
0
 71
0
 72
0
 73
0
 74
0
 75
0
 76
0
 77
1
 78
8
 79
3
170
0
171
3
172
1
173
0
174
0
175
0
176
0
177
0
178
0
179
2
271
2
272
2
273
2
274
3
275
0
276
0
277
2
278
44
279
0
280
0
281
0
282
0
283
0
284
8
285
0
286
0
288
0
289
3
290
0
371
-2
372
-2
  0
DIMSTYLE
105
79
330
4
100
AcDbSymbolTableRecord
100
AcDbDimStyleTableRecord
  2
COT-10
 70
0
 40
0.01
 41
2.2
 42
1.2
 43
3.75
 44
1.6
 45
0.0
 46
0.0
 47
0.0
 48
0.0
 49
2.5
140
3.0
141
2.5
142
1.4
143
0.03937007874
144
1.0
145
0.0
146
1.0
147
1.0
148
0.0
 69
0
 70
0
 71
0
 72
0
 73
0
 74
0
 75
0
 76
0
 77
1
 78
0
 79
3
170
0
171
3
172
1
173
0
174
0
175
0
176
256
177
256
178
7
179
2
271
2
272
2
273
2
274
3
275
0
276
0
277
2
278
46
279
0
280
0
281
0
282
0
283
0
284
8
285
0
286
0
288
0
289
3
290
0
340
29
371
-2
372
-2
  0
DIMSTYLE
105
7A
330
4
100
AcDbSymbolTableRecord
100
AcDbDimStyleTableRecord
  2
COT-15
 70
0
 40
0.015
 41
2.2
 42
1.2
 43
3.75
 44
1.6
 45
0.0
 46
0.0
 47
0.0
 48
0.0
 49
2.5
140
3.0
141
2.5
142
1.4
143
0.03937007874
144
1.0
145
0.0
146
1.0
147
1.0
148
0.0
 69
0
 70
0
 71
0
 72
0
 73
0
 74
0
 75
0
 76
0
 77
1
 78
0
 79
3
170
0
171
3
172
1
173
0
174
0
175
0
176
256
177
256
178
7
179
2
271
2
272
2
273
2
274
3
275
0
276
0
277
2
278
46
279
0
280
0
281
0
282
0
283
0
284
8
285
0
286
0
288
0
289
3
290
0
340
29
371
-2
372
-2
  0
DIMSTYLE
105
7B
330
4
100
AcDbSymbolTableRecord
100
AcDbDimStyleTableRecord
  2
COT-20
 70
0
 40
0.02
 41
2.2
 42
1.2
 43
3.75
 44
1.6
 45
0.0
 46
0.0
 47
0.0
 48
0.0
 49
2.5
140
3.0
141
2.5
142
1.4
143
0.03937007874
144
1.0
145
0.0
146
1.0
147
1.0
148
0.0
 69
0
 70
0
 71
0
 72
0
 73
0
 74
0
 75
0
 76
0
 77
1
 78
0
 79
3
170
0
171
3
172
1
173
0
174
0
175
0
176
256
177
256
178
7
179
2
271
2
272
2
273
2
274
3
275
0
276
0
277
2
278
46
279
0
280
0
281
0
282
0
283
0
284
8
285
0
286
0
288
0
289
3
290
0
340
29
371
-2
372
-2
  0
DIMSTYLE
105
7C
330
4
100
AcDbSymbolTableRecord
100
AcDbDimStyleTableRecord
  2
COT-25
 70
0
 40
0.025
 41
2.2
 42
1.2
 43
3.75
 44
1.6
 45
0.0
 46
0.0
 47
0.0
 48
0.0
 49
2.5
140
3.0
141
2.5
142
1.4
143
0.03937007874
144
1.0
145
0.0
146
1.0
147
1.0
148
0.0
 69
0
 70
0
 71
0
 72
0
 73
0
 74
0
 75
0
 76
0
 77
1
 78
0
 79
3
170
0
171
3
172
1
173
0
174
0
175
0
176
256
177
256
178
7
179
2
271
2
272
2
273
2
274
3
275
0
276
0
277
2
278
46
279
0
280
0
281
0
282
0
283
0
284
8
285
0
286
0
288
0
289
3
290
0
340
29
371
-2
372
-2
  0
DIMSTYLE
105
7D
330
4
100
AcDbSymbolTableRecord
100
AcDbDimStyleTableRecord
  2
COT-50
 70
0
 40
0.05
 41
2.2
 42
1.2
 43
3.75
 44
1.6
 45
0.0
 46
0.0
 47
0.0
 48
0.0
 49
2.5
140
3.0
141
2.5
142
1.4
143
0.03937007874
144
1.0
145
0.0
146
1.0
147
1.0
148
0.0
 69
0
 70
0
 71
0
 72
0
 73
0
 74
0
 75
0
 76
0
 77
1
 78
0
 79
3
170
0
171
3
172
1
173
0
174
0
175
0
176
256
177
256
178
7
179
2
271
2
272
2
273
2
274
3
275
0
276
0
277
2
278
46
279
0
280
0
281
0
282
0
283
0
284
8
285
0
286
0
288
0
289
3
290
0
340
29
371
-2
372
-2
  0
DIMSTYLE
105
7E
330
4
100
AcDbSymbolTableRecord
100
AcDbDimStyleTableRecord
  2
COT-100
 70
0
 40
0.1
 41
2.2
 42
1.2
 43
3.75
 44
1.6
 45
0.0
 46
0.0
 47
0.0
 48
0.0
 49
2.5
140
3.0
141
2.5
142
1.4
143
0.03937007874
144
1.0
145
0.0
146
1.0
147
1.0
148
0.0
 69
0
 70
0
 71
0
 72
0
 73
0
 74
0
 75
0
 76
0
 77
1
 78
0
 79
3
170
0
171
3
172
1
173
0
174
0
175
0
176
256
177
256
178
7
179
2
271
2
272
2
273
2
274
3
275
0
276
0
277
2
278
46
279
0
280
0
281
0
282
0
283
0
284
8
285
0
286
0
288
0
289
3
290
0
340
29
371
-2
372
-2
  0
DIMSTYLE
105
7F
330
4
100
AcDbSymbolTableRecord
100
AcDbDimStyleTableRecord
  2
COT-175
 70
0
 40
0.175
 41
2.2
 42
1.2
 43
3.75
 44
1.6
 45
0.0
 46
0.0
 47
0.0
 48
0.0
 49
2.5
140
3.0
141
2.5
142
1.4
143
0.03937007874
144
1.0
145
0.0
146
1.0
147
1.0
148
0.0
 69
0
 70
0
 71
0
 72
0
 73
0
 74
0
 75
0
 76
0
 77
1
 78
0
 79
3
170
0
171
3
172
1
173
0
174
0
175
0
176
256
177
256
178
7
179
2
271
2
272
2
273
2
274
3
275
0
276
0
277
2
278
46
279
0
280
0
281
0
282
0
283
0
284
8
285
0
286
0
288
0
289
3
290
0
340
29
371
-2
372
-2
  0
DIMSTYLE
105
80
330
4
100
AcDbSymbolTableRecord
100
AcDbDimStyleTableRecord
  2
COT-200
 70
0
 40
0.2
 41
2.2
 42
1.2
 43
3.75
 44
1.6
 45
0.0
 46
0.0
 47
0.0
 48
0.0
 49
2.5
140
3.0
141
2.5
142
1.4
143
0.03937007874
144
1.0
145
0.0
146
1.0
147
1.0
148
0.0
 69
0
 70
0
 71
0
 72
0
 73
0
 74
0
 75
0
 76
0
 77
1
 78
0
 79
3
170
0
171
3
172
1
173
0
174
0
175
0
176
256
177
256
178
7
179
2
271
2
272
2
273
2
274
3
275
0
276
0
277
2
278
46
279
0
280
0
281
0
282
0
283
0
284
8
285
0
286
0
288
0
289
3
290
0
340
29
371
-2
372
-2
  0
DIMSTYLE
105
81
330
4
100
AcDbSymbolTableRecord
100
AcDbDimStyleTableRecord
  2
COT-250
 70
0
 40
0.25
 41
2.2
 42
1.2
 43
3.75
 44
1.6
 45
0.0
 46
0.0
 47
0.0
 48
0.0
 49
2.5
140
3.0
141
2.5
142
1.4
143
0.03937007874
144
1.0
145
0.0
146
1.0
147
1.0
148
0.0
 69
0
 70
0
 71
0
 72
0
 73
0
 74
0
 75
0
 76
0
 77
1
 78
0
 79
3
170
0
171
3
172
1
173
0
174
0
175
0
176
256
177
256
178
7
179
2
271
2
272
2
273
2
274
3
275
0
276
0
277
2
278
46
279
0
280
0
281
0
282
0
283
0
284
8
285
0
286
0
288
0
289
3
290
0
340
29
371
-2
372
-2
  0
DIMSTYLE
105
82
330
4
100
AcDbSymbolTableRecord
100
AcDbDimStyleTableRecord
  2
COT-5
 70
0
 40
0.005
 41
2.2
 42
1.2
 43
3.75
 44
1.6
 45
0.0
 46
0.0
 47
0.0
 48
0.0
 49
2.5
140
3.0
141
2.5
142
1.4
143
0.03937007874
144
1.0
145
0.0
146
1.0
147
1.0
148
0.0
 69
0
 70
0
 71
0
 72
0
 73
0
 74
0
 75
0
 76
0
 77
1
 78
0
 79
3
170
0
171
3
172
1
173
0
174
0
175
0
176
256
177
256
178
7
179
2
271
2
272
2
273
2
274
3
275
0
276
0
277
2
278
46
279
0
280
0
281
0
282
0
283
0
284
8
285
0
286
0
288
0
289
3
290
0
340
29
371
-2
372
-2
  0
ENDTAB
  0
TABLE
  2
BLOCK_RECORD
  5
9
330
0
100
AcDbSymbolTable
 70
46
  0
BLOCK_RECORD
  5
17
102
{ACAD_XDICTIONARY
360
483
102
}
330
9
100
AcDbSymbolTableRecord
100
AcDbBlockTableRecord
  2
*Model_Space
340
1A
 70
0
280
1
281
0
  0
BLOCK_RECORD
  5
83
330
9
100
AcDbSymbolTableRecord
100
AcDbBlockTableRecord
  2
SIMB-FLECHA
340
0
 70
0
280
1
281
0
  0
BLOCK_RECORD
  5
88
330
9
100
AcDbSymbolTableRecord
100
AcDbBlockTableRecord
  2
SIMB-NIVEL
340
0
 70
0
280
1
281
0
  0
BLOCK_RECORD
  5
8D
330
9
100
AcDbSymbolTableRecord
100
AcDbBlockTableRecord
  2
SIMB-AGUA
340
0
 70
0
280
1
281
0
  0
BLOCK_RECORD
  5
93
330
9
100
AcDbSymbolTableRecord
100
AcDbBlockTableRecord
  2
SIMB-CORTE
340
0
 70
0
280
1
281
0
  0
BLOCK_RECORD
  5
98
330
9
100
AcDbSymbolTableRecord
100
AcDbBlockTableRecord
  2
SIMB-NORTE
340
0
 70
0
280
1
281
0
  0
BLOCK_RECORD
  5
9F
330
9
100
AcDbSymbolTableRecord
100
AcDbBlockTableRecord
  2
ACERO-38
340
0
 70
0
280
1
281
0
  0
BLOCK_RECORD
  5
A4
330
9
100
AcDbSymbolTableRecord
100
AcDbBlockTableRecord
  2
ACERO-12
340
0
 70
0
280
1
281
0
  0
BLOCK_RECORD
  5
A9
330
9
100
AcDbSymbolTableRecord
100
AcDbBlockTableRecord
  2
REGISTRO-PLANTA
340
0
 70
0
280
1
281
0
  0
BLOCK_RECORD
  5
BB
330
9
100
AcDbSymbolTableRecord
100
AcDbBlockTableRecord
  2
SIMB-CUNETA-LLEGA
340
0
 70
0
280
1
281
0
  0
BLOCK_RECORD
  5
F8
330
9
100
AcDbSymbolTableRecord
100
AcDbBlockTableRecord
  2
*D1
340
0
 70
0
280
1
281
0
  0
BLOCK_RECORD
  5
FD
330
9
100
AcDbSymbolTableRecord
100
AcDbBlockTableRecord
  2
_OBLIQUE
340
0
 70
0
280
1
281
0
  0
BLOCK_RECORD
  5
10B
330
9
100
AcDbSymbolTableRecord
100
AcDbBlockTableRecord
  2
*D2
340
0
 70
0
280
1
281
0
  0
BLOCK_RECORD
  5
11A
330
9
100
AcDbSymbolTableRecord
100
AcDbBlockTableRecord
  2
*D3
340
0
 70
0
280
1
281
0
  0
BLOCK_RECORD
  5
129
330
9
100
AcDbSymbolTableRecord
100
AcDbBlockTableRecord
  2
*D4
340
0
 70
0
280
1
281
0
  0
BLOCK_RECORD
  5
138
330
9
100
AcDbSymbolTableRecord
100
AcDbBlockTableRecord
  2
*D5
340
0
 70
0
280
1
281
0
  0
BLOCK_RECORD
  5
174
330
9
100
AcDbSymbolTableRecord
100
AcDbBlockTableRecord
  2
*D6
340
0
 70
0
280
1
281
0
  0
BLOCK_RECORD
  5
183
330
9
100
AcDbSymbolTableRecord
100
AcDbBlockTableRecord
  2
*D7
340
0
 70
0
280
1
281
0
  0
BLOCK_RECORD
  5
192
330
9
100
AcDbSymbolTableRecord
100
AcDbBlockTableRecord
  2
*D8
340
0
 70
0
280
1
281
0
  0
BLOCK_RECORD
  5
1A1
330
9
100
AcDbSymbolTableRecord
100
AcDbBlockTableRecord
  2
*D9
340
0
 70
0
280
1
281
0
  0
BLOCK_RECORD
  5
1B0
330
9
100
AcDbSymbolTableRecord
100
AcDbBlockTableRecord
  2
*D10
340
0
 70
0
280
1
281
0
  0
BLOCK_RECORD
  5
1BF
330
9
100
AcDbSymbolTableRecord
100
AcDbBlockTableRecord
  2
*D11
340
0
 70
0
280
1
281
0
  0
BLOCK_RECORD
  5
1CE
330
9
100
AcDbSymbolTableRecord
100
AcDbBlockTableRecord
  2
*D12
340
0
 70
0
280
1
281
0
  0
BLOCK_RECORD
  5
1F9
330
9
100
AcDbSymbolTableRecord
100
AcDbBlockTableRecord
  2
*D13
340
0
 70
0
280
1
281
0
  0
BLOCK_RECORD
  5
208
330
9
100
AcDbSymbolTableRecord
100
AcDbBlockTableRecord
  2
*D14
340
0
 70
0
280
1
281
0
  0
BLOCK_RECORD
  5
217
330
9
100
AcDbSymbolTableRecord
100
AcDbBlockTableRecord
  2
*D15
340
0
 70
0
280
1
281
0
  0
BLOCK_RECORD
  5
23F
330
9
100
AcDbSymbolTableRecord
100
AcDbBlockTableRecord
  2
*D16
340
0
 70
0
280
1
281
0
  0
BLOCK_RECORD
  5
24E
330
9
100
AcDbSymbolTableRecord
100
AcDbBlockTableRecord
  2
*D17
340
0
 70
0
280
1
281
0
  0
BLOCK_RECORD
  5
25D
330
9
100
AcDbSymbolTableRecord
100
AcDbBlockTableRecord
  2
*D18
340
0
 70
0
280
1
281
0
  0
BLOCK_RECORD
  5
289
330
9
100
AcDbSymbolTableRecord
100
AcDbBlockTableRecord
  2
*D19
340
0
 70
0
280
1
281
0
  0
BLOCK_RECORD
  5
298
330
9
100
AcDbSymbolTableRecord
100
AcDbBlockTableRecord
  2
*D20
340
0
 70
0
280
1
281
0
  0
BLOCK_RECORD
  5
2B5
330
9
100
AcDbSymbolTableRecord
100
AcDbBlockTableRecord
  2
*D21
340
0
 70
0
280
1
281
0
  0
BLOCK_RECORD
  5
2C4
330
9
100
AcDbSymbolTableRecord
100
AcDbBlockTableRecord
  2
*D22
340
0
 70
0
280
1
281
0
  0
BLOCK_RECORD
  5
2E7
330
9
100
AcDbSymbolTableRecord
100
AcDbBlockTableRecord
  2
*D23
340
0
 70
0
280
1
281
0
  0
BLOCK_RECORD
  5
30C
330
9
100
AcDbSymbolTableRecord
100
AcDbBlockTableRecord
  2
*D24
340
0
 70
0
280
1
281
0
  0
BLOCK_RECORD
  5
39E
330
9
100
AcDbSymbolTableRecord
100
AcDbBlockTableRecord
  2
*D25
340
0
 70
0
280
1
281
0
  0
BLOCK_RECORD
  5
3AD
330
9
100
AcDbSymbolTableRecord
100
AcDbBlockTableRecord
  2
*D26
340
0
 70
0
280
1
281
0
  0
BLOCK_RECORD
  5
3BC
330
9
100
AcDbSymbolTableRecord
100
AcDbBlockTableRecord
  2
*D27
340
0
 70
0
280
1
281
0
  0
BLOCK_RECORD
  5
3FE
330
9
100
AcDbSymbolTableRecord
100
AcDbBlockTableRecord
  2
*D28
340
0
 70
0
280
1
281
0
  0
BLOCK_RECORD
  5
40D
330
9
100
AcDbSymbolTableRecord
100
AcDbBlockTableRecord
  2
*D29
340
0
 70
0
280
1
281
0
  0
BLOCK_RECORD
  5
41C
330
9
100
AcDbSymbolTableRecord
100
AcDbBlockTableRecord
  2
*D30
340
0
 70
0
280
1
281
0
  0
BLOCK_RECORD
  5
42B
330
9
100
AcDbSymbolTableRecord
100
AcDbBlockTableRecord
  2
*D31
340
0
 70
0
280
1
281
0
  0
BLOCK_RECORD
  5
43A
330
9
100
AcDbSymbolTableRecord
100
AcDbBlockTableRecord
  2
*D32
340
0
 70
0
280
1
281
0
  0
BLOCK_RECORD
  5
449
330
9
100
AcDbSymbolTableRecord
100
AcDbBlockTableRecord
  2
*D33
340
0
 70
0
280
1
281
0
  0
BLOCK_RECORD
  5
48B
330
9
100
AcDbSymbolTableRecord
100
AcDbBlockTableRecord
  2
*Paper_Space1
340
48E
 70
0
280
1
281
0
  0
BLOCK_RECORD
  5
485
330
9
100
AcDbSymbolTableRecord
100
AcDbBlockTableRecord
  2
*Paper_Space
340
488
 70
0
280
1
281
0
  0
ENDTAB
  0
ENDSEC
  0
SECTION
  2
BLOCKS
  0
BLOCK
  5
18
330
17
100
AcDbEntity
  8
0
100
AcDbBlockBegin
  2
*Model_Space
 70
0
 10
0.0
 20
0.0
 30
0.0
  3
*Model_Space
  1

  0
ENDBLK
  5
19
330
17
100
AcDbEntity
  8
0
100
AcDbBlockEnd
  0
BLOCK
  5
84
330
83
100
AcDbEntity
  8
0
100
AcDbBlockBegin
  2
SIMB-FLECHA
 70
0
 10
0.0
 20
0.0
 30
0.0
  3
SIMB-FLECHA
  1

  0
LWPOLYLINE
  5
86
330
83
100
AcDbEntity
  8
FLUJO
100
AcDbPolyline
 90
2
 70
0
 10
-4.0
 20
0.0
 10
4.0
 20
0.0
  0
SOLID
  5
87
330
83
100
AcDbEntity
  8
FLUJO
100
AcDbTrace
 10
4.0
 20
0.0
 30
0.0
 11
1.0
 21
1.2
 31
0.0
 12
1.0
 22
-1.2
 32
0.0
 13
1.0
 23
-1.2
 33
0.0
  0
ENDBLK
  5
85
330
83
100
AcDbEntity
  8
0
100
AcDbBlockEnd
  0
BLOCK
  5
89
330
88
100
AcDbEntity
  8
0
100
AcDbBlockBegin
  2
SIMB-NIVEL
 70
0
 10
0.0
 20
0.0
 30
0.0
  3
SIMB-NIVEL
  1

  0
LWPOLYLINE
  5
8B
330
88
100
AcDbEntity
  8
NIVELES
100
AcDbPolyline
 90
3
 70
1
 10
0.0
 20
0.0
 10
-1.5
 20
2.2
 10
1.5
 20
2.2
  0
LINE
  5
8C
330
88
100
AcDbEntity
  8
NIVELES
100
AcDbLine
 10
-3.0
 20
0.0
 30
0.0
 11
3.0
 21
0.0
 31
0.0
  0
ENDBLK
  5
8A
330
88
100
AcDbEntity
  8
0
100
AcDbBlockEnd
  0
BLOCK
  5
8E
330
8D
100
AcDbEntity
  8
0
100
AcDbBlockBegin
  2
SIMB-AGUA
 70
0
 10
0.0
 20
0.0
 30
0.0
  3
SIMB-AGUA
  1

  0
SOLID
  5
90
330
8D
100
AcDbEntity
  8
AGUA-SIMBOLO
100
AcDbTrace
 10
0.0
 20
0.0
 30
0.0
 11
-1.2
 21
1.8
 31
0.0
 12
1.2
 22
1.8
 32
0.0
 13
1.2
 23
1.8
 33
0.0
  0
LINE
  5
91
330
8D
100
AcDbEntity
  8
AGUA-SIMBOLO
100
AcDbLine
 10
-2.5
 20
-0.6
 30
0.0
 11
2.5
 21
-0.6
 31
0.0
  0
LINE
  5
92
330
8D
100
AcDbEntity
  8
AGUA-SIMBOLO
100
AcDbLine
 10
-1.5
 20
-1.2
 30
0.0
 11
1.5
 21
-1.2
 31
0.0
  0
ENDBLK
  5
8F
330
8D
100
AcDbEntity
  8
0
100
AcDbBlockEnd
  0
BLOCK
  5
94
330
93
100
AcDbEntity
  8
0
100
AcDbBlockBegin
  2
SIMB-CORTE
 70
0
 10
0.0
 20
0.0
 30
0.0
  3
SIMB-CORTE
  1

  0
SOLID
  5
96
330
93
100
AcDbEntity
  8
CORTES
100
AcDbTrace
 10
0.0
 20
0.0
 30
0.0
 11
0.0
 21
4.0
 31
0.0
 12
3.0
 22
0.0
 32
0.0
 13
3.0
 23
0.0
 33
0.0
  0
LINE
  5
97
330
93
100
AcDbEntity
  8
CORTES
100
AcDbLine
 10
0.0
 20
0.0
 30
0.0
 11
0.0
 21
-6.0
 31
0.0
  0
ENDBLK
  5
95
330
93
100
AcDbEntity
  8
0
100
AcDbBlockEnd
  0
BLOCK
  5
99
330
98
100
AcDbEntity
  8
0
100
AcDbBlockBegin
  2
SIMB-NORTE
 70
0
 10
0.0
 20
0.0
 30
0.0
  3
SIMB-NORTE
  1

  0
CIRCLE
  5
9B
330
98
100
AcDbEntity
  8
TEXTOS
100
AcDbCircle
 10
0.0
 20
0.0
 30
0.0
 40
8.0
  0
SOLID
  5
9C
330
98
100
AcDbEntity
  8
TEXTOS
100
AcDbTrace
 10
0.0
 20
10.0
 30
0.0
 11
-3.0
 21
-5.0
 31
0.0
 12
0.0
 22
-2.0
 32
0.0
 13
0.0
 23
-2.0
 33
0.0
  0
LWPOLYLINE
  5
9D
330
98
100
AcDbEntity
  8
TEXTOS
100
AcDbPolyline
 90
3
 70
1
 10
0.0
 20
10.0
 10
3.0
 20
-5.0
 10
0.0
 20
-2.0
  0
TEXT
  5
9E
330
98
100
AcDbEntity
  8
TEXTOS
100
AcDbText
 10
0.0
 20
12.0
 30
0.0
 40
4.0
  1
N
 72
1
 11
0.0
 21
12.0
 31
0.0
100
AcDbText
 73
2
  0
ENDBLK
  5
9A
330
98
100
AcDbEntity
  8
0
100
AcDbBlockEnd
  0
BLOCK
  5
A0
330
9F
100
AcDbEntity
  8
0
100
AcDbBlockBegin
  2
ACERO-38
 70
0
 10
0.0
 20
0.0
 30
0.0
  3
ACERO-38
  1

  0
CIRCLE
  5
A2
330
9F
100
AcDbEntity
  8
ACERO-PUNTOS
 62
5
100
AcDbCircle
 10
0.0
 20
0.0
 30
0.0
 40
0.00475
  0
HATCH
  5
A3
330
9F
100
AcDbEntity
  8
ACERO-PUNTOS
 62
5
100
AcDbHatch
 10
0.0
 20
0.0
 30
0.0
210
0.0
220
0.0
230
1.0
  2
SOLID
 70
1
 71
0
 91
1
 92
3
 72
1
 73
1
 93
2
 10
-0.00475
 20
0.0
 42
1.0
 10
0.00475
 20
0.0
 42
1.0
 97
0
 75
1
 76
1
 98
0
  0
ENDBLK
  5
A1
330
9F
100
AcDbEntity
  8
0
100
AcDbBlockEnd
  0
BLOCK
  5
A5
330
A4
100
AcDbEntity
  8
0
100
AcDbBlockBegin
  2
ACERO-12
 70
0
 10
0.0
 20
0.0
 30
0.0
  3
ACERO-12
  1

  0
CIRCLE
  5
A7
330
A4
100
AcDbEntity
  8
ACERO-PUNTOS
 62
5
100
AcDbCircle
 10
0.0
 20
0.0
 30
0.0
 40
0.00635
  0
HATCH
  5
A8
330
A4
100
AcDbEntity
  8
ACERO-PUNTOS
 62
5
100
AcDbHatch
 10
0.0
 20
0.0
 30
0.0
210
0.0
220
0.0
230
1.0
  2
SOLID
 70
1
 71
0
 91
1
 92
3
 72
1
 73
1
 93
2
 10
-0.00635
 20
0.0
 42
1.0
 10
0.00635
 20
0.0
 42
1.0
 97
0
 75
1
 76
1
 98
0
  0
ENDBLK
  5
A6
330
A4
100
AcDbEntity
  8
0
100
AcDbBlockEnd
  0
BLOCK
  5
AA
330
A9
100
AcDbEntity
  8
0
100
AcDbBlockBegin
  2
REGISTRO-PLANTA
 70
0
 10
0.0
 20
0.0
 30
0.0
  3
REGISTRO-PLANTA
  1

  0
LWPOLYLINE
  5
AC
330
A9
100
AcDbEntity
  8
MARCO-METALICO
100
AcDbPolyline
 90
4
 70
1
 10
-0.35
 20
-0.35
 10
0.35
 20
-0.35
 10
0.35
 20
0.35
 10
-0.35
 20
0.35
  0
LWPOLYLINE
  5
AD
330
A9
100
AcDbEntity
  8
REGISTRO
100
AcDbPolyline
 90
4
 70
1
 10
-0.3
 20
-0.3
 10
0.3
 20
-0.3
 10
0.3
 20
0.3
 10
-0.3
 20
0.3
  0
LINE
  5
AE
330
A9
100
AcDbEntity
  8
REGISTRO-TAPA
100
AcDbLine
 10
-0.29
 20
0.2765
 30
0.0
 11
-0.2765
 21
0.29
 31
0.0
  0
LINE
  5
AF
330
A9
100
AcDbEntity
  8
REGISTRO-TAPA
100
AcDbLine
 10
-0.29
 20
0.1632
 30
0.0
 11
-0.1632
 21
0.29
 31
0.0
  0
LINE
  5
B0
330
A9
100
AcDbEntity
  8
REGISTRO-TAPA
100
AcDbLine
 10
-0.29
 20
0.0499
 30
0.0
 11
-0.0499
 21
0.29
 31
0.0
  0
LINE
  5
B1
330
A9
100
AcDbEntity
  8
REGISTRO-TAPA
100
AcDbLine
 10
-0.29
 20
-0.06339999999999998
 30
0.0
 11
0.06339999999999998
 21
0.29
 31
0.0
  0
LINE
  5
B2
330
A9
100
AcDbEntity
  8
REGISTRO-TAPA
100
AcDbLine
 10
-0.29
 20
-0.17669999999999997
 30
0.0
 11
0.17669999999999997
 21
0.29
 31
0.0
  0
LINE
  5
B3
330
A9
100
AcDbEntity
  8
REGISTRO-TAPA
100
AcDbLine
 10
-0.29
 20
-0.29
 30
0.0
 11
0.29
 21
0.29
 31
0.0
  0
LINE
  5
B4
330
A9
100
AcDbEntity
  8
REGISTRO-TAPA
100
AcDbLine
 10
-0.17669999999999997
 20
-0.29
 30
0.0
 11
0.29
 21
0.17669999999999997
 31
0.0
  0
LINE
  5
B5
330
A9
100
AcDbEntity
  8
REGISTRO-TAPA
100
AcDbLine
 10
-0.06339999999999998
 20
-0.29
 30
0.0
 11
0.29
 21
0.06339999999999998
 31
0.0
  0
LINE
  5
B6
330
A9
100
AcDbEntity
  8
REGISTRO-TAPA
100
AcDbLine
 10
0.0499
 20
-0.29
 30
0.0
 11
0.29
 21
-0.0499
 31
0.0
  0
LINE
  5
B7
330
A9
100
AcDbEntity
  8
REGISTRO-TAPA
100
AcDbLine
 10
0.1632
 20
-0.29
 30
0.0
 11
0.29
 21
-0.1632
 31
0.0
  0
LINE
  5
B8
330
A9
100
AcDbEntity
  8
REGISTRO-TAPA
100
AcDbLine
 10
0.2765
 20
-0.29
 30
0.0
 11
0.29
 21
-0.2765
 31
0.0
  0
CIRCLE
  5
B9
330
A9
100
AcDbEntity
  8
MARCO-METALICO
100
AcDbCircle
 10
-0.12
 20
0.0
 30
0.0
 40
0.015
  0
CIRCLE
  5
BA
330
A9
100
AcDbEntity
  8
MARCO-METALICO
100
AcDbCircle
 10
0.12
 20
0.0
 30
0.0
 40
0.015
  0
ENDBLK
  5
AB
330
A9
100
AcDbEntity
  8
0
100
AcDbBlockEnd
  0
BLOCK
  5
BC
330
BB
100
AcDbEntity
  8
0
100
AcDbBlockBegin
  2
SIMB-CUNETA-LLEGA
 70
0
 10
0.0
 20
0.0
 30
0.0
  3
SIMB-CUNETA-LLEGA
  1

  0
LWPOLYLINE
  5
BE
330
BB
100
AcDbEntity
  8
CUNETA
100
AcDbPolyline
 90
4
 70
0
 10
-0.2
 20
0.0
 10
-0.2
 20
-0.6
 10
0.2
 20
-0.6
 10
0.2
 20
0.0
  0
LWPOLYLINE
  5
BF
330
BB
100
AcDbEntity
  8
CUNETA
100
AcDbPolyline
 90
4
 70
0
 10
-0.3
 20
-0.6
 10
-0.3
 20
-1.4
 10
0.3
 20
-1.4
 10
0.3
 20
-0.6
  0
ENDBLK
  5
BD
330
BB
100
AcDbEntity
  8
0
100
AcDbBlockEnd
  0
BLOCK
  5
F9
330
F8
100
AcDbEntity
  8
0
100
AcDbBlockBegin
  2
*D1
 70
1
 10
0.0
 20
0.0
 30
0.0
  3
*D1
  1

  0
LINE
  5
FB
330
F8
100
AcDbEntity
  8
0
100
AcDbLine
 10
0.753175
 20
1.669
 30
0.0
 11
0.753175
 21
1.622
 31
0.0
  0
LINE
  5
FC
330
F8
100
AcDbEntity
  8
0
100
AcDbLine
 10
1.003175
 20
1.669
 30
0.0
 11
1.003175
 21
1.622
 31
0.0
  0
INSERT
  5
101
330
F8
100
AcDbEntity
  8
COTAS
100
AcDbBlockReference
  2
_OBLIQUE
 10
0.753175
 20
1.6300000000000001
 30
0.0
 41
0.013999999999999999
 42
0.013999999999999999
  0
INSERT
  5
103
330
F8
100
AcDbEntity
  8
COTAS
100
AcDbBlockReference
  2
_OBLIQUE
 10
1.003175
 20
1.6300000000000001
 30
0.0
 41
0.013999999999999999
 42
0.013999999999999999
  0
LINE
  5
105
330
F8
100
AcDbEntity
  8
0
100
AcDbLine
 10
0.753175
 20
1.6300000000000001
 30
0.0
 11
1.003175
 21
1.6300000000000001
 31
0.0
  0
MTEXT
  5
106
330
F8
100
AcDbEntity
  8
COTAS
 62
7
100
AcDbMText
 10
0.8781749999999999
 20
1.6425
 30
0.0
 40
0.015
 71
5
  1
0.25
  7
STANDARD
  0
POINT
  5
107
330
F8
100
AcDbEntity
  8
Defpoints
100
AcDbPoint
 10
0.753175
 20
1.6300000000000001
 30
0.0
  0
POINT
  5
108
330
F8
100
AcDbEntity
  8
Defpoints
100
AcDbPoint
 10
0.753175
 20
1.675
 30
0.0
  0
POINT
  5
109
330
F8
100
AcDbEntity
  8
Defpoints
100
AcDbPoint
 10
1.003175
 20
1.675
 30
0.0
  0
ENDBLK
  5
FA
330
F8
100
AcDbEntity
  8
0
100
AcDbBlockEnd
  0
BLOCK
  5
FE
330
FD
100
AcDbEntity
  8
0
100
AcDbBlockBegin
  2
_OBLIQUE
 70
0
 10
0.0
 20
0.0
 30
0.0
  3
_OBLIQUE
  1

  0
LINE
  5
100
330
FD
100
AcDbEntity
  8
0
  6
BYBLOCK
 62
0
100
AcDbLine
 10
-0.5
 20
-0.5
 30
0.0
 11
0.5
 21
0.5
 31
0.0
  0
ENDBLK
  5
FF
330
FD
100
AcDbEntity
  8
0
100
AcDbBlockEnd
  0
BLOCK
  5
10C
330
10B
100
AcDbEntity
  8
0
100
AcDbBlockBegin
  2
*D2
 70
1
 10
0.0
 20
0.0
 30
0.0
  3
*D2
  1

  0
LINE
  5
10E
330
10B
100
AcDbEntity
  8
0
100
AcDbLine
 10
1.009175
 20
1.675
 30
0.0
 11
1.051175
 21
1.675
 31
0.0
  0
LINE
  5
10F
330
10B
100
AcDbEntity
  8
0
100
AcDbLine
 10
1.009175
 20
1.875
 30
0.0
 11
1.051175
 21
1.875
 31
0.0
  0
INSERT
  5
110
330
10B
100
AcDbEntity
  8
COTAS
100
AcDbBlockReference
  2
_OBLIQUE
 10
1.043175
 20
1.675
 30
0.0
 41
0.013999999999999999
 42
0.013999999999999999
 50
90.0
  0
INSERT
  5
112
330
10B
100
AcDbEntity
  8
COTAS
100
AcDbBlockReference
  2
_OBLIQUE
 10
1.043175
 20
1.875
 30
0.0
 41
0.013999999999999999
 42
0.013999999999999999
 50
90.0
  0
LINE
  5
114
330
10B
100
AcDbEntity
  8
0
100
AcDbLine
 10
1.043175
 20
1.675
 30
0.0
 11
1.043175
 21
1.875
 31
0.0
  0
MTEXT
  5
115
330
10B
100
AcDbEntity
  8
COTAS
 62
7
100
AcDbMText
 10
1.030675
 20
1.775
 30
0.0
 40
0.015
 71
5
  1
0.20
  7
STANDARD
 50
90.0
  0
POINT
  5
116
330
10B
100
AcDbEntity
  8
Defpoints
100
AcDbPoint
 10
1.043175
 20
1.675
 30
0.0
  0
POINT
  5
117
330
10B
100
AcDbEntity
  8
Defpoints
100
AcDbPoint
 10
1.003175
 20
1.675
 30
0.0
  0
POINT
  5
118
330
10B
100
AcDbEntity
  8
Defpoints
100
AcDbPoint
 10
1.003175
 20
1.875
 30
0.0
  0
ENDBLK
  5
10D
330
10B
100
AcDbEntity
  8
0
100
AcDbBlockEnd
  0
BLOCK
  5
11B
330
11A
100
AcDbEntity
  8
0
100
AcDbBlockBegin
  2
*D3
 70
1
 10
0.0
 20
0.0
 30
0.0
  3
*D3
  1

  0
LINE
  5
11D
330
11A
100
AcDbEntity
  8
0
100
AcDbLine
 10
0.747175
 20
1.875
 30
0.0
 11
0.710175
 21
1.875
 31
0.0
  0
LINE
  5
11E
330
11A
100
AcDbEntity
  8
0
100
AcDbLine
 10
0.747175
 20
1.925
 30
0.0
 11
0.710175
 21
1.925
 31
0.0
  0
INSERT
  5
11F
330
11A
100
AcDbEntity
  8
COTAS
100
AcDbBlockReference
  2
_OBLIQUE
 10
0.718175
 20
1.875
 30
0.0
 41
0.013999999999999999
 42
0.013999999999999999
 50
90.0
  0
INSERT
  5
121
330
11A
100
AcDbEntity
  8
COTAS
100
AcDbBlockReference
  2
_OBLIQUE
 10
0.718175
 20
1.925
 30
0.0
 41
0.013999999999999999
 42
0.013999999999999999
 50
90.0
  0
LINE
  5
123
330
11A
100
AcDbEntity
  8
0
100
AcDbLine
 10
0.718175
 20
1.875
 30
0.0
 11
0.718175
 21
1.925
 31
0.0
  0
MTEXT
  5
124
330
11A
100
AcDbEntity
  8
COTAS
 62
7
100
AcDbMText
 10
0.697675
 20
1.9
 30
0.0
 40
0.015
 71
5
  1
0.05
  7
STANDARD
 50
90.0
  0
POINT
  5
125
330
11A
100
AcDbEntity
  8
Defpoints
100
AcDbPoint
 10
0.718175
 20
1.875
 30
0.0
  0
POINT
  5
126
330
11A
100
AcDbEntity
  8
Defpoints
100
AcDbPoint
 10
0.753175
 20
1.875
 30
0.0
  0
POINT
  5
127
330
11A
100
AcDbEntity
  8
Defpoints
100
AcDbPoint
 10
0.753175
 20
1.925
 30
0.0
  0
ENDBLK
  5
11C
330
11A
100
AcDbEntity
  8
0
100
AcDbBlockEnd
  0
BLOCK
  5
12A
330
129
100
AcDbEntity
  8
0
100
AcDbBlockBegin
  2
*D4
 70
1
 10
0.0
 20
0.0
 30
0.0
  3
*D4
  1

  0
LINE
  5
12C
330
129
100
AcDbEntity
  8
0
100
AcDbLine
 10
0.953175
 20
1.881
 30
0.0
 11
0.953175
 21
1.928
 31
0.0
  0
LINE
  5
12D
330
129
100
AcDbEntity
  8
0
100
AcDbLine
 10
1.003175
 20
1.881
 30
0.0
 11
1.003175
 21
1.928
 31
0.0
  0
INSERT
  5
12E
330
129
100
AcDbEntity
  8
COTAS
100
AcDbBlockReference
  2
_OBLIQUE
 10
0.953175
 20
1.92
 30
0.0
 41
0.013999999999999999
 42
0.013999999999999999
  0
INSERT
  5
130
330
129
100
AcDbEntity
  8
COTAS
100
AcDbBlockReference
  2
_OBLIQUE
 10
1.003175
 20
1.92
 30
0.0
 41
0.013999999999999999
 42
0.013999999999999999
  0
LINE
  5
132
330
129
100
AcDbEntity
  8
0
100
AcDbLine
 10
0.953175
 20
1.92
 30
0.0
 11
1.003175
 21
1.92
 31
0.0
  0
MTEXT
  5
133
330
129
100
AcDbEntity
  8
COTAS
 62
7
100
AcDbMText
 10
0.978175
 20
1.9405
 30
0.0
 40
0.015
 71
5
  1
0.05
  7
STANDARD
  0
POINT
  5
134
330
129
100
AcDbEntity
  8
Defpoints
100
AcDbPoint
 10
0.953175
 20
1.92
 30
0.0
  0
POINT
  5
135
330
129
100
AcDbEntity
  8
Defpoints
100
AcDbPoint
 10
0.953175
 20
1.875
 30
0.0
  0
POINT
  5
136
330
129
100
AcDbEntity
  8
Defpoints
100
AcDbPoint
 10
1.003175
 20
1.875
 30
0.0
  0
ENDBLK
  5
12B
330
129
100
AcDbEntity
  8
0
100
AcDbBlockEnd
  0
BLOCK
  5
139
330
138
100
AcDbEntity
  8
0
100
AcDbBlockBegin
  2
*D5
 70
1
 10
0.0
 20
0.0
 30
0.0
  3
*D5
  1

  0
LINE
  5
13B
330
138
100
AcDbEntity
  8
0
100
AcDbLine
 10
0.7455875
 20
1.875
 30
0.0
 11
0.6635875
 21
1.875
 31
0.0
  0
LINE
  5
13C
330
138
100
AcDbEntity
  8
0
100
AcDbLine
 10
0.7455875
 20
1.975
 30
0.0
 11
0.6635875
 21
1.975
 31
0.0
  0
INSERT
  5
13D
330
138
100
AcDbEntity
  8
COTAS
100
AcDbBlockReference
  2
_OBLIQUE
 10
0.6715875
 20
1.875
 30
0.0
 41
0.013999999999999999
 42
0.013999999999999999
 50
90.0
  0
INSERT
  5
13F
330
138
100
AcDbEntity
  8
COTAS
100
AcDbBlockReference
  2
_OBLIQUE
 10
0.6715875
 20
1.975
 30
0.0
 41
0.013999999999999999
 42
0.013999999999999999
 50
90.0
  0
LINE
  5
141
330
138
100
AcDbEntity
  8
0
100
AcDbLine
 10
0.6715875
 20
1.875
 30
0.0
 11
0.6715875
 21
1.975
 31
0.0
  0
MTEXT
  5
142
330
138
100
AcDbEntity
  8
COTAS
 62
7
100
AcDbMText
 10
0.6590875
 20
1.925
 30
0.0
 40
0.015
 71
5
  1
0.10
  7
STANDARD
 50
90.0
  0
POINT
  5
143
330
138
100
AcDbEntity
  8
Defpoints
100
AcDbPoint
 10
0.6715875
 20
1.875
 30
0.0
  0
POINT
  5
144
330
138
100
AcDbEntity
  8
Defpoints
100
AcDbPoint
 10
0.7515875
 20
1.875
 30
0.0
  0
POINT
  5
145
330
138
100
AcDbEntity
  8
Defpoints
100
AcDbPoint
 10
0.7515875
 20
1.975
 30
0.0
  0
ENDBLK
  5
13A
330
138
100
AcDbEntity
  8
0
100
AcDbBlockEnd
  0
BLOCK
  5
175
330
174
100
AcDbEntity
  8
0
100
AcDbBlockBegin
  2
*D6
 70
1
 10
0.0
 20
0.0
 30
0.0
  3
*D6
  1

  0
LINE
  5
177
330
174
100
AcDbEntity
  8
0
100
AcDbLine
 10
2.25
 20
2.3440000000000003
 30
0.0
 11
2.25
 21
2.302
 31
0.0
  0
LINE
  5
178
330
174
100
AcDbEntity
  8
0
100
AcDbLine
 10
2.35
 20
2.3440000000000003
 30
0.0
 11
2.35
 21
2.302
 31
0.0
  0
INSERT
  5
179
330
174
100
AcDbEntity
  8
COTAS
100
AcDbBlockReference
  2
_OBLIQUE
 10
2.25
 20
2.31
 30
0.0
 41
0.013999999999999999
 42
0.013999999999999999
  0
INSERT
  5
17B
330
174
100
AcDbEntity
  8
COTAS
100
AcDbBlockReference
  2
_OBLIQUE
 10
2.35
 20
2.31
 30
0.0
 41
0.013999999999999999
 42
0.013999999999999999
  0
LINE
  5
17D
330
174
100
AcDbEntity
  8
0
100
AcDbLine
 10
2.25
 20
2.31
 30
0.0
 11
2.35
 21
2.31
 31
0.0
  0
MTEXT
  5
17E
330
174
100
AcDbEntity
  8
COTAS
 62
7
100
AcDbMText
 10
2.3
 20
2.3225000000000002
 30
0.0
 40
0.015
 71
5
  1
0.10
  7
STANDARD
  0
POINT
  5
17F
330
174
100
AcDbEntity
  8
Defpoints
100
AcDbPoint
 10
2.25
 20
2.31
 30
0.0
  0
POINT
  5
180
330
174
100
AcDbEntity
  8
Defpoints
100
AcDbPoint
 10
2.25
 20
2.35
 30
0.0
  0
POINT
  5
181
330
174
100
AcDbEntity
  8
Defpoints
100
AcDbPoint
 10
2.35
 20
2.35
 30
0.0
  0
ENDBLK
  5
176
330
174
100
AcDbEntity
  8
0
100
AcDbBlockEnd
  0
BLOCK
  5
184
330
183
100
AcDbEntity
  8
0
100
AcDbBlockBegin
  2
*D7
 70
1
 10
0.0
 20
0.0
 30
0.0
  3
*D7
  1

  0
LINE
  5
186
330
183
100
AcDbEntity
  8
0
100
AcDbLine
 10
2.35
 20
2.3440000000000003
 30
0.0
 11
2.35
 21
2.302
 31
0.0
  0
LINE
  5
187
330
183
100
AcDbEntity
  8
0
100
AcDbLine
 10
2.55
 20
2.3440000000000003
 30
0.0
 11
2.55
 21
2.302
 31
0.0
  0
INSERT
  5
188
330
183
100
AcDbEntity
  8
COTAS
100
AcDbBlockReference
  2
_OBLIQUE
 10
2.35
 20
2.31
 30
0.0
 41
0.013999999999999999
 42
0.013999999999999999
  0
INSERT
  5
18A
330
183
100
AcDbEntity
  8
COTAS
100
AcDbBlockReference
  2
_OBLIQUE
 10
2.55
 20
2.31
 30
0.0
 41
0.013999999999999999
 42
0.013999999999999999
  0
LINE
  5
18C
330
183
100
AcDbEntity
  8
0
100
AcDbLine
 10
2.35
 20
2.31
 30
0.0
 11
2.55
 21
2.31
 31
0.0
  0
MTEXT
  5
18D
330
183
100
AcDbEntity
  8
COTAS
 62
7
100
AcDbMText
 10
2.45
 20
2.3225000000000002
 30
0.0
 40
0.015
 71
5
  1
0.20
  7
STANDARD
  0
POINT
  5
18E
330
183
100
AcDbEntity
  8
Defpoints
100
AcDbPoint
 10
2.35
 20
2.31
 30
0.0
  0
POINT
  5
18F
330
183
100
AcDbEntity
  8
Defpoints
100
AcDbPoint
 10
2.35
 20
2.35
 30
0.0
  0
POINT
  5
190
330
183
100
AcDbEntity
  8
Defpoints
100
AcDbPoint
 10
2.55
 20
2.35
 30
0.0
  0
ENDBLK
  5
185
330
183
100
AcDbEntity
  8
0
100
AcDbBlockEnd
  0
BLOCK
  5
193
330
192
100
AcDbEntity
  8
0
100
AcDbBlockBegin
  2
*D8
 70
1
 10
0.0
 20
0.0
 30
0.0
  3
*D8
  1

  0
LINE
  5
195
330
192
100
AcDbEntity
  8
0
100
AcDbLine
 10
2.55
 20
2.3440000000000003
 30
0.0
 11
2.55
 21
2.302
 31
0.0
  0
LINE
  5
196
330
192
100
AcDbEntity
  8
0
100
AcDbLine
 10
2.8
 20
2.3440000000000003
 30
0.0
 11
2.8
 21
2.302
 31
0.0
  0
INSERT
  5
197
330
192
100
AcDbEntity
  8
COTAS
100
AcDbBlockReference
  2
_OBLIQUE
 10
2.55
 20
2.31
 30
0.0
 41
0.013999999999999999
 42
0.013999999999999999
  0
INSERT
  5
199
330
192
100
AcDbEntity
  8
COTAS
100
AcDbBlockReference
  2
_OBLIQUE
 10
2.8
 20
2.31
 30
0.0
 41
0.013999999999999999
 42
0.013999999999999999
  0
LINE
  5
19B
330
192
100
AcDbEntity
  8
0
100
AcDbLine
 10
2.55
 20
2.31
 30
0.0
 11
2.8
 21
2.31
 31
0.0
  0
MTEXT
  5
19C
330
192
100
AcDbEntity
  8
COTAS
 62
7
100
AcDbMText
 10
2.675
 20
2.3225000000000002
 30
0.0
 40
0.015
 71
5
  1
0.25
  7
STANDARD
  0
POINT
  5
19D
330
192
100
AcDbEntity
  8
Defpoints
100
AcDbPoint
 10
2.55
 20
2.31
 30
0.0
  0
POINT
  5
19E
330
192
100
AcDbEntity
  8
Defpoints
100
AcDbPoint
 10
2.55
 20
2.35
 30
0.0
  0
POINT
  5
19F
330
192
100
AcDbEntity
  8
Defpoints
100
AcDbPoint
 10
2.8
 20
2.35
 30
0.0
  0
ENDBLK
  5
194
330
192
100
AcDbEntity
  8
0
100
AcDbBlockEnd
  0
BLOCK
  5
1A2
330
1A1
100
AcDbEntity
  8
0
100
AcDbBlockBegin
  2
*D9
 70
1
 10
0.0
 20
0.0
 30
0.0
  3
*D9
  1

  0
LINE
  5
1A4
330
1A1
100
AcDbEntity
  8
0
100
AcDbLine
 10
2.8
 20
2.3440000000000003
 30
0.0
 11
2.8
 21
2.302
 31
0.0
  0
LINE
  5
1A5
330
1A1
100
AcDbEntity
  8
0
100
AcDbLine
 10
3.0
 20
2.3440000000000003
 30
0.0
 11
3.0
 21
2.302
 31
0.0
  0
INSERT
  5
1A6
330
1A1
100
AcDbEntity
  8
COTAS
100
AcDbBlockReference
  2
_OBLIQUE
 10
2.8
 20
2.31
 30
0.0
 41
0.013999999999999999
 42
0.013999999999999999
  0
INSERT
  5
1A8
330
1A1
100
AcDbEntity
  8
COTAS
100
AcDbBlockReference
  2
_OBLIQUE
 10
3.0
 20
2.31
 30
0.0
 41
0.013999999999999999
 42
0.013999999999999999
  0
LINE
  5
1AA
330
1A1
100
AcDbEntity
  8
0
100
AcDbLine
 10
2.8
 20
2.31
 30
0.0
 11
3.0
 21
2.31
 31
0.0
  0
MTEXT
  5
1AB
330
1A1
100
AcDbEntity
  8
COTAS
 62
7
100
AcDbMText
 10
2.9
 20
2.3225000000000002
 30
0.0
 40
0.015
 71
5
  1
0.20
  7
STANDARD
  0
POINT
  5
1AC
330
1A1
100
AcDbEntity
  8
Defpoints
100
AcDbPoint
 10
2.8
 20
2.31
 30
0.0
  0
POINT
  5
1AD
330
1A1
100
AcDbEntity
  8
Defpoints
100
AcDbPoint
 10
2.8
 20
2.35
 30
0.0
  0
POINT
  5
1AE
330
1A1
100
AcDbEntity
  8
Defpoints
100
AcDbPoint
 10
3.0
 20
2.35
 30
0.0
  0
ENDBLK
  5
1A3
330
1A1
100
AcDbEntity
  8
0
100
AcDbBlockEnd
  0
BLOCK
  5
1B1
330
1B0
100
AcDbEntity
  8
0
100
AcDbBlockBegin
  2
*D10
 70
1
 10
0.0
 20
0.0
 30
0.0
  3
*D10
  1

  0
LINE
  5
1B3
330
1B0
100
AcDbEntity
  8
0
100
AcDbLine
 10
3.0
 20
2.3440000000000003
 30
0.0
 11
3.0
 21
2.302
 31
0.0
  0
LINE
  5
1B4
330
1B0
100
AcDbEntity
  8
0
100
AcDbLine
 10
3.1
 20
2.3440000000000003
 30
0.0
 11
3.1
 21
2.302
 31
0.0
  0
INSERT
  5
1B5
330
1B0
100
AcDbEntity
  8
COTAS
100
AcDbBlockReference
  2
_OBLIQUE
 10
3.0
 20
2.31
 30
0.0
 41
0.013999999999999999
 42
0.013999999999999999
  0
INSERT
  5
1B7
330
1B0
100
AcDbEntity
  8
COTAS
100
AcDbBlockReference
  2
_OBLIQUE
 10
3.1
 20
2.31
 30
0.0
 41
0.013999999999999999
 42
0.013999999999999999
  0
LINE
  5
1B9
330
1B0
100
AcDbEntity
  8
0
100
AcDbLine
 10
3.0
 20
2.31
 30
0.0
 11
3.1
 21
2.31
 31
0.0
  0
MTEXT
  5
1BA
330
1B0
100
AcDbEntity
  8
COTAS
 62
7
100
AcDbMText
 10
3.05
 20
2.3225000000000002
 30
0.0
 40
0.015
 71
5
  1
0.10
  7
STANDARD
  0
POINT
  5
1BB
330
1B0
100
AcDbEntity
  8
Defpoints
100
AcDbPoint
 10
3.0
 20
2.31
 30
0.0
  0
POINT
  5
1BC
330
1B0
100
AcDbEntity
  8
Defpoints
100
AcDbPoint
 10
3.0
 20
2.35
 30
0.0
  0
POINT
  5
1BD
330
1B0
100
AcDbEntity
  8
Defpoints
100
AcDbPoint
 10
3.1
 20
2.35
 30
0.0
  0
ENDBLK
  5
1B2
330
1B0
100
AcDbEntity
  8
0
100
AcDbBlockEnd
  0
BLOCK
  5
1C0
330
1BF
100
AcDbEntity
  8
0
100
AcDbBlockBegin
  2
*D11
 70
1
 10
0.0
 20
0.0
 30
0.0
  3
*D11
  1

  0
LINE
  5
1C2
330
1BF
100
AcDbEntity
  8
0
100
AcDbLine
 10
2.25
 20
2.3440000000000003
 30
0.0
 11
2.25
 21
2.262
 31
0.0
  0
LINE
  5
1C3
330
1BF
100
AcDbEntity
  8
0
100
AcDbLine
 10
3.1
 20
2.3440000000000003
 30
0.0
 11
3.1
 21
2.262
 31
0.0
  0
INSERT
  5
1C4
330
1BF
100
AcDbEntity
  8
COTAS
100
AcDbBlockReference
  2
_OBLIQUE
 10
2.25
 20
2.27
 30
0.0
 41
0.013999999999999999
 42
0.013999999999999999
  0
INSERT
  5
1C6
330
1BF
100
AcDbEntity
  8
COTAS
100
AcDbBlockReference
  2
_OBLIQUE
 10
3.1
 20
2.27
 30
0.0
 41
0.013999999999999999
 42
0.013999999999999999
  0
LINE
  5
1C8
330
1BF
100
AcDbEntity
  8
0
100
AcDbLine
 10
2.25
 20
2.27
 30
0.0
 11
3.1
 21
2.27
 31
0.0
  0
MTEXT
  5
1C9
330
1BF
100
AcDbEntity
  8
COTAS
 62
7
100
AcDbMText
 10
2.675
 20
2.2825
 30
0.0
 40
0.015
 71
5
  1
0.85
  7
STANDARD
  0
POINT
  5
1CA
330
1BF
100
AcDbEntity
  8
Defpoints
100
AcDbPoint
 10
2.25
 20
2.27
 30
0.0
  0
POINT
  5
1CB
330
1BF
100
AcDbEntity
  8
Defpoints
100
AcDbPoint
 10
2.25
 20
2.35
 30
0.0
  0
POINT
  5
1CC
330
1BF
100
AcDbEntity
  8
Defpoints
100
AcDbPoint
 10
3.1
 20
2.35
 30
0.0
  0
ENDBLK
  5
1C1
330
1BF
100
AcDbEntity
  8
0
100
AcDbBlockEnd
  0
BLOCK
  5
1CF
330
1CE
100
AcDbEntity
  8
0
100
AcDbBlockBegin
  2
*D12
 70
1
 10
0.0
 20
0.0
 30
0.0
  3
*D12
  1

  0
LINE
  5
1D1
330
1CE
100
AcDbEntity
  8
0
100
AcDbLine
 10
3.106
 20
2.35
 30
0.0
 11
3.148
 21
2.35
 31
0.0
  0
LINE
  5
1D2
330
1CE
100
AcDbEntity
  8
0
100
AcDbLine
 10
3.106
 20
2.3754
 30
0.0
 11
3.148
 21
2.3754
 31
0.0
  0
INSERT
  5
1D3
330
1CE
100
AcDbEntity
  8
COTAS
100
AcDbBlockReference
  2
_OBLIQUE
 10
3.14
 20
2.35
 30
0.0
 41
0.013999999999999999
 42
0.013999999999999999
 50
90.0
  0
INSERT
  5
1D5
330
1CE
100
AcDbEntity
  8
COTAS
100
AcDbBlockReference
  2
_OBLIQUE
 10
3.14
 20
2.3754
 30
0.0
 41
0.013999999999999999
 42
0.013999999999999999
 50
90.0
  0
LINE
  5
1D7
330
1CE
100
AcDbEntity
  8
0
100
AcDbLine
 10
3.14
 20
2.35
 30
0.0
 11
3.14
 21
2.3754
 31
0.0
  0
MTEXT
  5
1D8
330
1CE
100
AcDbEntity
  8
COTAS
 62
7
100
AcDbMText
 10
3.1195
 20
2.3627000000000002
 30
0.0
 40
0.015
 71
5
  1
1"
  7
STANDARD
 50
90.0
  0
POINT
  5
1D9
330
1CE
100
AcDbEntity
  8
Defpoints
100
AcDbPoint
 10
3.14
 20
2.35
 30
0.0
  0
POINT
  5
1DA
330
1CE
100
AcDbEntity
  8
Defpoints
100
AcDbPoint
 10
3.1
 20
2.35
 30
0.0
  0
POINT
  5
1DB
330
1CE
100
AcDbEntity
  8
Defpoints
100
AcDbPoint
 10
3.1
 20
2.3754
 30
0.0
  0
ENDBLK
  5
1D0
330
1CE
100
AcDbEntity
  8
0
100
AcDbBlockEnd
  0
BLOCK
  5
1FA
330
1F9
100
AcDbEntity
  8
0
100
AcDbBlockBegin
  2
*D13
 70
1
 10
0.0
 20
0.0
 30
0.0
  3
*D13
  1

  0
LINE
  5
1FC
330
1F9
100
AcDbEntity
  8
0
100
AcDbLine
 10
2.3000000000000003
 20
1.624
 30
0.0
 11
2.3000000000000003
 21
1.582
 31
0.0
  0
LINE
  5
1FD
330
1F9
100
AcDbEntity
  8
0
100
AcDbLine
 10
2.5500000000000003
 20
1.624
 30
0.0
 11
2.5500000000000003
 21
1.582
 31
0.0
  0
INSERT
  5
1FE
330
1F9
100
AcDbEntity
  8
COTAS
100
AcDbBlockReference
  2
_OBLIQUE
 10
2.3000000000000003
 20
1.59
 30
0.0
 41
0.013999999999999999
 42
0.013999999999999999
  0
INSERT
  5
200
330
1F9
100
AcDbEntity
  8
COTAS
100
AcDbBlockReference
  2
_OBLIQUE
 10
2.5500000000000003
 20
1.59
 30
0.0
 41
0.013999999999999999
 42
0.013999999999999999
  0
LINE
  5
202
330
1F9
100
AcDbEntity
  8
0
100
AcDbLine
 10
2.3000000000000003
 20
1.59
 30
0.0
 11
2.5500000000000003
 21
1.59
 31
0.0
  0
MTEXT
  5
203
330
1F9
100
AcDbEntity
  8
COTAS
 62
7
100
AcDbMText
 10
2.4250000000000003
 20
1.6025
 30
0.0
 40
0.015
 71
5
  1
0.25
  7
STANDARD
  0
POINT
  5
204
330
1F9
100
AcDbEntity
  8
Defpoints
100
AcDbPoint
 10
2.3000000000000003
 20
1.59
 30
0.0
  0
POINT
  5
205
330
1F9
100
AcDbEntity
  8
Defpoints
100
AcDbPoint
 10
2.3000000000000003
 20
1.6300000000000001
 30
0.0
  0
POINT
  5
206
330
1F9
100
AcDbEntity
  8
Defpoints
100
AcDbPoint
 10
2.5500000000000003
 20
1.6300000000000001
 30
0.0
  0
ENDBLK
  5
1FB
330
1F9
100
AcDbEntity
  8
0
100
AcDbBlockEnd
  0
BLOCK
  5
209
330
208
100
AcDbEntity
  8
0
100
AcDbBlockBegin
  2
*D14
 70
1
 10
0.0
 20
0.0
 30
0.0
  3
*D14
  1

  0
LINE
  5
20B
330
208
100
AcDbEntity
  8
0
100
AcDbLine
 10
2.576
 20
1.6500000000000001
 30
0.0
 11
2.6180000000000003
 21
1.6500000000000001
 31
0.0
  0
LINE
  5
20C
330
208
100
AcDbEntity
  8
0
100
AcDbLine
 10
2.576
 20
1.85
 30
0.0
 11
2.6180000000000003
 21
1.85
 31
0.0
  0
INSERT
  5
20D
330
208
100
AcDbEntity
  8
COTAS
100
AcDbBlockReference
  2
_OBLIQUE
 10
2.6100000000000003
 20
1.6500000000000001
 30
0.0
 41
0.013999999999999999
 42
0.013999999999999999
 50
90.0
  0
INSERT
  5
20F
330
208
100
AcDbEntity
  8
COTAS
100
AcDbBlockReference
  2
_OBLIQUE
 10
2.6100000000000003
 20
1.85
 30
0.0
 41
0.013999999999999999
 42
0.013999999999999999
 50
90.0
  0
LINE
  5
211
330
208
100
AcDbEntity
  8
0
100
AcDbLine
 10
2.6100000000000003
 20
1.6500000000000001
 30
0.0
 11
2.6100000000000003
 21
1.85
 31
0.0
  0
MTEXT
  5
212
330
208
100
AcDbEntity
  8
COTAS
 62
7
100
AcDbMText
 10
2.5975
 20
1.75
 30
0.0
 40
0.015
 71
5
  1
0.20
  7
STANDARD
 50
90.0
  0
POINT
  5
213
330
208
100
AcDbEntity
  8
Defpoints
100
AcDbPoint
 10
2.6100000000000003
 20
1.6500000000000001
 30
0.0
  0
POINT
  5
214
330
208
100
AcDbEntity
  8
Defpoints
100
AcDbPoint
 10
2.5700000000000003
 20
1.6500000000000001
 30
0.0
  0
POINT
  5
215
330
208
100
AcDbEntity
  8
Defpoints
100
AcDbPoint
 10
2.5700000000000003
 20
1.85
 30
0.0
  0
ENDBLK
  5
20A
330
208
100
AcDbEntity
  8
0
100
AcDbBlockEnd
  0
BLOCK
  5
218
330
217
100
AcDbEntity
  8
0
100
AcDbBlockBegin
  2
*D15
 70
1
 10
0.0
 20
0.0
 30
0.0
  3
*D15
  1

  0
LINE
  5
21A
330
217
100
AcDbEntity
  8
0
100
AcDbLine
 10
2.2800000000000002
 20
1.624
 30
0.0
 11
2.2800000000000002
 21
1.542
 31
0.0
  0
LINE
  5
21B
330
217
100
AcDbEntity
  8
0
100
AcDbLine
 10
2.3000000000000003
 20
1.624
 30
0.0
 11
2.3000000000000003
 21
1.542
 31
0.0
  0
INSERT
  5
21C
330
217
100
AcDbEntity
  8
COTAS
100
AcDbBlockReference
  2
_OBLIQUE
 10
2.2800000000000002
 20
1.55
 30
0.0
 41
0.013999999999999999
 42
0.013999999999999999
  0
INSERT
  5
21E
330
217
100
AcDbEntity
  8
COTAS
100
AcDbBlockReference
  2
_OBLIQUE
 10
2.3000000000000003
 20
1.55
 30
0.0
 41
0.013999999999999999
 42
0.013999999999999999
  0
LINE
  5
220
330
217
100
AcDbEntity
  8
0
100
AcDbLine
 10
2.2800000000000002
 20
1.55
 30
0.0
 11
2.3000000000000003
 21
1.55
 31
0.0
  0
MTEXT
  5
221
330
217
100
AcDbEntity
  8
COTAS
 62
7
100
AcDbMText
 10
2.29
 20
1.5705
 30
0.0
 40
0.015
 71
5
  1
0.02
  7
STANDARD
  0
POINT
  5
222
330
217
100
AcDbEntity
  8
Defpoints
100
AcDbPoint
 10
2.2800000000000002
 20
1.55
 30
0.0
  0
POINT
  5
223
330
217
100
AcDbEntity
  8
Defpoints
100
AcDbPoint
 10
2.2800000000000002
 20
1.6300000000000001
 30
0.0
  0
POINT
  5
224
330
217
100
AcDbEntity
  8
Defpoints
100
AcDbPoint
 10
2.3000000000000003
 20
1.6300000000000001
 30
0.0
  0
ENDBLK
  5
219
330
217
100
AcDbEntity
  8
0
100
AcDbBlockEnd
  0
BLOCK
  5
240
330
23F
100
AcDbEntity
  8
0
100
AcDbBlockBegin
  2
*D16
 70
1
 10
0.0
 20
0.0
 30
0.0
  3
*D16
  1

  0
LINE
  5
242
330
23F
100
AcDbEntity
  8
0
100
AcDbLine
 10
0.47500000000000003
 20
1.004
 30
0.0
 11
0.47500000000000003
 21
1.066
 31
0.0
  0
LINE
  5
243
330
23F
100
AcDbEntity
  8
0
100
AcDbLine
 10
0.675
 20
1.004
 30
0.0
 11
0.675
 21
1.066
 31
0.0
  0
INSERT
  5
244
330
23F
100
AcDbEntity
  8
COTAS
100
AcDbBlockReference
  2
_OBLIQUE
 10
0.47500000000000003
 20
1.058
 30
0.0
 41
0.013999999999999999
 42
0.013999999999999999
  0
INSERT
  5
246
330
23F
100
AcDbEntity
  8
COTAS
100
AcDbBlockReference
  2
_OBLIQUE
 10
0.675
 20
1.058
 30
0.0
 41
0.013999999999999999
 42
0.013999999999999999
  0
LINE
  5
248
330
23F
100
AcDbEntity
  8
0
100
AcDbLine
 10
0.47500000000000003
 20
1.058
 30
0.0
 11
0.675
 21
1.058
 31
0.0
  0
MTEXT
  5
249
330
23F
100
AcDbEntity
  8
COTAS
 62
7
100
AcDbMText
 10
0.5750000000000001
 20
1.0705
 30
0.0
 40
0.015
 71
5
  1
0.20
  7
STANDARD
  0
POINT
  5
24A
330
23F
100
AcDbEntity
  8
Defpoints
100
AcDbPoint
 10
0.47500000000000003
 20
1.058
 30
0.0
  0
POINT
  5
24B
330
23F
100
AcDbEntity
  8
Defpoints
100
AcDbPoint
 10
0.47500000000000003
 20
0.998
 30
0.0
  0
POINT
  5
24C
330
23F
100
AcDbEntity
  8
Defpoints
100
AcDbPoint
 10
0.675
 20
0.998
 30
0.0
  0
ENDBLK
  5
241
330
23F
100
AcDbEntity
  8
0
100
AcDbBlockEnd
  0
BLOCK
  5
24F
330
24E
100
AcDbEntity
  8
0
100
AcDbBlockBegin
  2
*D17
 70
1
 10
0.0
 20
0.0
 30
0.0
  3
*D17
  1

  0
LINE
  5
251
330
24E
100
AcDbEntity
  8
0
100
AcDbLine
 10
0.525
 20
0.844
 30
0.0
 11
0.525
 21
0.8119999999999999
 31
0.0
  0
LINE
  5
252
330
24E
100
AcDbEntity
  8
0
100
AcDbLine
 10
0.625
 20
0.844
 30
0.0
 11
0.625
 21
0.8119999999999999
 31
0.0
  0
INSERT
  5
253
330
24E
100
AcDbEntity
  8
COTAS
100
AcDbBlockReference
  2
_OBLIQUE
 10
0.525
 20
0.82
 30
0.0
 41
0.013999999999999999
 42
0.013999999999999999
  0
INSERT
  5
255
330
24E
100
AcDbEntity
  8
COTAS
100
AcDbBlockReference
  2
_OBLIQUE
 10
0.625
 20
0.82
 30
0.0
 41
0.013999999999999999
 42
0.013999999999999999
  0
LINE
  5
257
330
24E
100
AcDbEntity
  8
0
100
AcDbLine
 10
0.525
 20
0.82
 30
0.0
 11
0.625
 21
0.82
 31
0.0
  0
MTEXT
  5
258
330
24E
100
AcDbEntity
  8
COTAS
 62
7
100
AcDbMText
 10
0.575
 20
0.8324999999999999
 30
0.0
 40
0.015
 71
5
  1
Ø 0.10
  7
STANDARD
  0
POINT
  5
259
330
24E
100
AcDbEntity
  8
Defpoints
100
AcDbPoint
 10
0.525
 20
0.82
 30
0.0
  0
POINT
  5
25A
330
24E
100
AcDbEntity
  8
Defpoints
100
AcDbPoint
 10
0.525
 20
0.85
 30
0.0
  0
POINT
  5
25B
330
24E
100
AcDbEntity
  8
Defpoints
100
AcDbPoint
 10
0.625
 20
0.85
 30
0.0
  0
ENDBLK
  5
250
330
24E
100
AcDbEntity
  8
0
100
AcDbBlockEnd
  0
BLOCK
  5
25E
330
25D
100
AcDbEntity
  8
0
100
AcDbBlockBegin
  2
*D18
 70
1
 10
0.0
 20
0.0
 30
0.0
  3
*D18
  1

  0
LINE
  5
260
330
25D
100
AcDbEntity
  8
0
100
AcDbLine
 10
0.519
 20
0.998
 30
0.0
 11
0.447
 21
0.998
 31
0.0
  0
LINE
  5
261
330
25D
100
AcDbEntity
  8
0
100
AcDbLine
 10
0.519
 20
0.85
 30
0.0
 11
0.447
 21
0.85
 31
0.0
  0
INSERT
  5
262
330
25D
100
AcDbEntity
  8
COTAS
100
AcDbBlockReference
  2
_OBLIQUE
 10
0.455
 20
0.998
 30
0.0
 41
0.013999999999999999
 42
0.013999999999999999
 50
90.0
  0
INSERT
  5
264
330
25D
100
AcDbEntity
  8
COTAS
100
AcDbBlockReference
  2
_OBLIQUE
 10
0.455
 20
0.85
 30
0.0
 41
0.013999999999999999
 42
0.013999999999999999
 50
90.0
  0
LINE
  5
266
330
25D
100
AcDbEntity
  8
0
100
AcDbLine
 10
0.455
 20
0.998
 30
0.0
 11
0.455
 21
0.85
 31
0.0
  0
MTEXT
  5
267
330
25D
100
AcDbEntity
  8
COTAS
 62
7
100
AcDbMText
 10
0.4675
 20
0.9239999999999999
 30
0.0
 40
0.015
 71
5
  1
0.15
  7
STANDARD
 50
90.0
  0
POINT
  5
268
330
25D
100
AcDbEntity
  8
Defpoints
100
AcDbPoint
 10
0.455
 20
0.998
 30
0.0
  0
POINT
  5
269
330
25D
100
AcDbEntity
  8
Defpoints
100
AcDbPoint
 10
0.525
 20
0.998
 30
0.0
  0
POINT
  5
26A
330
25D
100
AcDbEntity
  8
Defpoints
100
AcDbPoint
 10
0.525
 20
0.85
 30
0.0
  0
ENDBLK
  5
25F
330
25D
100
AcDbEntity
  8
0
100
AcDbBlockEnd
  0
BLOCK
  5
28A
330
289
100
AcDbEntity
  8
0
100
AcDbBlockBegin
  2
*D19
 70
1
 10
0.0
 20
0.0
 30
0.0
  3
*D19
  1

  0
LINE
  5
28C
330
289
100
AcDbEntity
  8
0
100
AcDbLine
 10
1.5
 20
0.744
 30
0.0
 11
1.5
 21
0.702
 31
0.0
  0
LINE
  5
28D
330
289
100
AcDbEntity
  8
0
100
AcDbLine
 10
1.7
 20
0.744
 30
0.0
 11
1.7
 21
0.702
 31
0.0
  0
INSERT
  5
28E
330
289
100
AcDbEntity
  8
COTAS
100
AcDbBlockReference
  2
_OBLIQUE
 10
1.5
 20
0.71
 30
0.0
 41
0.013999999999999999
 42
0.013999999999999999
  0
INSERT
  5
290
330
289
100
AcDbEntity
  8
COTAS
100
AcDbBlockReference
  2
_OBLIQUE
 10
1.7
 20
0.71
 30
0.0
 41
0.013999999999999999
 42
0.013999999999999999
  0
LINE
  5
292
330
289
100
AcDbEntity
  8
0
100
AcDbLine
 10
1.5
 20
0.71
 30
0.0
 11
1.7
 21
0.71
 31
0.0
  0
MTEXT
  5
293
330
289
100
AcDbEntity
  8
COTAS
 62
7
100
AcDbMText
 10
1.6
 20
0.7224999999999999
 30
0.0
 40
0.015
 71
5
  1
0.20
  7
STANDARD
  0
POINT
  5
294
330
289
100
AcDbEntity
  8
Defpoints
100
AcDbPoint
 10
1.5
 20
0.71
 30
0.0
  0
POINT
  5
295
330
289
100
AcDbEntity
  8
Defpoints
100
AcDbPoint
 10
1.5
 20
0.75
 30
0.0
  0
POINT
  5
296
330
289
100
AcDbEntity
  8
Defpoints
100
AcDbPoint
 10
1.7
 20
0.75
 30
0.0
  0
ENDBLK
  5
28B
330
289
100
AcDbEntity
  8
0
100
AcDbBlockEnd
  0
BLOCK
  5
299
330
298
100
AcDbEntity
  8
0
100
AcDbBlockBegin
  2
*D20
 70
1
 10
0.0
 20
0.0
 30
0.0
  3
*D20
  1

  0
LINE
  5
29B
330
298
100
AcDbEntity
  8
0
100
AcDbLine
 10
1.706
 20
0.75
 30
0.0
 11
1.748
 21
0.75
 31
0.0
  0
LINE
  5
29C
330
298
100
AcDbEntity
  8
0
100
AcDbLine
 10
1.706
 20
0.95
 30
0.0
 11
1.748
 21
0.95
 31
0.0
  0
INSERT
  5
29D
330
298
100
AcDbEntity
  8
COTAS
100
AcDbBlockReference
  2
_OBLIQUE
 10
1.74
 20
0.75
 30
0.0
 41
0.013999999999999999
 42
0.013999999999999999
 50
90.0
  0
INSERT
  5
29F
330
298
100
AcDbEntity
  8
COTAS
100
AcDbBlockReference
  2
_OBLIQUE
 10
1.74
 20
0.95
 30
0.0
 41
0.013999999999999999
 42
0.013999999999999999
 50
90.0
  0
LINE
  5
2A1
330
298
100
AcDbEntity
  8
0
100
AcDbLine
 10
1.74
 20
0.75
 30
0.0
 11
1.74
 21
0.95
 31
0.0
  0
MTEXT
  5
2A2
330
298
100
AcDbEntity
  8
COTAS
 62
7
100
AcDbMText
 10
1.7275
 20
0.85
 30
0.0
 40
0.015
 71
5
  1
0.20
  7
STANDARD
 50
90.0
  0
POINT
  5
2A3
330
298
100
AcDbEntity
  8
Defpoints
100
AcDbPoint
 10
1.74
 20
0.75
 30
0.0
  0
POINT
  5
2A4
330
298
100
AcDbEntity
  8
Defpoints
100
AcDbPoint
 10
1.7
 20
0.75
 30
0.0
  0
POINT
  5
2A5
330
298
100
AcDbEntity
  8
Defpoints
100
AcDbPoint
 10
1.7
 20
0.95
 30
0.0
  0
ENDBLK
  5
29A
330
298
100
AcDbEntity
  8
0
100
AcDbBlockEnd
  0
BLOCK
  5
2B6
330
2B5
100
AcDbEntity
  8
0
100
AcDbBlockBegin
  2
*D21
 70
1
 10
0.0
 20
0.0
 30
0.0
  3
*D21
  1

  0
LINE
  5
2B8
330
2B5
100
AcDbEntity
  8
0
100
AcDbLine
 10
2.75
 20
1.131
 30
0.0
 11
2.75
 21
1.173
 31
0.0
  0
LINE
  5
2B9
330
2B5
100
AcDbEntity
  8
0
100
AcDbLine
 10
2.8000000000000003
 20
1.131
 30
0.0
 11
2.8000000000000003
 21
1.173
 31
0.0
  0
INSERT
  5
2BA
330
2B5
100
AcDbEntity
  8
COTAS
100
AcDbBlockReference
  2
_OBLIQUE
 10
2.75
 20
1.165
 30
0.0
 41
0.013999999999999999
 42
0.013999999999999999
  0
INSERT
  5
2BC
330
2B5
100
AcDbEntity
  8
COTAS
100
AcDbBlockReference
  2
_OBLIQUE
 10
2.8000000000000003
 20
1.165
 30
0.0
 41
0.013999999999999999
 42
0.013999999999999999
  0
LINE
  5
2BE
330
2B5
100
AcDbEntity
  8
0
100
AcDbLine
 10
2.75
 20
1.165
 30
0.0
 11
2.8000000000000003
 21
1.165
 31
0.0
  0
MTEXT
  5
2BF
330
2B5
100
AcDbEntity
  8
COTAS
 62
7
100
AcDbMText
 10
2.7750000000000004
 20
1.1855
 30
0.0
 40
0.015
 71
5
  1
0.05
  7
STANDARD
  0
POINT
  5
2C0
330
2B5
100
AcDbEntity
  8
Defpoints
100
AcDbPoint
 10
2.75
 20
1.165
 30
0.0
  0
POINT
  5
2C1
330
2B5
100
AcDbEntity
  8
Defpoints
100
AcDbPoint
 10
2.75
 20
1.125
 30
0.0
  0
POINT
  5
2C2
330
2B5
100
AcDbEntity
  8
Defpoints
100
AcDbPoint
 10
2.8000000000000003
 20
1.125
 30
0.0
  0
ENDBLK
  5
2B7
330
2B5
100
AcDbEntity
  8
0
100
AcDbBlockEnd
  0
BLOCK
  5
2C5
330
2C4
100
AcDbEntity
  8
0
100
AcDbBlockBegin
  2
*D22
 70
1
 10
0.0
 20
0.0
 30
0.0
  3
*D22
  1

  0
LINE
  5
2C7
330
2C4
100
AcDbEntity
  8
0
100
AcDbLine
 10
2.3440000000000003
 20
0.925
 30
0.0
 11
2.302
 21
0.925
 31
0.0
  0
LINE
  5
2C8
330
2C4
100
AcDbEntity
  8
0
100
AcDbLine
 10
2.3440000000000003
 20
1.125
 30
0.0
 11
2.302
 21
1.125
 31
0.0
  0
INSERT
  5
2C9
330
2C4
100
AcDbEntity
  8
COTAS
100
AcDbBlockReference
  2
_OBLIQUE
 10
2.31
 20
0.925
 30
0.0
 41
0.013999999999999999
 42
0.013999999999999999
 50
90.0
  0
INSERT
  5
2CB
330
2C4
100
AcDbEntity
  8
COTAS
100
AcDbBlockReference
  2
_OBLIQUE
 10
2.31
 20
1.125
 30
0.0
 41
0.013999999999999999
 42
0.013999999999999999
 50
90.0
  0
LINE
  5
2CD
330
2C4
100
AcDbEntity
  8
0
100
AcDbLine
 10
2.31
 20
0.925
 30
0.0
 11
2.31
 21
1.125
 31
0.0
  0
MTEXT
  5
2CE
330
2C4
100
AcDbEntity
  8
COTAS
 62
7
100
AcDbMText
 10
2.2975
 20
1.025
 30
0.0
 40
0.015
 71
5
  1
0.20
  7
STANDARD
 50
90.0
  0
POINT
  5
2CF
330
2C4
100
AcDbEntity
  8
Defpoints
100
AcDbPoint
 10
2.31
 20
0.925
 30
0.0
  0
POINT
  5
2D0
330
2C4
100
AcDbEntity
  8
Defpoints
100
AcDbPoint
 10
2.35
 20
0.925
 30
0.0
  0
POINT
  5
2D1
330
2C4
100
AcDbEntity
  8
Defpoints
100
AcDbPoint
 10
2.35
 20
1.125
 30
0.0
  0
ENDBLK
  5
2C6
330
2C4
100
AcDbEntity
  8
0
100
AcDbBlockEnd
  0
BLOCK
  5
2E8
330
2E7
100
AcDbEntity
  8
0
100
AcDbBlockBegin
  2
*D23
 70
1
 10
0.0
 20
0.0
 30
0.0
  3
*D23
  1

  0
LINE
  5
2EA
330
2E7
100
AcDbEntity
  8
0
100
AcDbLine
 10
0.4650000000000001
 20
0.369
 30
0.0
 11
0.4650000000000001
 21
0.287
 31
0.0
  0
LINE
  5
2EB
330
2E7
100
AcDbEntity
  8
0
100
AcDbLine
 10
0.685
 20
0.369
 30
0.0
 11
0.685
 21
0.287
 31
0.0
  0
INSERT
  5
2EC
330
2E7
100
AcDbEntity
  8
COTAS
100
AcDbBlockReference
  2
_OBLIQUE
 10
0.4650000000000001
 20
0.295
 30
0.0
 41
0.013999999999999999
 42
0.013999999999999999
  0
INSERT
  5
2EE
330
2E7
100
AcDbEntity
  8
COTAS
100
AcDbBlockReference
  2
_OBLIQUE
 10
0.685
 20
0.295
 30
0.0
 41
0.013999999999999999
 42
0.013999999999999999
  0
LINE
  5
2F0
330
2E7
100
AcDbEntity
  8
0
100
AcDbLine
 10
0.4650000000000001
 20
0.295
 30
0.0
 11
0.685
 21
0.295
 31
0.0
  0
MTEXT
  5
2F1
330
2E7
100
AcDbEntity
  8
COTAS
 62
7
100
AcDbMText
 10
0.5750000000000001
 20
0.3075
 30
0.0
 40
0.015
 71
5
  1
0.22
  7
STANDARD
  0
POINT
  5
2F2
330
2E7
100
AcDbEntity
  8
Defpoints
100
AcDbPoint
 10
0.4650000000000001
 20
0.295
 30
0.0
  0
POINT
  5
2F3
330
2E7
100
AcDbEntity
  8
Defpoints
100
AcDbPoint
 10
0.4650000000000001
 20
0.375
 30
0.0
  0
POINT
  5
2F4
330
2E7
100
AcDbEntity
  8
Defpoints
100
AcDbPoint
 10
0.685
 20
0.375
 30
0.0
  0
ENDBLK
  5
2E9
330
2E7
100
AcDbEntity
  8
0
100
AcDbBlockEnd
  0
BLOCK
  5
30D
330
30C
100
AcDbEntity
  8
0
100
AcDbBlockBegin
  2
*D24
 70
1
 10
0.0
 20
0.0
 30
0.0
  3
*D24
  1

  0
LINE
  5
30F
330
30C
100
AcDbEntity
  8
0
100
AcDbLine
 10
1.506
 20
0.307
 30
0.0
 11
1.598
 21
0.307
 31
0.0
  0
LINE
  5
310
330
30C
100
AcDbEntity
  8
0
100
AcDbLine
 10
1.506
 20
0.44999999999999996
 30
0.0
 11
1.598
 21
0.44999999999999996
 31
0.0
  0
INSERT
  5
311
330
30C
100
AcDbEntity
  8
COTAS
100
AcDbBlockReference
  2
_OBLIQUE
 10
1.59
 20
0.307
 30
0.0
 41
0.013999999999999999
 42
0.013999999999999999
 50
90.0
  0
INSERT
  5
313
330
30C
100
AcDbEntity
  8
COTAS
100
AcDbBlockReference
  2
_OBLIQUE
 10
1.59
 20
0.44999999999999996
 30
0.0
 41
0.013999999999999999
 42
0.013999999999999999
 50
90.0
  0
LINE
  5
315
330
30C
100
AcDbEntity
  8
0
100
AcDbLine
 10
1.59
 20
0.307
 30
0.0
 11
1.59
 21
0.44999999999999996
 31
0.0
  0
MTEXT
  5
316
330
30C
100
AcDbEntity
  8
COTAS
 62
7
100
AcDbMText
 10
1.5775000000000001
 20
0.37849999999999995
 30
0.0
 40
0.015
 71
5
  1
0.14
  7
STANDARD
 50
90.0
  0
POINT
  5
317
330
30C
100
AcDbEntity
  8
Defpoints
100
AcDbPoint
 10
1.59
 20
0.307
 30
0.0
  0
POINT
  5
318
330
30C
100
AcDbEntity
  8
Defpoints
100
AcDbPoint
 10
1.5
 20
0.307
 30
0.0
  0
POINT
  5
319
330
30C
100
AcDbEntity
  8
Defpoints
100
AcDbPoint
 10
1.5
 20
0.44999999999999996
 30
0.0
  0
ENDBLK
  5
30E
330
30C
100
AcDbEntity
  8
0
100
AcDbBlockEnd
  0
BLOCK
  5
39F
330
39E
100
AcDbEntity
  8
0
100
AcDbBlockBegin
  2
*D25
 70
1
 10
0.0
 20
0.0
 30
0.0
  3
*D25
  1

  0
LINE
  5
3A1
330
39E
100
AcDbEntity
  8
0
100
AcDbLine
 10
6.1000000000000005
 20
-15.02
 30
0.0
 11
6.1000000000000005
 21
-14.716
 31
0.0
  0
LINE
  5
3A2
330
39E
100
AcDbEntity
  8
0
100
AcDbLine
 10
6.7
 20
-15.026
 30
0.0
 11
6.7
 21
-14.716
 31
0.0
  0
INSERT
  5
3A3
330
39E
100
AcDbEntity
  8
COTAS
100
AcDbBlockReference
  2
_OBLIQUE
 10
6.1000000000000005
 20
-14.732
 30
0.0
 41
0.027999999999999997
 42
0.027999999999999997
  0
INSERT
  5
3A5
330
39E
100
AcDbEntity
  8
COTAS
100
AcDbBlockReference
  2
_OBLIQUE
 10
6.7
 20
-14.732
 30
0.0
 41
0.027999999999999997
 42
0.027999999999999997
  0
LINE
  5
3A7
330
39E
100
AcDbEntity
  8
0
100
AcDbLine
 10
6.1000000000000005
 20
-14.732
 30
0.0
 11
6.7
 21
-14.732
 31
0.0
  0
MTEXT
  5
3A8
330
39E
100
AcDbEntity
  8
COTAS
 62
7
100
AcDbMText
 10
6.4
 20
-14.706999999999999
 30
0.0
 40
0.03
 71
5
  1
0.60
  7
STANDARD
  0
POINT
  5
3A9
330
39E
100
AcDbEntity
  8
Defpoints
100
AcDbPoint
 10
6.1000000000000005
 20
-14.732
 30
0.0
  0
POINT
  5
3AA
330
39E
100
AcDbEntity
  8
Defpoints
100
AcDbPoint
 10
6.1000000000000005
 20
-15.032
 30
0.0
  0
POINT
  5
3AB
330
39E
100
AcDbEntity
  8
Defpoints
100
AcDbPoint
 10
6.7
 20
-15.038
 30
0.0
  0
ENDBLK
  5
3A0
330
39E
100
AcDbEntity
  8
0
100
AcDbBlockEnd
  0
BLOCK
  5
3AE
330
3AD
100
AcDbEntity
  8
0
100
AcDbBlockBegin
  2
*D26
 70
1
 10
0.0
 20
0.0
 30
0.0
  3
*D26
  1

  0
LINE
  5
3B0
330
3AD
100
AcDbEntity
  8
0
100
AcDbLine
 10
6.7
 20
-15.026
 30
0.0
 11
6.7
 21
-14.722
 31
0.0
  0
LINE
  5
3B1
330
3AD
100
AcDbEntity
  8
0
100
AcDbLine
 10
7.300000000000001
 20
-15.032
 30
0.0
 11
7.300000000000001
 21
-14.722
 31
0.0
  0
INSERT
  5
3B2
330
3AD
100
AcDbEntity
  8
COTAS
100
AcDbBlockReference
  2
_OBLIQUE
 10
6.7
 20
-14.738
 30
0.0
 41
0.027999999999999997
 42
0.027999999999999997
  0
INSERT
  5
3B4
330
3AD
100
AcDbEntity
  8
COTAS
100
AcDbBlockReference
  2
_OBLIQUE
 10
7.300000000000001
 20
-14.738
 30
0.0
 41
0.027999999999999997
 42
0.027999999999999997
  0
LINE
  5
3B6
330
3AD
100
AcDbEntity
  8
0
100
AcDbLine
 10
6.7
 20
-14.738
 30
0.0
 11
7.300000000000001
 21
-14.738
 31
0.0
  0
MTEXT
  5
3B7
330
3AD
100
AcDbEntity
  8
COTAS
 62
7
100
AcDbMText
 10
7.0
 20
-14.713
 30
0.0
 40
0.03
 71
5
  1
0.60
  7
STANDARD
  0
POINT
  5
3B8
330
3AD
100
AcDbEntity
  8
Defpoints
100
AcDbPoint
 10
6.7
 20
-14.738
 30
0.0
  0
POINT
  5
3B9
330
3AD
100
AcDbEntity
  8
Defpoints
100
AcDbPoint
 10
6.7
 20
-15.038
 30
0.0
  0
POINT
  5
3BA
330
3AD
100
AcDbEntity
  8
Defpoints
100
AcDbPoint
 10
7.300000000000001
 20
-15.044
 30
0.0
  0
ENDBLK
  5
3AF
330
3AD
100
AcDbEntity
  8
0
100
AcDbBlockEnd
  0
BLOCK
  5
3BD
330
3BC
100
AcDbEntity
  8
0
100
AcDbBlockBegin
  2
*D27
 70
1
 10
0.0
 20
0.0
 30
0.0
  3
*D27
  1

  0
LINE
  5
3BF
330
3BC
100
AcDbEntity
  8
0
100
AcDbLine
 10
4.9
 20
-15.342
 30
0.0
 11
4.9
 21
-15.406
 31
0.0
  0
LINE
  5
3C0
330
3BC
100
AcDbEntity
  8
0
100
AcDbLine
 10
7.9
 20
-15.342
 30
0.0
 11
7.9
 21
-15.406
 31
0.0
  0
INSERT
  5
3C1
330
3BC
100
AcDbEntity
  8
COTAS
100
AcDbBlockReference
  2
_OBLIQUE
 10
4.9
 20
-15.39
 30
0.0
 41
0.027999999999999997
 42
0.027999999999999997
  0
INSERT
  5
3C3
330
3BC
100
AcDbEntity
  8
COTAS
100
AcDbBlockReference
  2
_OBLIQUE
 10
7.9
 20
-15.39
 30
0.0
 41
0.027999999999999997
 42
0.027999999999999997
  0
LINE
  5
3C5
330
3BC
100
AcDbEntity
  8
0
100
AcDbLine
 10
4.9
 20
-15.39
 30
0.0
 11
7.9
 21
-15.39
 31
0.0
  0
MTEXT
  5
3C6
330
3BC
100
AcDbEntity
  8
COTAS
 62
7
100
AcDbMText
 10
6.4
 20
-15.365
 30
0.0
 40
0.03
 71
5
  1
L = variable (se muestra 3.00 m)
  7
STANDARD
  0
POINT
  5
3C7
330
3BC
100
AcDbEntity
  8
Defpoints
100
AcDbPoint
 10
4.9
 20
-15.39
 30
0.0
  0
POINT
  5
3C8
330
3BC
100
AcDbEntity
  8
Defpoints
100
AcDbPoint
 10
4.9
 20
-15.33
 30
0.0
  0
POINT
  5
3C9
330
3BC
100
AcDbEntity
  8
Defpoints
100
AcDbPoint
 10
7.9
 20
-15.33
 30
0.0
  0
ENDBLK
  5
3BE
330
3BC
100
AcDbEntity
  8
0
100
AcDbBlockEnd
  0
BLOCK
  5
3FF
330
3FE
100
AcDbEntity
  8
0
100
AcDbBlockBegin
  2
*D28
 70
1
 10
0.0
 20
0.0
 30
0.0
  3
*D28
  1

  0
LINE
  5
401
330
3FE
100
AcDbEntity
  8
0
100
AcDbLine
 10
0.75
 20
-16.038
 30
0.0
 11
0.75
 21
-15.954
 31
0.0
  0
LINE
  5
402
330
3FE
100
AcDbEntity
  8
0
100
AcDbLine
 10
1.35
 20
-16.038
 30
0.0
 11
1.35
 21
-15.954
 31
0.0
  0
INSERT
  5
403
330
3FE
100
AcDbEntity
  8
COTAS
100
AcDbBlockReference
  2
_OBLIQUE
 10
0.75
 20
-15.97
 30
0.0
 41
0.027999999999999997
 42
0.027999999999999997
  0
INSERT
  5
405
330
3FE
100
AcDbEntity
  8
COTAS
100
AcDbBlockReference
  2
_OBLIQUE
 10
1.35
 20
-15.97
 30
0.0
 41
0.027999999999999997
 42
0.027999999999999997
  0
LINE
  5
407
330
3FE
100
AcDbEntity
  8
0
100
AcDbLine
 10
0.75
 20
-15.97
 30
0.0
 11
1.35
 21
-15.97
 31
0.0
  0
MTEXT
  5
408
330
3FE
100
AcDbEntity
  8
COTAS
 62
7
100
AcDbMText
 10
1.05
 20
-15.945
 30
0.0
 40
0.03
 71
5
  1
0.60
  7
STANDARD
  0
POINT
  5
409
330
3FE
100
AcDbEntity
  8
Defpoints
100
AcDbPoint
 10
0.75
 20
-15.97
 30
0.0
  0
POINT
  5
40A
330
3FE
100
AcDbEntity
  8
Defpoints
100
AcDbPoint
 10
0.75
 20
-16.05
 30
0.0
  0
POINT
  5
40B
330
3FE
100
AcDbEntity
  8
Defpoints
100
AcDbPoint
 10
1.35
 20
-16.05
 30
0.0
  0
ENDBLK
  5
400
330
3FE
100
AcDbEntity
  8
0
100
AcDbBlockEnd
  0
BLOCK
  5
40E
330
40D
100
AcDbEntity
  8
0
100
AcDbBlockBegin
  2
*D29
 70
1
 10
0.0
 20
0.0
 30
0.0
  3
*D29
  1

  0
LINE
  5
410
330
40D
100
AcDbEntity
  8
0
100
AcDbLine
 10
0.738
 20
-19.05
 30
0.0
 11
0.644
 21
-19.05
 31
0.0
  0
LINE
  5
411
330
40D
100
AcDbEntity
  8
0
100
AcDbLine
 10
0.738
 20
-17.75
 30
0.0
 11
0.644
 21
-17.75
 31
0.0
  0
INSERT
  5
412
330
40D
100
AcDbEntity
  8
COTAS
100
AcDbBlockReference
  2
_OBLIQUE
 10
0.66
 20
-19.05
 30
0.0
 41
0.027999999999999997
 42
0.027999999999999997
 50
90.0
  0
INSERT
  5
414
330
40D
100
AcDbEntity
  8
COTAS
100
AcDbBlockReference
  2
_OBLIQUE
 10
0.66
 20
-17.75
 30
0.0
 41
0.027999999999999997
 42
0.027999999999999997
 50
90.0
  0
LINE
  5
416
330
40D
100
AcDbEntity
  8
0
100
AcDbLine
 10
0.66
 20
-19.05
 30
0.0
 11
0.66
 21
-17.75
 31
0.0
  0
MTEXT
  5
417
330
40D
100
AcDbEntity
  8
COTAS
 62
7
100
AcDbMText
 10
0.635
 20
-18.4
 30
0.0
 40
0.03
 71
5
  1
1.30
  7
STANDARD
 50
90.0
  0
POINT
  5
418
330
40D
100
AcDbEntity
  8
Defpoints
100
AcDbPoint
 10
0.66
 20
-19.05
 30
0.0
  0
POINT
  5
419
330
40D
100
AcDbEntity
  8
Defpoints
100
AcDbPoint
 10
0.75
 20
-19.05
 30
0.0
  0
POINT
  5
41A
330
40D
100
AcDbEntity
  8
Defpoints
100
AcDbPoint
 10
0.75
 20
-17.75
 30
0.0
  0
ENDBLK
  5
40F
330
40D
100
AcDbEntity
  8
0
100
AcDbBlockEnd
  0
BLOCK
  5
41D
330
41C
100
AcDbEntity
  8
0
100
AcDbBlockBegin
  2
*D30
 70
1
 10
0.0
 20
0.0
 30
0.0
  3
*D30
  1

  0
LINE
  5
41F
330
41C
100
AcDbEntity
  8
0
100
AcDbLine
 10
0.613
 20
-19.400000000000002
 30
0.0
 11
0.519
 21
-19.400000000000002
 31
0.0
  0
LINE
  5
420
330
41C
100
AcDbEntity
  8
0
100
AcDbLine
 10
0.613
 20
-19.05
 30
0.0
 11
0.519
 21
-19.05
 31
0.0
  0
INSERT
  5
421
330
41C
100
AcDbEntity
  8
COTAS
100
AcDbBlockReference
  2
_OBLIQUE
 10
0.535
 20
-19.400000000000002
 30
0.0
 41
0.027999999999999997
 42
0.027999999999999997
 50
90.0
  0
INSERT
  5
423
330
41C
100
AcDbEntity
  8
COTAS
100
AcDbBlockReference
  2
_OBLIQUE
 10
0.535
 20
-19.05
 30
0.0
 41
0.027999999999999997
 42
0.027999999999999997
 50
90.0
  0
LINE
  5
425
330
41C
100
AcDbEntity
  8
0
100
AcDbLine
 10
0.535
 20
-19.400000000000002
 30
0.0
 11
0.535
 21
-19.05
 31
0.0
  0
MTEXT
  5
426
330
41C
100
AcDbEntity
  8
COTAS
 62
7
100
AcDbMText
 10
0.51
 20
-19.225
 30
0.0
 40
0.03
 71
5
  1
0.35
  7
STANDARD
 50
90.0
  0
POINT
  5
427
330
41C
100
AcDbEntity
  8
Defpoints
100
AcDbPoint
 10
0.535
 20
-19.400000000000002
 30
0.0
  0
POINT
  5
428
330
41C
100
AcDbEntity
  8
Defpoints
100
AcDbPoint
 10
0.625
 20
-19.400000000000002
 30
0.0
  0
POINT
  5
429
330
41C
100
AcDbEntity
  8
Defpoints
100
AcDbPoint
 10
0.625
 20
-19.05
 30
0.0
  0
ENDBLK
  5
41E
330
41C
100
AcDbEntity
  8
0
100
AcDbBlockEnd
  0
BLOCK
  5
42C
330
42B
100
AcDbEntity
  8
0
100
AcDbBlockBegin
  2
*D31
 70
1
 10
0.0
 20
0.0
 30
0.0
  3
*D31
  1

  0
LINE
  5
42E
330
42B
100
AcDbEntity
  8
0
100
AcDbLine
 10
1.025
 20
-19.412000000000003
 30
0.0
 11
1.025
 21
-19.476
 31
0.0
  0
LINE
  5
42F
330
42B
100
AcDbEntity
  8
0
100
AcDbLine
 10
0.625
 20
-19.412000000000003
 30
0.0
 11
0.625
 21
-19.476
 31
0.0
  0
INSERT
  5
430
330
42B
100
AcDbEntity
  8
COTAS
100
AcDbBlockReference
  2
_OBLIQUE
 10
1.025
 20
-19.46
 30
0.0
 41
0.027999999999999997
 42
0.027999999999999997
  0
INSERT
  5
432
330
42B
100
AcDbEntity
  8
COTAS
100
AcDbBlockReference
  2
_OBLIQUE
 10
0.625
 20
-19.46
 30
0.0
 41
0.027999999999999997
 42
0.027999999999999997
  0
LINE
  5
434
330
42B
100
AcDbEntity
  8
0
100
AcDbLine
 10
1.025
 20
-19.46
 30
0.0
 11
0.625
 21
-19.46
 31
0.0
  0
MTEXT
  5
435
330
42B
100
AcDbEntity
  8
COTAS
 62
7
100
AcDbMText
 10
0.825
 20
-19.485
 30
0.0
 40
0.03
 71
5
  1
0.40
  7
STANDARD
  0
POINT
  5
436
330
42B
100
AcDbEntity
  8
Defpoints
100
AcDbPoint
 10
1.025
 20
-19.46
 30
0.0
  0
POINT
  5
437
330
42B
100
AcDbEntity
  8
Defpoints
100
AcDbPoint
 10
1.025
 20
-19.400000000000002
 30
0.0
  0
POINT
  5
438
330
42B
100
AcDbEntity
  8
Defpoints
100
AcDbPoint
 10
0.625
 20
-19.400000000000002
 30
0.0
  0
ENDBLK
  5
42D
330
42B
100
AcDbEntity
  8
0
100
AcDbBlockEnd
  0
BLOCK
  5
43B
330
43A
100
AcDbEntity
  8
0
100
AcDbBlockBegin
  2
*D32
 70
1
 10
0.0
 20
0.0
 30
0.0
  3
*D32
  1

  0
LINE
  5
43D
330
43A
100
AcDbEntity
  8
0
100
AcDbLine
 10
0.904
 20
-17.6
 30
0.0
 11
0.968
 21
-17.6
 31
0.0
  0
LINE
  5
43E
330
43A
100
AcDbEntity
  8
0
100
AcDbLine
 10
0.904
 20
-16.6
 30
0.0
 11
0.968
 21
-16.6
 31
0.0
  0
INSERT
  5
43F
330
43A
100
AcDbEntity
  8
COTAS
100
AcDbBlockReference
  2
_OBLIQUE
 10
0.952
 20
-17.6
 30
0.0
 41
0.027999999999999997
 42
0.027999999999999997
 50
90.0
  0
INSERT
  5
441
330
43A
100
AcDbEntity
  8
COTAS
100
AcDbBlockReference
  2
_OBLIQUE
 10
0.952
 20
-16.6
 30
0.0
 41
0.027999999999999997
 42
0.027999999999999997
 50
90.0
  0
LINE
  5
443
330
43A
100
AcDbEntity
  8
0
100
AcDbLine
 10
0.952
 20
-17.6
 30
0.0
 11
0.952
 21
-16.6
 31
0.0
  0
MTEXT
  5
444
330
43A
100
AcDbEntity
  8
COTAS
 62
7
100
AcDbMText
 10
0.9269999999999999
 20
-17.1
 30
0.0
 40
0.03
 71
5
  1
<= 1.50
  7
STANDARD
 50
90.0
  0
POINT
  5
445
330
43A
100
AcDbEntity
  8
Defpoints
100
AcDbPoint
 10
0.952
 20
-17.6
 30
0.0
  0
POINT
  5
446
330
43A
100
AcDbEntity
  8
Defpoints
100
AcDbPoint
 10
0.892
 20
-17.6
 30
0.0
  0
POINT
  5
447
330
43A
100
AcDbEntity
  8
Defpoints
100
AcDbPoint
 10
0.892
 20
-16.6
 30
0.0
  0
ENDBLK
  5
43C
330
43A
100
AcDbEntity
  8
0
100
AcDbBlockEnd
  0
BLOCK
  5
44A
330
449
100
AcDbEntity
  8
0
100
AcDbBlockBegin
  2
*D33
 70
1
 10
0.0
 20
0.0
 30
0.0
  3
*D33
  1

  0
LINE
  5
44C
330
449
100
AcDbEntity
  8
0
100
AcDbLine
 10
1.662
 20
-19.05
 30
0.0
 11
1.786
 21
-19.05
 31
0.0
  0
LINE
  5
44D
330
449
100
AcDbEntity
  8
0
100
AcDbLine
 10
1.662
 20
-16.05
 30
0.0
 11
1.786
 21
-16.05
 31
0.0
  0
INSERT
  5
44E
330
449
100
AcDbEntity
  8
COTAS
100
AcDbBlockReference
  2
_OBLIQUE
 10
1.77
 20
-19.05
 30
0.0
 41
0.027999999999999997
 42
0.027999999999999997
 50
90.0
  0
INSERT
  5
450
330
449
100
AcDbEntity
  8
COTAS
100
AcDbBlockReference
  2
_OBLIQUE
 10
1.77
 20
-16.05
 30
0.0
 41
0.027999999999999997
 42
0.027999999999999997
 50
90.0
  0
LINE
  5
452
330
449
100
AcDbEntity
  8
0
100
AcDbLine
 10
1.77
 20
-19.05
 30
0.0
 11
1.77
 21
-16.05
 31
0.0
  0
MTEXT
  5
453
330
449
100
AcDbEntity
  8
COTAS
 62
7
100
AcDbMText
 10
1.745
 20
-17.55
 30
0.0
 40
0.03
 71
5
  1
variable (3.00 tipico)
  7
STANDARD
 50
90.0
  0
POINT
  5
454
330
449
100
AcDbEntity
  8
Defpoints
100
AcDbPoint
 10
1.77
 20
-19.05
 30
0.0
  0
POINT
  5
455
330
449
100
AcDbEntity
  8
Defpoints
100
AcDbPoint
 10
1.65
 20
-19.05
 30
0.0
  0
POINT
  5
456
330
449
100
AcDbEntity
  8
Defpoints
100
AcDbPoint
 10
1.65
 20
-16.05
 30
0.0
  0
ENDBLK
  5
44B
330
449
100
AcDbEntity
  8
0
100
AcDbBlockEnd
  0
BLOCK
  5
48C
330
48B
100
AcDbEntity
  8
0
100
AcDbBlockBegin
  2
*Paper_Space1
 70
0
 10
0.0
 20
0.0
 30
0.0
  3
*Paper_Space1
  1

  0
VIEWPORT
  5
48F
330
48B
100
AcDbEntity
 67
1
  8
VIEWPORTS
100
AcDbViewport
 10
420.5
 20
297.0
 30
0.0
 40
925.1
 41
653.4000000000001
 68
1
 69
1
 12
420.5
 22
297.0
 13
0.0
 23
0.0
 14
10.0
 24
10.0
 15
10.0
 25
10.0
 16
0.0
 26
0.0
 36
1.0
 17
0.0
 27
0.0
 37
0.0
 42
50.0
 43
0.0
 44
0.0
 45
653.4000000000001
 50
0.0
 51
0.0
 72
100
 90
557088
  1

281
0
 71
0
 74
0
110
0.0
120
0.0
130
0.0
111
1.0
121
0.0
131
0.0
112
0.0
122
1.0
132
0.0
 79
0
146
0.0
282
0
  0
VIEWPORT
  5
490
330
48B
100
AcDbEntity
 67
1
  8
MARCO
100
AcDbViewport
 10
420.5
 20
297.0
 30
0.0
 40
841.0
 41
594.0
 68
2
 69
3
 12
4.205
 22
-17.03
 13
0.0
 23
0.0
 14
10.0
 24
10.0
 15
10.0
 25
10.0
 16
0.0
 26
0.0
 36
1.0
 17
0.0
 27
0.0
 37
0.0
 42
50.0
 43
0.0
 44
0.0
 45
5.94
 50
0.0
 51
0.0
 72
100
 90
16384
  1

281
0
 71
0
 74
0
110
0.0
120
0.0
130
0.0
111
1.0
121
0.0
131
0.0
112
0.0
122
1.0
132
0.0
 79
0
146
0.0
282
0
  0
ENDBLK
  5
48D
330
48B
100
AcDbEntity
  8
0
100
AcDbBlockEnd
  0
BLOCK
  5
486
330
485
100
AcDbEntity
  8
0
100
AcDbBlockBegin
  2
*Paper_Space
 70
0
 10
0.0
 20
0.0
 30
0.0
  3
*Paper_Space
  1

  0
ENDBLK
  5
487
330
485
100
AcDbEntity
  8
0
100
AcDbBlockEnd
  0
ENDSEC
  0
SECTION
  2
ENTITIES
  0
LWPOLYLINE
  5
C7
330
17
100
AcDbEntity
  8
MARCO
100
AcDbPolyline
 90
4
 70
1
 10
0.0
 20
0.0
 10
4.205
 20
0.0
 10
4.205
 20
2.97
 10
0.0
 20
2.97
  0
LWPOLYLINE
  5
C8
330
17
100
AcDbEntity
  8
MARCO
100
AcDbPolyline
 90
4
 70
1
 43
0.004
 10
0.125
 20
0.05
 10
4.155
 20
0.05
 10
4.155
 20
2.92
 10
0.125
 20
2.92
  0
LWPOLYLINE
  5
C9
330
17
100
AcDbEntity
  8
ROTULO
100
AcDbPolyline
 90
4
 70
1
 43
0.0025
 10
3.23
 20
0.05
 10
4.155
 20
0.05
 10
4.155
 20
0.525
 10
3.23
 20
0.525
  0
LINE
  5
CA
330
17
100
AcDbEntity
  8
ROTULO
100
AcDbLine
 10
3.23
 20
0.41500000000000004
 30
0.0
 11
4.155
 21
0.41500000000000004
 31
0.0
  0
LINE
  5
CB
330
17
100
AcDbEntity
  8
ROTULO
100
AcDbLine
 10
3.23
 20
0.325
 30
0.0
 11
4.155
 21
0.325
 31
0.0
  0
LINE
  5
CC
330
17
100
AcDbEntity
  8
ROTULO
100
AcDbLine
 10
3.23
 20
0.265
 30
0.0
 11
4.155
 21
0.265
 31
0.0
  0
LINE
  5
CD
330
17
100
AcDbEntity
  8
ROTULO
100
AcDbLine
 10
3.23
 20
0.215
 30
0.0
 11
4.155
 21
0.215
 31
0.0
  0
LINE
  5
CE
330
17
100
AcDbEntity
  8
ROTULO
100
AcDbLine
 10
3.23
 20
0.155
 30
0.0
 11
4.155
 21
0.155
 31
0.0
  0
LINE
  5
CF
330
17
100
AcDbEntity
  8
ROTULO
100
AcDbLine
 10
3.23
 20
0.1
 30
0.0
 11
4.155
 21
0.1
 31
0.0
  0
TEXT
  5
D0
330
17
100
AcDbEntity
  8
ROTULO-TEXTO
100
AcDbText
 10
3.24
 20
0.5075000000000001
 30
0.0
 40
0.01
  1
PROYECTO:
  7
STANDARD
 11
3.24
 21
0.5075000000000001
 31
0.0
100
AcDbText
  0
TEXT
  5
D1
330
17
100
AcDbEntity
  8
ROTULO-TEXTO
100
AcDbText
 10
3.24
 20
0.485
 30
0.0
 40
0.008
  1
CREACION DEL SERVICIO DE PROTECCION INTEGRAL A NINAS, NINOS Y ADOLESCENTES SIN CUIDADOS PARENTALES O EN RIESGO DE PERDERLOS
  7
STANDARD
 11
3.24
 21
0.485
 31
0.0
100
AcDbText
  0
TEXT
  5
D2
330
17
100
AcDbEntity
  8
ROTULO-TEXTO
100
AcDbText
 10
3.24
 20
0.4675
 30
0.0
 40
0.008
  1
EN CENTRO DE ACOGIDA RESIDENCIAL - MUJERES, DISTRITO DE MORALES, PROVINCIA Y DEPARTAMENTO DE SAN MARTIN - CUI N. 2717013
  7
STANDARD
 11
3.24
 21
0.4675
 31
0.0
100
AcDbText
  0
TEXT
  5
D3
330
17
100
AcDbEntity
  8
ROTULO-TEXTO
100
AcDbText
 10
3.24
 20
0.4375
 30
0.0
 40
0.008
  1
ENTIDAD: GERENCIA TERRITORIAL BAJO MAYO - TARAPOTO
  7
STANDARD
 11
3.24
 21
0.4375
 31
0.0
100
AcDbText
  0
TEXT
  5
D4
330
17
100
AcDbEntity
  8
ROTULO-TEXTO
100
AcDbText
 10
3.24
 20
0.39
 30
0.0
 40
0.009000000000000001
  1
UBICACION: PREDIO RURAL LOS MANGOS - MORALES - SAN MARTIN - SAN MARTIN
  7
STANDARD
 11
3.24
 21
0.39
 31
0.0
100
AcDbText
  0
TEXT
  5
D5
330
17
100
AcDbEntity
  8
ROTULO-TEXTO
100
AcDbText
 10
3.24
 20
0.36
 30
0.0
 40
0.009000000000000001
  1
ESPECIALIDAD: INSTALACIONES SANITARIAS - DRENAJE PLUVIAL
  7
STANDARD
 11
3.24
 21
0.36
 31
0.0
100
AcDbText
  0
TEXT
  5
D6
330
17
100
AcDbEntity
  8
ROTULO-TEXTO
100
AcDbText
 10
3.24
 20
0.3025
 30
0.0
 40
0.01
  1
PLANO:
  7
STANDARD
 11
3.24
 21
0.3025
 31
0.0
100
AcDbText
  0
TEXT
  5
D7
330
17
100
AcDbEntity
  8
ROTULO-TEXTO
100
AcDbText
 10
3.3000000000000003
 20
0.3025
 30
0.0
 40
0.012
  1
DETALLES DE CANALETA DE TECHO, SOPORTE Y ACCESORIOS
  7
STANDARD
 11
3.3000000000000003
 21
0.3025
 31
0.0
100
AcDbText
  0
TEXT
  5
D8
330
17
100
AcDbEntity
  8
ROTULO-TEXTO
100
AcDbText
 10
3.3000000000000003
 20
0.28
 30
0.0
 40
0.009000000000000001
  1
SECCION, SOPORTE DE PLATINA, TAPA LATERAL, BOQUILLA, UNION, ABRAZADERA Y COLGADOR - CAR MUJERES
  7
STANDARD
 11
3.3000000000000003
 21
0.28
 31
0.0
100
AcDbText
  0
TEXT
  5
D9
330
17
100
AcDbEntity
  8
ROTULO-TEXTO
100
AcDbText
 10
3.24
 20
0.23750000000000002
 30
0.0
 40
0.009000000000000001
  1
PROYECTISTA: ______________________        CIP: ________
  7
STANDARD
 11
3.24
 21
0.23750000000000002
 31
0.0
100
AcDbText
  0
TEXT
  5
DA
330
17
100
AcDbEntity
  8
ROTULO-TEXTO
100
AcDbText
 10
3.24
 20
0.185
 30
0.0
 40
0.009000000000000001
  1
ELABORADO: HIDROCONSULT
  7
STANDARD
 11
3.24
 21
0.185
 31
0.0
100
AcDbText
  0
LINE
  5
DB
330
17
100
AcDbEntity
  8
ROTULO
100
AcDbLine
 10
3.855
 20
0.215
 30
0.0
 11
3.855
 21
0.05
 31
0.0
  0
LINE
  5
DC
330
17
100
AcDbEntity
  8
ROTULO
100
AcDbLine
 10
4.055
 20
0.155
 30
0.0
 11
4.055
 21
0.05
 31
0.0
  0
TEXT
  5
DD
330
17
100
AcDbEntity
  8
ROTULO-TEXTO
100
AcDbText
 10
3.865
 20
0.185
 30
0.0
 40
0.009000000000000001
  1
ESCALA:
  7
STANDARD
 11
3.865
 21
0.185
 31
0.0
100
AcDbText
  0
TEXT
  5
DE
330
17
100
AcDbEntity
  8
ROTULO-TEXTO
100
AcDbText
 10
3.9450000000000003
 20
0.185
 30
0.0
 40
0.012
  1
1/5
  7
STANDARD
 11
3.9450000000000003
 21
0.185
 31
0.0
100
AcDbText
  0
TEXT
  5
DF
330
17
100
AcDbEntity
  8
ROTULO-TEXTO
100
AcDbText
 10
3.24
 20
0.1275
 30
0.0
 40
0.009000000000000001
  1
REVISADO: ________________
  7
STANDARD
 11
3.24
 21
0.1275
 31
0.0
100
AcDbText
  0
TEXT
  5
E0
330
17
100
AcDbEntity
  8
ROTULO-TEXTO
100
AcDbText
 10
3.865
 20
0.1275
 30
0.0
 40
0.009000000000000001
  1
FECHA:
  7
STANDARD
 11
3.865
 21
0.1275
 31
0.0
100
AcDbText
  0
TEXT
  5
E1
330
17
100
AcDbEntity
  8
ROTULO-TEXTO
100
AcDbText
 10
3.9450000000000003
 20
0.1275
 30
0.0
 40
0.01
  1
OCT. 2026
  7
STANDARD
 11
3.9450000000000003
 21
0.1275
 31
0.0
100
AcDbText
  0
TEXT
  5
E2
330
17
100
AcDbEntity
  8
ROTULO-TEXTO
100
AcDbText
 10
4.065
 20
0.1275
 30
0.0
 40
0.009000000000000001
  1
LAMINA:
  7
STANDARD
 11
4.065
 21
0.1275
 31
0.0
100
AcDbText
  0
TEXT
  5
E3
330
17
100
AcDbEntity
  8
ROTULO-TEXTO
100
AcDbText
 10
3.24
 20
0.07
 30
0.0
 40
0.009000000000000001
  1
FIRMA Y SELLO:
  7
STANDARD
 11
3.24
 21
0.07
 31
0.0
100
AcDbText
  0
TEXT
  5
E4
330
17
100
AcDbEntity
  8
ROTULO-TEXTO
100
AcDbText
 10
3.865
 20
0.07
 30
0.0
 40
0.009000000000000001
  1
REVISION: 00
  7
STANDARD
 11
3.865
 21
0.07
 31
0.0
100
AcDbText
  0
TEXT
  5
E5
330
17
100
AcDbEntity
  8
TITULOS
100
AcDbText
 10
4.1475
 20
0.0575
 30
0.0
 40
0.027000000000000003
  1
DR-01
  7
TITULOS
 72
2
 11
4.1475
 21
0.0575
 31
0.0
100
AcDbText
 73
1
  0
HATCH
  5
E6
330
17
100
AcDbEntity
  8
CONCRETO-ACHURADO
 62
7
420
14869218
100
AcDbHatch
 10
0.0
 20
0.0
 30
0.0
210
0.0
220
0.0
230
1.0
  2
SOLID
 70
1
 71
0
 91
1
 92
3
 72
0
 73
1
 93
4
 10
0.33
 20
1.7750000000000001
 10
0.75
 20
1.7750000000000001
 10
0.75
 20
1.975
 10
0.33
 20
1.975
 97
0
 75
1
 76
1
 98
0
  0
LWPOLYLINE
  5
E7
330
17
100
AcDbEntity
  8
CONCRETO
100
AcDbPolyline
 90
4
 70
1
 10
0.33
 20
1.7750000000000001
 10
0.75
 20
1.7750000000000001
 10
0.75
 20
1.975
 10
0.33
 20
1.975
  0
LWPOLYLINE
  5
E8
330
17
100
AcDbEntity
  8
MURO
100
AcDbPolyline
 90
2
 70
0
 10
0.33
 20
1.7550000000000001
 10
0.33
 20
1.995
  0
LWPOLYLINE
  5
E9
330
17
100
AcDbEntity
  8
COBERTURA
100
AcDbPolyline
 90
3
 70
0
 43
0.004
 10
0.33
 20
2.095
 10
0.55
 20
2.073
 10
0.88
 20
2.04
  0
LWPOLYLINE
  5
EA
330
17
100
AcDbEntity
  8
COBERTURA
100
AcDbPolyline
 90
4
 70
1
 10
0.45
 20
1.975
 10
0.53
 20
1.975
 10
0.53
 20
2.065
 10
0.45
 20
2.065
  0
LWPOLYLINE
  5
EB
330
17
100
AcDbEntity
  8
PLANCHA-GALV
100
AcDbPolyline
 90
5
 70
0
 43
0.0012
 10
0.753175
 20
1.925
 10
0.753175
 20
1.675
 10
1.003175
 20
1.675
 10
1.003175
 20
1.875
 10
0.953175
 20
1.875
  0
HATCH
  5
EC
330
17
100
AcDbEntity
  8
AGUA-RELLENO
 62
7
420
13493494
100
AcDbHatch
 10
0.0
 20
0.0
 30
0.0
210
0.0
220
0.0
230
1.0
  2
SOLID
 70
1
 71
0
 91
1
 92
3
 72
0
 73
1
 93
4
 10
0.754175
 20
1.676
 10
1.002175
 20
1.676
 10
1.002175
 20
1.73
 10
0.754175
 20
1.73
 97
0
 75
1
 76
1
 98
0
  0
LINE
  5
ED
330
17
100
AcDbEntity
  8
AGUA
100
AcDbLine
 10
0.763175
 20
1.73
 30
0.0
 11
0.9931749999999999
 21
1.73
 31
0.0
  0
LWPOLYLINE
  5
EE
330
17
100
AcDbEntity
  8
PLATINA
100
AcDbPolyline
 90
5
 70
0
 43
0.003175
 10
0.7515875
 20
1.975
 10
0.7515875
 20
1.6734125
 10
1.0047625
 20
1.6734125
 10
1.0047625
 20
1.8765875
 10
0.9047625
 20
1.8765875
  0
LWPOLYLINE
  5
EF
330
17
100
AcDbEntity
  8
PERNOS
100
AcDbPolyline
 90
4
 70
1
 10
0.7515875
 20
1.9445000000000001
 10
0.7555875
 20
1.9445000000000001
 10
0.7555875
 20
1.9555
 10
0.7515875
 20
1.9555
  0
LWPOLYLINE
  5
F0
330
17
100
AcDbEntity
  8
PERNOS
100
AcDbPolyline
 90
4
 70
0
 10
0.7515875
 20
1.9532
 10
0.6880875
 20
1.9532
 10
0.6880875
 20
1.9468
 10
0.7515875
 20
1.9468
  0
LWPOLYLINE
  5
F1
330
17
100
AcDbEntity
  8
PERNOS
100
AcDbPolyline
 90
4
 70
1
 10
0.7515875
 20
1.8945
 10
0.7555875
 20
1.8945
 10
0.7555875
 20
1.9055
 10
0.7515875
 20
1.9055
  0
LWPOLYLINE
  5
F2
330
17
100
AcDbEntity
  8
PERNOS
100
AcDbPolyline
 90
4
 70
0
 10
0.7515875
 20
1.9032
 10
0.6880875
 20
1.9032
 10
0.6880875
 20
1.8968
 10
0.7515875
 20
1.8968
  0
LWPOLYLINE
  5
F3
330
17
100
AcDbEntity
  8
PERNOS
100
AcDbPolyline
 90
4
 70
1
 10
0.928175
 20
1.8765875
 10
0.932175
 20
1.8765875
 10
0.932175
 20
1.893
 10
0.928175
 20
1.893
  0
LWPOLYLINE
  5
F4
330
17
100
AcDbEntity
  8
PERNOS
100
AcDbPolyline
 90
4
 70
1
 10
0.873
 20
1.659
 10
0.877
 20
1.659
 10
0.877
 20
1.679
 10
0.873
 20
1.679
  0
TEXT
  5
F5
330
17
100
AcDbEntity
  8
TEXTOS
100
AcDbText
 10
0.55
 20
1.8900000000000001
 30
0.0
 40
0.012150000000000001
  1
ALERO O VIGA DE BORDE
  7
STANDARD
 72
1
 11
0.55
 21
1.8900000000000001
 31
0.0
100
AcDbText
 73
2
  0
TEXT
  5
F6
330
17
100
AcDbEntity
  8
TEXTOS
100
AcDbText
 10
0.55
 20
1.86
 30
0.0
 40
0.012150000000000001
  1
DE CONCRETO (SEGUN ESTRUCTURAS)
  7
STANDARD
 72
1
 11
0.55
 21
1.86
 31
0.0
100
AcDbText
 73
2
  0
DIMENSION
  5
F7
330
17
100
AcDbEntity
  8
COTAS
100
AcDbDimension
280
0
  2
*D1
  3
COT-5
 10
0.753175
 20
1.6300000000000001
 30
0.0
 11
0.8781749999999999
 21
1.6425
 31
0.0
 70
32
 71
5
  1
<>
100
AcDbAlignedDimension
 13
0.753175
 23
1.675
 33
0.0
 14
1.003175
 24
1.675
 34
0.0
 50
0.0
100
AcDbRotatedDimension
  0
DIMENSION
  5
10A
330
17
100
AcDbEntity
  8
COTAS
100
AcDbDimension
280
0
  2
*D2
  3
COT-5
 10
1.043175
 20
1.675
 30
0.0
 11
1.030675
 21
1.775
 31
0.0
 70
32
 71
5
  1
<>
100
AcDbAlignedDimension
 13
1.003175
 23
1.675
 33
0.0
 14
1.003175
 24
1.875
 34
0.0
 50
90.0
100
AcDbRotatedDimension
  0
DIMENSION
  5
119
330
17
100
AcDbEntity
  8
COTAS
100
AcDbDimension
280
0
  2
*D3
  3
COT-5
 10
0.718175
 20
1.875
 30
0.0
 11
0.697675
 21
1.9
 31
0.0
 70
32
 71
5
  1
<>
100
AcDbAlignedDimension
 13
0.753175
 23
1.875
 33
0.0
 14
0.753175
 24
1.925
 34
0.0
 50
90.0
100
AcDbRotatedDimension
  0
DIMENSION
  5
128
330
17
100
AcDbEntity
  8
COTAS
100
AcDbDimension
280
0
  2
*D4
  3
COT-5
 10
0.953175
 20
1.92
 30
0.0
 11
0.978175
 21
1.9405
 31
0.0
 70
32
 71
5
  1
<>
100
AcDbAlignedDimension
 13
0.953175
 23
1.875
 33
0.0
 14
1.003175
 24
1.875
 34
0.0
 50
0.0
100
AcDbRotatedDimension
  0
DIMENSION
  5
137
330
17
100
AcDbEntity
  8
COTAS
100
AcDbDimension
280
0
  2
*D5
  3
COT-5
 10
0.6715875
 20
1.875
 30
0.0
 11
0.6590875
 21
1.925
 31
0.0
 70
32
 71
5
  1
0.10
100
AcDbAlignedDimension
 13
0.7515875
 23
1.875
 33
0.0
 14
0.7515875
 24
1.975
 34
0.0
 50
90.0
100
AcDbRotatedDimension
  0
LINE
  5
146
330
17
100
AcDbEntity
  8
LLAMADAS
100
AcDbLine
 10
1.11
 20
2.0700000000000003
 30
0.0
 11
1.09
 21
2.0700000000000003
 31
0.0
  0
LINE
  5
147
330
17
100
AcDbEntity
  8
LLAMADAS
100
AcDbLine
 10
1.09
 20
2.0700000000000003
 30
0.0
 11
0.8
 21
2.0700000000000003
 31
0.0
  0
SOLID
  5
148
330
17
100
AcDbEntity
  8
LLAMADAS
100
AcDbTrace
 10
0.8
 20
2.0700000000000003
 30
0.0
 11
0.811
 21
2.0661500000000004
 31
0.0
 12
0.811
 22
2.07385
 32
0.0
 13
0.811
 23
2.07385
 33
0.0
  0
TEXT
  5
149
330
17
100
AcDbEntity
  8
TEXTOS
100
AcDbText
 10
1.115
 20
2.0730000000000004
 30
0.0
 40
0.013500000000000002
  1
Cobertura de aluzinc TR4 e = 0.40 mm (vuela 0.13 m sobre la canaleta)
  7
STANDARD
 11
1.115
 21
2.0730000000000004
 31
0.0
100
AcDbText
  0
LINE
  5
14A
330
17
100
AcDbEntity
  8
LLAMADAS
100
AcDbLine
 10
1.11
 20
2.011857142857143
 30
0.0
 11
1.09
 21
2.011857142857143
 31
0.0
  0
LINE
  5
14B
330
17
100
AcDbEntity
  8
LLAMADAS
100
AcDbLine
 10
1.09
 20
2.011857142857143
 30
0.0
 11
0.7515875
 21
1.9500000000000002
 31
0.0
  0
SOLID
  5
14C
330
17
100
AcDbEntity
  8
LLAMADAS
100
AcDbTrace
 10
0.7515875
 20
1.9500000000000002
 30
0.0
 11
0.7631004782110384
 21
1.9481906264310123
 31
0.0
 12
0.7617159631434101
 22
1.9557651309050694
 32
0.0
 13
0.7617159631434101
 23
1.9557651309050694
 33
0.0
  0
TEXT
  5
14D
330
17
100
AcDbEntity
  8
TEXTOS
100
AcDbText
 10
1.115
 20
2.014857142857143
 30
0.0
 40
0.013500000000000002
  1
Perno de expansion 1/4" x 2 1/2" con tarugo (2 por soporte)
  7
STANDARD
 11
1.115
 21
2.014857142857143
 31
0.0
100
AcDbText
  0
LINE
  5
14E
330
17
100
AcDbEntity
  8
LLAMADAS
100
AcDbLine
 10
1.11
 20
1.953714285714286
 30
0.0
 11
1.09
 21
1.953714285714286
 31
0.0
  0
LINE
  5
14F
330
17
100
AcDbEntity
  8
LLAMADAS
100
AcDbLine
 10
1.09
 20
1.953714285714286
 30
0.0
 11
0.755175
 21
1.915
 31
0.0
  0
SOLID
  5
150
330
17
100
AcDbEntity
  8
LLAMADAS
100
AcDbTrace
 10
0.755175
 20
1.915
 30
0.0
 11
0.7665444100599759
 21
1.9124389426230322
 31
0.0
 12
0.7656599866294043
 22
1.920087981464315
 32
0.0
 13
0.7656599866294043
 23
1.920087981464315
 33
0.0
  0
TEXT
  5
151
330
17
100
AcDbEntity
  8
TEXTOS
100
AcDbText
 10
1.115
 20
1.9567142857142859
 30
0.0
 40
0.013500000000000002
  1
Pestana interior 0.05 contra el alero
  7
STANDARD
 11
1.115
 21
1.9567142857142859
 31
0.0
100
AcDbText
  0
LINE
  5
152
330
17
100
AcDbEntity
  8
LLAMADAS
100
AcDbLine
 10
1.11
 20
1.8955714285714287
 30
0.0
 11
1.09
 21
1.8955714285714287
 31
0.0
  0
LINE
  5
153
330
17
100
AcDbEntity
  8
LLAMADAS
100
AcDbLine
 10
1.09
 20
1.8955714285714287
 30
0.0
 11
0.973175
 21
1.8780000000000001
 31
0.0
  0
SOLID
  5
154
330
17
100
AcDbEntity
  8
LLAMADAS
100
AcDbTrace
 10
0.973175
 20
1.8780000000000001
 30
0.0
 11
0.9846252780520444
 21
1.8758289098289407
 31
0.0
 12
0.9834800174702989
 22
1.8834432632617608
 32
0.0
 13
0.9834800174702989
 23
1.8834432632617608
 33
0.0
  0
TEXT
  5
155
330
17
100
AcDbEntity
  8
TEXTOS
100
AcDbText
 10
1.115
 20
1.8985714285714286
 30
0.0
 40
0.013500000000000002
  1
Pestana exterior 0.05 doblada hacia adentro + oreja del soporte
  7
STANDARD
 11
1.115
 21
1.8985714285714286
 31
0.0
100
AcDbText
  0
TEXT
  5
156
330
17
100
AcDbEntity
  8
TEXTOS
100
AcDbText
 10
1.115
 20
1.8769714285714285
 30
0.0
 40
0.013500000000000002
  1
con tornillo autorroscante 1/4" x 3/4"
  7
STANDARD
 11
1.115
 21
1.8769714285714285
 31
0.0
100
AcDbText
  0
LINE
  5
157
330
17
100
AcDbEntity
  8
LLAMADAS
100
AcDbLine
 10
1.11
 20
1.8374285714285716
 30
0.0
 11
1.09
 21
1.8374285714285716
 31
0.0
  0
LINE
  5
158
330
17
100
AcDbEntity
  8
LLAMADAS
100
AcDbLine
 10
1.09
 20
1.8374285714285716
 30
0.0
 11
0.9931749999999999
 21
1.795
 31
0.0
  0
SOLID
  5
159
330
17
100
AcDbEntity
  8
LLAMADAS
100
AcDbTrace
 10
0.9931749999999999
 20
1.795
 30
0.0
 11
1.0047953643342746
 21
1.7958886128170999
 31
0.0
 12
1.0017049249277112
 22
1.8029412140587953
 32
0.0
 13
1.0017049249277112
 23
1.8029412140587953
 33
0.0
  0
TEXT
  5
15A
330
17
100
AcDbEntity
  8
TEXTOS
100
AcDbText
 10
1.115
 20
1.8404285714285715
 30
0.0
 40
0.013500000000000002
  1
Canaleta de plancha de acero galvanizado e = 0.9 mm (ASTM A653)
  7
STANDARD
 11
1.115
 21
1.8404285714285715
 31
0.0
100
AcDbText
  0
LINE
  5
15B
330
17
100
AcDbEntity
  8
LLAMADAS
100
AcDbLine
 10
1.11
 20
1.7792857142857144
 30
0.0
 11
1.09
 21
1.7792857142857144
 31
0.0
  0
LINE
  5
15C
330
17
100
AcDbEntity
  8
LLAMADAS
100
AcDbLine
 10
1.09
 20
1.7792857142857144
 30
0.0
 11
1.0047625
 21
1.735
 31
0.0
  0
SOLID
  5
15D
330
17
100
AcDbEntity
  8
LLAMADAS
100
AcDbTrace
 10
1.0047625
 20
1.735
 30
0.0
 11
1.0162986711844704
 21
1.736655069304468
 31
0.0
 12
1.0127486396002185
 22
1.7434878780791092
 32
0.0
 13
1.0127486396002185
 23
1.7434878780791092
 33
0.0
  0
TEXT
  5
15E
330
17
100
AcDbEntity
  8
TEXTOS
100
AcDbText
 10
1.115
 20
1.7822857142857143
 30
0.0
 40
0.013500000000000002
  1
Soporte de platina F°G° 1" x 1/8" @0.60 m (desarrollo 0.85 m)
  7
STANDARD
 11
1.115
 21
1.7822857142857143
 31
0.0
100
AcDbText
  0
LINE
  5
15F
330
17
100
AcDbEntity
  8
LLAMADAS
100
AcDbLine
 10
1.11
 20
1.721142857142857
 30
0.0
 11
1.09
 21
1.721142857142857
 31
0.0
  0
LINE
  5
160
330
17
100
AcDbEntity
  8
LLAMADAS
100
AcDbLine
 10
1.09
 20
1.721142857142857
 30
0.0
 11
0.81
 21
1.715
 31
0.0
  0
SOLID
  5
161
330
17
100
AcDbEntity
  8
LLAMADAS
100
AcDbTrace
 10
0.81
 20
1.715
 30
0.0
 11
0.8210817977172229
 21
1.7113921946623254
 31
0.0
 12
0.8209129097846195
 22
1.7190903422879704
 32
0.0
 13
0.8209129097846195
 23
1.7190903422879704
 33
0.0
  0
TEXT
  5
162
330
17
100
AcDbEntity
  8
TEXTOS
100
AcDbText
 10
1.115
 20
1.724142857142857
 30
0.0
 40
0.013500000000000002
  1
Agua de lluvia: pendiente de la canaleta S = 1.00 % hacia la boquilla
  7
STANDARD
 11
1.115
 21
1.724142857142857
 31
0.0
100
AcDbText
  0
LINE
  5
163
330
17
100
AcDbEntity
  8
LLAMADAS
100
AcDbLine
 10
1.11
 20
1.663
 30
0.0
 11
1.09
 21
1.663
 31
0.0
  0
LINE
  5
164
330
17
100
AcDbEntity
  8
LLAMADAS
100
AcDbLine
 10
1.09
 20
1.663
 30
0.0
 11
0.875
 21
1.663
 31
0.0
  0
SOLID
  5
165
330
17
100
AcDbEntity
  8
LLAMADAS
100
AcDbTrace
 10
0.875
 20
1.663
 30
0.0
 11
0.886
 21
1.6591500000000001
 31
0.0
 12
0.886
 22
1.66685
 32
0.0
 13
0.886
 23
1.66685
 33
0.0
  0
TEXT
  5
166
330
17
100
AcDbEntity
  8
TEXTOS
100
AcDbText
 10
1.115
 20
1.666
 30
0.0
 40
0.013500000000000002
  1
Tornillo autorroscante 1/4" x 3/4" en el fondo
  7
STANDARD
 11
1.115
 21
1.666
 31
0.0
100
AcDbText
  0
TEXT
  5
167
330
17
100
AcDbEntity
  8
TITULOS
100
AcDbText
 10
0.875
 20
1.5150000000000001
 30
0.0
 40
0.027000000000000003
  1
A. SECCION TIPICA DE CANALETA CON SOPORTE
  7
TITULOS
 72
1
 11
0.875
 21
1.5150000000000001
 31
0.0
100
AcDbText
 73
2
  0
LINE
  5
168
330
17
100
AcDbEntity
  8
TITULOS
100
AcDbLine
 10
0.5750000000000001
 20
1.4975
 30
0.0
 11
1.175
 21
1.4975
 31
0.0
  0
TEXT
  5
169
330
17
100
AcDbEntity
  8
TEXTOS
100
AcDbText
 10
0.875
 20
1.4775
 30
0.0
 40
0.014850000000000004
  1
ESC. 1/5
  7
STANDARD
 72
1
 11
0.875
 21
1.4775
 31
0.0
100
AcDbText
 73
2
  0
LWPOLYLINE
  5
16A
330
17
100
AcDbEntity
  8
PLATINA
100
AcDbPolyline
 90
4
 70
1
 10
2.25
 20
2.35
 10
3.1
 20
2.35
 10
3.1
 20
2.3754
 10
2.25
 20
2.3754
  0
HATCH
  5
16B
330
17
100
AcDbEntity
  8
ISO-CONCRETO-LAT1
 62
7
420
13553358
100
AcDbHatch
 10
0.0
 20
0.0
 30
0.0
210
0.0
220
0.0
230
1.0
  2
SOLID
 70
1
 71
0
 91
1
 92
3
 72
0
 73
1
 93
4
 10
2.25
 20
2.35
 10
3.1
 20
2.35
 10
3.1
 20
2.3754
 10
2.25
 20
2.3754
 97
0
 75
1
 76
1
 98
0
  0
LINE
  5
16C
330
17
100
AcDbEntity
  8
CORTES
100
AcDbLine
 10
2.55
 20
2.338
 30
0.0
 11
2.55
 21
2.3874
 31
0.0
  0
LINE
  5
16D
330
17
100
AcDbEntity
  8
CORTES
100
AcDbLine
 10
2.8
 20
2.338
 30
0.0
 11
2.8
 21
2.3874
 31
0.0
  0
LINE
  5
16E
330
17
100
AcDbEntity
  8
CORTES
100
AcDbLine
 10
3.0
 20
2.338
 30
0.0
 11
3.0
 21
2.3874
 31
0.0
  0
CIRCLE
  5
16F
330
17
100
AcDbEntity
  8
PERNOS
100
AcDbCircle
 10
2.275
 20
2.3627000000000002
 30
0.0
 40
0.004
  0
CIRCLE
  5
170
330
17
100
AcDbEntity
  8
PERNOS
100
AcDbCircle
 10
2.325
 20
2.3627000000000002
 30
0.0
 40
0.004
  0
CIRCLE
  5
171
330
17
100
AcDbEntity
  8
PERNOS
100
AcDbCircle
 10
2.675
 20
2.3627000000000002
 30
0.0
 40
0.003
  0
CIRCLE
  5
172
330
17
100
AcDbEntity
  8
PERNOS
100
AcDbCircle
 10
3.0300000000000002
 20
2.3627000000000002
 30
0.0
 40
0.003
  0
DIMENSION
  5
173
330
17
100
AcDbEntity
  8
COTAS
100
AcDbDimension
280
0
  2
*D6
  3
COT-5
 10
2.25
 20
2.31
 30
0.0
 11
2.3
 21
2.3225000000000002
 31
0.0
 70
32
 71
5
  1
<>
100
AcDbAlignedDimension
 13
2.25
 23
2.35
 33
0.0
 14
2.35
 24
2.35
 34
0.0
 50
0.0
100
AcDbRotatedDimension
  0
DIMENSION
  5
182
330
17
100
AcDbEntity
  8
COTAS
100
AcDbDimension
280
0
  2
*D7
  3
COT-5
 10
2.35
 20
2.31
 30
0.0
 11
2.45
 21
2.3225000000000002
 31
0.0
 70
32
 71
5
  1
<>
100
AcDbAlignedDimension
 13
2.35
 23
2.35
 33
0.0
 14
2.55
 24
2.35
 34
0.0
 50
0.0
100
AcDbRotatedDimension
  0
DIMENSION
  5
191
330
17
100
AcDbEntity
  8
COTAS
100
AcDbDimension
280
0
  2
*D8
  3
COT-5
 10
2.55
 20
2.31
 30
0.0
 11
2.675
 21
2.3225000000000002
 31
0.0
 70
32
 71
5
  1
<>
100
AcDbAlignedDimension
 13
2.55
 23
2.35
 33
0.0
 14
2.8
 24
2.35
 34
0.0
 50
0.0
100
AcDbRotatedDimension
  0
DIMENSION
  5
1A0
330
17
100
AcDbEntity
  8
COTAS
100
AcDbDimension
280
0
  2
*D9
  3
COT-5
 10
2.8
 20
2.31
 30
0.0
 11
2.9
 21
2.3225000000000002
 31
0.0
 70
32
 71
5
  1
<>
100
AcDbAlignedDimension
 13
2.8
 23
2.35
 33
0.0
 14
3.0
 24
2.35
 34
0.0
 50
0.0
100
AcDbRotatedDimension
  0
DIMENSION
  5
1AF
330
17
100
AcDbEntity
  8
COTAS
100
AcDbDimension
280
0
  2
*D10
  3
COT-5
 10
3.0
 20
2.31
 30
0.0
 11
3.05
 21
2.3225000000000002
 31
0.0
 70
32
 71
5
  1
<>
100
AcDbAlignedDimension
 13
3.0
 23
2.35
 33
0.0
 14
3.1
 24
2.35
 34
0.0
 50
0.0
100
AcDbRotatedDimension
  0
DIMENSION
  5
1BE
330
17
100
AcDbEntity
  8
COTAS
100
AcDbDimension
280
0
  2
*D11
  3
COT-5
 10
2.25
 20
2.27
 30
0.0
 11
2.675
 21
2.2825
 31
0.0
 70
32
 71
5
  1
<>
100
AcDbAlignedDimension
 13
2.25
 23
2.35
 33
0.0
 14
3.1
 24
2.35
 34
0.0
 50
0.0
100
AcDbRotatedDimension
  0
DIMENSION
  5
1CD
330
17
100
AcDbEntity
  8
COTAS
100
AcDbDimension
280
0
  2
*D12
  3
COT-5
 10
3.14
 20
2.35
 30
0.0
 11
3.1195
 21
2.3627000000000002
 31
0.0
 70
32
 71
5
  1
1"
100
AcDbAlignedDimension
 13
3.1
 23
2.35
 33
0.0
 14
3.1
 24
2.3754
 34
0.0
 50
90.0
100
AcDbRotatedDimension
  0
TEXT
  5
1DC
330
17
100
AcDbEntity
  8
TEXTOS
100
AcDbText
 10
2.3
 20
2.3974
 30
0.0
 40
0.012150000000000001
  1
OREJA INT.
  7
STANDARD
 72
1
 11
2.3
 21
2.3974
 31
0.0
100
AcDbText
 73
2
  0
TEXT
  5
1DD
330
17
100
AcDbEntity
  8
TEXTOS
100
AcDbText
 10
2.45
 20
2.3974
 30
0.0
 40
0.012150000000000001
  1
LADO INT.
  7
STANDARD
 72
1
 11
2.45
 21
2.3974
 31
0.0
100
AcDbText
 73
2
  0
TEXT
  5
1DE
330
17
100
AcDbEntity
  8
TEXTOS
100
AcDbText
 10
2.675
 20
2.3974
 30
0.0
 40
0.012150000000000001
  1
FONDO
  7
STANDARD
 72
1
 11
2.675
 21
2.3974
 31
0.0
100
AcDbText
 73
2
  0
TEXT
  5
1DF
330
17
100
AcDbEntity
  8
TEXTOS
100
AcDbText
 10
2.9
 20
2.3974
 30
0.0
 40
0.012150000000000001
  1
LADO EXT.
  7
STANDARD
 72
1
 11
2.9
 21
2.3974
 31
0.0
100
AcDbText
 73
2
  0
TEXT
  5
1E0
330
17
100
AcDbEntity
  8
TEXTOS
100
AcDbText
 10
3.05
 20
2.3974
 30
0.0
 40
0.012150000000000001
  1
OREJA EXT.
  7
STANDARD
 72
1
 11
3.05
 21
2.3974
 31
0.0
100
AcDbText
 73
2
  0
TEXT
  5
1E1
330
17
100
AcDbEntity
  8
TEXTOS
100
AcDbText
 10
2.675
 20
2.4304
 30
0.0
 40
0.012150000000000001
  1
Dobleces a 90 grados en las lineas indicadas; perforaciones de 5/16" (pernos) y 1/4" (tornillos)
  7
STANDARD
 72
1
 11
2.675
 21
2.4304
 31
0.0
100
AcDbText
 73
2
  0
TEXT
  5
1E2
330
17
100
AcDbEntity
  8
TITULOS
100
AcDbText
 10
2.6750000000000003
 20
2.19
 30
0.0
 40
0.027000000000000003
  1
B. DESARROLLO DEL SOPORTE DE PLATINA F°G° 1" x 1/8"
  7
TITULOS
 72
1
 11
2.6750000000000003
 21
2.19
 31
0.0
100
AcDbText
 73
2
  0
LINE
  5
1E3
330
17
100
AcDbEntity
  8
TITULOS
100
AcDbLine
 10
2.3000000000000003
 20
2.1725
 30
0.0
 11
3.0500000000000003
 21
2.1725
 31
0.0
  0
TEXT
  5
1E4
330
17
100
AcDbEntity
  8
TEXTOS
100
AcDbText
 10
2.6750000000000003
 20
2.1525
 30
0.0
 40
0.014850000000000004
  1
ESC. 1/5 - L = 0.85 m por soporte
  7
STANDARD
 72
1
 11
2.6750000000000003
 21
2.1525
 31
0.0
100
AcDbText
 73
2
  0
LWPOLYLINE
  5
1E5
330
17
100
AcDbEntity
  8
PLANCHA-GALV
100
AcDbPolyline
 90
5
 70
0
 43
0.0012
 10
2.3000000000000003
 20
1.9000000000000001
 10
2.3000000000000003
 20
1.6500000000000001
 10
2.5500000000000003
 20
1.6500000000000001
 10
2.5500000000000003
 20
1.85
 10
2.5000000000000004
 20
1.85
  0
LWPOLYLINE
  5
1E6
330
17
100
AcDbEntity
  8
PLANCHA-GALV
100
AcDbPolyline
 90
4
 70
0
 10
2.2800000000000002
 20
1.9000000000000001
 10
2.2800000000000002
 20
1.6300000000000001
 10
2.5700000000000003
 20
1.6300000000000001
 10
2.5700000000000003
 20
1.85
  0
HATCH
  5
1E7
330
17
100
AcDbEntity
  8
ISO-TAPA
 62
7
420
16315622
100
AcDbHatch
 10
0.0
 20
0.0
 30
0.0
210
0.0
220
0.0
230
1.0
  2
SOLID
 70
1
 71
0
 91
1
 92
3
 72
0
 73
1
 93
5
 10
2.3000000000000003
 20
1.6500000000000001
 10
2.5500000000000003
 20
1.6500000000000001
 10
2.5500000000000003
 20
1.85
 10
2.5000000000000004
 20
1.85
 10
2.3000000000000003
 20
1.85
 97
0
 75
1
 76
1
 98
0
  0
CIRCLE
  5
1E8
330
17
100
AcDbEntity
  8
PERNOS
100
AcDbCircle
 10
2.2900000000000005
 20
1.6700000000000002
 30
0.0
 40
0.0016
  0
CIRCLE
  5
1E9
330
17
100
AcDbEntity
  8
PERNOS
100
AcDbCircle
 10
2.5600000000000005
 20
1.6700000000000002
 30
0.0
 40
0.0016
  0
CIRCLE
  5
1EA
330
17
100
AcDbEntity
  8
PERNOS
100
AcDbCircle
 10
2.2900000000000005
 20
1.7200000000000002
 30
0.0
 40
0.0016
  0
CIRCLE
  5
1EB
330
17
100
AcDbEntity
  8
PERNOS
100
AcDbCircle
 10
2.5600000000000005
 20
1.7100000000000002
 30
0.0
 40
0.0016
  0
CIRCLE
  5
1EC
330
17
100
AcDbEntity
  8
PERNOS
100
AcDbCircle
 10
2.2900000000000005
 20
1.7700000000000002
 30
0.0
 40
0.0016
  0
CIRCLE
  5
1ED
330
17
100
AcDbEntity
  8
PERNOS
100
AcDbCircle
 10
2.5600000000000005
 20
1.7500000000000002
 30
0.0
 40
0.0016
  0
CIRCLE
  5
1EE
330
17
100
AcDbEntity
  8
PERNOS
100
AcDbCircle
 10
2.2900000000000005
 20
1.82
 30
0.0
 40
0.0016
  0
CIRCLE
  5
1EF
330
17
100
AcDbEntity
  8
PERNOS
100
AcDbCircle
 10
2.5600000000000005
 20
1.79
 30
0.0
 40
0.0016
  0
CIRCLE
  5
1F0
330
17
100
AcDbEntity
  8
PERNOS
100
AcDbCircle
 10
2.2900000000000005
 20
1.87
 30
0.0
 40
0.0016
  0
CIRCLE
  5
1F1
330
17
100
AcDbEntity
  8
PERNOS
100
AcDbCircle
 10
2.5600000000000005
 20
1.83
 30
0.0
 40
0.0016
  0
CIRCLE
  5
1F2
330
17
100
AcDbEntity
  8
PERNOS
100
AcDbCircle
 10
2.3000000000000003
 20
1.6400000000000001
 30
0.0
 40
0.0016
  0
CIRCLE
  5
1F3
330
17
100
AcDbEntity
  8
PERNOS
100
AcDbCircle
 10
2.35
 20
1.6400000000000001
 30
0.0
 40
0.0016
  0
CIRCLE
  5
1F4
330
17
100
AcDbEntity
  8
PERNOS
100
AcDbCircle
 10
2.4000000000000004
 20
1.6400000000000001
 30
0.0
 40
0.0016
  0
CIRCLE
  5
1F5
330
17
100
AcDbEntity
  8
PERNOS
100
AcDbCircle
 10
2.45
 20
1.6400000000000001
 30
0.0
 40
0.0016
  0
CIRCLE
  5
1F6
330
17
100
AcDbEntity
  8
PERNOS
100
AcDbCircle
 10
2.5000000000000004
 20
1.6400000000000001
 30
0.0
 40
0.0016
  0
CIRCLE
  5
1F7
330
17
100
AcDbEntity
  8
PERNOS
100
AcDbCircle
 10
2.5500000000000003
 20
1.6400000000000001
 30
0.0
 40
0.0016
  0
DIMENSION
  5
1F8
330
17
100
AcDbEntity
  8
COTAS
100
AcDbDimension
280
0
  2
*D13
  3
COT-5
 10
2.3000000000000003
 20
1.59
 30
0.0
 11
2.4250000000000003
 21
1.6025
 31
0.0
 70
32
 71
5
  1
<>
100
AcDbAlignedDimension
 13
2.3000000000000003
 23
1.6300000000000001
 33
0.0
 14
2.5500000000000003
 24
1.6300000000000001
 34
0.0
 50
0.0
100
AcDbRotatedDimension
  0
DIMENSION
  5
207
330
17
100
AcDbEntity
  8
COTAS
100
AcDbDimension
280
0
  2
*D14
  3
COT-5
 10
2.6100000000000003
 20
1.6500000000000001
 30
0.0
 11
2.5975
 21
1.75
 31
0.0
 70
32
 71
5
  1
<>
100
AcDbAlignedDimension
 13
2.5700000000000003
 23
1.6500000000000001
 33
0.0
 14
2.5700000000000003
 24
1.85
 34
0.0
 50
90.0
100
AcDbRotatedDimension
  0
DIMENSION
  5
216
330
17
100
AcDbEntity
  8
COTAS
100
AcDbDimension
280
0
  2
*D15
  3
COT-5
 10
2.2800000000000002
 20
1.55
 30
0.0
 11
2.29
 21
1.5705
 31
0.0
 70
32
 71
5
  1
0.02
100
AcDbAlignedDimension
 13
2.2800000000000002
 23
1.6300000000000001
 33
0.0
 14
2.3000000000000003
 24
1.6300000000000001
 34
0.0
 50
0.0
100
AcDbRotatedDimension
  0
LINE
  5
225
330
17
100
AcDbEntity
  8
LLAMADAS
100
AcDbLine
 10
2.63
 20
1.82
 30
0.0
 11
2.61
 21
1.82
 31
0.0
  0
LINE
  5
226
330
17
100
AcDbEntity
  8
LLAMADAS
100
AcDbLine
 10
2.61
 20
1.82
 30
0.0
 11
2.2900000000000005
 21
1.82
 31
0.0
  0
SOLID
  5
227
330
17
100
AcDbEntity
  8
LLAMADAS
100
AcDbTrace
 10
2.2900000000000005
 20
1.82
 30
0.0
 11
2.3010000000000006
 21
1.8161500000000002
 31
0.0
 12
2.3010000000000006
 22
1.82385
 32
0.0
 13
2.3010000000000006
 23
1.82385
 33
0.0
  0
TEXT
  5
228
330
17
100
AcDbEntity
  8
TEXTOS
100
AcDbText
 10
2.635
 20
1.823
 30
0.0
 40
0.013500000000000002
  1
Remache pop 1/8" @0.05 + cordon de sellador de poliuretano
  7
STANDARD
 11
2.635
 21
1.823
 31
0.0
100
AcDbText
  0
LINE
  5
229
330
17
100
AcDbEntity
  8
LLAMADAS
100
AcDbLine
 10
2.63
 20
1.7850000000000001
 30
0.0
 11
2.61
 21
1.7850000000000001
 31
0.0
  0
LINE
  5
22A
330
17
100
AcDbEntity
  8
LLAMADAS
100
AcDbLine
 10
2.61
 20
1.7850000000000001
 30
0.0
 11
2.4250000000000003
 21
1.77
 31
0.0
  0
SOLID
  5
22B
330
17
100
AcDbEntity
  8
LLAMADAS
100
AcDbTrace
 10
2.4250000000000003
 20
1.77
 30
0.0
 11
2.4362751606240107
 21
1.767051567721185
 31
0.0
 12
2.4356528784345124
 22
1.7747263813916683
 32
0.0
 13
2.4356528784345124
 23
1.7747263813916683
 33
0.0
  0
TEXT
  5
22C
330
17
100
AcDbEntity
  8
TEXTOS
100
AcDbText
 10
2.635
 20
1.788
 30
0.0
 40
0.013500000000000002
  1
Tapa de plancha galvanizada e = 0.9 mm con la seccion de la canaleta
  7
STANDARD
 11
2.635
 21
1.788
 31
0.0
100
AcDbText
  0
LINE
  5
22D
330
17
100
AcDbEntity
  8
LLAMADAS
100
AcDbLine
 10
2.63
 20
1.7500000000000002
 30
0.0
 11
2.61
 21
1.7500000000000002
 31
0.0
  0
LINE
  5
22E
330
17
100
AcDbEntity
  8
LLAMADAS
100
AcDbLine
 10
2.61
 20
1.7500000000000002
 30
0.0
 11
2.2800000000000002
 21
1.7500000000000002
 31
0.0
  0
SOLID
  5
22F
330
17
100
AcDbEntity
  8
LLAMADAS
100
AcDbTrace
 10
2.2800000000000002
 20
1.7500000000000002
 30
0.0
 11
2.2910000000000004
 21
1.7461500000000003
 31
0.0
 12
2.2910000000000004
 22
1.7538500000000001
 32
0.0
 13
2.2910000000000004
 23
1.7538500000000001
 33
0.0
  0
TEXT
  5
230
330
17
100
AcDbEntity
  8
TEXTOS
100
AcDbText
 10
2.635
 20
1.7530000000000001
 30
0.0
 40
0.013500000000000002
  1
Pestana perimetral 0.02 hacia afuera, remachada
  7
STANDARD
 11
2.635
 21
1.7530000000000001
 31
0.0
100
AcDbText
  0
TEXT
  5
231
330
17
100
AcDbEntity
  8
TITULOS
100
AcDbText
 10
2.4250000000000003
 20
1.5
 30
0.0
 40
0.027000000000000003
  1
C. TAPA LATERAL (EXTREMOS)
  7
TITULOS
 72
1
 11
2.4250000000000003
 21
1.5
 31
0.0
100
AcDbText
 73
2
  0
LINE
  5
232
330
17
100
AcDbEntity
  8
TITULOS
100
AcDbLine
 10
2.225
 20
1.4825
 30
0.0
 11
2.625
 21
1.4825
 31
0.0
  0
TEXT
  5
233
330
17
100
AcDbEntity
  8
TEXTOS
100
AcDbText
 10
2.4250000000000003
 20
1.4625000000000001
 30
0.0
 40
0.014850000000000004
  1
ESC. 1/5 - 2 por canaleta
  7
STANDARD
 72
1
 11
2.4250000000000003
 21
1.4625000000000001
 31
0.0
100
AcDbText
 73
2
  0
LWPOLYLINE
  5
234
330
17
100
AcDbEntity
  8
PLANCHA-GALV
100
AcDbPolyline
 90
2
 70
0
 43
0.0012
 10
0.44500000000000006
 20
1.0
 10
0.525
 20
1.0
  0
LWPOLYLINE
  5
235
330
17
100
AcDbEntity
  8
PLANCHA-GALV
100
AcDbPolyline
 90
2
 70
0
 43
0.0012
 10
0.625
 20
1.0
 10
0.7050000000000001
 20
1.0
  0
LWPOLYLINE
  5
236
330
17
100
AcDbEntity
  8
PLANCHA-GALV
100
AcDbPolyline
 90
3
 70
0
 43
0.001
 10
0.47500000000000003
 20
0.998
 10
0.525
 20
0.998
 10
0.525
 20
0.85
  0
LWPOLYLINE
  5
237
330
17
100
AcDbEntity
  8
PLANCHA-GALV
100
AcDbPolyline
 90
3
 70
0
 43
0.001
 10
0.675
 20
0.998
 10
0.625
 20
0.998
 10
0.625
 20
0.85
  0
LWPOLYLINE
  5
238
330
17
100
AcDbEntity
  8
TUBERIA-PVC
100
AcDbPolyline
 90
2
 70
0
 43
0.004
 10
0.518
 20
0.94
 10
0.518
 20
0.76
  0
LWPOLYLINE
  5
239
330
17
100
AcDbEntity
  8
TUBERIA-PVC
100
AcDbPolyline
 90
2
 70
0
 43
0.004
 10
0.632
 20
0.94
 10
0.632
 20
0.76
  0
CIRCLE
  5
23A
330
17
100
AcDbEntity
  8
PERNOS
100
AcDbCircle
 10
0.48500000000000004
 20
1.0
 30
0.0
 40
0.0016
  0
CIRCLE
  5
23B
330
17
100
AcDbEntity
  8
PERNOS
100
AcDbCircle
 10
0.505
 20
1.0
 30
0.0
 40
0.0016
  0
CIRCLE
  5
23C
330
17
100
AcDbEntity
  8
PERNOS
100
AcDbCircle
 10
0.645
 20
1.0
 30
0.0
 40
0.0016
  0
CIRCLE
  5
23D
330
17
100
AcDbEntity
  8
PERNOS
100
AcDbCircle
 10
0.665
 20
1.0
 30
0.0
 40
0.0016
  0
DIMENSION
  5
23E
330
17
100
AcDbEntity
  8
COTAS
100
AcDbDimension
280
0
  2
*D16
  3
COT-5
 10
0.47500000000000003
 20
1.058
 30
0.0
 11
0.5750000000000001
 21
1.0705
 31
0.0
 70
32
 71
5
  1
0.20
100
AcDbAlignedDimension
 13
0.47500000000000003
 23
0.998
 33
0.0
 14
0.675
 24
0.998
 34
0.0
 50
0.0
100
AcDbRotatedDimension
  0
DIMENSION
  5
24D
330
17
100
AcDbEntity
  8
COTAS
100
AcDbDimension
280
0
  2
*D17
  3
COT-5
 10
0.525
 20
0.82
 30
0.0
 11
0.575
 21
0.8324999999999999
 31
0.0
 70
32
 71
5
  1
Ø 0.10
100
AcDbAlignedDimension
 13
0.525
 23
0.85
 33
0.0
 14
0.625
 24
0.85
 34
0.0
 50
0.0
100
AcDbRotatedDimension
  0
DIMENSION
  5
25C
330
17
100
AcDbEntity
  8
COTAS
100
AcDbDimension
280
0
  2
*D18
  3
COT-5
 10
0.455
 20
0.998
 30
0.0
 11
0.4675
 21
0.9239999999999999
 31
0.0
 70
32
 71
5
  1
<>
100
AcDbAlignedDimension
 13
0.525
 23
0.998
 33
0.0
 14
0.525
 24
0.85
 34
0.0
 50
90.0
100
AcDbRotatedDimension
  0
LINE
  5
26B
330
17
100
AcDbEntity
  8
LLAMADAS
100
AcDbLine
 10
0.81
 20
1.0
 30
0.0
 11
0.79
 21
1.0
 31
0.0
  0
LINE
  5
26C
330
17
100
AcDbEntity
  8
LLAMADAS
100
AcDbLine
 10
0.79
 20
1.0
 30
0.0
 11
0.6950000000000001
 21
1.0
 31
0.0
  0
SOLID
  5
26D
330
17
100
AcDbEntity
  8
LLAMADAS
100
AcDbTrace
 10
0.6950000000000001
 20
1.0
 30
0.0
 11
0.7060000000000001
 21
0.99615
 31
0.0
 12
0.7060000000000001
 22
1.00385
 32
0.0
 13
0.7060000000000001
 23
1.00385
 33
0.0
  0
TEXT
  5
26E
330
17
100
AcDbEntity
  8
TEXTOS
100
AcDbText
 10
0.8150000000000001
 20
1.003
 30
0.0
 40
0.013500000000000002
  1
Fondo de la canaleta (abertura Ø 0.10 en el punto bajo)
  7
STANDARD
 11
0.8150000000000001
 21
1.003
 31
0.0
100
AcDbText
  0
LINE
  5
26F
330
17
100
AcDbEntity
  8
LLAMADAS
100
AcDbLine
 10
0.81
 20
0.9333333333333333
 30
0.0
 11
0.79
 21
0.9333333333333333
 31
0.0
  0
LINE
  5
270
330
17
100
AcDbEntity
  8
LLAMADAS
100
AcDbLine
 10
0.79
 20
0.9333333333333333
 30
0.0
 11
0.655
 21
0.998
 31
0.0
  0
SOLID
  5
271
330
17
100
AcDbEntity
  8
LLAMADAS
100
AcDbTrace
 10
0.655
 20
0.998
 30
0.0
 11
0.6632573459360354
 21
0.9897757226400953
 31
0.0
 12
0.6665837997423647
 22
0.9967201236275353
 32
0.0
 13
0.6665837997423647
 23
0.9967201236275353
 33
0.0
  0
TEXT
  5
272
330
17
100
AcDbEntity
  8
TEXTOS
100
AcDbText
 10
0.8150000000000001
 20
0.9363333333333334
 30
0.0
 40
0.013500000000000002
  1
Brida de 0.20 x 0.20 remachada (8 remaches) y sellada
  7
STANDARD
 11
0.8150000000000001
 21
0.9363333333333334
 31
0.0
100
AcDbText
  0
LINE
  5
273
330
17
100
AcDbEntity
  8
LLAMADAS
100
AcDbLine
 10
0.81
 20
0.8666666666666667
 30
0.0
 11
0.79
 21
0.8666666666666667
 31
0.0
  0
LINE
  5
274
330
17
100
AcDbEntity
  8
LLAMADAS
100
AcDbLine
 10
0.79
 20
0.8666666666666667
 30
0.0
 11
0.625
 21
0.9
 31
0.0
  0
SOLID
  5
275
330
17
100
AcDbEntity
  8
LLAMADAS
100
AcDbTrace
 10
0.625
 20
0.9
 30
0.0
 11
0.635019801980198
 21
0.8940480198019802
 31
0.0
 12
0.6365445544554456
 22
0.9015955445544555
 32
0.0
 13
0.6365445544554456
 23
0.9015955445544555
 33
0.0
  0
TEXT
  5
276
330
17
100
AcDbEntity
  8
TEXTOS
100
AcDbText
 10
0.8150000000000001
 20
0.8696666666666667
 30
0.0
 40
0.013500000000000002
  1
Cuello de plancha galvanizada Ø 0.10 x 0.15 que entra en el montante
  7
STANDARD
 11
0.8150000000000001
 21
0.8696666666666667
 31
0.0
100
AcDbText
  0
LINE
  5
277
330
17
100
AcDbEntity
  8
LLAMADAS
100
AcDbLine
 10
0.81
 20
0.8
 30
0.0
 11
0.79
 21
0.8
 31
0.0
  0
LINE
  5
278
330
17
100
AcDbEntity
  8
LLAMADAS
100
AcDbLine
 10
0.79
 20
0.8
 30
0.0
 11
0.632
 21
0.8
 31
0.0
  0
SOLID
  5
279
330
17
100
AcDbEntity
  8
LLAMADAS
100
AcDbTrace
 10
0.632
 20
0.8
 30
0.0
 11
0.643
 21
0.79615
 31
0.0
 12
0.643
 22
0.8038500000000001
 32
0.0
 13
0.643
 23
0.8038500000000001
 33
0.0
  0
TEXT
  5
27A
330
17
100
AcDbEntity
  8
TEXTOS
100
AcDbText
 10
0.8150000000000001
 20
0.803
 30
0.0
 40
0.013500000000000002
  1
Montante de tuberia PVC 4" (campana arriba)
  7
STANDARD
 11
0.8150000000000001
 21
0.803
 31
0.0
100
AcDbText
  0
TEXT
  5
27B
330
17
100
AcDbEntity
  8
TITULOS
100
AcDbText
 10
0.585
 20
0.71
 30
0.0
 40
0.027000000000000003
  1
D. BOQUILLA A MONTANTE Ø 4" - CORTE
  7
TITULOS
 72
1
 11
0.585
 21
0.71
 31
0.0
100
AcDbText
 73
2
  0
LINE
  5
27C
330
17
100
AcDbEntity
  8
TITULOS
100
AcDbLine
 10
0.36
 20
0.6925
 30
0.0
 11
0.81
 21
0.6925
 31
0.0
  0
TEXT
  5
27D
330
17
100
AcDbEntity
  8
TEXTOS
100
AcDbText
 10
0.585
 20
0.6725
 30
0.0
 40
0.014850000000000004
  1
ESC. 1/5
  7
STANDARD
 72
1
 11
0.585
 21
0.6725
 31
0.0
100
AcDbText
 73
2
  0
LWPOLYLINE
  5
27E
330
17
100
AcDbEntity
  8
PLANCHA-GALV
100
AcDbPolyline
 90
4
 70
1
 10
1.5
 20
0.75
 10
1.7
 20
0.75
 10
1.7
 20
0.95
 10
1.5
 20
0.95
  0
CIRCLE
  5
27F
330
17
100
AcDbEntity
  8
PLANCHA-GALV
100
AcDbCircle
 10
1.6
 20
0.85
 30
0.0
 40
0.05
  0
CIRCLE
  5
280
330
17
100
AcDbEntity
  8
PERNOS
100
AcDbCircle
 10
1.52
 20
0.77
 30
0.0
 40
0.0016
  0
CIRCLE
  5
281
330
17
100
AcDbEntity
  8
PERNOS
100
AcDbCircle
 10
1.6
 20
0.77
 30
0.0
 40
0.0016
  0
CIRCLE
  5
282
330
17
100
AcDbEntity
  8
PERNOS
100
AcDbCircle
 10
1.68
 20
0.77
 30
0.0
 40
0.0016
  0
CIRCLE
  5
283
330
17
100
AcDbEntity
  8
PERNOS
100
AcDbCircle
 10
1.52
 20
0.85
 30
0.0
 40
0.0016
  0
CIRCLE
  5
284
330
17
100
AcDbEntity
  8
PERNOS
100
AcDbCircle
 10
1.68
 20
0.85
 30
0.0
 40
0.0016
  0
CIRCLE
  5
285
330
17
100
AcDbEntity
  8
PERNOS
100
AcDbCircle
 10
1.52
 20
0.9299999999999999
 30
0.0
 40
0.0016
  0
CIRCLE
  5
286
330
17
100
AcDbEntity
  8
PERNOS
100
AcDbCircle
 10
1.6
 20
0.9299999999999999
 30
0.0
 40
0.0016
  0
CIRCLE
  5
287
330
17
100
AcDbEntity
  8
PERNOS
100
AcDbCircle
 10
1.68
 20
0.9299999999999999
 30
0.0
 40
0.0016
  0
DIMENSION
  5
288
330
17
100
AcDbEntity
  8
COTAS
100
AcDbDimension
280
0
  2
*D19
  3
COT-5
 10
1.5
 20
0.71
 30
0.0
 11
1.6
 21
0.7224999999999999
 31
0.0
 70
32
 71
5
  1
<>
100
AcDbAlignedDimension
 13
1.5
 23
0.75
 33
0.0
 14
1.7
 24
0.75
 34
0.0
 50
0.0
100
AcDbRotatedDimension
  0
DIMENSION
  5
297
330
17
100
AcDbEntity
  8
COTAS
100
AcDbDimension
280
0
  2
*D20
  3
COT-5
 10
1.74
 20
0.75
 30
0.0
 11
1.7275
 21
0.85
 31
0.0
 70
32
 71
5
  1
<>
100
AcDbAlignedDimension
 13
1.7
 23
0.75
 33
0.0
 14
1.7
 24
0.95
 34
0.0
 50
90.0
100
AcDbRotatedDimension
  0
TEXT
  5
2A6
330
17
100
AcDbEntity
  8
TITULOS
100
AcDbText
 10
1.6
 20
0.67
 30
0.0
 40
0.027000000000000003
  1
D'. BOQUILLA - PLANTA DE LA BRIDA
  7
TITULOS
 72
1
 11
1.6
 21
0.67
 31
0.0
100
AcDbText
 73
2
  0
LINE
  5
2A7
330
17
100
AcDbEntity
  8
TITULOS
100
AcDbLine
 10
1.4000000000000001
 20
0.6525
 30
0.0
 11
1.8
 21
0.6525
 31
0.0
  0
TEXT
  5
2A8
330
17
100
AcDbEntity
  8
TEXTOS
100
AcDbText
 10
1.6
 20
0.6325000000000001
 30
0.0
 40
0.014850000000000004
  1
ESC. 1/5 - 8 remaches pop 1/8"
  7
STANDARD
 72
1
 11
1.6
 21
0.6325000000000001
 31
0.0
100
AcDbText
 73
2
  0
LWPOLYLINE
  5
2A9
330
17
100
AcDbEntity
  8
PLANCHA-GALV
100
AcDbPolyline
 90
4
 70
0
 10
2.35
 20
0.925
 10
2.8000000000000003
 20
0.925
 10
2.8000000000000003
 20
1.125
 10
2.35
 20
1.125
  0
LWPOLYLINE
  5
2AA
330
17
100
AcDbEntity
  8
PLANCHA-GALV
100
AcDbPolyline
 90
4
 70
0
 10
2.75
 20
0.921
 10
3.2
 20
0.921
 10
3.2
 20
1.129
 10
2.75
 20
1.129
  0
HATCH
  5
2AB
330
17
100
AcDbEntity
  8
ISO-CONCRETO-LAT1
 62
7
420
13553358
100
AcDbHatch
 10
0.0
 20
0.0
 30
0.0
210
0.0
220
0.0
230
1.0
  2
SOLID
 70
1
 71
0
 91
1
 92
3
 72
0
 73
1
 93
4
 10
2.75
 20
0.925
 10
2.8000000000000003
 20
0.925
 10
2.8000000000000003
 20
1.125
 10
2.75
 20
1.125
 97
0
 75
1
 76
1
 98
0
  0
CIRCLE
  5
2AC
330
17
100
AcDbEntity
  8
PERNOS
100
AcDbCircle
 10
2.7625
 20
0.9500000000000001
 30
0.0
 40
0.0016
  0
CIRCLE
  5
2AD
330
17
100
AcDbEntity
  8
PERNOS
100
AcDbCircle
 10
2.7625
 20
1.0
 30
0.0
 40
0.0016
  0
CIRCLE
  5
2AE
330
17
100
AcDbEntity
  8
PERNOS
100
AcDbCircle
 10
2.7625
 20
1.05
 30
0.0
 40
0.0016
  0
CIRCLE
  5
2AF
330
17
100
AcDbEntity
  8
PERNOS
100
AcDbCircle
 10
2.7625
 20
1.1
 30
0.0
 40
0.0016
  0
CIRCLE
  5
2B0
330
17
100
AcDbEntity
  8
PERNOS
100
AcDbCircle
 10
2.7875
 20
0.9500000000000001
 30
0.0
 40
0.0016
  0
CIRCLE
  5
2B1
330
17
100
AcDbEntity
  8
PERNOS
100
AcDbCircle
 10
2.7875
 20
1.0
 30
0.0
 40
0.0016
  0
CIRCLE
  5
2B2
330
17
100
AcDbEntity
  8
PERNOS
100
AcDbCircle
 10
2.7875
 20
1.05
 30
0.0
 40
0.0016
  0
CIRCLE
  5
2B3
330
17
100
AcDbEntity
  8
PERNOS
100
AcDbCircle
 10
2.7875
 20
1.1
 30
0.0
 40
0.0016
  0
DIMENSION
  5
2B4
330
17
100
AcDbEntity
  8
COTAS
100
AcDbDimension
280
0
  2
*D21
  3
COT-5
 10
2.75
 20
1.165
 30
0.0
 11
2.7750000000000004
 21
1.1855
 31
0.0
 70
32
 71
5
  1
0.05
100
AcDbAlignedDimension
 13
2.75
 23
1.125
 33
0.0
 14
2.8000000000000003
 24
1.125
 34
0.0
 50
0.0
100
AcDbRotatedDimension
  0
DIMENSION
  5
2C3
330
17
100
AcDbEntity
  8
COTAS
100
AcDbDimension
280
0
  2
*D22
  3
COT-5
 10
2.31
 20
0.925
 30
0.0
 11
2.2975
 21
1.025
 31
0.0
 70
32
 71
5
  1
<>
100
AcDbAlignedDimension
 13
2.35
 23
0.925
 33
0.0
 14
2.35
 24
1.125
 34
0.0
 50
90.0
100
AcDbRotatedDimension
  0
LINE
  5
2D2
330
17
100
AcDbEntity
  8
LLAMADAS
100
AcDbLine
 10
3.27
 20
1.05
 30
0.0
 11
3.25
 21
1.05
 31
0.0
  0
LINE
  5
2D3
330
17
100
AcDbEntity
  8
LLAMADAS
100
AcDbLine
 10
3.25
 20
1.05
 30
0.0
 11
2.7625
 21
1.05
 31
0.0
  0
SOLID
  5
2D4
330
17
100
AcDbEntity
  8
LLAMADAS
100
AcDbTrace
 10
2.7625
 20
1.05
 30
0.0
 11
2.7735000000000003
 21
1.0461500000000001
 31
0.0
 12
2.7735000000000003
 22
1.05385
 32
0.0
 13
2.7735000000000003
 23
1.05385
 33
0.0
  0
TEXT
  5
2D5
330
17
100
AcDbEntity
  8
TEXTOS
100
AcDbText
 10
3.275
 20
1.053
 30
0.0
 40
0.013500000000000002
  1
2 filas de remaches pop 1/8" @0.05 en todo el perimetro (26 por union)
  7
STANDARD
 11
3.275
 21
1.053
 31
0.0
100
AcDbText
  0
LINE
  5
2D6
330
17
100
AcDbEntity
  8
LLAMADAS
100
AcDbLine
 10
3.27
 20
0.9600000000000001
 30
0.0
 11
3.25
 21
0.9600000000000001
 31
0.0
  0
LINE
  5
2D7
330
17
100
AcDbEntity
  8
LLAMADAS
100
AcDbLine
 10
3.25
 20
0.9600000000000001
 30
0.0
 11
2.79
 21
0.9600000000000001
 31
0.0
  0
SOLID
  5
2D8
330
17
100
AcDbEntity
  8
LLAMADAS
100
AcDbTrace
 10
2.79
 20
0.9600000000000001
 30
0.0
 11
2.801
 21
0.95615
 31
0.0
 12
2.801
 22
0.9638500000000001
 32
0.0
 13
2.801
 23
0.9638500000000001
 33
0.0
  0
TEXT
  5
2D9
330
17
100
AcDbEntity
  8
TEXTOS
100
AcDbText
 10
3.275
 20
0.9630000000000001
 30
0.0
 40
0.013500000000000002
  1
Traslape 0.05 con cordon de sellador de poliuretano;
  7
STANDARD
 11
3.275
 21
0.9630000000000001
 31
0.0
100
AcDbText
  0
TEXT
  5
2DA
330
17
100
AcDbEntity
  8
TEXTOS
100
AcDbText
 10
3.275
 20
0.9414000000000001
 30
0.0
 40
0.013500000000000002
  1
el tramo de aguas arriba va por dentro del de aguas abajo
  7
STANDARD
 11
3.275
 21
0.9414000000000001
 31
0.0
100
AcDbText
  0
TEXT
  5
2DB
330
17
100
AcDbEntity
  8
TITULOS
100
AcDbText
 10
2.56
 20
0.8150000000000001
 30
0.0
 40
0.027000000000000003
  1
E. UNION DE TRAMOS DE CANALETA (CADA 2.44 m)
  7
TITULOS
 72
1
 11
2.56
 21
0.8150000000000001
 31
0.0
100
AcDbText
 73
2
  0
LINE
  5
2DC
330
17
100
AcDbEntity
  8
TITULOS
100
AcDbLine
 10
2.2600000000000002
 20
0.7975
 30
0.0
 11
2.86
 21
0.7975
 31
0.0
  0
TEXT
  5
2DD
330
17
100
AcDbEntity
  8
TEXTOS
100
AcDbText
 10
2.56
 20
0.7775
 30
0.0
 40
0.014850000000000004
  1
ESC. 1/5 - vista del lado exterior
  7
STANDARD
 72
1
 11
2.56
 21
0.7775
 31
0.0
100
AcDbText
 73
2
  0
HATCH
  5
2DE
330
17
100
AcDbEntity
  8
CONCRETO-ACHURADO
 62
7
420
14869218
100
AcDbHatch
 10
0.0
 20
0.0
 30
0.0
210
0.0
220
0.0
230
1.0
  2
SOLID
 70
1
 71
0
 91
1
 92
3
 72
0
 73
1
 93
4
 10
0.44500000000000006
 20
0.375
 10
0.7050000000000001
 20
0.375
 10
0.7050000000000001
 20
0.295
 10
0.44500000000000006
 20
0.295
 97
0
 75
1
 76
1
 98
0
  0
LWPOLYLINE
  5
2DF
330
17
100
AcDbEntity
  8
CONCRETO
100
AcDbPolyline
 90
4
 70
1
 10
0.44500000000000006
 20
0.375
 10
0.7050000000000001
 20
0.375
 10
0.7050000000000001
 20
0.295
 10
0.44500000000000006
 20
0.295
  0
CIRCLE
  5
2E0
330
17
100
AcDbEntity
  8
TUBERIA-PVC
100
AcDbCircle
 10
0.5750000000000001
 20
0.435175
 30
0.0
 40
0.057
  0
LWPOLYLINE
  5
2E1
330
17
100
AcDbEntity
  8
PLATINA
100
AcDbPolyline
 90
29
 70
0
 43
0.003175
 10
0.4650000000000001
 20
0.3766
 10
0.513225
 20
0.3766
 10
0.513225
 20
0.435175
 10
0.513753493688633
 20
0.44323825552439367
 10
0.5153299320809929
 20
0.45116354651120827
 10
0.5179273418791154
 20
0.45881526903435343
 10
0.5215012806812164
 20
0.4660625
 10
0.5259905974035091
 20
0.4727812372770137
 10
0.531318478592201
 20
0.478856521407799
 10
0.5373937627229863
 20
0.48418440259649104
 10
0.5441125
 20
0.4886737193187837
 10
0.5513597309656466
 20
0.4922476581208847
 10
0.5590114534887919
 20
0.4948450679190072
 10
0.5669367444756064
 20
0.49642150631136717
 10
0.5750000000000001
 20
0.49695
 10
0.5830632555243938
 20
0.49642150631136717
 10
0.5909885465112082
 20
0.4948450679190072
 10
0.5986402690343535
 20
0.4922476581208848
 10
0.6058875
 20
0.4886737193187837
 10
0.6126062372770138
 20
0.48418440259649104
 10
0.6186815214077991
 20
0.478856521407799
 10
0.6240094025964911
 20
0.4727812372770137
 10
0.6284987193187838
 20
0.4660625
 10
0.6320726581208848
 20
0.45881526903435343
 10
0.6346700679190073
 20
0.4511635465112082
 10
0.6362465063113671
 20
0.4432382555243937
 10
0.6367750000000001
 20
0.435175
 10
0.6367750000000001
 20
0.3766
 10
0.685
 20
0.3766
  0
LWPOLYLINE
  5
2E2
330
17
100
AcDbEntity
  8
PERNOS
100
AcDbPolyline
 90
5
 70
0
 10
0.4820000000000001
 20
0.379
 10
0.4820000000000001
 20
0.32
 10
0.4850000000000001
 20
0.315
 10
0.4880000000000001
 20
0.32
 10
0.4880000000000001
 20
0.379
  0
LWPOLYLINE
  5
2E3
330
17
100
AcDbEntity
  8
PERNOS
100
AcDbPolyline
 90
4
 70
1
 10
0.4770000000000001
 20
0.3782
 10
0.4930000000000001
 20
0.3782
 10
0.4930000000000001
 20
0.383
 10
0.4770000000000001
 20
0.383
  0
LWPOLYLINE
  5
2E4
330
17
100
AcDbEntity
  8
PERNOS
100
AcDbPolyline
 90
5
 70
0
 10
0.662
 20
0.379
 10
0.662
 20
0.32
 10
0.665
 20
0.315
 10
0.668
 20
0.32
 10
0.668
 20
0.379
  0
LWPOLYLINE
  5
2E5
330
17
100
AcDbEntity
  8
PERNOS
100
AcDbPolyline
 90
4
 70
1
 10
0.657
 20
0.3782
 10
0.673
 20
0.3782
 10
0.673
 20
0.383
 10
0.657
 20
0.383
  0
DIMENSION
  5
2E6
330
17
100
AcDbEntity
  8
COTAS
100
AcDbDimension
280
0
  2
*D23
  3
COT-5
 10
0.4650000000000001
 20
0.295
 30
0.0
 11
0.5750000000000001
 21
0.3075
 31
0.0
 70
32
 71
5
  1
<>
100
AcDbAlignedDimension
 13
0.4650000000000001
 23
0.375
 33
0.0
 14
0.685
 24
0.375
 34
0.0
 50
0.0
100
AcDbRotatedDimension
  0
LINE
  5
2F5
330
17
100
AcDbEntity
  8
LLAMADAS
100
AcDbLine
 10
0.78
 20
0.49217500000000003
 30
0.0
 11
0.76
 21
0.49217500000000003
 31
0.0
  0
LINE
  5
2F6
330
17
100
AcDbEntity
  8
LLAMADAS
100
AcDbLine
 10
0.76
 20
0.49217500000000003
 30
0.0
 11
0.5750000000000001
 21
0.49217500000000003
 31
0.0
  0
SOLID
  5
2F7
330
17
100
AcDbEntity
  8
LLAMADAS
100
AcDbTrace
 10
0.5750000000000001
 20
0.49217500000000003
 30
0.0
 11
0.5860000000000001
 21
0.488325
 31
0.0
 12
0.5860000000000001
 22
0.49602500000000005
 32
0.0
 13
0.5860000000000001
 23
0.49602500000000005
 33
0.0
  0
TEXT
  5
2F8
330
17
100
AcDbEntity
  8
TEXTOS
100
AcDbText
 10
0.785
 20
0.49517500000000003
 30
0.0
 40
0.013500000000000002
  1
Montante de tuberia PVC 4" (Ø ext. 0.114)
  7
STANDARD
 11
0.785
 21
0.49517500000000003
 31
0.0
100
AcDbText
  0
LINE
  5
2F9
330
17
100
AcDbEntity
  8
LLAMADAS
100
AcDbLine
 10
0.78
 20
0.4185875
 30
0.0
 11
0.76
 21
0.4185875
 31
0.0
  0
LINE
  5
2FA
330
17
100
AcDbEntity
  8
LLAMADAS
100
AcDbLine
 10
0.76
 20
0.4185875
 30
0.0
 11
0.6171225
 21
0.4772975
 31
0.0
  0
SOLID
  5
2FB
330
17
100
AcDbEntity
  8
LLAMADAS
100
AcDbTrace
 10
0.6171225
 20
0.4772975
 30
0.0
 11
0.6258337245562122
 21
0.46955559669840513
 31
0.0
 12
0.628760301210862
 22
0.47667775571688115
 32
0.0
 13
0.628760301210862
 23
0.47667775571688115
 33
0.0
  0
TEXT
  5
2FC
330
17
100
AcDbEntity
  8
TEXTOS
100
AcDbText
 10
0.785
 20
0.4215875
 30
0.0
 40
0.013500000000000002
  1
Abrazadera de platina F°G° e = 1/8" con 2 orejas, @1.50 m;
  7
STANDARD
 11
0.785
 21
0.4215875
 31
0.0
100
AcDbText
  0
TEXT
  5
2FD
330
17
100
AcDbEntity
  8
TEXTOS
100
AcDbText
 10
0.785
 20
0.3999875
 30
0.0
 40
0.013500000000000002
  1
diametro interior 1/4" mayor que el tubo
  7
STANDARD
 11
0.785
 21
0.3999875
 31
0.0
100
AcDbText
  0
LINE
  5
2FE
330
17
100
AcDbEntity
  8
LLAMADAS
100
AcDbLine
 10
0.78
 20
0.345
 30
0.0
 11
0.76
 21
0.345
 31
0.0
  0
LINE
  5
2FF
330
17
100
AcDbEntity
  8
LLAMADAS
100
AcDbLine
 10
0.76
 20
0.345
 30
0.0
 11
0.665
 21
0.345
 31
0.0
  0
SOLID
  5
300
330
17
100
AcDbEntity
  8
LLAMADAS
100
AcDbTrace
 10
0.665
 20
0.345
 30
0.0
 11
0.676
 21
0.34114999999999995
 31
0.0
 12
0.676
 22
0.34885
 32
0.0
 13
0.676
 23
0.34885
 33
0.0
  0
TEXT
  5
301
330
17
100
AcDbEntity
  8
TEXTOS
100
AcDbText
 10
0.785
 20
0.348
 30
0.0
 40
0.013500000000000002
  1
Tirafon 2" x 1/4" (55 x 6 mm) en tarugo plastico con estrias 2" x 1/2"
  7
STANDARD
 11
0.785
 21
0.348
 31
0.0
100
AcDbText
  0
TEXT
  5
302
330
17
100
AcDbEntity
  8
TITULOS
100
AcDbText
 10
0.725
 20
0.265
 30
0.0
 40
0.027000000000000003
  1
F. ABRAZADERA DE F°G° EN MONTANTE
  7
TITULOS
 72
1
 11
0.725
 21
0.265
 31
0.0
100
AcDbText
 73
2
  0
LINE
  5
303
330
17
100
AcDbEntity
  8
TITULOS
100
AcDbLine
 10
0.5
 20
0.2475
 30
0.0
 11
0.9500000000000001
 21
0.2475
 31
0.0
  0
TEXT
  5
304
330
17
100
AcDbEntity
  8
TEXTOS
100
AcDbText
 10
0.725
 20
0.2275
 30
0.0
 40
0.014850000000000004
  1
ESC. 1/5 - corte horizontal
  7
STANDARD
 72
1
 11
0.725
 21
0.2275
 31
0.0
100
AcDbText
 73
2
  0
HATCH
  5
305
330
17
100
AcDbEntity
  8
CONCRETO-ACHURADO
 62
7
420
14869218
100
AcDbHatch
 10
0.0
 20
0.0
 30
0.0
210
0.0
220
0.0
230
1.0
  2
SOLID
 70
1
 71
0
 91
1
 92
3
 72
0
 73
1
 93
4
 10
1.38
 20
0.44999999999999996
 10
1.62
 20
0.44999999999999996
 10
1.62
 20
0.53
 10
1.38
 20
0.53
 97
0
 75
1
 76
1
 98
0
  0
LWPOLYLINE
  5
306
330
17
100
AcDbEntity
  8
CONCRETO
100
AcDbPolyline
 90
4
 70
1
 10
1.38
 20
0.44999999999999996
 10
1.62
 20
0.44999999999999996
 10
1.62
 20
0.53
 10
1.38
 20
0.53
  0
CIRCLE
  5
307
330
17
100
AcDbEntity
  8
TUBERIA-PVC
100
AcDbCircle
 10
1.5
 20
0.25
 30
0.0
 40
0.057
  0
CIRCLE
  5
308
330
17
100
AcDbEntity
  8
PLATINA
100
AcDbCircle
 10
1.5
 20
0.25
 30
0.0
 40
0.060000000000000005
  0
LWPOLYLINE
  5
309
330
17
100
AcDbEntity
  8
PERNOS
100
AcDbPolyline
 90
2
 70
0
 43
0.0095
 10
1.5
 20
0.31
 10
1.5
 20
0.51
  0
LWPOLYLINE
  5
30A
330
17
100
AcDbEntity
  8
PERNOS
100
AcDbPolyline
 90
4
 70
1
 10
1.488
 20
0.31
 10
1.512
 20
0.31
 10
1.512
 20
0.32199999999999995
 10
1.488
 20
0.32199999999999995
  0
DIMENSION
  5
30B
330
17
100
AcDbEntity
  8
COTAS
100
AcDbDimension
280
0
  2
*D24
  3
COT-5
 10
1.59
 20
0.307
 30
0.0
 11
1.5775000000000001
 21
0.37849999999999995
 31
0.0
 70
32
 71
5
  1
<>
100
AcDbAlignedDimension
 13
1.5
 23
0.307
 33
0.0
 14
1.5
 24
0.44999999999999996
 34
0.0
 50
90.0
100
AcDbRotatedDimension
  0
LINE
  5
31A
330
17
100
AcDbEntity
  8
LLAMADAS
100
AcDbLine
 10
1.66
 20
0.49
 30
0.0
 11
1.64
 21
0.49
 31
0.0
  0
LINE
  5
31B
330
17
100
AcDbEntity
  8
LLAMADAS
100
AcDbLine
 10
1.64
 20
0.49
 30
0.0
 11
1.5
 21
0.49
 31
0.0
  0
SOLID
  5
31C
330
17
100
AcDbEntity
  8
LLAMADAS
100
AcDbTrace
 10
1.5
 20
0.49
 30
0.0
 11
1.511
 21
0.48614999999999997
 31
0.0
 12
1.511
 22
0.49385
 32
0.0
 13
1.511
 23
0.49385
 33
0.0
  0
TEXT
  5
31D
330
17
100
AcDbEntity
  8
TEXTOS
100
AcDbText
 10
1.6649999999999998
 20
0.493
 30
0.0
 40
0.013500000000000002
  1
Anclaje de expansion 3/8" en el fondo del alero
  7
STANDARD
 11
1.6649999999999998
 21
0.493
 31
0.0
100
AcDbText
  0
LINE
  5
31E
330
17
100
AcDbEntity
  8
LLAMADAS
100
AcDbLine
 10
1.66
 20
0.37
 30
0.0
 11
1.64
 21
0.37
 31
0.0
  0
LINE
  5
31F
330
17
100
AcDbEntity
  8
LLAMADAS
100
AcDbLine
 10
1.64
 20
0.37
 30
0.0
 11
1.5
 21
0.4
 31
0.0
  0
SOLID
  5
320
330
17
100
AcDbEntity
  8
LLAMADAS
100
AcDbTrace
 10
1.5
 20
0.4
 30
0.0
 11
1.5099491395632376
 21
0.3939306407297624
 31
0.0
 12
1.5115625135464654
 22
0.40145971931815844
 32
0.0
 13
1.5115625135464654
 23
0.40145971931815844
 33
0.0
  0
TEXT
  5
321
330
17
100
AcDbEntity
  8
TEXTOS
100
AcDbText
 10
1.6649999999999998
 20
0.373
 30
0.0
 40
0.013500000000000002
  1
Varilla roscada F°G° 3/8" con tuerca y contratuerca
  7
STANDARD
 11
1.6649999999999998
 21
0.373
 31
0.0
100
AcDbText
  0
LINE
  5
322
330
17
100
AcDbEntity
  8
LLAMADAS
100
AcDbLine
 10
1.66
 20
0.25
 30
0.0
 11
1.64
 21
0.25
 31
0.0
  0
LINE
  5
323
330
17
100
AcDbEntity
  8
LLAMADAS
100
AcDbLine
 10
1.64
 20
0.25
 30
0.0
 11
1.56
 21
0.25
 31
0.0
  0
SOLID
  5
324
330
17
100
AcDbEntity
  8
LLAMADAS
100
AcDbTrace
 10
1.56
 20
0.25
 30
0.0
 11
1.571
 21
0.24615
 31
0.0
 12
1.571
 22
0.25385
 32
0.0
 13
1.571
 23
0.25385
 33
0.0
  0
TEXT
  5
325
330
17
100
AcDbEntity
  8
TEXTOS
100
AcDbText
 10
1.6649999999999998
 20
0.253
 30
0.0
 40
0.013500000000000002
  1
Colgador F°G° tipo abrazadera para tubo 4"; uno junto a cada
  7
STANDARD
 11
1.6649999999999998
 21
0.253
 31
0.0
100
AcDbText
  0
TEXT
  5
326
330
17
100
AcDbEntity
  8
TEXTOS
100
AcDbText
 10
1.6649999999999998
 20
0.2314
 30
0.0
 40
0.013500000000000002
  1
codo del desvio
  7
STANDARD
 11
1.6649999999999998
 21
0.2314
 31
0.0
100
AcDbText
  0
TEXT
  5
327
330
17
100
AcDbEntity
  8
TITULOS
100
AcDbText
 10
1.56
 20
0.13
 30
0.0
 40
0.027000000000000003
  1
G. COLGADOR F°G° (DESVIO BAJO EL ALERO)
  7
TITULOS
 72
1
 11
1.56
 21
0.13
 31
0.0
100
AcDbText
 73
2
  0
LINE
  5
328
330
17
100
AcDbEntity
  8
TITULOS
100
AcDbLine
 10
1.335
 20
0.1125
 30
0.0
 11
1.7850000000000001
 21
0.1125
 31
0.0
  0
TEXT
  5
329
330
17
100
AcDbEntity
  8
TEXTOS
100
AcDbText
 10
1.56
 20
0.0925
 30
0.0
 40
0.014850000000000004
  1
ESC. 1/5
  7
STANDARD
 72
1
 11
1.56
 21
0.0925
 31
0.0
100
AcDbText
 73
2
  0
TEXT
  5
32A
330
17
100
AcDbEntity
  8
TITULOS
100
AcDbText
 10
3.23
 20
2.82
 30
0.0
 40
0.020250000000000004
  1
METRADO DE LA RED DE TECHO (PLANILLA)
  7
TITULOS
 11
3.23
 21
2.82
 31
0.0
100
AcDbText
  0
LINE
  5
32B
330
17
100
AcDbEntity
  8
TEXTOS
100
AcDbLine
 10
3.23
 20
2.79
 30
0.0
 11
4.07
 21
2.79
 31
0.0
  0
LINE
  5
32C
330
17
100
AcDbEntity
  8
GRILLA
100
AcDbLine
 10
3.23
 20
2.767
 30
0.0
 11
4.07
 21
2.767
 31
0.0
  0
LINE
  5
32D
330
17
100
AcDbEntity
  8
GRILLA
100
AcDbLine
 10
3.23
 20
2.7439999999999998
 30
0.0
 11
4.07
 21
2.7439999999999998
 31
0.0
  0
LINE
  5
32E
330
17
100
AcDbEntity
  8
GRILLA
100
AcDbLine
 10
3.23
 20
2.721
 30
0.0
 11
4.07
 21
2.721
 31
0.0
  0
LINE
  5
32F
330
17
100
AcDbEntity
  8
GRILLA
100
AcDbLine
 10
3.23
 20
2.698
 30
0.0
 11
4.07
 21
2.698
 31
0.0
  0
LINE
  5
330
330
17
100
AcDbEntity
  8
GRILLA
100
AcDbLine
 10
3.23
 20
2.6750000000000003
 30
0.0
 11
4.07
 21
2.6750000000000003
 31
0.0
  0
LINE
  5
331
330
17
100
AcDbEntity
  8
GRILLA
100
AcDbLine
 10
3.23
 20
2.652
 30
0.0
 11
4.07
 21
2.652
 31
0.0
  0
LINE
  5
332
330
17
100
AcDbEntity
  8
GRILLA
100
AcDbLine
 10
3.23
 20
2.629
 30
0.0
 11
4.07
 21
2.629
 31
0.0
  0
LINE
  5
333
330
17
100
AcDbEntity
  8
GRILLA
100
AcDbLine
 10
3.23
 20
2.6060000000000003
 30
0.0
 11
4.07
 21
2.6060000000000003
 31
0.0
  0
LINE
  5
334
330
17
100
AcDbEntity
  8
GRILLA
100
AcDbLine
 10
3.23
 20
2.583
 30
0.0
 11
4.07
 21
2.583
 31
0.0
  0
LINE
  5
335
330
17
100
AcDbEntity
  8
TEXTOS
100
AcDbLine
 10
3.23
 20
2.56
 30
0.0
 11
4.07
 21
2.56
 31
0.0
  0
LINE
  5
336
330
17
100
AcDbEntity
  8
TEXTOS
100
AcDbLine
 10
3.23
 20
2.79
 30
0.0
 11
3.23
 21
2.56
 31
0.0
  0
LINE
  5
337
330
17
100
AcDbEntity
  8
TEXTOS
100
AcDbLine
 10
3.38
 20
2.79
 30
0.0
 11
3.38
 21
2.56
 31
0.0
  0
LINE
  5
338
330
17
100
AcDbEntity
  8
TEXTOS
100
AcDbLine
 10
3.9
 20
2.79
 30
0.0
 11
3.9
 21
2.56
 31
0.0
  0
LINE
  5
339
330
17
100
AcDbEntity
  8
TEXTOS
100
AcDbLine
 10
3.96
 20
2.79
 30
0.0
 11
3.96
 21
2.56
 31
0.0
  0
LINE
  5
33A
330
17
100
AcDbEntity
  8
TEXTOS
100
AcDbLine
 10
4.07
 20
2.79
 30
0.0
 11
4.07
 21
2.56
 31
0.0
  0
TEXT
  5
33B
330
17
100
AcDbEntity
  8
TEXTOS
100
AcDbText
 10
3.305
 20
2.7785
 30
0.0
 40
0.011474999999999999
  1
PARTIDA
  7
STANDARD
 72
1
 11
3.305
 21
2.7785
 31
0.0
100
AcDbText
 73
2
  0
TEXT
  5
33C
330
17
100
AcDbEntity
  8
TEXTOS
100
AcDbText
 10
3.64
 20
2.7785
 30
0.0
 40
0.011474999999999999
  1
DESCRIPCION
  7
STANDARD
 72
1
 11
3.64
 21
2.7785
 31
0.0
100
AcDbText
 73
2
  0
TEXT
  5
33D
330
17
100
AcDbEntity
  8
TEXTOS
100
AcDbText
 10
3.93
 20
2.7785
 30
0.0
 40
0.011474999999999999
  1
UND
  7
STANDARD
 72
1
 11
3.93
 21
2.7785
 31
0.0
100
AcDbText
 73
2
  0
TEXT
  5
33E
330
17
100
AcDbEntity
  8
TEXTOS
100
AcDbText
 10
4.015
 20
2.7785
 30
0.0
 40
0.011474999999999999
  1
METRADO
  7
STANDARD
 72
1
 11
4.015
 21
2.7785
 31
0.0
100
AcDbText
 73
2
  0
TEXT
  5
33F
330
17
100
AcDbEntity
  8
TEXTOS
100
AcDbText
 10
3.305
 20
2.7555
 30
0.0
 40
0.011474999999999999
  1
1.4.4.5.1.1
  7
STANDARD
 72
1
 11
3.305
 21
2.7555
 31
0.0
100
AcDbText
 73
2
  0
TEXT
  5
340
330
17
100
AcDbEntity
  8
TEXTOS
100
AcDbText
 10
3.64
 20
2.7555
 30
0.0
 40
0.011474999999999999
  1
MONTANTE TUBERÍA PVC DE 4"
  7
STANDARD
 72
1
 11
3.64
 21
2.7555
 31
0.0
100
AcDbText
 73
2
  0
TEXT
  5
341
330
17
100
AcDbEntity
  8
TEXTOS
100
AcDbText
 10
3.93
 20
2.7555
 30
0.0
 40
0.011474999999999999
  1
m
  7
STANDARD
 72
1
 11
3.93
 21
2.7555
 31
0.0
100
AcDbText
 73
2
  0
TEXT
  5
342
330
17
100
AcDbEntity
  8
TEXTOS
100
AcDbText
 10
4.015
 20
2.7555
 30
0.0
 40
0.011474999999999999
  1
386.48
  7
STANDARD
 72
1
 11
4.015
 21
2.7555
 31
0.0
100
AcDbText
 73
2
  0
TEXT
  5
343
330
17
100
AcDbEntity
  8
TEXTOS
100
AcDbText
 10
3.305
 20
2.7325
 30
0.0
 40
0.011474999999999999
  1
1.4.4.5.1.2
  7
STANDARD
 72
1
 11
3.305
 21
2.7325
 31
0.0
100
AcDbText
 73
2
  0
TEXT
  5
344
330
17
100
AcDbEntity
  8
TEXTOS
100
AcDbText
 10
3.64
 20
2.7325
 30
0.0
 40
0.011474999999999999
  1
FALSA COLUMNA P/MONTANTE DE 0.20m x 0.15m x 
  7
STANDARD
 72
1
 11
3.64
 21
2.7325
 31
0.0
100
AcDbText
 73
2
  0
TEXT
  5
345
330
17
100
AcDbEntity
  8
TEXTOS
100
AcDbText
 10
3.93
 20
2.7325
 30
0.0
 40
0.011474999999999999
  1
und
  7
STANDARD
 72
1
 11
3.93
 21
2.7325
 31
0.0
100
AcDbText
 73
2
  0
TEXT
  5
346
330
17
100
AcDbEntity
  8
TEXTOS
100
AcDbText
 10
4.015
 20
2.7325
 30
0.0
 40
0.011474999999999999
  1
54
  7
STANDARD
 72
1
 11
4.015
 21
2.7325
 31
0.0
100
AcDbText
 73
2
  0
TEXT
  5
347
330
17
100
AcDbEntity
  8
TEXTOS
100
AcDbText
 10
3.305
 20
2.7095
 30
0.0
 40
0.011474999999999999
  1
1.4.4.5.1.3
  7
STANDARD
 72
1
 11
3.305
 21
2.7095
 31
0.0
100
AcDbText
 73
2
  0
TEXT
  5
348
330
17
100
AcDbEntity
  8
TEXTOS
100
AcDbText
 10
3.64
 20
2.7095
 30
0.0
 40
0.011474999999999999
  1
CANALETA DE PLANCHA DE ACERO GALVANIZADO e=0
  7
STANDARD
 72
1
 11
3.64
 21
2.7095
 31
0.0
100
AcDbText
 73
2
  0
TEXT
  5
349
330
17
100
AcDbEntity
  8
TEXTOS
100
AcDbText
 10
3.93
 20
2.7095
 30
0.0
 40
0.011474999999999999
  1
m
  7
STANDARD
 72
1
 11
3.93
 21
2.7095
 31
0.0
100
AcDbText
 73
2
  0
TEXT
  5
34A
330
17
100
AcDbEntity
  8
TEXTOS
100
AcDbText
 10
4.015
 20
2.7095
 30
0.0
 40
0.011474999999999999
  1
515.48
  7
STANDARD
 72
1
 11
4.015
 21
2.7095
 31
0.0
100
AcDbText
 73
2
  0
TEXT
  5
34B
330
17
100
AcDbEntity
  8
TEXTOS
100
AcDbText
 10
3.305
 20
2.6864999999999997
 30
0.0
 40
0.011474999999999999
  1
1.4.4.5.1.4
  7
STANDARD
 72
1
 11
3.305
 21
2.6864999999999997
 31
0.0
100
AcDbText
 73
2
  0
TEXT
  5
34C
330
17
100
AcDbEntity
  8
TEXTOS
100
AcDbText
 10
3.64
 20
2.6864999999999997
 30
0.0
 40
0.011474999999999999
  1
SOPORTE DE PLATINA F°G° 1" x 1/8" P/CANALETA
  7
STANDARD
 72
1
 11
3.64
 21
2.6864999999999997
 31
0.0
100
AcDbText
 73
2
  0
TEXT
  5
34D
330
17
100
AcDbEntity
  8
TEXTOS
100
AcDbText
 10
3.93
 20
2.6864999999999997
 30
0.0
 40
0.011474999999999999
  1
und
  7
STANDARD
 72
1
 11
3.93
 21
2.6864999999999997
 31
0.0
100
AcDbText
 73
2
  0
TEXT
  5
34E
330
17
100
AcDbEntity
  8
TEXTOS
100
AcDbText
 10
4.015
 20
2.6864999999999997
 30
0.0
 40
0.011474999999999999
  1
894
  7
STANDARD
 72
1
 11
4.015
 21
2.6864999999999997
 31
0.0
100
AcDbText
 73
2
  0
TEXT
  5
34F
330
17
100
AcDbEntity
  8
TEXTOS
100
AcDbText
 10
3.305
 20
2.6635000000000004
 30
0.0
 40
0.011474999999999999
  1
1.4.4.5.1.5
  7
STANDARD
 72
1
 11
3.305
 21
2.6635000000000004
 31
0.0
100
AcDbText
 73
2
  0
TEXT
  5
350
330
17
100
AcDbEntity
  8
TEXTOS
100
AcDbText
 10
3.64
 20
2.6635000000000004
 30
0.0
 40
0.011474999999999999
  1
TAPA LATERAL DE PLANCHA GALVANIZADA P/CANALE
  7
STANDARD
 72
1
 11
3.64
 21
2.6635000000000004
 31
0.0
100
AcDbText
 73
2
  0
TEXT
  5
351
330
17
100
AcDbEntity
  8
TEXTOS
100
AcDbText
 10
3.93
 20
2.6635000000000004
 30
0.0
 40
0.011474999999999999
  1
und
  7
STANDARD
 72
1
 11
3.93
 21
2.6635000000000004
 31
0.0
100
AcDbText
 73
2
  0
TEXT
  5
352
330
17
100
AcDbEntity
  8
TEXTOS
100
AcDbText
 10
4.015
 20
2.6635000000000004
 30
0.0
 40
0.011474999999999999
  1
44
  7
STANDARD
 72
1
 11
4.015
 21
2.6635000000000004
 31
0.0
100
AcDbText
 73
2
  0
TEXT
  5
353
330
17
100
AcDbEntity
  8
TEXTOS
100
AcDbText
 10
3.305
 20
2.6405000000000003
 30
0.0
 40
0.011474999999999999
  1
1.4.4.5.1.6
  7
STANDARD
 72
1
 11
3.305
 21
2.6405000000000003
 31
0.0
100
AcDbText
 73
2
  0
TEXT
  5
354
330
17
100
AcDbEntity
  8
TEXTOS
100
AcDbText
 10
3.64
 20
2.6405000000000003
 30
0.0
 40
0.011474999999999999
  1
BOQUILLA DE PLANCHA GALVANIZADA P/CONEXIÓN D
  7
STANDARD
 72
1
 11
3.64
 21
2.6405000000000003
 31
0.0
100
AcDbText
 73
2
  0
TEXT
  5
355
330
17
100
AcDbEntity
  8
TEXTOS
100
AcDbText
 10
3.93
 20
2.6405000000000003
 30
0.0
 40
0.011474999999999999
  1
und
  7
STANDARD
 72
1
 11
3.93
 21
2.6405000000000003
 31
0.0
100
AcDbText
 73
2
  0
TEXT
  5
356
330
17
100
AcDbEntity
  8
TEXTOS
100
AcDbText
 10
4.015
 20
2.6405000000000003
 30
0.0
 40
0.011474999999999999
  1
52
  7
STANDARD
 72
1
 11
4.015
 21
2.6405000000000003
 31
0.0
100
AcDbText
 73
2
  0
TEXT
  5
357
330
17
100
AcDbEntity
  8
TEXTOS
100
AcDbText
 10
3.305
 20
2.6175
 30
0.0
 40
0.011474999999999999
  1
1.4.4.5.3.1
  7
STANDARD
 72
1
 11
3.305
 21
2.6175
 31
0.0
100
AcDbText
 73
2
  0
TEXT
  5
358
330
17
100
AcDbEntity
  8
TEXTOS
100
AcDbText
 10
3.64
 20
2.6175
 30
0.0
 40
0.011474999999999999
  1
CODO DESAGÜE PVC Ø4" x 90°
  7
STANDARD
 72
1
 11
3.64
 21
2.6175
 31
0.0
100
AcDbText
 73
2
  0
TEXT
  5
359
330
17
100
AcDbEntity
  8
TEXTOS
100
AcDbText
 10
3.93
 20
2.6175
 30
0.0
 40
0.011474999999999999
  1
und
  7
STANDARD
 72
1
 11
3.93
 21
2.6175
 31
0.0
100
AcDbText
 73
2
  0
TEXT
  5
35A
330
17
100
AcDbEntity
  8
TEXTOS
100
AcDbText
 10
4.015
 20
2.6175
 30
0.0
 40
0.011474999999999999
  1
150
  7
STANDARD
 72
1
 11
4.015
 21
2.6175
 31
0.0
100
AcDbText
 73
2
  0
TEXT
  5
35B
330
17
100
AcDbEntity
  8
TEXTOS
100
AcDbText
 10
3.305
 20
2.5945
 30
0.0
 40
0.011474999999999999
  1
1.4.4.5.3.2
  7
STANDARD
 72
1
 11
3.305
 21
2.5945
 31
0.0
100
AcDbText
 73
2
  0
TEXT
  5
35C
330
17
100
AcDbEntity
  8
TEXTOS
100
AcDbText
 10
3.64
 20
2.5945
 30
0.0
 40
0.011474999999999999
  1
COLGADOR F°G° P/TUBERIA PVC Ø4"
  7
STANDARD
 72
1
 11
3.64
 21
2.5945
 31
0.0
100
AcDbText
 73
2
  0
TEXT
  5
35D
330
17
100
AcDbEntity
  8
TEXTOS
100
AcDbText
 10
3.93
 20
2.5945
 30
0.0
 40
0.011474999999999999
  1
und
  7
STANDARD
 72
1
 11
3.93
 21
2.5945
 31
0.0
100
AcDbText
 73
2
  0
TEXT
  5
35E
330
17
100
AcDbEntity
  8
TEXTOS
100
AcDbText
 10
4.015
 20
2.5945
 30
0.0
 40
0.011474999999999999
  1
90
  7
STANDARD
 72
1
 11
4.015
 21
2.5945
 31
0.0
100
AcDbText
 73
2
  0
TEXT
  5
35F
330
17
100
AcDbEntity
  8
TEXTOS
100
AcDbText
 10
3.305
 20
2.5715
 30
0.0
 40
0.011474999999999999
  1
1.4.4.5.3.3
  7
STANDARD
 72
1
 11
3.305
 21
2.5715
 31
0.0
100
AcDbText
 73
2
  0
TEXT
  5
360
330
17
100
AcDbEntity
  8
TEXTOS
100
AcDbText
 10
3.64
 20
2.5715
 30
0.0
 40
0.011474999999999999
  1
ABRAZADERA DE F°G° P/TUBERIA PVC Ø4"
  7
STANDARD
 72
1
 11
3.64
 21
2.5715
 31
0.0
100
AcDbText
 73
2
  0
TEXT
  5
361
330
17
100
AcDbEntity
  8
TEXTOS
100
AcDbText
 10
3.93
 20
2.5715
 30
0.0
 40
0.011474999999999999
  1
und
  7
STANDARD
 72
1
 11
3.93
 21
2.5715
 31
0.0
100
AcDbText
 73
2
  0
TEXT
  5
362
330
17
100
AcDbEntity
  8
TEXTOS
100
AcDbText
 10
4.015
 20
2.5715
 30
0.0
 40
0.011474999999999999
  1
74
  7
STANDARD
 72
1
 11
4.015
 21
2.5715
 31
0.0
100
AcDbText
 73
2
  0
TEXT
  5
363
330
17
100
AcDbEntity
  8
TITULOS
100
AcDbText
 10
3.23
 20
2.5300000000000002
 30
0.0
 40
0.020250000000000004
  1
NOTAS
  7
TITULOS
 11
3.23
 21
2.5300000000000002
 31
0.0
100
AcDbText
  0
LINE
  5
364
330
17
100
AcDbEntity
  8
TITULOS
100
AcDbLine
 10
3.23
 20
2.52
 30
0.0
 11
3.355
 21
2.52
 31
0.0
  0
TEXT
  5
365
330
17
100
AcDbEntity
  8
TEXTOS-NOTAS
100
AcDbText
 10
3.23
 20
2.495
 30
0.0
 40
0.010400000000000001
  1
1. Canaleta de plancha de acero galvanizado e = 0.9 mm, seccion interior 0.25 x 0.20 m con pestanas de 0.05
  7
STANDARD
 11
3.23
 21
2.495
 31
0.0
100
AcDbText
  0
TEXT
  5
366
330
17
100
AcDbEntity
  8
TEXTOS-NOTAS
100
AcDbText
 10
3.23
 20
2.4763333333333333
 30
0.0
 40
0.010400000000000001
  1
   m, en tramos de 2.44 m.
  7
STANDARD
 11
3.23
 21
2.4763333333333333
 31
0.0
100
AcDbText
  0
TEXT
  5
367
330
17
100
AcDbEntity
  8
TEXTOS-NOTAS
100
AcDbText
 10
3.23
 20
2.457666666666667
 30
0.0
 40
0.010400000000000001
  1
2. Pendiente de la canaleta S = 1.00 % hacia las boquillas (memoria hidrologica); verificar con nivel antes
  7
STANDARD
 11
3.23
 21
2.457666666666667
 31
0.0
100
AcDbText
  0
TEXT
  5
368
330
17
100
AcDbEntity
  8
TEXTOS-NOTAS
100
AcDbText
 10
3.23
 20
2.439
 30
0.0
 40
0.010400000000000001
  1
   de fijar.
  7
STANDARD
 11
3.23
 21
2.439
 31
0.0
100
AcDbText
  0
TEXT
  5
369
330
17
100
AcDbEntity
  8
TEXTOS-NOTAS
100
AcDbText
 10
3.23
 20
2.4203333333333332
 30
0.0
 40
0.010400000000000001
  1
3. Soportes de platina F°G° 1" x 1/8" @0.60 m (hoja METRADO CANALETAS: soportes = L / 0.60 + 1 por
  7
STANDARD
 11
3.23
 21
2.4203333333333332
 31
0.0
100
AcDbText
  0
TEXT
  5
36A
330
17
100
AcDbEntity
  8
TEXTOS-NOTAS
100
AcDbText
 10
3.23
 20
2.401666666666667
 30
0.0
 40
0.010400000000000001
  1
   canaleta).
  7
STANDARD
 11
3.23
 21
2.401666666666667
 31
0.0
100
AcDbText
  0
TEXT
  5
36B
330
17
100
AcDbEntity
  8
TEXTOS-NOTAS
100
AcDbText
 10
3.23
 20
2.383
 30
0.0
 40
0.010400000000000001
  1
4. Abrazaderas F°G° @1.50 m en el montante; colgadores junto a cada codo del desvio bajo el alero.
  7
STANDARD
 11
3.23
 21
2.383
 31
0.0
100
AcDbText
  0
TEXT
  5
36C
330
17
100
AcDbEntity
  8
TEXTOS-NOTAS
100
AcDbText
 10
3.23
 20
2.3643333333333336
 30
0.0
 40
0.010400000000000001
  1
5. Cortes y perforaciones del galvanizado: dos manos de pintura rica en zinc.
  7
STANDARD
 11
3.23
 21
2.3643333333333336
 31
0.0
100
AcDbText
  0
TEXT
  5
36D
330
17
100
AcDbEntity
  8
TEXTOS-NOTAS
100
AcDbText
 10
3.23
 20
2.345666666666667
 30
0.0
 40
0.010400000000000001
  1
6. Las dimensiones del alero, la viga de borde y la cobertura son referenciales: ver planos de arquitectura
  7
STANDARD
 11
3.23
 21
2.345666666666667
 31
0.0
100
AcDbText
  0
TEXT
  5
36E
330
17
100
AcDbEntity
  8
TEXTOS-NOTAS
100
AcDbText
 10
3.23
 20
2.327
 30
0.0
 40
0.010400000000000001
  1
   y estructuras.
  7
STANDARD
 11
3.23
 21
2.327
 31
0.0
100
AcDbText
  0
LWPOLYLINE
  5
36F
330
17
100
AcDbEntity
  8
MARCO
100
AcDbPolyline
 90
4
 70
1
 10
0.0
 20
-20.0
 10
8.41
 20
-20.0
 10
8.41
 20
-14.059999999999999
 10
0.0
 20
-14.059999999999999
  0
LWPOLYLINE
  5
370
330
17
100
AcDbEntity
  8
MARCO
100
AcDbPolyline
 90
4
 70
1
 43
0.008
 10
0.25
 20
-19.9
 10
8.31
 20
-19.9
 10
8.31
 20
-14.16
 10
0.25
 20
-14.16
  0
LWPOLYLINE
  5
371
330
17
100
AcDbEntity
  8
ROTULO
100
AcDbPolyline
 90
4
 70
1
 43
0.005
 10
6.46
 20
-19.9
 10
8.31
 20
-19.9
 10
8.31
 20
-18.95
 10
6.46
 20
-18.95
  0
LINE
  5
372
330
17
100
AcDbEntity
  8
ROTULO
100
AcDbLine
 10
6.46
 20
-19.17
 30
0.0
 11
8.31
 21
-19.17
 31
0.0
  0
LINE
  5
373
330
17
100
AcDbEntity
  8
ROTULO
100
AcDbLine
 10
6.46
 20
-19.35
 30
0.0
 11
8.31
 21
-19.35
 31
0.0
  0
LINE
  5
374
330
17
100
AcDbEntity
  8
ROTULO
100
AcDbLine
 10
6.46
 20
-19.47
 30
0.0
 11
8.31
 21
-19.47
 31
0.0
  0
LINE
  5
375
330
17
100
AcDbEntity
  8
ROTULO
100
AcDbLine
 10
6.46
 20
-19.57
 30
0.0
 11
8.31
 21
-19.57
 31
0.0
  0
LINE
  5
376
330
17
100
AcDbEntity
  8
ROTULO
100
AcDbLine
 10
6.46
 20
-19.69
 30
0.0
 11
8.31
 21
-19.69
 31
0.0
  0
LINE
  5
377
330
17
100
AcDbEntity
  8
ROTULO
100
AcDbLine
 10
6.46
 20
-19.8
 30
0.0
 11
8.31
 21
-19.8
 31
0.0
  0
TEXT
  5
378
330
17
100
AcDbEntity
  8
ROTULO-TEXTO
100
AcDbText
 10
6.48
 20
-18.985
 30
0.0
 40
0.02
  1
PROYECTO:
  7
STANDARD
 11
6.48
 21
-18.985
 31
0.0
100
AcDbText
  0
TEXT
  5
379
330
17
100
AcDbEntity
  8
ROTULO-TEXTO
100
AcDbText
 10
6.48
 20
-19.03
 30
0.0
 40
0.016
  1
CREACION DEL SERVICIO DE PROTECCION INTEGRAL A NINAS, NINOS Y ADOLESCENTES SIN CUIDADOS PARENTALES O EN RIESGO DE PERDERLOS
  7
STANDARD
 11
6.48
 21
-19.03
 31
0.0
100
AcDbText
  0
TEXT
  5
37A
330
17
100
AcDbEntity
  8
ROTULO-TEXTO
100
AcDbText
 10
6.48
 20
-19.065
 30
0.0
 40
0.016
  1
EN CENTRO DE ACOGIDA RESIDENCIAL - MUJERES, DISTRITO DE MORALES, PROVINCIA Y DEPARTAMENTO DE SAN MARTIN - CUI N. 2717013
  7
STANDARD
 11
6.48
 21
-19.065
 31
0.0
100
AcDbText
  0
TEXT
  5
37B
330
17
100
AcDbEntity
  8
ROTULO-TEXTO
100
AcDbText
 10
6.48
 20
-19.125
 30
0.0
 40
0.016
  1
ENTIDAD: GERENCIA TERRITORIAL BAJO MAYO - TARAPOTO
  7
STANDARD
 11
6.48
 21
-19.125
 31
0.0
100
AcDbText
  0
TEXT
  5
37C
330
17
100
AcDbEntity
  8
ROTULO-TEXTO
100
AcDbText
 10
6.48
 20
-19.22
 30
0.0
 40
0.018000000000000002
  1
UBICACION: PREDIO RURAL LOS MANGOS - MORALES - SAN MARTIN - SAN MARTIN
  7
STANDARD
 11
6.48
 21
-19.22
 31
0.0
100
AcDbText
  0
TEXT
  5
37D
330
17
100
AcDbEntity
  8
ROTULO-TEXTO
100
AcDbText
 10
6.48
 20
-19.28
 30
0.0
 40
0.018000000000000002
  1
ESPECIALIDAD: INSTALACIONES SANITARIAS - DRENAJE PLUVIAL
  7
STANDARD
 11
6.48
 21
-19.28
 31
0.0
100
AcDbText
  0
TEXT
  5
37E
330
17
100
AcDbEntity
  8
ROTULO-TEXTO
100
AcDbText
 10
6.48
 20
-19.395
 30
0.0
 40
0.02
  1
PLANO:
  7
STANDARD
 11
6.48
 21
-19.395
 31
0.0
100
AcDbText
  0
TEXT
  5
37F
330
17
100
AcDbEntity
  8
ROTULO-TEXTO
100
AcDbText
 10
6.6000000000000005
 20
-19.395
 30
0.0
 40
0.024
  1
ELEVACION DE CANALETA Y CORTE DEL MONTANTE PLUVIAL
  7
STANDARD
 11
6.6000000000000005
 21
-19.395
 31
0.0
100
AcDbText
  0
TEXT
  5
380
330
17
100
AcDbEntity
  8
ROTULO-TEXTO
100
AcDbText
 10
6.6000000000000005
 20
-19.44
 30
0.0
 40
0.018000000000000002
  1
CANALETA EN EL ALERO, BOQUILLA, MONTANTE PVC 4", FALSA COLUMNA, DADO Y SALIDA A LA CUNETA - CAR MUJERES
  7
STANDARD
 11
6.6000000000000005
 21
-19.44
 31
0.0
100
AcDbText
  0
TEXT
  5
381
330
17
100
AcDbEntity
  8
ROTULO-TEXTO
100
AcDbText
 10
6.48
 20
-19.525
 30
0.0
 40
0.018000000000000002
  1
PROYECTISTA: ______________________        CIP: ________
  7
STANDARD
 11
6.48
 21
-19.525
 31
0.0
100
AcDbText
  0
TEXT
  5
382
330
17
100
AcDbEntity
  8
ROTULO-TEXTO
100
AcDbText
 10
6.48
 20
-19.63
 30
0.0
 40
0.018000000000000002
  1
ELABORADO: HIDROCONSULT
  7
STANDARD
 11
6.48
 21
-19.63
 31
0.0
100
AcDbText
  0
LINE
  5
383
330
17
100
AcDbEntity
  8
ROTULO
100
AcDbLine
 10
7.71
 20
-19.57
 30
0.0
 11
7.71
 21
-19.9
 31
0.0
  0
LINE
  5
384
330
17
100
AcDbEntity
  8
ROTULO
100
AcDbLine
 10
8.11
 20
-19.69
 30
0.0
 11
8.11
 21
-19.9
 31
0.0
  0
TEXT
  5
385
330
17
100
AcDbEntity
  8
ROTULO-TEXTO
100
AcDbText
 10
7.73
 20
-19.63
 30
0.0
 40
0.018000000000000002
  1
ESCALA:
  7
STANDARD
 11
7.73
 21
-19.63
 31
0.0
100
AcDbText
  0
TEXT
  5
386
330
17
100
AcDbEntity
  8
ROTULO-TEXTO
100
AcDbText
 10
7.890000000000001
 20
-19.63
 30
0.0
 40
0.024
  1
1/10
  7
STANDARD
 11
7.890000000000001
 21
-19.63
 31
0.0
100
AcDbText
  0
TEXT
  5
387
330
17
100
AcDbEntity
  8
ROTULO-TEXTO
100
AcDbText
 10
6.48
 20
-19.745
 30
0.0
 40
0.018000000000000002
  1
REVISADO: ________________
  7
STANDARD
 11
6.48
 21
-19.745
 31
0.0
100
AcDbText
  0
TEXT
  5
388
330
17
100
AcDbEntity
  8
ROTULO-TEXTO
100
AcDbText
 10
7.73
 20
-19.745
 30
0.0
 40
0.018000000000000002
  1
FECHA:
  7
STANDARD
 11
7.73
 21
-19.745
 31
0.0
100
AcDbText
  0
TEXT
  5
389
330
17
100
AcDbEntity
  8
ROTULO-TEXTO
100
AcDbText
 10
7.890000000000001
 20
-19.745
 30
0.0
 40
0.02
  1
OCT. 2026
  7
STANDARD
 11
7.890000000000001
 21
-19.745
 31
0.0
100
AcDbText
  0
TEXT
  5
38A
330
17
100
AcDbEntity
  8
ROTULO-TEXTO
100
AcDbText
 10
8.13
 20
-19.745
 30
0.0
 40
0.018000000000000002
  1
LAMINA:
  7
STANDARD
 11
8.13
 21
-19.745
 31
0.0
100
AcDbText
  0
TEXT
  5
38B
330
17
100
AcDbEntity
  8
ROTULO-TEXTO
100
AcDbText
 10
6.48
 20
-19.86
 30
0.0
 40
0.018000000000000002
  1
FIRMA Y SELLO:
  7
STANDARD
 11
6.48
 21
-19.86
 31
0.0
100
AcDbText
  0
TEXT
  5
38C
330
17
100
AcDbEntity
  8
ROTULO-TEXTO
100
AcDbText
 10
7.73
 20
-19.86
 30
0.0
 40
0.018000000000000002
  1
REVISION: 00
  7
STANDARD
 11
7.73
 21
-19.86
 31
0.0
100
AcDbText
  0
TEXT
  5
38D
330
17
100
AcDbEntity
  8
TITULOS
100
AcDbText
 10
8.295
 20
-19.885
 30
0.0
 40
0.054000000000000006
  1
DR-02
  7
TITULOS
 72
2
 11
8.295
 21
-19.885
 31
0.0
100
AcDbText
 73
1
  0
HATCH
  5
38E
330
17
100
AcDbEntity
  8
CONCRETO-ACHURADO
 62
7
420
14869218
100
AcDbHatch
 10
0.0
 20
0.0
 30
0.0
210
0.0
220
0.0
230
1.0
  2
SOLID
 70
1
 71
0
 91
1
 92
3
 72
0
 73
1
 93
4
 10
4.800000000000001
 20
-14.95
 10
8.15
 20
-14.95
 10
8.15
 20
-14.75
 10
4.800000000000001
 20
-14.75
 97
0
 75
1
 76
1
 98
0
  0
LWPOLYLINE
  5
38F
330
17
100
AcDbEntity
  8
CONCRETO
100
AcDbPolyline
 90
4
 70
1
 10
4.800000000000001
 20
-14.95
 10
8.15
 20
-14.95
 10
8.15
 20
-14.75
 10
4.800000000000001
 20
-14.75
  0
LWPOLYLINE
  5
390
330
17
100
AcDbEntity
  8
COBERTURA
100
AcDbPolyline
 90
2
 70
0
 43
0.005
 10
4.800000000000001
 20
-14.65
 10
8.15
 20
-14.68
  0
LWPOLYLINE
  5
391
330
17
100
AcDbEntity
  8
PLANCHA-GALV
100
AcDbPolyline
 90
5
 70
0
 43
0.004
 10
4.9
 20
-15.22
 10
7.9
 20
-15.25
 10
7.9
 20
-15.05
 10
4.9
 20
-15.02
 10
4.9
 20
-15.22
  0
LWPOLYLINE
  5
392
330
17
100
AcDbEntity
  8
PLATINA
100
AcDbPolyline
 90
2
 70
0
 43
0.0254
 10
4.9
 20
-15.223175
 10
4.9
 20
-15.02
  0
LWPOLYLINE
  5
393
330
17
100
AcDbEntity
  8
PLATINA
100
AcDbPolyline
 90
2
 70
0
 43
0.0254
 10
5.5
 20
-15.229175
 10
5.5
 20
-15.026
  0
LWPOLYLINE
  5
394
330
17
100
AcDbEntity
  8
PLATINA
100
AcDbPolyline
 90
2
 70
0
 43
0.0254
 10
6.1000000000000005
 20
-15.235175
 10
6.1000000000000005
 20
-15.032
  0
LWPOLYLINE
  5
395
330
17
100
AcDbEntity
  8
PLATINA
100
AcDbPolyline
 90
2
 70
0
 43
0.0254
 10
6.7
 20
-15.241175
 10
6.7
 20
-15.038
  0
LWPOLYLINE
  5
396
330
17
100
AcDbEntity
  8
PLATINA
100
AcDbPolyline
 90
2
 70
0
 43
0.0254
 10
7.300000000000001
 20
-15.247175
 10
7.300000000000001
 20
-15.044
  0
LWPOLYLINE
  5
397
330
17
100
AcDbEntity
  8
PLATINA
100
AcDbPolyline
 90
2
 70
0
 43
0.0254
 10
7.9
 20
-15.253175
 10
7.9
 20
-15.05
  0
LWPOLYLINE
  5
398
330
17
100
AcDbEntity
  8
PLANCHA-GALV
100
AcDbPolyline
 90
2
 70
0
 10
7.700000000000001
 20
-15.25
 10
7.700000000000001
 20
-15.4
  0
LWPOLYLINE
  5
399
330
17
100
AcDbEntity
  8
PLANCHA-GALV
100
AcDbPolyline
 90
2
 70
0
 10
7.800000000000001
 20
-15.25
 10
7.800000000000001
 20
-15.4
  0
LWPOLYLINE
  5
39A
330
17
100
AcDbEntity
  8
TUBERIA-PVC
100
AcDbPolyline
 90
2
 70
0
 43
0.004
 10
7.6930000000000005
 20
-15.31
 10
7.6930000000000005
 20
-15.8
  0
LWPOLYLINE
  5
39B
330
17
100
AcDbEntity
  8
TUBERIA-PVC
100
AcDbPolyline
 90
2
 70
0
 43
0.004
 10
7.807
 20
-15.31
 10
7.807
 20
-15.8
  0
LINE
  5
39C
330
17
100
AcDbEntity
  8
CORTES
100
AcDbLine
 10
7.65
 20
-15.8
 30
0.0
 11
7.8500000000000005
 21
-15.8
 31
0.0
  0
DIMENSION
  5
39D
330
17
100
AcDbEntity
  8
COTAS
100
AcDbDimension
280
0
  2
*D25
  3
COT-10
 10
6.1000000000000005
 20
-14.732
 30
0.0
 11
6.4
 21
-14.706999999999999
 31
0.0
 70
32
 71
5
  1
0.60
100
AcDbAlignedDimension
 13
6.1000000000000005
 23
-15.032
 33
0.0
 14
6.7
 24
-15.038
 34
0.0
 50
0.0
100
AcDbRotatedDimension
  0
DIMENSION
  5
3AC
330
17
100
AcDbEntity
  8
COTAS
100
AcDbDimension
280
0
  2
*D26
  3
COT-10
 10
6.7
 20
-14.738
 30
0.0
 11
7.0
 21
-14.713
 31
0.0
 70
32
 71
5
  1
0.60
100
AcDbAlignedDimension
 13
6.7
 23
-15.038
 33
0.0
 14
7.300000000000001
 24
-15.044
 34
0.0
 50
0.0
100
AcDbRotatedDimension
  0
DIMENSION
  5
3BB
330
17
100
AcDbEntity
  8
COTAS
100
AcDbDimension
280
0
  2
*D27
  3
COT-10
 10
4.9
 20
-15.39
 30
0.0
 11
6.4
 21
-15.365
 31
0.0
 70
32
 71
5
  1
L = variable (se muestra 3.00 m)
100
AcDbAlignedDimension
 13
4.9
 23
-15.33
 33
0.0
 14
7.9
 24
-15.33
 34
0.0
 50
0.0
100
AcDbRotatedDimension
  0
LINE
  5
3CA
330
17
100
AcDbEntity
  8
FLUJO
100
AcDbLine
 10
5.800000000000001
 20
-15.13
 30
0.0
 11
7.0
 21
-15.142
 31
0.0
  0
SOLID
  5
3CB
330
17
100
AcDbEntity
  8
FLUJO
100
AcDbTrace
 10
7.0
 20
-15.142
 30
0.0
 11
6.9701064946379025
 21
-15.131200539959503
 31
0.0
 12
6.969896505137116
 22
-15.152199490038248
 32
0.0
 13
6.969896505137116
 23
-15.152199490038248
 33
0.0
  0
TEXT
  5
3CC
330
17
100
AcDbEntity
  8
TEXTOS
100
AcDbText
 10
6.4
 20
-15.1
 30
0.0
 40
0.032400000000000005
  1
S = 1.00 %
  7
STANDARD
 72
1
 11
6.4
 21
-15.1
 31
0.0
100
AcDbText
 73
2
  0
LINE
  5
3CD
330
17
100
AcDbEntity
  8
LLAMADAS
100
AcDbLine
 10
7.75
 20
-15.55
 30
0.0
 11
7.75
 21
-15.87
 31
0.0
  0
CIRCLE
  5
3CE
330
17
100
AcDbEntity
  8
LLAMADAS
100
AcDbCircle
 10
7.75
 20
-15.55
 30
0.0
 40
0.006
  0
TEXT
  5
3CF
330
17
100
AcDbEntity
  8
TEXTOS
100
AcDbText
 10
7.741
 20
-15.877999999999998
 30
0.0
 40
0.027000000000000003
  1
Boquilla y montante PVC 4" (corte I)
  7
STANDARD
 72
2
 11
7.741
 21
-15.877999999999998
 31
0.0
100
AcDbText
 73
3
  0
LINE
  5
3D0
330
17
100
AcDbEntity
  8
LLAMADAS
100
AcDbLine
 10
5.5
 20
-15.23
 30
0.0
 11
5.5
 21
-15.87
 31
0.0
  0
CIRCLE
  5
3D1
330
17
100
AcDbEntity
  8
LLAMADAS
100
AcDbCircle
 10
5.5
 20
-15.23
 30
0.0
 40
0.006
  0
TEXT
  5
3D2
330
17
100
AcDbEntity
  8
TEXTOS
100
AcDbText
 10
5.509
 20
-15.877999999999998
 30
0.0
 40
0.027000000000000003
  1
Soporte platina F°G° @0.60
  7
STANDARD
 11
5.509
 21
-15.877999999999998
 31
0.0
100
AcDbText
 73
3
  0
LINE
  5
3D3
330
17
100
AcDbEntity
  8
LLAMADAS
100
AcDbLine
 10
4.9
 20
-15.15
 30
0.0
 11
4.9
 21
-15.87
 31
0.0
  0
CIRCLE
  5
3D4
330
17
100
AcDbEntity
  8
LLAMADAS
100
AcDbCircle
 10
4.9
 20
-15.15
 30
0.0
 40
0.006
  0
TEXT
  5
3D5
330
17
100
AcDbEntity
  8
TEXTOS
100
AcDbText
 10
4.909000000000001
 20
-15.877999999999998
 30
0.0
 40
0.027000000000000003
  1
Tapa lateral (extremo alto)
  7
STANDARD
 11
4.909000000000001
 21
-15.877999999999998
 31
0.0
100
AcDbText
 73
3
  0
TEXT
  5
3D6
330
17
100
AcDbEntity
  8
TEXTOS
100
AcDbText
 10
4.82
 20
-14.625
 30
0.0
 40
0.027000000000000003
  1
Cobertura de aluzinc TR4 e = 0.40 mm
  7
STANDARD
 11
4.82
 21
-14.625
 31
0.0
100
AcDbText
  0
TEXT
  5
3D7
330
17
100
AcDbEntity
  8
TEXTOS
100
AcDbText
 10
6.4
 20
-14.85
 30
0.0
 40
0.027000000000000003
  1
ALERO O VIGA DE BORDE DE CONCRETO (SEGUN ESTRUCTURAS)
  7
STANDARD
 72
1
 11
6.4
 21
-14.85
 31
0.0
100
AcDbText
 73
2
  0
TEXT
  5
3D8
330
17
100
AcDbEntity
  8
TITULOS
100
AcDbText
 10
6.4
 20
-14.45
 30
0.0
 40
0.054000000000000006
  1
H. ELEVACION FRONTAL DE LA CANALETA
  7
TITULOS
 72
1
 11
6.4
 21
-14.45
 31
0.0
100
AcDbText
 73
2
  0
LINE
  5
3D9
330
17
100
AcDbEntity
  8
TITULOS
100
AcDbLine
 10
5.8
 20
-14.485
 30
0.0
 11
7.0
 21
-14.485
 31
0.0
  0
TEXT
  5
3DA
330
17
100
AcDbEntity
  8
TEXTOS
100
AcDbText
 10
6.4
 20
-14.524999999999999
 30
0.0
 40
0.029700000000000008
  1
ESC. 1/10 - vista desde afuera
  7
STANDARD
 72
1
 11
6.4
 21
-14.524999999999999
 31
0.0
100
AcDbText
 73
2
  0
LWPOLYLINE
  5
3DB
330
17
100
AcDbEntity
  8
MURO
100
AcDbPolyline
 90
2
 70
0
 10
0.5
 20
-19.45
 10
0.5
 20
-15.850000000000001
  0
LWPOLYLINE
  5
3DC
330
17
100
AcDbEntity
  8
MURO
100
AcDbPolyline
 90
2
 70
0
 10
0.75
 20
-19.05
 10
0.75
 20
-16.05
  0
TEXT
  5
3DD
330
17
100
AcDbEntity
  8
TEXTOS
100
AcDbText
 10
0.625
 20
-17.150000000000002
 30
0.0
 40
0.029700000000000008
  1
MURO
  7
STANDARD
 72
1
 11
0.625
 21
-17.150000000000002
 31
0.0
100
AcDbText
 73
2
  0
HATCH
  5
3DE
330
17
100
AcDbEntity
  8
CONCRETO-ACHURADO
 62
7
420
14869218
100
AcDbHatch
 10
0.0
 20
0.0
 30
0.0
210
0.0
220
0.0
230
1.0
  2
SOLID
 70
1
 71
0
 91
1
 92
3
 72
0
 73
1
 93
4
 10
0.5
 20
-16.05
 10
1.35
 20
-16.05
 10
1.35
 20
-15.850000000000001
 10
0.5
 20
-15.850000000000001
 97
0
 75
1
 76
1
 98
0
  0
LWPOLYLINE
  5
3DF
330
17
100
AcDbEntity
  8
CONCRETO
100
AcDbPolyline
 90
4
 70
1
 10
0.5
 20
-16.05
 10
1.35
 20
-16.05
 10
1.35
 20
-15.850000000000001
 10
0.5
 20
-15.850000000000001
  0
LWPOLYLINE
  5
3E0
330
17
100
AcDbEntity
  8
COBERTURA
100
AcDbPolyline
 90
2
 70
0
 43
0.01
 10
0.35
 20
-15.71
 10
1.48
 20
-15.790000000000001
  0
LINE
  5
3E1
330
17
100
AcDbEntity
  8
TERRENO
100
AcDbLine
 10
0.45
 20
-19.05
 30
0.0
 11
3.5
 21
-19.05
 31
0.0
  0
INSERT
  5
3E2
330
17
100
AcDbEntity
  8
NIVELES
100
AcDbBlockReference
  2
SIMB-NIVEL
 10
3.4
 20
-19.05
 30
0.0
 41
0.01
 42
0.01
  0
TEXT
  5
3E4
330
17
100
AcDbEntity
  8
NIVELES
100
AcDbText
 10
3.435
 20
-19.024
 30
0.0
 40
0.026000000000000002
  1
NPT +0.00
  7
STANDARD
 11
3.435
 21
-19.024
 31
0.0
100
AcDbText
  0
LWPOLYLINE
  5
3E5
330
17
100
AcDbEntity
  8
PLANCHA-GALV
100
AcDbPolyline
 90
5
 70
0
 43
0.006
 10
1.353175
 20
-15.9
 10
1.353175
 20
-16.150000000000002
 10
1.603175
 20
-16.150000000000002
 10
1.603175
 20
-15.950000000000001
 10
1.553175
 20
-15.950000000000001
  0
LWPOLYLINE
  5
3E6
330
17
100
AcDbEntity
  8
PLATINA
100
AcDbPolyline
 90
4
 70
0
 43
0.006
 10
1.3515875
 20
-15.850000000000001
 10
1.3515875
 20
-16.150000000000002
 10
1.6047625
 20
-16.150000000000002
 10
1.6047625
 20
-15.950000000000001
  0
LWPOLYLINE
  5
3E7
330
17
100
AcDbEntity
  8
TUBERIA-PVC
100
AcDbPolyline
 90
4
 70
0
 43
0.003
 10
1.3661750000000001
 20
-16.150000000000002
 10
1.3661750000000001
 20
-16.393
 10
0.882
 20
-16.393
 10
0.882
 20
-17.75
  0
LWPOLYLINE
  5
3E8
330
17
100
AcDbEntity
  8
TUBERIA-PVC
100
AcDbPolyline
 90
4
 70
0
 43
0.003
 10
1.480175
 20
-16.150000000000002
 10
1.480175
 20
-16.507
 10
0.768
 20
-16.507
 10
0.768
 20
-17.75
  0
LWPOLYLINE
  5
3E9
330
17
100
AcDbEntity
  8
TUBERIA-OCULTA
100
AcDbPolyline
 90
3
 70
0
 10
0.882
 20
-17.75
 10
0.882
 20
-19.193
 10
2.75
 20
-19.193
  0
LWPOLYLINE
  5
3EA
330
17
100
AcDbEntity
  8
TUBERIA-OCULTA
100
AcDbPolyline
 90
3
 70
0
 10
0.768
 20
-17.75
 10
0.768
 20
-19.307000000000002
 10
2.75
 20
-19.307000000000002
  0
LWPOLYLINE
  5
3EB
330
17
100
AcDbEntity
  8
PERNOS
100
AcDbPolyline
 90
2
 70
0
 43
0.0095
 10
1.2731750000000002
 20
-16.387
 10
1.2731750000000002
 20
-16.05
  0
LWPOLYLINE
  5
3EC
330
17
100
AcDbEntity
  8
PLATINA
100
AcDbPolyline
 90
4
 70
1
 10
1.260475
 20
-16.511
 10
1.285875
 20
-16.511
 10
1.285875
 20
-16.387
 10
1.260475
 20
-16.387
  0
LWPOLYLINE
  5
3ED
330
17
100
AcDbEntity
  8
PERNOS
100
AcDbPolyline
 90
2
 70
0
 43
0.0095
 10
0.975
 20
-16.387
 10
0.975
 20
-16.05
  0
LWPOLYLINE
  5
3EE
330
17
100
AcDbEntity
  8
PLATINA
100
AcDbPolyline
 90
4
 70
1
 10
0.9622999999999999
 20
-16.511
 10
0.9877
 20
-16.511
 10
0.9877
 20
-16.387
 10
0.9622999999999999
 20
-16.387
  0
HATCH
  5
3EF
330
17
100
AcDbEntity
  8
CONCRETO-ACHURADO
 62
7
420
14869218
100
AcDbHatch
 10
0.0
 20
0.0
 30
0.0
210
0.0
220
0.0
230
1.0
  2
SOLID
 70
1
 71
0
 91
1
 92
3
 72
0
 73
1
 93
4
 10
0.75
 20
-19.05
 10
0.9
 20
-19.05
 10
0.9
 20
-17.75
 10
0.75
 20
-17.75
 97
0
 75
1
 76
1
 98
0
  0
LWPOLYLINE
  5
3F0
330
17
100
AcDbEntity
  8
CONCRETO
100
AcDbPolyline
 90
4
 70
1
 10
0.75
 20
-19.05
 10
0.9
 20
-19.05
 10
0.9
 20
-17.75
 10
0.75
 20
-17.75
  0
HATCH
  5
3F1
330
17
100
AcDbEntity
  8
CONCRETO-ACHURADO
 62
7
420
14869218
100
AcDbHatch
 10
0.0
 20
0.0
 30
0.0
210
0.0
220
0.0
230
1.0
  2
SOLID
 70
1
 71
0
 91
1
 92
3
 72
0
 73
1
 93
4
 10
0.625
 20
-19.400000000000002
 10
1.025
 20
-19.400000000000002
 10
1.025
 20
-19.05
 10
0.625
 20
-19.05
 97
0
 75
1
 76
1
 98
0
  0
LWPOLYLINE
  5
3F2
330
17
100
AcDbEntity
  8
CONCRETO
100
AcDbPolyline
 90
4
 70
1
 10
0.625
 20
-19.400000000000002
 10
1.025
 20
-19.400000000000002
 10
1.025
 20
-19.05
 10
0.625
 20
-19.05
  0
LINE
  5
3F3
330
17
100
AcDbEntity
  8
TUBERIA-OCULTA
100
AcDbLine
 10
0.768
 20
-19.25
 30
0.0
 11
0.768
 21
-17.75
 31
0.0
  0
LINE
  5
3F4
330
17
100
AcDbEntity
  8
TUBERIA-OCULTA
100
AcDbLine
 10
0.882
 20
-19.193
 30
0.0
 11
0.882
 21
-17.75
 31
0.0
  0
LWPOLYLINE
  5
3F5
330
17
100
AcDbEntity
  8
PLATINA
100
AcDbPolyline
 90
4
 70
1
 10
0.882
 20
-17.6127
 10
0.89
 20
-17.6127
 10
0.89
 20
-17.5873
 10
0.882
 20
-17.5873
  0
LINE
  5
3F6
330
17
100
AcDbEntity
  8
PLATINA
100
AcDbLine
 10
0.75
 20
-17.6
 30
0.0
 11
0.882
 21
-17.6
 31
0.0
  0
LWPOLYLINE
  5
3F7
330
17
100
AcDbEntity
  8
PLATINA
100
AcDbPolyline
 90
4
 70
1
 10
0.882
 20
-16.6127
 10
0.89
 20
-16.6127
 10
0.89
 20
-16.5873
 10
0.882
 20
-16.5873
  0
LINE
  5
3F8
330
17
100
AcDbEntity
  8
PLATINA
100
AcDbLine
 10
0.75
 20
-16.6
 30
0.0
 11
0.882
 21
-16.6
 31
0.0
  0
LWPOLYLINE
  5
3F9
330
17
100
AcDbEntity
  8
CUNETA
100
AcDbPolyline
 90
4
 70
0
 10
2.65
 20
-19.05
 10
2.65
 20
-19.55
 10
3.25
 20
-19.55
 10
3.25
 20
-19.05
  0
LWPOLYLINE
  5
3FA
330
17
100
AcDbEntity
  8
CUNETA
100
AcDbPolyline
 90
4
 70
0
 10
2.75
 20
-19.05
 10
2.75
 20
-19.45
 10
3.15
 20
-19.45
 10
3.15
 20
-19.05
  0
LINE
  5
3FB
330
17
100
AcDbEntity
  8
CORTES
100
AcDbLine
 10
2.15
 20
-19.39
 30
0.0
 11
2.15
 21
-19.11
 31
0.0
  0
LINE
  5
3FC
330
17
100
AcDbEntity
  8
CORTES
100
AcDbLine
 10
2.19
 20
-19.39
 30
0.0
 11
2.19
 21
-19.11
 31
0.0
  0
DIMENSION
  5
3FD
330
17
100
AcDbEntity
  8
COTAS
100
AcDbDimension
280
0
  2
*D28
  3
COT-10
 10
0.75
 20
-15.97
 30
0.0
 11
1.05
 21
-15.945
 31
0.0
 70
32
 71
5
  1
<>
100
AcDbAlignedDimension
 13
0.75
 23
-16.05
 33
0.0
 14
1.35
 24
-16.05
 34
0.0
 50
0.0
100
AcDbRotatedDimension
  0
DIMENSION
  5
40C
330
17
100
AcDbEntity
  8
COTAS
100
AcDbDimension
280
0
  2
*D29
  3
COT-10
 10
0.66
 20
-19.05
 30
0.0
 11
0.635
 21
-18.4
 31
0.0
 70
32
 71
5
  1
<>
100
AcDbAlignedDimension
 13
0.75
 23
-19.05
 33
0.0
 14
0.75
 24
-17.75
 34
0.0
 50
90.0
100
AcDbRotatedDimension
  0
DIMENSION
  5
41B
330
17
100
AcDbEntity
  8
COTAS
100
AcDbDimension
280
0
  2
*D30
  3
COT-10
 10
0.535
 20
-19.400000000000002
 30
0.0
 11
0.51
 21
-19.225
 31
0.0
 70
32
 71
5
  1
<>
100
AcDbAlignedDimension
 13
0.625
 23
-19.400000000000002
 33
0.0
 14
0.625
 24
-19.05
 34
0.0
 50
90.0
100
AcDbRotatedDimension
  0
DIMENSION
  5
42A
330
17
100
AcDbEntity
  8
COTAS
100
AcDbDimension
280
0
  2
*D31
  3
COT-10
 10
1.025
 20
-19.46
 30
0.0
 11
0.825
 21
-19.485
 31
0.0
 70
32
 71
5
  1
<>
100
AcDbAlignedDimension
 13
1.025
 23
-19.400000000000002
 33
0.0
 14
0.625
 24
-19.400000000000002
 34
0.0
 50
0.0
100
AcDbRotatedDimension
  0
DIMENSION
  5
439
330
17
100
AcDbEntity
  8
COTAS
100
AcDbDimension
280
0
  2
*D32
  3
COT-10
 10
0.952
 20
-17.6
 30
0.0
 11
0.9269999999999999
 21
-17.1
 31
0.0
 70
32
 71
5
  1
<= 1.50
100
AcDbAlignedDimension
 13
0.892
 23
-17.6
 33
0.0
 14
0.892
 24
-16.6
 34
0.0
 50
90.0
100
AcDbRotatedDimension
  0
DIMENSION
  5
448
330
17
100
AcDbEntity
  8
COTAS
100
AcDbDimension
280
0
  2
*D33
  3
COT-10
 10
1.77
 20
-19.05
 30
0.0
 11
1.745
 21
-17.55
 31
0.0
 70
32
 71
5
  1
variable (3.00 tipico)
100
AcDbAlignedDimension
 13
1.65
 23
-19.05
 33
0.0
 14
1.65
 24
-16.05
 34
0.0
 50
90.0
100
AcDbRotatedDimension
  0
LINE
  5
457
330
17
100
AcDbEntity
  8
LLAMADAS
100
AcDbLine
 10
3.6
 20
-16.05
 30
0.0
 11
3.56
 21
-16.05
 31
0.0
  0
LINE
  5
458
330
17
100
AcDbEntity
  8
LLAMADAS
100
AcDbLine
 10
3.56
 20
-16.05
 30
0.0
 11
1.45
 21
-16.05
 31
0.0
  0
SOLID
  5
459
330
17
100
AcDbEntity
  8
LLAMADAS
100
AcDbTrace
 10
1.45
 20
-16.05
 30
0.0
 11
1.472
 21
-16.0577
 31
0.0
 12
1.472
 22
-16.0423
 32
0.0
 13
1.472
 23
-16.0423
 33
0.0
  0
TEXT
  5
45A
330
17
100
AcDbEntity
  8
TEXTOS
100
AcDbText
 10
3.61
 20
-16.044
 30
0.0
 40
0.027000000000000003
  1
Canaleta 0.25 x 0.20 con soporte @0.60 (ver DR-01, detalle A)
  7
STANDARD
 11
3.61
 21
-16.044
 31
0.0
100
AcDbText
  0
LINE
  5
45B
330
17
100
AcDbEntity
  8
LLAMADAS
100
AcDbLine
 10
3.6
 20
-16.514285714285716
 30
0.0
 11
3.56
 21
-16.514285714285716
 31
0.0
  0
LINE
  5
45C
330
17
100
AcDbEntity
  8
LLAMADAS
100
AcDbLine
 10
3.56
 20
-16.514285714285716
 30
0.0
 11
1.2731750000000002
 21
-16.150000000000002
 31
0.0
  0
SOLID
  5
45D
330
17
100
AcDbEntity
  8
LLAMADAS
100
AcDbTrace
 10
1.2731750000000002
 20
-16.150000000000002
 30
0.0
 11
1.2936897508598955
 21
-16.161065034891784
 31
0.0
 12
1.296112388243927
 22
-16.14585678620545
 32
0.0
 13
1.296112388243927
 23
-16.14585678620545
 33
0.0
  0
TEXT
  5
45E
330
17
100
AcDbEntity
  8
TEXTOS
100
AcDbText
 10
3.61
 20
-16.508285714285716
 30
0.0
 40
0.027000000000000003
  1
Colgador F°G° con varilla roscada 3/8" (uno junto a cada codo)
  7
STANDARD
 11
3.61
 21
-16.508285714285716
 31
0.0
100
AcDbText
  0
LINE
  5
45F
330
17
100
AcDbEntity
  8
LLAMADAS
100
AcDbLine
 10
3.6
 20
-16.978571428571428
 30
0.0
 11
3.56
 21
-16.978571428571428
 31
0.0
  0
LINE
  5
460
330
17
100
AcDbEntity
  8
LLAMADAS
100
AcDbLine
 10
3.56
 20
-16.978571428571428
 30
0.0
 11
1.423175
 21
-16.25
 31
0.0
  0
SOLID
  5
461
330
17
100
AcDbEntity
  8
LLAMADAS
100
AcDbTrace
 10
1.423175
 20
-16.25
 30
0.0
 11
1.4415129812735752
 21
-16.264387787974876
 31
0.0
 12
1.4464828219598895
 22
-16.249811756843165
 32
0.0
 13
1.4464828219598895
 23
-16.249811756843165
 33
0.0
  0
TEXT
  5
462
330
17
100
AcDbEntity
  8
TEXTOS
100
AcDbText
 10
3.61
 20
-16.972571428571428
 30
0.0
 40
0.027000000000000003
  1
Boquilla Ø 0.10 y montante PVC 4"
  7
STANDARD
 11
3.61
 21
-16.972571428571428
 31
0.0
100
AcDbText
  0
LINE
  5
463
330
17
100
AcDbEntity
  8
LLAMADAS
100
AcDbLine
 10
3.6
 20
-17.442857142857143
 30
0.0
 11
3.56
 21
-17.442857142857143
 31
0.0
  0
LINE
  5
464
330
17
100
AcDbEntity
  8
LLAMADAS
100
AcDbLine
 10
3.56
 20
-17.442857142857143
 30
0.0
 11
1.075
 21
-16.45
 31
0.0
  0
SOLID
  5
465
330
17
100
AcDbEntity
  8
LLAMADAS
100
AcDbTrace
 10
1.075
 20
-16.45
 30
0.0
 11
1.092572852401736
 21
-16.46531289843455
 31
0.0
 12
1.0982865985627681
 22
-16.451012090596972
 32
0.0
 13
1.0982865985627681
 23
-16.451012090596972
 33
0.0
  0
TEXT
  5
466
330
17
100
AcDbEntity
  8
TEXTOS
100
AcDbText
 10
3.61
 20
-17.436857142857143
 30
0.0
 40
0.027000000000000003
  1
Desvio bajo el alero con codos PVC 4" x 90°
  7
STANDARD
 11
3.61
 21
-17.436857142857143
 31
0.0
100
AcDbText
  0
LINE
  5
467
330
17
100
AcDbEntity
  8
LLAMADAS
100
AcDbLine
 10
3.6
 20
-17.90714285714286
 30
0.0
 11
3.56
 21
-17.90714285714286
 31
0.0
  0
LINE
  5
468
330
17
100
AcDbEntity
  8
LLAMADAS
100
AcDbLine
 10
3.56
 20
-17.90714285714286
 30
0.0
 11
0.886
 21
-16.6
 31
0.0
  0
SOLID
  5
469
330
17
100
AcDbEntity
  8
LLAMADAS
100
AcDbTrace
 10
0.886
 20
-16.6
 30
0.0
 11
0.9023832687253147
 21
-16.61657946036137
 31
0.0
 12
0.9091464949304412
 22
-16.602744043081852
 32
0.0
 13
0.9091464949304412
 23
-16.602744043081852
 33
0.0
  0
TEXT
  5
46A
330
17
100
AcDbEntity
  8
TEXTOS
100
AcDbText
 10
3.61
 20
-17.901142857142858
 30
0.0
 40
0.027000000000000003
  1
Abrazadera F°G° @1.50 m (ver DR-01, detalle F)
  7
STANDARD
 11
3.61
 21
-17.901142857142858
 31
0.0
100
AcDbText
  0
LINE
  5
46B
330
17
100
AcDbEntity
  8
LLAMADAS
100
AcDbLine
 10
3.6
 20
-18.371428571428574
 30
0.0
 11
3.56
 21
-18.371428571428574
 31
0.0
  0
LINE
  5
46C
330
17
100
AcDbEntity
  8
LLAMADAS
100
AcDbLine
 10
3.56
 20
-18.371428571428574
 30
0.0
 11
0.9
 21
-18.150000000000002
 31
0.0
  0
SOLID
  5
46D
330
17
100
AcDbEntity
  8
LLAMADAS
100
AcDbTrace
 10
0.9
 20
-18.150000000000002
 30
0.0
 11
0.921285400920207
 21
-18.159498510813076
 31
0.0
 12
0.9225629370838594
 22
-18.14415159251165
 32
0.0
 13
0.9225629370838594
 23
-18.14415159251165
 33
0.0
  0
TEXT
  5
46E
330
17
100
AcDbEntity
  8
TEXTOS
100
AcDbText
 10
3.61
 20
-18.365428571428573
 30
0.0
 40
0.027000000000000003
  1
Falsa columna de concreto f'c = 175 kg/cm2 de 0.20 x 0.15 x 1.30 m
  7
STANDARD
 11
3.61
 21
-18.365428571428573
 31
0.0
100
AcDbText
  0
TEXT
  5
46F
330
17
100
AcDbEntity
  8
TEXTOS
100
AcDbText
 10
3.61
 20
-18.408628571428572
 30
0.0
 40
0.027000000000000003
  1
(4 Ø 3/8" y estribos Ø 3/8" @0.15 segun metrado)
  7
STANDARD
 11
3.61
 21
-18.408628571428572
 31
0.0
100
AcDbText
  0
LINE
  5
470
330
17
100
AcDbEntity
  8
LLAMADAS
100
AcDbLine
 10
3.6
 20
-18.835714285714285
 30
0.0
 11
3.56
 21
-18.835714285714285
 31
0.0
  0
LINE
  5
471
330
17
100
AcDbEntity
  8
LLAMADAS
100
AcDbLine
 10
3.56
 20
-18.835714285714285
 30
0.0
 11
1.025
 21
-19.2
 31
0.0
  0
SOLID
  5
472
330
17
100
AcDbEntity
  8
LLAMADAS
100
AcDbTrace
 10
1.025
 20
-19.2
 30
0.0
 11
1.0478715622211814
 21
-19.204492398197246
 31
0.0
 12
1.0456810464028146
 22
-19.18924898517885
 32
0.0
 13
1.0456810464028146
 23
-19.18924898517885
 33
0.0
  0
TEXT
  5
473
330
17
100
AcDbEntity
  8
TEXTOS
100
AcDbText
 10
3.61
 20
-18.829714285714285
 30
0.0
 40
0.027000000000000003
  1
Dado de concreto f'c = 140 kg/cm2 de 0.40 x 0.40 x 0.35 m con
  7
STANDARD
 11
3.61
 21
-18.829714285714285
 31
0.0
100
AcDbText
  0
TEXT
  5
474
330
17
100
AcDbEntity
  8
TEXTOS
100
AcDbText
 10
3.61
 20
-18.872914285714284
 30
0.0
 40
0.027000000000000003
  1
codo PVC 4" x 90°
  7
STANDARD
 11
3.61
 21
-18.872914285714284
 31
0.0
100
AcDbText
  0
LINE
  5
475
330
17
100
AcDbEntity
  8
LLAMADAS
100
AcDbLine
 10
3.6
 20
-19.3
 30
0.0
 11
3.56
 21
-19.3
 31
0.0
  0
LINE
  5
476
330
17
100
AcDbEntity
  8
LLAMADAS
100
AcDbLine
 10
3.56
 20
-19.3
 30
0.0
 11
2.75
 21
-19.3
 31
0.0
  0
SOLID
  5
477
330
17
100
AcDbEntity
  8
LLAMADAS
100
AcDbTrace
 10
2.75
 20
-19.3
 30
0.0
 11
2.772
 21
-19.3077
 31
0.0
 12
2.772
 22
-19.2923
 32
0.0
 13
2.772
 23
-19.2923
 33
0.0
  0
TEXT
  5
478
330
17
100
AcDbEntity
  8
TEXTOS
100
AcDbText
 10
3.61
 20
-19.294
 30
0.0
 40
0.027000000000000003
  1
Salida PVC 4" hasta la cuneta (longitud segun metrado de montantes)
  7
STANDARD
 11
3.61
 21
-19.294
 31
0.0
100
AcDbText
  0
TEXT
  5
479
330
17
100
AcDbEntity
  8
TITULOS
100
AcDbText
 10
1.75
 20
-19.63
 30
0.0
 40
0.054000000000000006
  1
I. CORTE DEL MONTANTE PLUVIAL TIPICO
  7
TITULOS
 72
1
 11
1.75
 21
-19.63
 31
0.0
100
AcDbText
 73
2
  0
LINE
  5
47A
330
17
100
AcDbEntity
  8
TITULOS
100
AcDbLine
 10
1.1
 20
-19.665
 30
0.0
 11
2.4
 21
-19.665
 31
0.0
  0
TEXT
  5
47B
330
17
100
AcDbEntity
  8
TEXTOS
100
AcDbText
 10
1.75
 20
-19.705
 30
0.0
 40
0.029700000000000008
  1
ESC. 1/10 - del alero a la cuneta
  7
STANDARD
 72
1
 11
1.75
 21
-19.705
 31
0.0
100
AcDbText
 73
2
  0
TEXT
  5
47C
330
17
100
AcDbEntity
  8
TITULOS
100
AcDbText
 10
4.7
 20
-16.7
 30
0.0
 40
0.04050000000000001
  1
NOTAS
  7
TITULOS
 11
4.7
 21
-16.7
 31
0.0
100
AcDbText
  0
LINE
  5
47D
330
17
100
AcDbEntity
  8
TITULOS
100
AcDbLine
 10
4.7
 20
-16.72
 30
0.0
 11
4.95
 21
-16.72
 31
0.0
  0
TEXT
  5
47E
330
17
100
AcDbEntity
  8
TEXTOS-NOTAS
100
AcDbText
 10
4.7
 20
-16.77
 30
0.0
 40
0.023400000000000004
  1
1. Montante de tuberia PVC-U para desague 4" (NTP 399.003), uniones con cemento solvente; 3 codos de 90° por montante (metrado).
  7
STANDARD
 11
4.7
 21
-16.77
 31
0.0
100
AcDbText
  0
TEXT
  5
47F
330
17
100
AcDbEntity
  8
TEXTOS-NOTAS
100
AcDbText
 10
4.7
 20
-16.812
 30
0.0
 40
0.023400000000000004
  1
2. La longitud de cada montante es la de la hoja METRADO MONTANTES (6.16 a 11.00 m segun edificacion); el corte I es tipico.
  7
STANDARD
 11
4.7
 21
-16.812
 31
0.0
100
AcDbText
  0
TEXT
  5
480
330
17
100
AcDbEntity
  8
TEXTOS-NOTAS
100
AcDbText
 10
4.7
 20
-16.854
 30
0.0
 40
0.023400000000000004
  1
3. Abrazaderas @1.50 m como maximo; colgadores junto a cada codo del desvio (2 por montante en edificaciones).
  7
STANDARD
 11
4.7
 21
-16.854
 31
0.0
100
AcDbText
  0
TEXT
  5
481
330
17
100
AcDbEntity
  8
TEXTOS-NOTAS
100
AcDbText
 10
4.7
 20
-16.896
 30
0.0
 40
0.023400000000000004
  1
4. La falsa columna protege el tramo inferior del montante; el codo de salida queda dentro del dado.
  7
STANDARD
 11
4.7
 21
-16.896
 31
0.0
100
AcDbText
  0
TEXT
  5
482
330
17
100
AcDbEntity
  8
TEXTOS-NOTAS
100
AcDbText
 10
4.7
 20
-16.938
 30
0.0
 40
0.023400000000000004
  1
5. Altura del alero, vuelo y cobertura segun planos de arquitectura y estructuras de cada edificacion.
  7
STANDARD
 11
4.7
 21
-16.938
 31
0.0
100
AcDbText
  0
VIEWPORT
  5
489
330
485
100
AcDbEntity
 67
1
  8
VIEWPORTS
100
AcDbViewport
 10
420.5
 20
297.0
 30
0.0
 40
925.1
 41
653.4000000000001
 68
1
 69
1
 12
420.5
 22
297.0
 13
0.0
 23
0.0
 14
10.0
 24
10.0
 15
10.0
 25
10.0
 16
0.0
 26
0.0
 36
1.0
 17
0.0
 27
0.0
 37
0.0
 42
50.0
 43
0.0
 44
0.0
 45
653.4000000000001
 50
0.0
 51
0.0
 72
100
 90
557088
  1

281
0
 71
0
 74
0
110
0.0
120
0.0
130
0.0
111
1.0
121
0.0
131
0.0
112
0.0
122
1.0
132
0.0
 79
0
146
0.0
282
0
  0
VIEWPORT
  5
48A
330
485
100
AcDbEntity
 67
1
  8
MARCO
100
AcDbViewport
 10
420.5
 20
297.0
 30
0.0
 40
841.0
 41
594.0
 68
2
 69
3
 12
2.1025
 22
1.485
 13
0.0
 23
0.0
 14
10.0
 24
10.0
 15
10.0
 25
10.0
 16
0.0
 26
0.0
 36
1.0
 17
0.0
 27
0.0
 37
0.0
 42
50.0
 43
0.0
 44
0.0
 45
2.97
 50
0.0
 51
0.0
 72
100
 90
16384
  1

281
0
 71
0
 74
0
110
0.0
120
0.0
130
0.0
111
1.0
121
0.0
131
0.0
112
0.0
122
1.0
132
0.0
 79
0
146
0.0
282
0
  0
ENDSEC
  0
SECTION
  2
OBJECTS
  0
DICTIONARY
  5
A
330
0
100
AcDbDictionary
281
1
  3
ACAD_COLOR
350
B
  3
ACAD_GROUP
350
C
  3
ACAD_LAYOUT
350
D
  3
ACAD_MATERIAL
350
E
  3
ACAD_MLEADERSTYLE
350
F
  3
ACAD_MLINESTYLE
350
10
  3
ACAD_PLOTSETTINGS
350
11
  3
ACAD_PLOTSTYLENAME
350
12
  3
ACAD_SCALELIST
350
14
  3
ACAD_TABLESTYLE
350
15
  3
ACAD_VISUALSTYLE
350
16
  3
EZDXF_META
350
2D
  0
DICTIONARY
  5
B
330
A
100
AcDbDictionary
281
1
  0
DICTIONARY
  5
C
330
A
100
AcDbDictionary
281
1
  0
DICTIONARY
  5
D
330
A
100
AcDbDictionary
281
1
  3
Model
350
1A
  3
DR-01
350
488
  3
DR-02
350
48E
  0
DICTIONARY
  5
E
330
A
100
AcDbDictionary
281
1
  3
ByBlock
350
1F
  3
ByLayer
350
20
  3
Global
350
21
  0
DICTIONARY
  5
F
330
A
100
AcDbDictionary
281
1
  3
Standard
350
2C
  0
DICTIONARY
  5
10
330
A
100
AcDbDictionary
281
1
  3
Standard
350
22
  0
DICTIONARY
  5
11
330
A
100
AcDbDictionary
281
1
  0
ACDBDICTIONARYWDFLT
  5
12
330
A
100
AcDbDictionary
281
1
  3
Normal
350
13
100
AcDbDictionaryWithDefault
340
13
  0
ACDBPLACEHOLDER
  5
13
330
12
  0
DICTIONARY
  5
14
330
A
100
AcDbDictionary
281
1
  0
DICTIONARY
  5
15
330
A
100
AcDbDictionary
281
1
  0
DICTIONARY
  5
16
330
A
100
AcDbDictionary
281
1
  0
LAYOUT
  5
1A
330
D
100
AcDbPlotSettings
  1

  2
DWG To PDF.pc3
  4
ISO_full_bleed_A1_(841.00_x_594.00_MM)
  6

 40
0.0
 41
0.0
 42
0.0
 43
0.0
 44
841.0
 45
594.0
 46
0.0
 47
0.0
 48
0.0
 49
0.0
140
0.0
141
0.0
142
1.0
143
1.0
 70
1024
 72
1
 73
0
 74
5
  7

 75
16
 76
0
 77
2
 78
300
147
1.0
148
0.0
149
0.0
100
AcDbLayout
  1
Model
 70
1
 71
0
 10
0.0
 20
0.0
 11
420.0
 21
297.0
 12
0.0
 22
0.0
 32
0.0
 14
1e+20
 24
1e+20
 34
1e+20
 15
-1e+20
 25
-1e+20
 35
-1e+20
146
0.0
 13
0.0
 23
0.0
 33
0.0
 16
1.0
 26
0.0
 36
0.0
 17
0.0
 27
1.0
 37
0.0
 76
1
330
17
  0
MATERIAL
  5
1F
102
{ACAD_REACTORS
330
E
102
}
330
E
100
AcDbMaterial
  1
ByBlock
  2

 70
0
 40
1.0
 71
1
 41
1.0
 91
-1023410177
 42
1.0
 72
1
  3

 73
1
 74
1
 75
1
 44
0.5
 73
0
 45
1.0
 46
1.0
 77
1
  4

 78
1
 79
1
170
1
 48
1.0
171
1
  6

172
1
173
1
174
1
140
1.0
141
1.0
175
1
  7

176
1
177
1
178
1
143
1.0
179
1
  8

270
1
271
1
272
1
145
1.0
146
1.0
273
1
  9

274
1
275
1
276
1
 42
1.0
 72
1
  3

 73
1
 74
1
 75
1
 94
63
  0
MATERIAL
  5
20
102
{ACAD_REACTORS
330
E
102
}
330
E
100
AcDbMaterial
  1
ByLayer
  2

 70
0
 40
1.0
 71
1
 41
1.0
 91
-1023410177
 42
1.0
 72
1
  3

 73
1
 74
1
 75
1
 44
0.5
 73
0
 45
1.0
 46
1.0
 77
1
  4

 78
1
 79
1
170
1
 48
1.0
171
1
  6

172
1
173
1
174
1
140
1.0
141
1.0
175
1
  7

176
1
177
1
178
1
143
1.0
179
1
  8

270
1
271
1
272
1
145
1.0
146
1.0
273
1
  9

274
1
275
1
276
1
 42
1.0
 72
1
  3

 73
1
 74
1
 75
1
 94
63
  0
MATERIAL
  5
21
102
{ACAD_REACTORS
330
E
102
}
330
E
100
AcDbMaterial
  1
Global
  2

 70
0
 40
1.0
 71
1
 41
1.0
 91
-1023410177
 42
1.0
 72
1
  3

 73
1
 74
1
 75
1
 44
0.5
 73
0
 45
1.0
 46
1.0
 77
1
  4

 78
1
 79
1
170
1
 48
1.0
171
1
  6

172
1
173
1
174
1
140
1.0
141
1.0
175
1
  7

176
1
177
1
178
1
143
1.0
179
1
  8

270
1
271
1
272
1
145
1.0
146
1.0
273
1
  9

274
1
275
1
276
1
 42
1.0
 72
1
  3

 73
1
 74
1
 75
1
 94
63
  0
MLINESTYLE
  5
22
102
{ACAD_REACTORS
330
10
102
}
330
10
100
AcDbMlineStyle
  2
Standard
 70
0
  3

 62
256
 51
90.0
 52
90.0
 71
2
 49
0.5
 62
256
  6
BYLAYER
 49
-0.5
 62
256
  6
BYLAYER
  0
MLEADERSTYLE
  5
2C
102
{ACAD_REACTORS
330
F
102
}
330
F
100
AcDbMLeaderStyle
179
2
170
2
171
1
172
0
 90
2
 40
0.0
 41
0.0
173
1
 91
-1056964608
 92
-2
290
1
 42
2.0
291
1
 43
8.0
  3
Standard
 44
4.0
300

342
29
174
1
175
1
176
0
178
1
 93
-1056964608
 45
4.0
292
0
297
0
 46
4.0
 94
-1056964608
 47
1.0
 49
1.0
140
1.0
294
1
141
0.0
177
0
142
1.0
295
0
296
0
143
3.75
271
0
272
9
273
9
  0
DICTIONARY
  5
2D
330
A
100
AcDbDictionary
280
1
281
1
  3
CREATED_BY_EZDXF
350
2E
  3
WRITTEN_BY_EZDXF
350
493
  0
DICTIONARYVAR
  5
2E
330
2D
100
DictionaryVariables
280
0
  1
1.4.4 @ 2026-10-09T16:06:31.696469+00:00
  0
DICTIONARY
  5
483
330
17
100
AcDbDictionary
280
1
281
1
  3
ACAD_SORTENTS
350
484
  0
SORTENTSTABLE
  5
484
330
483
100
AcDbSortentsTable
330
17
331
E6
  5
-1
331
EC
  5
-1
331
148
  5
-1
331
14C
  5
-1
331
150
  5
-1
331
154
  5
-1
331
159
  5
-1
331
15D
  5
-1
331
161
  5
-1
331
165
  5
-1
331
16B
  5
-1
331
1E7
  5
-1
331
227
  5
-1
331
22B
  5
-1
331
22F
  5
-1
331
26D
  5
-1
331
271
  5
-1
331
275
  5
-1
331
279
  5
-1
331
2AB
  5
-1
331
2D4
  5
-1
331
2D8
  5
-1
331
2DE
  5
-1
331
2F7
  5
-1
331
2FB
  5
-1
331
300
  5
-1
331
305
  5
-1
331
31C
  5
-1
331
320
  5
-1
331
324
  5
-1
331
38E
  5
-1
331
3CB
  5
-1
331
3DE
  5
-1
331
3EF
  5
-1
331
3F1
  5
-1
331
459
  5
-1
331
45D
  5
-1
331
461
  5
-1
331
465
  5
-1
331
469
  5
-1
331
46D
  5
-1
331
472
  5
-1
331
477
  5
-1
  0
LAYOUT
  5
488
330
D
100
AcDbPlotSettings
  1

  2
DWG To PDF.pc3
  4
ISO_full_bleed_A1_(841.00_x_594.00_MM)
  6

 40
0.0
 41
0.0
 42
0.0
 43
0.0
 44
841.0
 45
594.0
 46
0.0
 47
0.0
 48
0.0
 49
0.0
140
0.0
141
0.0
142
1.0
143
1.0
 70
672
 72
1
 73
0
 74
5
  7

 75
16
 76
0
 77
2
 78
300
147
1.0
148
0.0
149
0.0
100
AcDbLayout
  1
DR-01
 70
1
 71
3
 10
-0.0
 20
-0.0
 11
841.0
 21
594.0
 12
0.0
 22
0.0
 32
0.0
 14
1e+20
 24
1e+20
 34
1e+20
 15
-1e+20
 25
-1e+20
 35
-1e+20
146
0.0
 13
0.0
 23
0.0
 33
0.0
 16
1.0
 26
0.0
 36
0.0
 17
0.0
 27
1.0
 37
0.0
 76
1
330
485
331
489
  0
LAYOUT
  5
48E
330
D
100
AcDbPlotSettings
  1

  2
DWG To PDF.pc3
  4
ISO_full_bleed_A1_(841.00_x_594.00_MM)
  6

 40
0.0
 41
0.0
 42
0.0
 43
0.0
 44
841.0
 45
594.0
 46
0.0
 47
0.0
 48
0.0
 49
0.0
140
0.0
141
0.0
142
1.0
143
1.0
 70
672
 72
1
 73
0
 74
5
  7

 75
16
 76
0
 77
2
 78
300
147
1.0
148
0.0
149
0.0
100
AcDbLayout
  1
DR-02
 70
1
 71
4
 10
-0.0
 20
-0.0
 11
841.0
 21
594.0
 12
0.0
 22
0.0
 32
0.0
 14
1e+20
 24
1e+20
 34
1e+20
 15
-1e+20
 25
-1e+20
 35
-1e+20
146
0.0
 13
0.0
 23
0.0
 33
0.0
 16
1.0
 26
0.0
 36
0.0
 17
0.0
 27
1.0
 37
0.0
 76
1
330
48B
331
48F
  0
DICTIONARYVAR
  5
493
330
2D
100
DictionaryVariables
280
0
  1
1.4.4 @ 2026-10-09T16:06:32.456752+00:00
  0
ENDSEC
  0
EOF
